<?xml version="1.0" encoding="UTF-8" standalone="no"?><svg xmlns="http://www.w3.org/2000/svg" xmlns:xlink="http://www.w3.org/1999/xlink" clip-rule="evenodd" stroke-miterlimit="4.00" viewBox="0 0 1024 768"><desc>SVG generated by Keynote</desc><defs></defs><g transform="matrix(1.00, 0.00, -0.00, -1.00, 0.0, 768.0)"><path d="M 0.0 768.0 L 1024.0 768.0 L 1024.0 0.0 L 0.0 0.0 Z M 0.0 768.0 " fill="#FEFFFE"></path><path d="M 0.0 0.0 L 934.5 0.0 " fill="none" stroke="#9A9A9A" stroke-width="1.00" transform="matrix(1.00, 0.00, 0.00, -1.00, 45.0, 613.0)"></path><text xml:space="preserve" font-family="HelveticaNeue-Light" font-size="42.0" fill="#000000" transform="matrix(1.00, 0.00, -0.00, -1.00, 49.0, 645.0)">S</text><text xml:space="preserve" font-family="HelveticaNeue-Light" font-size="42.0" fill="#000000" transform="matrix(1.00, 0.00, -0.00, -1.00, 75.5, 645.0)">c</text><text xml:space="preserve" font-family="HelveticaNeue-Light" font-size="42.0" fill="#000000" transform="matrix(1.00, 0.00, -0.00, -1.00, 97.3, 645.0)">h</text><text xml:space="preserve" font-family="HelveticaNeue-Light" font-size="42.0" fill="#000000" transform="matrix(1.00, 0.00, -0.00, -1.00, 119.8, 645.0)">e</text><text xml:space="preserve" font-family="HelveticaNeue-Light" font-size="42.0" fill="#000000" transform="matrix(1.00, 0.00, -0.00, -1.00, 141.6, 645.0)">m</text><text xml:space="preserve" font-family="HelveticaNeue-Light" font-size="42.0" fill="#000000" transform="matrix(1.00, 0.00, -0.00, -1.00, 176.6, 645.0)">a</text><text xml:space="preserve" font-family="HelveticaNeue-Light" font-size="42.0" fill="#000000" transform="matrix(1.00, 0.00, -0.00, -1.00, 198.4, 645.0)"> </text><text xml:space="preserve" font-family="HelveticaNeue-Light" font-size="42.0" fill="#000000" transform="matrix(1.00, 0.00, -0.00, -1.00, 210.1, 645.0)">R</text><text xml:space="preserve" font-family="HelveticaNeue-Light" font-size="42.0" fill="#000000" transform="matrix(1.00, 0.00, -0.00, -1.00, 238.1, 645.0)">e</text><text xml:space="preserve" font-family="HelveticaNeue-Light" font-size="42.0" fill="#000000" transform="matrix(1.00, 0.00, -0.00, -1.00, 259.9, 645.0)">p</text><text xml:space="preserve" font-family="HelveticaNeue-Light" font-size="42.0" fill="#000000" transform="matrix(1.00, 0.00, -0.00, -1.00, 284.0, 645.0)">r</text><text xml:space="preserve" font-family="HelveticaNeue-Light" font-size="42.0" fill="#000000" transform="matrix(1.00, 0.00, -0.00, -1.00, 296.5, 645.0)">e</text><text xml:space="preserve" font-family="HelveticaNeue-Light" font-size="42.0" fill="#000000" transform="matrix(1.00, 0.00, -0.00, -1.00, 318.3, 645.0)">s</text><text xml:space="preserve" font-family="HelveticaNeue-Light" font-size="42.0" fill="#000000" transform="matrix(1.00, 0.00, -0.00, -1.00, 338.5, 645.0)">e</text><text xml:space="preserve" font-family="HelveticaNeue-Light" font-size="42.0" fill="#000000" transform="matrix(1.00, 0.00, -0.00, -1.00, 360.3, 645.0)">n</text><text xml:space="preserve" font-family="HelveticaNeue-Light" font-size="42.0" fill="#000000" transform="matrix(1.00, 0.00, -0.00, -1.00, 382.8, 645.0)">t</text><text xml:space="preserve" font-family="HelveticaNeue-Light" font-size="42.0" fill="#000000" transform="matrix(1.00, 0.00, -0.00, -1.00, 395.2, 645.0)">a</text><text xml:space="preserve" font-family="HelveticaNeue-Light" font-size="42.0" fill="#000000" transform="matrix(1.00, 0.00, -0.00, -1.00, 417.0, 645.0)">t</text><text xml:space="preserve" font-family="HelveticaNeue-Light" font-size="42.0" fill="#000000" transform="matrix(1.00, 0.00, -0.00, -1.00, 429.5, 645.0)">i</text><text xml:space="preserve" font-family="HelveticaNeue-Light" font-size="42.0" fill="#000000" transform="matrix(1.00, 0.00, -0.00, -1.00, 437.2, 645.0)">o</text><text xml:space="preserve" font-family="HelveticaNeue-Light" font-size="42.0" fill="#000000" transform="matrix(1.00, 0.00, -0.00, -1.00, 460.6, 645.0)">n</text><text xml:space="preserve" font-family="HelveticaNeue-Light" font-size="42.0" fill="#000000" transform="matrix(1.00, 0.00, -0.00, -1.00, 483.2, 645.0)"> </text><text xml:space="preserve" font-family="HelveticaNeue-Light" font-size="42.0" fill="#000000" transform="matrix(1.00, 0.00, -0.00, -1.00, 494.8, 645.0)">C</text><text xml:space="preserve" font-family="HelveticaNeue-Light" font-size="42.0" fill="#000000" transform="matrix(1.00, 0.00, -0.00, -1.00, 524.4, 645.0)">o</text><text xml:space="preserve" font-family="HelveticaNeue-Light" font-size="42.0" fill="#000000" transform="matrix(1.00, 0.00, -0.00, -1.00, 547.8, 645.0)">n</text><text xml:space="preserve" font-family="HelveticaNeue-Light" font-size="42.0" fill="#000000" transform="matrix(1.00, 0.00, -0.00, -1.00, 570.3, 645.0)">v</text><text xml:space="preserve" font-family="HelveticaNeue-Light" font-size="42.0" fill="#000000" transform="matrix(1.00, 0.00, -0.00, -1.00, 589.8, 645.0)">e</text><text xml:space="preserve" font-family="HelveticaNeue-Light" font-size="42.0" fill="#000000" transform="matrix(1.00, 0.00, -0.00, -1.00, 611.5, 645.0)">r</text><text xml:space="preserve" font-family="HelveticaNeue-Light" font-size="42.0" fill="#000000" transform="matrix(1.00, 0.00, -0.00, -1.00, 624.8, 645.0)">s</text><text xml:space="preserve" font-family="HelveticaNeue-Light" font-size="42.0" fill="#000000" transform="matrix(1.00, 0.00, -0.00, -1.00, 645.0, 645.0)">i</text><text xml:space="preserve" font-family="HelveticaNeue-Light" font-size="42.0" fill="#000000" transform="matrix(1.00, 0.00, -0.00, -1.00, 652.8, 645.0)">o</text><text xml:space="preserve" font-family="HelveticaNeue-Light" font-size="42.0" fill="#000000" transform="matrix(1.00, 0.00, -0.00, -1.00, 676.1, 645.0)">n</text><text xml:space="preserve" font-family="HelveticaNeue-Light" font-size="42.0" fill="#000000" transform="matrix(1.00, 0.00, -0.00, -1.00, 698.7, 645.0)">s</text><text xml:space="preserve" font-family="HelveticaNeue" font-size="27.0" fill="#747373" transform="matrix(1.00, 0.00, -0.00, -1.00, 49.0, 557.2)">•</text><text xml:space="preserve" font-family="HelveticaNeue-Light" font-size="36.0" fill="#747373" transform="matrix(1.00, 0.00, -0.00, -1.00, 85.0, 554.0)">S</text><text xml:space="preserve" font-family="HelveticaNeue-Light" font-size="36.0" fill="#747373" transform="matrix(1.00, 0.00, -0.00, -1.00, 107.7, 554.0)">e</text><text xml:space="preserve" font-family="HelveticaNeue-Light" font-size="36.0" fill="#747373" transform="matrix(1.00, 0.00, -0.00, -1.00, 126.4, 554.0)">e</text><text xml:space="preserve" font-family="HelveticaNeue-Light" font-size="36.0" fill="#747373" transform="matrix(1.00, 0.00, -0.00, -1.00, 145.0, 554.0)"> </text><text xml:space="preserve" font-family="HelveticaNeue-Light" font-size="36.0" fill="#747373" transform="matrix(1.00, 0.00, -0.00, -1.00, 155.1, 554.0)">h</text><text xml:space="preserve" font-family="HelveticaNeue-Light" font-size="36.0" fill="#747373" transform="matrix(1.00, 0.00, -0.00, -1.00, 174.4, 554.0)">t</text><text xml:space="preserve" font-family="HelveticaNeue-Light" font-size="36.0" fill="#747373" transform="matrix(1.00, 0.00, -0.00, -1.00, 185.0, 554.0)">t</text><text xml:space="preserve" font-family="HelveticaNeue-Light" font-size="36.0" fill="#747373" transform="matrix(1.00, 0.00, -0.00, -1.00, 195.7, 554.0)">p</text><text xml:space="preserve" font-family="HelveticaNeue-Light" font-size="36.0" fill="#747373" transform="matrix(1.00, 0.00, -0.00, -1.00, 216.4, 554.0)">s</text><text xml:space="preserve" font-family="HelveticaNeue-Light" font-size="36.0" fill="#747373" transform="matrix(1.00, 0.00, -0.00, -1.00, 233.7, 554.0)">:</text><text xml:space="preserve" font-family="HelveticaNeue-Light" font-size="36.0" fill="#747373" transform="matrix(1.00, 0.00, -0.00, -1.00, 243.7, 554.0)">/</text><text xml:space="preserve" font-family="HelveticaNeue-Light" font-size="36.0" fill="#747373" transform="matrix(1.00, 0.00, -0.00, -1.00, 255.7, 554.0)">/</text><text xml:space="preserve" font-family="HelveticaNeue-Light" font-size="36.0" fill="#747373" transform="matrix(1.00, 0.00, -0.00, -1.00, 267.7, 554.0)">g</text><text xml:space="preserve" font-family="HelveticaNeue-Light" font-size="36.0" fill="#747373" transform="matrix(1.00, 0.00, -0.00, -1.00, 287.7, 554.0)">i</text><text xml:space="preserve" font-family="HelveticaNeue-Light" font-size="36.0" fill="#747373" transform="matrix(1.00, 0.00, -0.00, -1.00, 294.3, 554.0)">t</text><text xml:space="preserve" font-family="HelveticaNeue-Light" font-size="36.0" fill="#747373" transform="matrix(1.00, 0.00, -0.00, -1.00, 305.0, 554.0)">h</text><text xml:space="preserve" font-family="HelveticaNeue-Light" font-size="36.0" fill="#747373" transform="matrix(1.00, 0.00, -0.00, -1.00, 324.3, 554.0)">u</text><text xml:space="preserve" font-family="HelveticaNeue-Light" font-size="36.0" fill="#747373" transform="matrix(1.00, 0.00, -0.00, -1.00, 343.7, 554.0)">b</text><text xml:space="preserve" font-family="HelveticaNeue-Light" font-size="36.0" fill="#747373" transform="matrix(1.00, 0.00, -0.00, -1.00, 364.3, 554.0)">.</text><text xml:space="preserve" font-family="HelveticaNeue-Light" font-size="36.0" fill="#747373" transform="matrix(1.00, 0.00, -0.00, -1.00, 374.3, 554.0)">k</text><text xml:space="preserve" font-family="HelveticaNeue-Light" font-size="36.0" fill="#747373" transform="matrix(1.00, 0.00, -0.00, -1.00, 392.3, 554.0)">d</text><text xml:space="preserve" font-family="HelveticaNeue-Light" font-size="36.0" fill="#747373" transform="matrix(1.00, 0.00, -0.00, -1.00, 413.0, 554.0)">c</text><text xml:space="preserve" font-family="HelveticaNeue-Light" font-size="36.0" fill="#747373" transform="matrix(1.00, 0.00, -0.00, -1.00, 431.7, 554.0)">.</text><text xml:space="preserve" font-family="HelveticaNeue-Light" font-size="36.0" fill="#747373" transform="matrix(1.00, 0.00, -0.00, -1.00, 441.7, 554.0)">c</text><text xml:space="preserve" font-family="HelveticaNeue-Light" font-size="36.0" fill="#747373" transform="matrix(1.00, 0.00, -0.00, -1.00, 460.4, 554.0)">a</text><text xml:space="preserve" font-family="HelveticaNeue-Light" font-size="36.0" fill="#747373" transform="matrix(1.00, 0.00, -0.00, -1.00, 479.1, 554.0)">p</text><text xml:space="preserve" font-family="HelveticaNeue-Light" font-size="36.0" fill="#747373" transform="matrix(1.00, 0.00, -0.00, -1.00, 499.7, 554.0)">i</text><text xml:space="preserve" font-family="HelveticaNeue-Light" font-size="36.0" fill="#747373" transform="matrix(1.00, 0.00, -0.00, -1.00, 506.4, 554.0)">t</text><text xml:space="preserve" font-family="HelveticaNeue-Light" font-size="36.0" fill="#747373" transform="matrix(1.00, 0.00, -0.00, -1.00, 517.0, 554.0)">a</text><text xml:space="preserve" font-family="HelveticaNeue-Light" font-size="36.0" fill="#747373" transform="matrix(1.00, 0.00, -0.00, -1.00, 535.7, 554.0)">l</text><text xml:space="preserve" font-family="HelveticaNeue-Light" font-size="36.0" fill="#747373" transform="matrix(1.00, 0.00, -0.00, -1.00, 542.4, 554.0)">o</text><text xml:space="preserve" font-family="HelveticaNeue-Light" font-size="36.0" fill="#747373" transform="matrix(1.00, 0.00, -0.00, -1.00, 562.4, 554.0)">n</text><text xml:space="preserve" font-family="HelveticaNeue-Light" font-size="36.0" fill="#747373" transform="matrix(1.00, 0.00, -0.00, -1.00, 581.7, 554.0)">e</text><text xml:space="preserve" font-family="HelveticaNeue-Light" font-size="36.0" fill="#747373" transform="matrix(1.00, 0.00, -0.00, -1.00, 600.4, 554.0)">.</text><text xml:space="preserve" font-family="HelveticaNeue-Light" font-size="36.0" fill="#747373" transform="matrix(1.00, 0.00, -0.00, -1.00, 610.4, 554.0)">c</text><text xml:space="preserve" font-family="HelveticaNeue-Light" font-size="36.0" fill="#747373" transform="matrix(1.00, 0.00, -0.00, -1.00, 629.1, 554.0)">o</text><text xml:space="preserve" font-family="HelveticaNeue-Light" font-size="36.0" fill="#747373" transform="matrix(1.00, 0.00, -0.00, -1.00, 649.1, 554.0)">m</text><text xml:space="preserve" font-family="HelveticaNeue-Light" font-size="36.0" fill="#747373" transform="matrix(1.00, 0.00, -0.00, -1.00, 679.1, 554.0)">/</text><text xml:space="preserve" font-family="HelveticaNeue-Light" font-size="36.0" fill="#747373" transform="matrix(1.00, 0.00, -0.00, -1.00, 691.1, 554.0)">N</text><text xml:space="preserve" font-family="HelveticaNeue-Light" font-size="36.0" fill="#747373" transform="matrix(1.00, 0.00, -0.00, -1.00, 716.4, 554.0)">O</text><text xml:space="preserve" font-family="HelveticaNeue-Light" font-size="36.0" fill="#747373" transform="matrix(1.00, 0.00, -0.00, -1.00, 743.1, 554.0)">S</text><text xml:space="preserve" font-family="HelveticaNeue-Light" font-size="36.0" fill="#747373" transform="matrix(1.00, 0.00, -0.00, -1.00, 765.8, 554.0)">Q</text><text xml:space="preserve" font-family="HelveticaNeue-Light" font-size="36.0" fill="#747373" transform="matrix(1.00, 0.00, -0.00, -1.00, 792.5, 554.0)">L</text><text xml:space="preserve" font-family="HelveticaNeue-Light" font-size="36.0" fill="#747373" transform="matrix(1.00, 0.00, -0.00, -1.00, 811.8, 554.0)">/</text><text xml:space="preserve" font-family="HelveticaNeue-Light" font-size="36.0" fill="#747373" transform="matrix(1.00, 0.00, -0.00, -1.00, 85.0, 510.0)">c</text><text xml:space="preserve" font-family="HelveticaNeue-Light" font-size="36.0" fill="#747373" transform="matrix(1.00, 0.00, -0.00, -1.00, 103.7, 510.0)">h</text><text xml:space="preserve" font-family="HelveticaNeue-Light" font-size="36.0" fill="#747373" transform="matrix(1.00, 0.00, -0.00, -1.00, 123.0, 510.0)">r</text><text xml:space="preserve" font-family="HelveticaNeue-Light" font-size="36.0" fill="#747373" transform="matrix(1.00, 0.00, -0.00, -1.00, 133.7, 510.0)">o</text><text xml:space="preserve" font-family="HelveticaNeue-Light" font-size="36.0" fill="#747373" transform="matrix(1.00, 0.00, -0.00, -1.00, 153.7, 510.0)">m</text><text xml:space="preserve" font-family="HelveticaNeue-Light" font-size="36.0" fill="#747373" transform="matrix(1.00, 0.00, -0.00, -1.00, 183.7, 510.0)">o</text><text xml:space="preserve" font-family="HelveticaNeue-Light" font-size="36.0" fill="#747373" transform="matrix(1.00, 0.00, -0.00, -1.00, 203.7, 510.0)">b</text><text xml:space="preserve" font-family="HelveticaNeue-Light" font-size="36.0" fill="#747373" transform="matrix(1.00, 0.00, -0.00, -1.00, 224.4, 510.0)">o</text><text xml:space="preserve" font-family="HelveticaNeue-Light" font-size="36.0" fill="#747373" transform="matrix(1.00, 0.00, -0.00, -1.00, 244.4, 510.0)">t</text><text xml:space="preserve" font-family="HelveticaNeue-Light" font-size="36.0" fill="#747373" transform="matrix(1.00, 0.00, -0.00, -1.00, 255.1, 510.0)">i</text><text xml:space="preserve" font-family="HelveticaNeue-Light" font-size="36.0" fill="#747373" transform="matrix(1.00, 0.00, -0.00, -1.00, 261.7, 510.0)">a</text><text xml:space="preserve" font-family="HelveticaNeue-Light" font-size="36.0" fill="#747373" transform="matrix(1.00, 0.00, -0.00, -1.00, 280.4, 510.0)"> </text><text xml:space="preserve" font-family="HelveticaNeue" font-size="27.0" fill="#747373" transform="matrix(1.00, 0.00, -0.00, -1.00, 49.0, 427.2)">•</text><text xml:space="preserve" font-family="HelveticaNeue-Light" font-size="36.0" fill="#747373" transform="matrix(1.00, 0.00, -0.00, -1.00, 85.0, 424.0)">T</text><text xml:space="preserve" font-family="HelveticaNeue-Light" font-size="36.0" fill="#747373" transform="matrix(1.00, 0.00, -0.00, -1.00, 105.0, 424.0)">h</text><text xml:space="preserve" font-family="HelveticaNeue-Light" font-size="36.0" fill="#747373" transform="matrix(1.00, 0.00, -0.00, -1.00, 124.3, 424.0)">i</text><text xml:space="preserve" font-family="HelveticaNeue-Light" font-size="36.0" fill="#747373" transform="matrix(1.00, 0.00, -0.00, -1.00, 131.0, 424.0)">s</text><text xml:space="preserve" font-family="HelveticaNeue-Light" font-size="36.0" fill="#747373" transform="matrix(1.00, 0.00, -0.00, -1.00, 148.3, 424.0)"> </text><text xml:space="preserve" font-family="HelveticaNeue-Light" font-size="36.0" fill="#747373" transform="matrix(1.00, 0.00, -0.00, -1.00, 158.3, 424.0)">h</text><text xml:space="preserve" font-family="HelveticaNeue-Light" font-size="36.0" fill="#747373" transform="matrix(1.00, 0.00, -0.00, -1.00, 177.7, 424.0)">a</text><text xml:space="preserve" font-family="HelveticaNeue-Light" font-size="36.0" fill="#747373" transform="matrix(1.00, 0.00, -0.00, -1.00, 196.3, 424.0)">s</text><text xml:space="preserve" font-family="HelveticaNeue-Light" font-size="36.0" fill="#747373" transform="matrix(1.00, 0.00, -0.00, -1.00, 213.7, 424.0)"> </text><text xml:space="preserve" font-family="HelveticaNeue-Light" font-size="36.0" fill="#747373" transform="matrix(1.00, 0.00, -0.00, -1.00, 223.7, 424.0)">t</text><text xml:space="preserve" font-family="HelveticaNeue-Light" font-size="36.0" fill="#747373" transform="matrix(1.00, 0.00, -0.00, -1.00, 234.3, 424.0)">o</text><text xml:space="preserve" font-family="HelveticaNeue-Light" font-size="36.0" fill="#747373" transform="matrix(1.00, 0.00, -0.00, -1.00, 254.3, 424.0)">o</text><text xml:space="preserve" font-family="HelveticaNeue-Light" font-size="36.0" fill="#747373" transform="matrix(1.00, 0.00, -0.00, -1.00, 274.4, 424.0)">l</text><text xml:space="preserve" font-family="HelveticaNeue-Light" font-size="36.0" fill="#747373" transform="matrix(1.00, 0.00, -0.00, -1.00, 281.0, 424.0)">s</text><text xml:space="preserve" font-family="HelveticaNeue-Light" font-size="36.0" fill="#747373" transform="matrix(1.00, 0.00, -0.00, -1.00, 298.3, 424.0)"> </text><text xml:space="preserve" font-family="HelveticaNeue-Light" font-size="36.0" fill="#747373" transform="matrix(1.00, 0.00, -0.00, -1.00, 308.3, 424.0)">t</text><text xml:space="preserve" font-family="HelveticaNeue-Light" font-size="36.0" fill="#747373" transform="matrix(1.00, 0.00, -0.00, -1.00, 319.0, 424.0)">o</text><text xml:space="preserve" font-family="HelveticaNeue-Light" font-size="36.0" fill="#747373" transform="matrix(1.00, 0.00, -0.00, -1.00, 339.0, 424.0)"> </text><text xml:space="preserve" font-family="HelveticaNeue-Light" font-size="36.0" fill="#747373" transform="matrix(1.00, 0.00, -0.00, -1.00, 349.0, 424.0)">c</text><text xml:space="preserve" font-family="HelveticaNeue-Light" font-size="36.0" fill="#747373" transform="matrix(1.00, 0.00, -0.00, -1.00, 367.7, 424.0)">o</text><text xml:space="preserve" font-family="HelveticaNeue-Light" font-size="36.0" fill="#747373" transform="matrix(1.00, 0.00, -0.00, -1.00, 387.7, 424.0)">n</text><text xml:space="preserve" font-family="HelveticaNeue-Light" font-size="36.0" fill="#747373" transform="matrix(1.00, 0.00, -0.00, -1.00, 407.1, 424.0)">v</text><text xml:space="preserve" font-family="HelveticaNeue-Light" font-size="36.0" fill="#747373" transform="matrix(1.00, 0.00, -0.00, -1.00, 423.7, 424.0)">e</text><text xml:space="preserve" font-family="HelveticaNeue-Light" font-size="36.0" fill="#747373" transform="matrix(1.00, 0.00, -0.00, -1.00, 442.4, 424.0)">r</text><text xml:space="preserve" font-family="HelveticaNeue-Light" font-size="36.0" fill="#747373" transform="matrix(1.00, 0.00, -0.00, -1.00, 453.7, 424.0)">t</text><text xml:space="preserve" font-family="HelveticaNeue-Light" font-size="36.0" fill="#747373" transform="matrix(1.00, 0.00, -0.00, -1.00, 464.4, 424.0)"> </text><text xml:space="preserve" font-family="HelveticaNeue-Light" font-size="36.0" fill="#747373" transform="matrix(1.00, 0.00, -0.00, -1.00, 474.4, 424.0)">f</text><text xml:space="preserve" font-family="HelveticaNeue-Light" font-size="36.0" fill="#747373" transform="matrix(1.00, 0.00, -0.00, -1.00, 483.7, 424.0)">r</text><text xml:space="preserve" font-family="HelveticaNeue-Light" font-size="36.0" fill="#747373" transform="matrix(1.00, 0.00, -0.00, -1.00, 494.4, 424.0)">o</text><text xml:space="preserve" font-family="HelveticaNeue-Light" font-size="36.0" fill="#747373" transform="matrix(1.00, 0.00, -0.00, -1.00, 514.4, 424.0)">m</text><text xml:space="preserve" font-family="HelveticaNeue-Light" font-size="36.0" fill="#747373" transform="matrix(1.00, 0.00, -0.00, -1.00, 544.4, 424.0)"> </text><text xml:space="preserve" font-family="HelveticaNeue-Light" font-size="36.0" fill="#747373" transform="matrix(1.00, 0.00, -0.00, -1.00, 554.4, 424.0)">J</text><text xml:space="preserve" font-family="HelveticaNeue-Light" font-size="36.0" fill="#747373" transform="matrix(1.00, 0.00, -0.00, -1.00, 572.4, 424.0)">a</text><text xml:space="preserve" font-family="HelveticaNeue-Light" font-size="36.0" fill="#747373" transform="matrix(1.00, 0.00, -0.00, -1.00, 591.1, 424.0)">v</text><text xml:space="preserve" font-family="HelveticaNeue-Light" font-size="36.0" fill="#747373" transform="matrix(1.00, 0.00, -0.00, -1.00, 607.8, 424.0)">a</text><text xml:space="preserve" font-family="HelveticaNeue-Light" font-size="36.0" fill="#747373" transform="matrix(1.00, 0.00, -0.00, -1.00, 626.5, 424.0)"> </text><text xml:space="preserve" font-family="HelveticaNeue-Light" font-size="36.0" fill="#747373" transform="matrix(1.00, 0.00, -0.00, -1.00, 636.5, 424.0)">c</text><text xml:space="preserve" font-family="HelveticaNeue-Light" font-size="36.0" fill="#747373" transform="matrix(1.00, 0.00, -0.00, -1.00, 655.2, 424.0)">l</text><text xml:space="preserve" font-family="HelveticaNeue-Light" font-size="36.0" fill="#747373" transform="matrix(1.00, 0.00, -0.00, -1.00, 661.8, 424.0)">a</text><text xml:space="preserve" font-family="HelveticaNeue-Light" font-size="36.0" fill="#747373" transform="matrix(1.00, 0.00, -0.00, -1.00, 680.5, 424.0)">s</text><text xml:space="preserve" font-family="HelveticaNeue-Light" font-size="36.0" fill="#747373" transform="matrix(1.00, 0.00, -0.00, -1.00, 697.8, 424.0)">s</text><text xml:space="preserve" font-family="HelveticaNeue-Light" font-size="36.0" fill="#747373" transform="matrix(1.00, 0.00, -0.00, -1.00, 715.1, 424.0)">e</text><text xml:space="preserve" font-family="HelveticaNeue-Light" font-size="36.0" fill="#747373" transform="matrix(1.00, 0.00, -0.00, -1.00, 733.8, 424.0)">s</text><text xml:space="preserve" font-family="HelveticaNeue-Light" font-size="36.0" fill="#747373" transform="matrix(1.00, 0.00, -0.00, -1.00, 751.1, 424.0)"> </text><text xml:space="preserve" font-family="HelveticaNeue-Light" font-size="36.0" fill="#747373" transform="matrix(1.00, 0.00, -0.00, -1.00, 761.2, 424.0)">t</text><text xml:space="preserve" font-family="HelveticaNeue-Light" font-size="36.0" fill="#747373" transform="matrix(1.00, 0.00, -0.00, -1.00, 771.8, 424.0)">o</text><text xml:space="preserve" font-family="HelveticaNeue-Light" font-size="36.0" fill="#747373" transform="matrix(1.00, 0.00, -0.00, -1.00, 791.8, 424.0)"> </text><text xml:space="preserve" font-family="HelveticaNeue-Light" font-size="36.0" fill="#747373" transform="matrix(1.00, 0.00, -0.00, -1.00, 801.8, 424.0)">J</text><text xml:space="preserve" font-family="HelveticaNeue-Light" font-size="36.0" fill="#747373" transform="matrix(1.00, 0.00, -0.00, -1.00, 819.8, 424.0)">S</text><text xml:space="preserve" font-family="HelveticaNeue-Light" font-size="36.0" fill="#747373" transform="matrix(1.00, 0.00, -0.00, -1.00, 842.5, 424.0)">O</text><text xml:space="preserve" font-family="HelveticaNeue-Light" font-size="36.0" fill="#747373" transform="matrix(1.00, 0.00, -0.00, -1.00, 869.2, 424.0)">N</text><text xml:space="preserve" font-family="HelveticaNeue-Light" font-size="36.0" fill="#747373" transform="matrix(1.00, 0.00, -0.00, -1.00, 894.5, 424.0)"> </text><text xml:space="preserve" font-family="HelveticaNeue-Light" font-size="36.0" fill="#747373" transform="matrix(1.00, 0.00, -0.00, -1.00, 85.0, 380.0)">S</text><text xml:space="preserve" font-family="HelveticaNeue-Light" font-size="36.0" fill="#747373" transform="matrix(1.00, 0.00, -0.00, -1.00, 107.7, 380.0)">c</text><text xml:space="preserve" font-family="HelveticaNeue-Light" font-size="36.0" fill="#747373" transform="matrix(1.00, 0.00, -0.00, -1.00, 126.4, 380.0)">h</text><text xml:space="preserve" font-family="HelveticaNeue-Light" font-size="36.0" fill="#747373" transform="matrix(1.00, 0.00, -0.00, -1.00, 145.7, 380.0)">e</text><text xml:space="preserve" font-family="HelveticaNeue-Light" font-size="36.0" fill="#747373" transform="matrix(1.00, 0.00, -0.00, -1.00, 164.4, 380.0)">m</text><text xml:space="preserve" font-family="HelveticaNeue-Light" font-size="36.0" fill="#747373" transform="matrix(1.00, 0.00, -0.00, -1.00, 194.4, 380.0)">a</text><text xml:space="preserve" font-family="HelveticaNeue-Light" font-size="36.0" fill="#747373" transform="matrix(1.00, 0.00, -0.00, -1.00, 213.1, 380.0)"> </text><text xml:space="preserve" font-family="HelveticaNeue" font-size="27.0" fill="#747373" transform="matrix(1.00, 0.00, -0.00, -1.00, 49.0, 297.2)">•</text><text xml:space="preserve" font-family="HelveticaNeue-Light" font-size="36.0" fill="#747373" transform="matrix(1.00, 0.00, -0.00, -1.00, 85.0, 294.0)">I</text><text xml:space="preserve" font-family="HelveticaNeue-Light" font-size="36.0" fill="#747373" transform="matrix(1.00, 0.00, -0.00, -1.00, 93.0, 294.0)">t</text><text xml:space="preserve" font-family="HelveticaNeue-Light" font-size="36.0" fill="#747373" transform="matrix(1.00, 0.00, -0.00, -1.00, 103.6, 294.0)">’</text><text xml:space="preserve" font-family="HelveticaNeue-Light" font-size="36.0" fill="#747373" transform="matrix(1.00, 0.00, -0.00, -1.00, 109.7, 294.0)">s</text><text xml:space="preserve" font-family="HelveticaNeue-Light" font-size="36.0" fill="#747373" transform="matrix(1.00, 0.00, -0.00, -1.00, 127.0, 294.0)"> </text><text xml:space="preserve" font-family="HelveticaNeue-Light" font-size="36.0" fill="#747373" transform="matrix(1.00, 0.00, -0.00, -1.00, 137.0, 294.0)">a</text><text xml:space="preserve" font-family="HelveticaNeue-Light" font-size="36.0" fill="#747373" transform="matrix(1.00, 0.00, -0.00, -1.00, 155.7, 294.0)">l</text><text xml:space="preserve" font-family="HelveticaNeue-Light" font-size="36.0" fill="#747373" transform="matrix(1.00, 0.00, -0.00, -1.00, 162.3, 294.0)">s</text><text xml:space="preserve" font-family="HelveticaNeue-Light" font-size="36.0" fill="#747373" transform="matrix(1.00, 0.00, -0.00, -1.00, 179.6, 294.0)">o</text><text xml:space="preserve" font-family="HelveticaNeue-Light" font-size="36.0" fill="#747373" transform="matrix(1.00, 0.00, -0.00, -1.00, 199.7, 294.0)"> </text><text xml:space="preserve" font-family="HelveticaNeue-Light" font-size="36.0" fill="#747373" transform="matrix(1.00, 0.00, -0.00, -1.00, 209.7, 294.0)">p</text><text xml:space="preserve" font-family="HelveticaNeue-Light" font-size="36.0" fill="#747373" transform="matrix(1.00, 0.00, -0.00, -1.00, 230.3, 294.0)">o</text><text xml:space="preserve" font-family="HelveticaNeue-Light" font-size="36.0" fill="#747373" transform="matrix(1.00, 0.00, -0.00, -1.00, 250.3, 294.0)">s</text><text xml:space="preserve" font-family="HelveticaNeue-Light" font-size="36.0" fill="#747373" transform="matrix(1.00, 0.00, -0.00, -1.00, 267.7, 294.0)">s</text><text xml:space="preserve" font-family="HelveticaNeue-Light" font-size="36.0" fill="#747373" transform="matrix(1.00, 0.00, -0.00, -1.00, 285.0, 294.0)">i</text><text xml:space="preserve" font-family="HelveticaNeue-Light" font-size="36.0" fill="#747373" transform="matrix(1.00, 0.00, -0.00, -1.00, 291.6, 294.0)">b</text><text xml:space="preserve" font-family="HelveticaNeue-Light" font-size="36.0" fill="#747373" transform="matrix(1.00, 0.00, -0.00, -1.00, 312.3, 294.0)">l</text><text xml:space="preserve" font-family="HelveticaNeue-Light" font-size="36.0" fill="#747373" transform="matrix(1.00, 0.00, -0.00, -1.00, 319.0, 294.0)">e</text><text xml:space="preserve" font-family="HelveticaNeue-Light" font-size="36.0" fill="#747373" transform="matrix(1.00, 0.00, -0.00, -1.00, 337.6, 294.0)"> </text><text xml:space="preserve" font-family="HelveticaNeue-Light" font-size="36.0" fill="#747373" transform="matrix(1.00, 0.00, -0.00, -1.00, 347.7, 294.0)">t</text><text xml:space="preserve" font-family="HelveticaNeue-Light" font-size="36.0" fill="#747373" transform="matrix(1.00, 0.00, -0.00, -1.00, 358.3, 294.0)">o</text><text xml:space="preserve" font-family="HelveticaNeue-Light" font-size="36.0" fill="#747373" transform="matrix(1.00, 0.00, -0.00, -1.00, 378.3, 294.0)"> </text><text xml:space="preserve" font-family="HelveticaNeue-Light" font-size="36.0" fill="#747373" transform="matrix(1.00, 0.00, -0.00, -1.00, 388.3, 294.0)">b</text><text xml:space="preserve" font-family="HelveticaNeue-Light" font-size="36.0" fill="#747373" transform="matrix(1.00, 0.00, -0.00, -1.00, 409.0, 294.0)">u</text><text xml:space="preserve" font-family="HelveticaNeue-Light" font-size="36.0" fill="#747373" transform="matrix(1.00, 0.00, -0.00, -1.00, 428.3, 294.0)">i</text><text xml:space="preserve" font-family="HelveticaNeue-Light" font-size="36.0" fill="#747373" transform="matrix(1.00, 0.00, -0.00, -1.00, 435.0, 294.0)">l</text><text xml:space="preserve" font-family="HelveticaNeue-Light" font-size="36.0" fill="#747373" transform="matrix(1.00, 0.00, -0.00, -1.00, 441.7, 294.0)">d</text><text xml:space="preserve" font-family="HelveticaNeue-Light" font-size="36.0" fill="#747373" transform="matrix(1.00, 0.00, -0.00, -1.00, 462.3, 294.0)"> </text><text xml:space="preserve" font-family="HelveticaNeue-Light" font-size="36.0" fill="#747373" transform="matrix(1.00, 0.00, -0.00, -1.00, 472.3, 294.0)">J</text><text xml:space="preserve" font-family="HelveticaNeue-Light" font-size="36.0" fill="#747373" transform="matrix(1.00, 0.00, -0.00, -1.00, 490.3, 294.0)">a</text><text xml:space="preserve" font-family="HelveticaNeue-Light" font-size="36.0" fill="#747373" transform="matrix(1.00, 0.00, -0.00, -1.00, 509.0, 294.0)">v</text><text xml:space="preserve" font-family="HelveticaNeue-Light" font-size="36.0" fill="#747373" transform="matrix(1.00, 0.00, -0.00, -1.00, 525.7, 294.0)">a</text><text xml:space="preserve" font-family="HelveticaNeue-Light" font-size="36.0" fill="#747373" transform="matrix(1.00, 0.00, -0.00, -1.00, 544.4, 294.0)"> </text><text xml:space="preserve" font-family="HelveticaNeue-Light" font-size="36.0" fill="#747373" transform="matrix(1.00, 0.00, -0.00, -1.00, 554.4, 294.0)">c</text><text xml:space="preserve" font-family="HelveticaNeue-Light" font-size="36.0" fill="#747373" transform="matrix(1.00, 0.00, -0.00, -1.00, 573.1, 294.0)">l</text><text xml:space="preserve" font-family="HelveticaNeue-Light" font-size="36.0" fill="#747373" transform="matrix(1.00, 0.00, -0.00, -1.00, 579.7, 294.0)">a</text><text xml:space="preserve" font-family="HelveticaNeue-Light" font-size="36.0" fill="#747373" transform="matrix(1.00, 0.00, -0.00, -1.00, 598.4, 294.0)">s</text><text xml:space="preserve" font-family="HelveticaNeue-Light" font-size="36.0" fill="#747373" transform="matrix(1.00, 0.00, -0.00, -1.00, 615.7, 294.0)">s</text><text xml:space="preserve" font-family="HelveticaNeue-Light" font-size="36.0" fill="#747373" transform="matrix(1.00, 0.00, -0.00, -1.00, 633.0, 294.0)">e</text><text xml:space="preserve" font-family="HelveticaNeue-Light" font-size="36.0" fill="#747373" transform="matrix(1.00, 0.00, -0.00, -1.00, 651.7, 294.0)">s</text><text xml:space="preserve" font-family="HelveticaNeue-Light" font-size="36.0" fill="#747373" transform="matrix(1.00, 0.00, -0.00, -1.00, 669.0, 294.0)"> </text><text xml:space="preserve" font-family="HelveticaNeue-Light" font-size="36.0" fill="#747373" transform="matrix(1.00, 0.00, -0.00, -1.00, 679.0, 294.0)">f</text><text xml:space="preserve" font-family="HelveticaNeue-Light" font-size="36.0" fill="#747373" transform="matrix(1.00, 0.00, -0.00, -1.00, 688.4, 294.0)">r</text><text xml:space="preserve" font-family="HelveticaNeue-Light" font-size="36.0" fill="#747373" transform="matrix(1.00, 0.00, -0.00, -1.00, 699.1, 294.0)">o</text><text xml:space="preserve" font-family="HelveticaNeue-Light" font-size="36.0" fill="#747373" transform="matrix(1.00, 0.00, -0.00, -1.00, 719.1, 294.0)">m</text><text xml:space="preserve" font-family="HelveticaNeue-Light" font-size="36.0" fill="#747373" transform="matrix(1.00, 0.00, -0.00, -1.00, 749.1, 294.0)"> </text><text xml:space="preserve" font-family="HelveticaNeue-Light" font-size="36.0" fill="#747373" transform="matrix(1.00, 0.00, -0.00, -1.00, 759.1, 294.0)">J</text><text xml:space="preserve" font-family="HelveticaNeue-Light" font-size="36.0" fill="#747373" transform="matrix(1.00, 0.00, -0.00, -1.00, 777.1, 294.0)">S</text><text xml:space="preserve" font-family="HelveticaNeue-Light" font-size="36.0" fill="#747373" transform="matrix(1.00, 0.00, -0.00, -1.00, 799.7, 294.0)">O</text><text xml:space="preserve" font-family="HelveticaNeue-Light" font-size="36.0" fill="#747373" transform="matrix(1.00, 0.00, -0.00, -1.00, 826.4, 294.0)">N</text><text xml:space="preserve" font-family="HelveticaNeue-Light" font-size="36.0" fill="#747373" transform="matrix(1.00, 0.00, -0.00, -1.00, 851.8, 294.0)"> </text><text xml:space="preserve" font-family="HelveticaNeue-Light" font-size="36.0" fill="#747373" transform="matrix(1.00, 0.00, -0.00, -1.00, 85.0, 250.0)">S</text><text xml:space="preserve" font-family="HelveticaNeue-Light" font-size="36.0" fill="#747373" transform="matrix(1.00, 0.00, -0.00, -1.00, 107.7, 250.0)">c</text><text xml:space="preserve" font-family="HelveticaNeue-Light" font-size="36.0" fill="#747373" transform="matrix(1.00, 0.00, -0.00, -1.00, 126.4, 250.0)">h</text><text xml:space="preserve" font-family="HelveticaNeue-Light" font-size="36.0" fill="#747373" transform="matrix(1.00, 0.00, -0.00, -1.00, 145.7, 250.0)">e</text><text xml:space="preserve" font-family="HelveticaNeue-Light" font-size="36.0" fill="#747373" transform="matrix(1.00, 0.00, -0.00, -1.00, 164.4, 250.0)">m</text><text xml:space="preserve" font-family="HelveticaNeue-Light" font-size="36.0" fill="#747373" transform="matrix(1.00, 0.00, -0.00, -1.00, 194.4, 250.0)">a</text><text xml:space="preserve" font-family="HelveticaNeue-Light" font-size="36.0" fill="#747373" transform="matrix(1.00, 0.00, -0.00, -1.00, 213.1, 250.0)"> </text><text xml:space="preserve" font-family="HelveticaNeue" font-size="27.0" fill="#747373" transform="matrix(1.00, 0.00, -0.00, -1.00, 49.0, 167.2)">•</text><text xml:space="preserve" font-family="HelveticaNeue-Light" font-size="36.0" fill="#747373" transform="matrix(1.00, 0.00, -0.00, -1.00, 85.0, 164.0)">T</text><text xml:space="preserve" font-family="HelveticaNeue-Light" font-size="36.0" fill="#747373" transform="matrix(1.00, 0.00, -0.00, -1.00, 105.0, 164.0)">h</text><text xml:space="preserve" font-family="HelveticaNeue-Light" font-size="36.0" fill="#747373" transform="matrix(1.00, 0.00, -0.00, -1.00, 124.3, 164.0)">i</text><text xml:space="preserve" font-family="HelveticaNeue-Light" font-size="36.0" fill="#747373" transform="matrix(1.00, 0.00, -0.00, -1.00, 131.0, 164.0)">s</text><text xml:space="preserve" font-family="HelveticaNeue-Light" font-size="36.0" fill="#747373" transform="matrix(1.00, 0.00, -0.00, -1.00, 148.3, 164.0)"> </text><text xml:space="preserve" font-family="HelveticaNeue-Light" font-size="36.0" fill="#747373" transform="matrix(1.00, 0.00, -0.00, -1.00, 158.3, 164.0)">m</text><text xml:space="preserve" font-family="HelveticaNeue-Light" font-size="36.0" fill="#747373" transform="matrix(1.00, 0.00, -0.00, -1.00, 188.3, 164.0)">e</text><text xml:space="preserve" font-family="HelveticaNeue-Light" font-size="36.0" fill="#747373" transform="matrix(1.00, 0.00, -0.00, -1.00, 207.0, 164.0)">a</text><text xml:space="preserve" font-family="HelveticaNeue-Light" font-size="36.0" fill="#747373" transform="matrix(1.00, 0.00, -0.00, -1.00, 225.7, 164.0)">n</text><text xml:space="preserve" font-family="HelveticaNeue-Light" font-size="36.0" fill="#747373" transform="matrix(1.00, 0.00, -0.00, -1.00, 245.0, 164.0)">s</text><text xml:space="preserve" font-family="HelveticaNeue-Light" font-size="36.0" fill="#747373" transform="matrix(1.00, 0.00, -0.00, -1.00, 262.3, 164.0)"> </text><text xml:space="preserve" font-family="HelveticaNeue-Light" font-size="36.0" fill="#747373" transform="matrix(1.00, 0.00, -0.00, -1.00, 272.3, 164.0)">t</text><text xml:space="preserve" font-family="HelveticaNeue-Light" font-size="36.0" fill="#747373" transform="matrix(1.00, 0.00, -0.00, -1.00, 283.0, 164.0)">h</text><text xml:space="preserve" font-family="HelveticaNeue-Light" font-size="36.0" fill="#747373" transform="matrix(1.00, 0.00, -0.00, -1.00, 302.3, 164.0)">a</text><text xml:space="preserve" font-family="HelveticaNeue-Light" font-size="36.0" fill="#747373" transform="matrix(1.00, 0.00, -0.00, -1.00, 321.0, 164.0)">t</text><text xml:space="preserve" font-family="HelveticaNeue-Light" font-size="36.0" fill="#747373" transform="matrix(1.00, 0.00, -0.00, -1.00, 331.7, 164.0)"> </text><text xml:space="preserve" font-family="HelveticaNeue-Light" font-size="36.0" fill="#747373" transform="matrix(1.00, 0.00, -0.00, -1.00, 341.7, 164.0)">P</text><text xml:space="preserve" font-family="HelveticaNeue-Light" font-size="36.0" fill="#747373" transform="matrix(1.00, 0.00, -0.00, -1.00, 364.4, 164.0)">y</text><text xml:space="preserve" font-family="HelveticaNeue-Light" font-size="36.0" fill="#747373" transform="matrix(1.00, 0.00, -0.00, -1.00, 381.0, 164.0)">t</text><text xml:space="preserve" font-family="HelveticaNeue-Light" font-size="36.0" fill="#747373" transform="matrix(1.00, 0.00, -0.00, -1.00, 391.7, 164.0)">h</text><text xml:space="preserve" font-family="HelveticaNeue-Light" font-size="36.0" fill="#747373" transform="matrix(1.00, 0.00, -0.00, -1.00, 411.0, 164.0)">o</text><text xml:space="preserve" font-family="HelveticaNeue-Light" font-size="36.0" fill="#747373" transform="matrix(1.00, 0.00, -0.00, -1.00, 431.0, 164.0)">n</text><text xml:space="preserve" font-family="HelveticaNeue-Light" font-size="36.0" fill="#747373" transform="matrix(1.00, 0.00, -0.00, -1.00, 450.4, 164.0)"> </text><text xml:space="preserve" font-family="HelveticaNeue-Light" font-size="36.0" fill="#747373" transform="matrix(1.00, 0.00, -0.00, -1.00, 460.4, 164.0)">a</text><text xml:space="preserve" font-family="HelveticaNeue-Light" font-size="36.0" fill="#747373" transform="matrix(1.00, 0.00, -0.00, -1.00, 479.1, 164.0)">n</text><text xml:space="preserve" font-family="HelveticaNeue-Light" font-size="36.0" fill="#747373" transform="matrix(1.00, 0.00, -0.00, -1.00, 498.4, 164.0)">a</text><text xml:space="preserve" font-family="HelveticaNeue-Light" font-size="36.0" fill="#747373" transform="matrix(1.00, 0.00, -0.00, -1.00, 517.1, 164.0)">l</text><text xml:space="preserve" font-family="HelveticaNeue-Light" font-size="36.0" fill="#747373" transform="matrix(1.00, 0.00, -0.00, -1.00, 523.7, 164.0)">y</text><text xml:space="preserve" font-family="HelveticaNeue-Light" font-size="36.0" fill="#747373" transform="matrix(1.00, 0.00, -0.00, -1.00, 540.4, 164.0)">t</text><text xml:space="preserve" font-family="HelveticaNeue-Light" font-size="36.0" fill="#747373" transform="matrix(1.00, 0.00, -0.00, -1.00, 551.1, 164.0)">i</text><text xml:space="preserve" font-family="HelveticaNeue-Light" font-size="36.0" fill="#747373" transform="matrix(1.00, 0.00, -0.00, -1.00, 557.7, 164.0)">c</text><text xml:space="preserve" font-family="HelveticaNeue-Light" font-size="36.0" fill="#747373" transform="matrix(1.00, 0.00, -0.00, -1.00, 576.4, 164.0)">s</text><text xml:space="preserve" font-family="HelveticaNeue-Light" font-size="36.0" fill="#747373" transform="matrix(1.00, 0.00, -0.00, -1.00, 593.7, 164.0)"> </text><text xml:space="preserve" font-family="HelveticaNeue-Light" font-size="36.0" fill="#747373" transform="matrix(1.00, 0.00, -0.00, -1.00, 603.7, 164.0)">c</text><text xml:space="preserve" font-family="HelveticaNeue-Light" font-size="36.0" fill="#747373" transform="matrix(1.00, 0.00, -0.00, -1.00, 622.4, 164.0)">a</text><text xml:space="preserve" font-family="HelveticaNeue-Light" font-size="36.0" fill="#747373" transform="matrix(1.00, 0.00, -0.00, -1.00, 641.1, 164.0)">n</text><text xml:space="preserve" font-family="HelveticaNeue-Light" font-size="36.0" fill="#747373" transform="matrix(1.00, 0.00, -0.00, -1.00, 660.4, 164.0)"> </text><text xml:space="preserve" font-family="HelveticaNeue-Light" font-size="36.0" fill="#747373" transform="matrix(1.00, 0.00, -0.00, -1.00, 670.4, 164.0)">e</text><text xml:space="preserve" font-family="HelveticaNeue-Light" font-size="36.0" fill="#747373" transform="matrix(1.00, 0.00, -0.00, -1.00, 689.1, 164.0)">a</text><text xml:space="preserve" font-family="HelveticaNeue-Light" font-size="36.0" fill="#747373" transform="matrix(1.00, 0.00, -0.00, -1.00, 707.8, 164.0)">s</text><text xml:space="preserve" font-family="HelveticaNeue-Light" font-size="36.0" fill="#747373" transform="matrix(1.00, 0.00, -0.00, -1.00, 725.1, 164.0)">i</text><text xml:space="preserve" font-family="HelveticaNeue-Light" font-size="36.0" fill="#747373" transform="matrix(1.00, 0.00, -0.00, -1.00, 731.8, 164.0)">l</text><text xml:space="preserve" font-family="HelveticaNeue-Light" font-size="36.0" fill="#747373" transform="matrix(1.00, 0.00, -0.00, -1.00, 738.4, 164.0)">y</text><text xml:space="preserve" font-family="HelveticaNeue-Light" font-size="36.0" fill="#747373" transform="matrix(1.00, 0.00, -0.00, -1.00, 755.1, 164.0)"> </text><text xml:space="preserve" font-family="HelveticaNeue-Light" font-size="36.0" fill="#747373" transform="matrix(1.00, 0.00, -0.00, -1.00, 765.1, 164.0)">c</text><text xml:space="preserve" font-family="HelveticaNeue-Light" font-size="36.0" fill="#747373" transform="matrix(1.00, 0.00, -0.00, -1.00, 783.8, 164.0)">o</text><text xml:space="preserve" font-family="HelveticaNeue-Light" font-size="36.0" fill="#747373" transform="matrix(1.00, 0.00, -0.00, -1.00, 803.8, 164.0)">e</text><text xml:space="preserve" font-family="HelveticaNeue-Light" font-size="36.0" fill="#747373" transform="matrix(1.00, 0.00, -0.00, -1.00, 822.5, 164.0)">x</text><text xml:space="preserve" font-family="HelveticaNeue-Light" font-size="36.0" fill="#747373" transform="matrix(1.00, 0.00, -0.00, -1.00, 839.8, 164.0)">i</text><text xml:space="preserve" font-family="HelveticaNeue-Light" font-size="36.0" fill="#747373" transform="matrix(1.00, 0.00, -0.00, -1.00, 846.5, 164.0)">s</text><text xml:space="preserve" font-family="HelveticaNeue-Light" font-size="36.0" fill="#747373" transform="matrix(1.00, 0.00, -0.00, -1.00, 863.8, 164.0)">t</text><text xml:space="preserve" font-family="HelveticaNeue-Light" font-size="36.0" fill="#747373" transform="matrix(1.00, 0.00, -0.00, -1.00, 874.4, 164.0)"> </text><text xml:space="preserve" font-family="HelveticaNeue-Light" font-size="36.0" fill="#747373" transform="matrix(1.00, 0.00, -0.00, -1.00, 884.5, 164.0)">w</text><text xml:space="preserve" font-family="HelveticaNeue-Light" font-size="36.0" fill="#747373" transform="matrix(1.00, 0.00, -0.00, -1.00, 911.1, 164.0)">i</text><text xml:space="preserve" font-family="HelveticaNeue-Light" font-size="36.0" fill="#747373" transform="matrix(1.00, 0.00, -0.00, -1.00, 917.8, 164.0)">t</text><text xml:space="preserve" font-family="HelveticaNeue-Light" font-size="36.0" fill="#747373" transform="matrix(1.00, 0.00, -0.00, -1.00, 928.4, 164.0)">h</text><text xml:space="preserve" font-family="HelveticaNeue-Light" font-size="36.0" fill="#747373" transform="matrix(1.00, 0.00, -0.00, -1.00, 947.8, 164.0)"> </text><text xml:space="preserve" font-family="HelveticaNeue-Light" font-size="36.0" fill="#747373" transform="matrix(1.00, 0.00, -0.00, -1.00, 85.0, 120.0)">J</text><text xml:space="preserve" font-family="HelveticaNeue-Light" font-size="36.0" fill="#747373" transform="matrix(1.00, 0.00, -0.00, -1.00, 103.0, 120.0)">a</text><text xml:space="preserve" font-family="HelveticaNeue-Light" font-size="36.0" fill="#747373" transform="matrix(1.00, 0.00, -0.00, -1.00, 121.7, 120.0)">v</text><text xml:space="preserve" font-family="HelveticaNeue-Light" font-size="36.0" fill="#747373" transform="matrix(1.00, 0.00, -0.00, -1.00, 138.4, 120.0)">a</text><text xml:space="preserve" font-family="HelveticaNeue-Light" font-size="36.0" fill="#747373" transform="matrix(1.00, 0.00, -0.00, -1.00, 157.0, 120.0)"> </text><text xml:space="preserve" font-family="HelveticaNeue-Light" font-size="36.0" fill="#747373" transform="matrix(1.00, 0.00, -0.00, -1.00, 167.0, 120.0)">A</text><text xml:space="preserve" font-family="HelveticaNeue-Light" font-size="36.0" fill="#747373" transform="matrix(1.00, 0.00, -0.00, -1.00, 189.7, 120.0)">P</text><text xml:space="preserve" font-family="HelveticaNeue-Light" font-size="36.0" fill="#747373" transform="matrix(1.00, 0.00, -0.00, -1.00, 212.4, 120.0)">I</text><text xml:space="preserve" font-family="HelveticaNeue-Light" font-size="36.0" fill="#747373" transform="matrix(1.00, 0.00, -0.00, -1.00, 220.4, 120.0)">’</text><text xml:space="preserve" font-family="HelveticaNeue-Light" font-size="36.0" fill="#747373" transform="matrix(1.00, 0.00, -0.00, -1.00, 226.4, 120.0)">s</text></g></svg>