<?xml version="1.0" encoding="UTF-8" standalone="no"?><svg xmlns="http://www.w3.org/2000/svg" xmlns:xlink="http://www.w3.org/1999/xlink" clip-rule="evenodd" stroke-miterlimit="4.00" viewBox="0 0 1024 768"><desc>SVG generated by Keynote</desc><defs></defs><g transform="matrix(1.00, 0.00, -0.00, -1.00, 0.0, 768.0)"><path d="M 0.0 768.0 L 1024.0 768.0 L 1024.0 0.0 L 0.0 0.0 Z M 0.0 768.0 " fill="#FEFFFE"></path><path d="M 0.0 0.0 L 934.5 0.0 " fill="none" stroke="#9A9A9A" stroke-width="1.00" transform="matrix(1.00, 0.00, 0.00, -1.00, 45.0, 613.0)"></path><text xml:space="preserve" font-family="HelveticaNeue-Light" font-size="42.0" fill="#000000" transform="matrix(1.00, 0.00, -0.00, -1.00, 49.0, 645.0)">N</text><text xml:space="preserve" font-family="HelveticaNeue-Light" font-size="42.0" fill="#000000" transform="matrix(1.00, 0.00, -0.00, -1.00, 78.6, 645.0)">o</text><text xml:space="preserve" font-family="HelveticaNeue-Light" font-size="42.0" fill="#000000" transform="matrix(1.00, 0.00, -0.00, -1.00, 101.9, 645.0)"> </text><text xml:space="preserve" font-family="HelveticaNeue-Light" font-size="42.0" fill="#000000" transform="matrix(1.00, 0.00, -0.00, -1.00, 113.6, 645.0)">S</text><text xml:space="preserve" font-family="HelveticaNeue-Light" font-size="42.0" fill="#000000" transform="matrix(1.00, 0.00, -0.00, -1.00, 140.1, 645.0)">Q</text><text xml:space="preserve" font-family="HelveticaNeue-Light" font-size="42.0" fill="#000000" transform="matrix(1.00, 0.00, -0.00, -1.00, 171.2, 645.0)">L</text><text xml:space="preserve" font-family="HelveticaNeue-Light" font-size="42.0" fill="#000000" transform="matrix(1.00, 0.00, -0.00, -1.00, 193.7, 645.0)"> </text><text xml:space="preserve" font-family="HelveticaNeue-Light" font-size="42.0" fill="#000000" transform="matrix(1.00, 0.00, -0.00, -1.00, 205.4, 645.0)">d</text><text xml:space="preserve" font-family="HelveticaNeue-Light" font-size="42.0" fill="#000000" transform="matrix(1.00, 0.00, -0.00, -1.00, 229.5, 645.0)">o</text><text xml:space="preserve" font-family="HelveticaNeue-Light" font-size="42.0" fill="#000000" transform="matrix(1.00, 0.00, -0.00, -1.00, 252.9, 645.0)">e</text><text xml:space="preserve" font-family="HelveticaNeue-Light" font-size="42.0" fill="#000000" transform="matrix(1.00, 0.00, -0.00, -1.00, 274.7, 645.0)">s</text><text xml:space="preserve" font-family="HelveticaNeue-Light" font-size="42.0" fill="#000000" transform="matrix(1.00, 0.00, -0.00, -1.00, 294.9, 645.0)">n</text><text xml:space="preserve" font-family="HelveticaNeue-Light" font-size="42.0" fill="#000000" transform="matrix(1.00, 0.00, -0.00, -1.00, 317.4, 645.0)">’</text><text xml:space="preserve" font-family="HelveticaNeue-Light" font-size="42.0" fill="#000000" transform="matrix(1.00, 0.00, -0.00, -1.00, 328.3, 645.0)">t</text><text xml:space="preserve" font-family="HelveticaNeue-Light" font-size="42.0" fill="#000000" transform="matrix(1.00, 0.00, -0.00, -1.00, 340.8, 645.0)"> </text><text xml:space="preserve" font-family="HelveticaNeue-Light" font-size="42.0" fill="#000000" transform="matrix(1.00, 0.00, -0.00, -1.00, 352.5, 645.0)">M</text><text xml:space="preserve" font-family="HelveticaNeue-Light" font-size="42.0" fill="#000000" transform="matrix(1.00, 0.00, -0.00, -1.00, 386.9, 645.0)">e</text><text xml:space="preserve" font-family="HelveticaNeue-Light" font-size="42.0" fill="#000000" transform="matrix(1.00, 0.00, -0.00, -1.00, 408.7, 645.0)">a</text><text xml:space="preserve" font-family="HelveticaNeue-Light" font-size="42.0" fill="#000000" transform="matrix(1.00, 0.00, -0.00, -1.00, 430.5, 645.0)">n</text><text xml:space="preserve" font-family="HelveticaNeue-Light" font-size="42.0" fill="#000000" transform="matrix(1.00, 0.00, -0.00, -1.00, 453.1, 645.0)"> </text><text xml:space="preserve" font-family="HelveticaNeue-Light" font-size="42.0" fill="#000000" transform="matrix(1.00, 0.00, -0.00, -1.00, 464.8, 645.0)">N</text><text xml:space="preserve" font-family="HelveticaNeue-Light" font-size="42.0" fill="#000000" transform="matrix(1.00, 0.00, -0.00, -1.00, 494.3, 645.0)">o</text><text xml:space="preserve" font-family="HelveticaNeue-Light" font-size="42.0" fill="#000000" transform="matrix(1.00, 0.00, -0.00, -1.00, 517.7, 645.0)"> </text><text xml:space="preserve" font-family="HelveticaNeue-Light" font-size="42.0" fill="#000000" transform="matrix(1.00, 0.00, -0.00, -1.00, 529.4, 645.0)">S</text><text xml:space="preserve" font-family="HelveticaNeue-Light" font-size="42.0" fill="#000000" transform="matrix(1.00, 0.00, -0.00, -1.00, 555.8, 645.0)">c</text><text xml:space="preserve" font-family="HelveticaNeue-Light" font-size="42.0" fill="#000000" transform="matrix(1.00, 0.00, -0.00, -1.00, 577.6, 645.0)">h</text><text xml:space="preserve" font-family="HelveticaNeue-Light" font-size="42.0" fill="#000000" transform="matrix(1.00, 0.00, -0.00, -1.00, 600.2, 645.0)">e</text><text xml:space="preserve" font-family="HelveticaNeue-Light" font-size="42.0" fill="#000000" transform="matrix(1.00, 0.00, -0.00, -1.00, 622.0, 645.0)">m</text><text xml:space="preserve" font-family="HelveticaNeue-Light" font-size="42.0" fill="#000000" transform="matrix(1.00, 0.00, -0.00, -1.00, 656.9, 645.0)">a</text><text xml:space="preserve" font-family="HelveticaNeue" font-size="27.0" fill="#747373" transform="matrix(1.00, 0.00, -0.00, -1.00, 49.0, 557.2)">•</text><text xml:space="preserve" font-family="HelveticaNeue-Light" font-size="36.0" fill="#747373" transform="matrix(1.00, 0.00, -0.00, -1.00, 85.0, 554.0)">I</text><text xml:space="preserve" font-family="HelveticaNeue-Light" font-size="36.0" fill="#747373" transform="matrix(1.00, 0.00, -0.00, -1.00, 93.0, 554.0)">t</text><text xml:space="preserve" font-family="HelveticaNeue-Light" font-size="36.0" fill="#747373" transform="matrix(1.00, 0.00, -0.00, -1.00, 103.6, 554.0)"> </text><text xml:space="preserve" font-family="HelveticaNeue-Light" font-size="36.0" fill="#747373" transform="matrix(1.00, 0.00, -0.00, -1.00, 113.7, 554.0)">m</text><text xml:space="preserve" font-family="HelveticaNeue-Light" font-size="36.0" fill="#747373" transform="matrix(1.00, 0.00, -0.00, -1.00, 143.6, 554.0)">e</text><text xml:space="preserve" font-family="HelveticaNeue-Light" font-size="36.0" fill="#747373" transform="matrix(1.00, 0.00, -0.00, -1.00, 162.3, 554.0)">a</text><text xml:space="preserve" font-family="HelveticaNeue-Light" font-size="36.0" fill="#747373" transform="matrix(1.00, 0.00, -0.00, -1.00, 181.0, 554.0)">n</text><text xml:space="preserve" font-family="HelveticaNeue-Light" font-size="36.0" fill="#747373" transform="matrix(1.00, 0.00, -0.00, -1.00, 200.3, 554.0)">s</text><text xml:space="preserve" font-family="HelveticaNeue-Light" font-size="36.0" fill="#747373" transform="matrix(1.00, 0.00, -0.00, -1.00, 217.7, 554.0)"> </text><text xml:space="preserve" font-family="HelveticaNeue-Light" font-size="36.0" fill="#747373" transform="matrix(1.00, 0.00, -0.00, -1.00, 227.7, 554.0)">ﬂ</text><text xml:space="preserve" font-family="HelveticaNeue-Light" font-size="36.0" fill="#747373" transform="matrix(1.00, 0.00, -0.00, -1.00, 243.7, 554.0)">e</text><text xml:space="preserve" font-family="HelveticaNeue-Light" font-size="36.0" fill="#747373" transform="matrix(1.00, 0.00, -0.00, -1.00, 262.3, 554.0)">x</text><text xml:space="preserve" font-family="HelveticaNeue-Light" font-size="36.0" fill="#747373" transform="matrix(1.00, 0.00, -0.00, -1.00, 279.7, 554.0)">i</text><text xml:space="preserve" font-family="HelveticaNeue-Light" font-size="36.0" fill="#747373" transform="matrix(1.00, 0.00, -0.00, -1.00, 286.3, 554.0)">b</text><text xml:space="preserve" font-family="HelveticaNeue-Light" font-size="36.0" fill="#747373" transform="matrix(1.00, 0.00, -0.00, -1.00, 307.0, 554.0)">l</text><text xml:space="preserve" font-family="HelveticaNeue-Light" font-size="36.0" fill="#747373" transform="matrix(1.00, 0.00, -0.00, -1.00, 313.6, 554.0)">e</text><text xml:space="preserve" font-family="HelveticaNeue-Light" font-size="36.0" fill="#747373" transform="matrix(1.00, 0.00, -0.00, -1.00, 332.3, 554.0)"> </text><text xml:space="preserve" font-family="HelveticaNeue-Light" font-size="36.0" fill="#747373" transform="matrix(1.00, 0.00, -0.00, -1.00, 342.3, 554.0)">s</text><text xml:space="preserve" font-family="HelveticaNeue-Light" font-size="36.0" fill="#747373" transform="matrix(1.00, 0.00, -0.00, -1.00, 359.6, 554.0)">c</text><text xml:space="preserve" font-family="HelveticaNeue-Light" font-size="36.0" fill="#747373" transform="matrix(1.00, 0.00, -0.00, -1.00, 378.3, 554.0)">h</text><text xml:space="preserve" font-family="HelveticaNeue-Light" font-size="36.0" fill="#747373" transform="matrix(1.00, 0.00, -0.00, -1.00, 397.7, 554.0)">e</text><text xml:space="preserve" font-family="HelveticaNeue-Light" font-size="36.0" fill="#747373" transform="matrix(1.00, 0.00, -0.00, -1.00, 416.3, 554.0)">m</text><text xml:space="preserve" font-family="HelveticaNeue-Light" font-size="36.0" fill="#747373" transform="matrix(1.00, 0.00, -0.00, -1.00, 446.3, 554.0)">a</text><text xml:space="preserve" font-family="HelveticaNeue-Light" font-size="36.0" fill="#747373" transform="matrix(1.00, 0.00, -0.00, -1.00, 465.0, 554.0)"> </text><text xml:space="preserve" font-family="HelveticaNeue" font-size="27.0" fill="#747373" transform="matrix(1.00, 0.00, -0.00, -1.00, 49.0, 471.2)">•</text><text xml:space="preserve" font-family="HelveticaNeue-Light" font-size="36.0" fill="#747373" transform="matrix(1.00, 0.00, -0.00, -1.00, 85.0, 468.0)">I</text><text xml:space="preserve" font-family="HelveticaNeue-Light" font-size="36.0" fill="#747373" transform="matrix(1.00, 0.00, -0.00, -1.00, 93.0, 468.0)">n</text><text xml:space="preserve" font-family="HelveticaNeue-Light" font-size="36.0" fill="#747373" transform="matrix(1.00, 0.00, -0.00, -1.00, 112.3, 468.0)"> </text><text xml:space="preserve" font-family="HelveticaNeue-Light" font-size="36.0" fill="#747373" transform="matrix(1.00, 0.00, -0.00, -1.00, 122.3, 468.0)">t</text><text xml:space="preserve" font-family="HelveticaNeue-Light" font-size="36.0" fill="#747373" transform="matrix(1.00, 0.00, -0.00, -1.00, 133.0, 468.0)">h</text><text xml:space="preserve" font-family="HelveticaNeue-Light" font-size="36.0" fill="#747373" transform="matrix(1.00, 0.00, -0.00, -1.00, 152.3, 468.0)">e</text><text xml:space="preserve" font-family="HelveticaNeue-Light" font-size="36.0" fill="#747373" transform="matrix(1.00, 0.00, -0.00, -1.00, 171.0, 468.0)"> </text><text xml:space="preserve" font-family="HelveticaNeue-Light" font-size="36.0" fill="#747373" transform="matrix(1.00, 0.00, -0.00, -1.00, 181.0, 468.0)">c</text><text xml:space="preserve" font-family="HelveticaNeue-Light" font-size="36.0" fill="#747373" transform="matrix(1.00, 0.00, -0.00, -1.00, 199.7, 468.0)">o</text><text xml:space="preserve" font-family="HelveticaNeue-Light" font-size="36.0" fill="#747373" transform="matrix(1.00, 0.00, -0.00, -1.00, 219.7, 468.0)">d</text><text xml:space="preserve" font-family="HelveticaNeue-Light" font-size="36.0" fill="#747373" transform="matrix(1.00, 0.00, -0.00, -1.00, 240.4, 468.0)">e</text></g></svg>