<?xml version="1.0" encoding="UTF-8" standalone="no"?><svg xmlns="http://www.w3.org/2000/svg" xmlns:xlink="http://www.w3.org/1999/xlink" clip-rule="evenodd" stroke-miterlimit="4.00" viewBox="0 0 1024 768"><desc>SVG generated by Keynote</desc><defs></defs><g transform="matrix(1.00, 0.00, -0.00, -1.00, 0.0, 768.0)"><path d="M 0.0 768.0 L 1024.0 768.0 L 1024.0 0.0 L 0.0 0.0 Z M 0.0 768.0 " fill="#FEFFFE"></path><path d="M 0.0 0.0 L 934.5 0.0 " fill="none" stroke="#9A9A9A" stroke-width="1.00" transform="matrix(1.00, 0.00, 0.00, -1.00, 45.0, 613.0)"></path><text xml:space="preserve" font-family="HelveticaNeue-Light" font-size="42.0" fill="#000000" transform="matrix(1.00, 0.00, -0.00, -1.00, 49.0, 645.0)">M</text><text xml:space="preserve" font-family="HelveticaNeue-Light" font-size="42.0" fill="#000000" transform="matrix(1.00, 0.00, -0.00, -1.00, 83.5, 645.0)">o</text><text xml:space="preserve" font-family="HelveticaNeue-Light" font-size="42.0" fill="#000000" transform="matrix(1.00, 0.00, -0.00, -1.00, 106.8, 645.0)">n</text><text xml:space="preserve" font-family="HelveticaNeue-Light" font-size="42.0" fill="#000000" transform="matrix(1.00, 0.00, -0.00, -1.00, 129.4, 645.0)">g</text><text xml:space="preserve" font-family="HelveticaNeue-Light" font-size="42.0" fill="#000000" transform="matrix(1.00, 0.00, -0.00, -1.00, 152.7, 645.0)">o</text><text xml:space="preserve" font-family="HelveticaNeue-Light" font-size="42.0" fill="#000000" transform="matrix(1.00, 0.00, -0.00, -1.00, 176.1, 645.0)"> </text><text xml:space="preserve" font-family="HelveticaNeue-Light" font-size="42.0" fill="#000000" transform="matrix(1.00, 0.00, -0.00, -1.00, 187.8, 645.0)">E</text><text xml:space="preserve" font-family="HelveticaNeue-Light" font-size="42.0" fill="#000000" transform="matrix(1.00, 0.00, -0.00, -1.00, 212.7, 645.0)">n</text><text xml:space="preserve" font-family="HelveticaNeue-Light" font-size="42.0" fill="#000000" transform="matrix(1.00, 0.00, -0.00, -1.00, 235.2, 645.0)">g</text><text xml:space="preserve" font-family="HelveticaNeue-Light" font-size="42.0" fill="#000000" transform="matrix(1.00, 0.00, -0.00, -1.00, 258.6, 645.0)">i</text><text xml:space="preserve" font-family="HelveticaNeue-Light" font-size="42.0" fill="#000000" transform="matrix(1.00, 0.00, -0.00, -1.00, 266.4, 645.0)">n</text><text xml:space="preserve" font-family="HelveticaNeue-Light" font-size="42.0" fill="#000000" transform="matrix(1.00, 0.00, -0.00, -1.00, 288.9, 645.0)">e</text><text xml:space="preserve" font-family="HelveticaNeue-Light" font-size="42.0" fill="#000000" transform="matrix(1.00, 0.00, -0.00, -1.00, 310.7, 645.0)"> </text><text xml:space="preserve" font-family="HelveticaNeue-Light" font-size="42.0" fill="#000000" transform="matrix(1.00, 0.00, -0.00, -1.00, 322.4, 645.0)">E</text><text xml:space="preserve" font-family="HelveticaNeue-Light" font-size="42.0" fill="#000000" transform="matrix(1.00, 0.00, -0.00, -1.00, 347.3, 645.0)">x</text><text xml:space="preserve" font-family="HelveticaNeue-Light" font-size="42.0" fill="#000000" transform="matrix(1.00, 0.00, -0.00, -1.00, 367.5, 645.0)">a</text><text xml:space="preserve" font-family="HelveticaNeue-Light" font-size="42.0" fill="#000000" transform="matrix(1.00, 0.00, -0.00, -1.00, 389.3, 645.0)">m</text><text xml:space="preserve" font-family="HelveticaNeue-Light" font-size="42.0" fill="#000000" transform="matrix(1.00, 0.00, -0.00, -1.00, 424.3, 645.0)">p</text><text xml:space="preserve" font-family="HelveticaNeue-Light" font-size="42.0" fill="#000000" transform="matrix(1.00, 0.00, -0.00, -1.00, 448.4, 645.0)">l</text><text xml:space="preserve" font-family="HelveticaNeue-Light" font-size="42.0" fill="#000000" transform="matrix(1.00, 0.00, -0.00, -1.00, 456.1, 645.0)">e</text><text xml:space="preserve" font-family="AndaleMono" font-size="35.6" fill="#000000" transform="matrix(1.00, 0.00, -0.00, -1.00, 49.0, 557.0)">c</text><text xml:space="preserve" font-family="AndaleMono" font-size="35.6" fill="#000000" transform="matrix(1.00, 0.00, -0.00, -1.00, 70.4, 557.0)">l</text><text xml:space="preserve" font-family="AndaleMono" font-size="35.6" fill="#000000" transform="matrix(1.00, 0.00, -0.00, -1.00, 91.8, 557.0)">a</text><text xml:space="preserve" font-family="AndaleMono" font-size="35.6" fill="#000000" transform="matrix(1.00, 0.00, -0.00, -1.00, 113.2, 557.0)">s</text><text xml:space="preserve" font-family="AndaleMono" font-size="35.6" fill="#000000" transform="matrix(1.00, 0.00, -0.00, -1.00, 134.6, 557.0)">s</text><text xml:space="preserve" font-family="AndaleMono" font-size="35.6" fill="#000000" transform="matrix(1.00, 0.00, -0.00, -1.00, 156.0, 557.0)"> </text><text xml:space="preserve" font-family="AndaleMono" font-size="35.6" fill="#000000" transform="matrix(1.00, 0.00, -0.00, -1.00, 177.3, 557.0)">U</text><text xml:space="preserve" font-family="AndaleMono" font-size="35.6" fill="#000000" transform="matrix(1.00, 0.00, -0.00, -1.00, 198.7, 557.0)">s</text><text xml:space="preserve" font-family="AndaleMono" font-size="35.6" fill="#000000" transform="matrix(1.00, 0.00, -0.00, -1.00, 220.1, 557.0)">e</text><text xml:space="preserve" font-family="AndaleMono" font-size="35.6" fill="#000000" transform="matrix(1.00, 0.00, -0.00, -1.00, 241.5, 557.0)">r</text><text xml:space="preserve" font-family="AndaleMono" font-size="35.6" fill="#000000" transform="matrix(1.00, 0.00, -0.00, -1.00, 262.9, 557.0)">(</text><text xml:space="preserve" font-family="AndaleMono" font-size="35.6" fill="#000000" transform="matrix(1.00, 0.00, -0.00, -1.00, 284.3, 557.0)">D</text><text xml:space="preserve" font-family="AndaleMono" font-size="35.6" fill="#000000" transform="matrix(1.00, 0.00, -0.00, -1.00, 305.7, 557.0)">o</text><text xml:space="preserve" font-family="AndaleMono" font-size="35.6" fill="#000000" transform="matrix(1.00, 0.00, -0.00, -1.00, 327.1, 557.0)">c</text><text xml:space="preserve" font-family="AndaleMono" font-size="35.6" fill="#000000" transform="matrix(1.00, 0.00, -0.00, -1.00, 348.5, 557.0)">u</text><text xml:space="preserve" font-family="AndaleMono" font-size="35.6" fill="#000000" transform="matrix(1.00, 0.00, -0.00, -1.00, 369.9, 557.0)">m</text><text xml:space="preserve" font-family="AndaleMono" font-size="35.6" fill="#000000" transform="matrix(1.00, 0.00, -0.00, -1.00, 391.3, 557.0)">e</text><text xml:space="preserve" font-family="AndaleMono" font-size="35.6" fill="#000000" transform="matrix(1.00, 0.00, -0.00, -1.00, 412.6, 557.0)">n</text><text xml:space="preserve" font-family="AndaleMono" font-size="35.6" fill="#000000" transform="matrix(1.00, 0.00, -0.00, -1.00, 434.0, 557.0)">t</text><text xml:space="preserve" font-family="AndaleMono" font-size="35.6" fill="#000000" transform="matrix(1.00, 0.00, -0.00, -1.00, 455.4, 557.0)">)</text><text xml:space="preserve" font-family="AndaleMono" font-size="35.6" fill="#000000" transform="matrix(1.00, 0.00, -0.00, -1.00, 476.8, 557.0)">:</text><text xml:space="preserve" font-family="AndaleMono" font-size="35.6" fill="#000000" transform="matrix(1.00, 0.00, -0.00, -1.00, 498.2, 557.0)"> </text><text xml:space="preserve" font-family="AndaleMono" font-size="35.6" fill="#000000" transform="matrix(1.00, 0.00, -0.00, -1.00, 49.0, 493.0)"> </text><text xml:space="preserve" font-family="AndaleMono" font-size="35.6" fill="#000000" transform="matrix(1.00, 0.00, -0.00, -1.00, 70.4, 493.0)"> </text><text xml:space="preserve" font-family="AndaleMono" font-size="35.6" fill="#000000" transform="matrix(1.00, 0.00, -0.00, -1.00, 91.8, 493.0)"> </text><text xml:space="preserve" font-family="AndaleMono" font-size="35.6" fill="#000000" transform="matrix(1.00, 0.00, -0.00, -1.00, 113.2, 493.0)"> </text><text xml:space="preserve" font-family="AndaleMono" font-size="35.6" fill="#000000" transform="matrix(1.00, 0.00, -0.00, -1.00, 134.6, 493.0)">e</text><text xml:space="preserve" font-family="AndaleMono" font-size="35.6" fill="#000000" transform="matrix(1.00, 0.00, -0.00, -1.00, 156.0, 493.0)">m</text><text xml:space="preserve" font-family="AndaleMono" font-size="35.6" fill="#000000" transform="matrix(1.00, 0.00, -0.00, -1.00, 177.3, 493.0)">a</text><text xml:space="preserve" font-family="AndaleMono" font-size="35.6" fill="#000000" transform="matrix(1.00, 0.00, -0.00, -1.00, 198.7, 493.0)">i</text><text xml:space="preserve" font-family="AndaleMono" font-size="35.6" fill="#000000" transform="matrix(1.00, 0.00, -0.00, -1.00, 220.1, 493.0)">l</text><text xml:space="preserve" font-family="AndaleMono" font-size="35.6" fill="#000000" transform="matrix(1.00, 0.00, -0.00, -1.00, 241.5, 493.0)"> </text><text xml:space="preserve" font-family="AndaleMono" font-size="35.6" fill="#000000" transform="matrix(1.00, 0.00, -0.00, -1.00, 262.9, 493.0)">=</text><text xml:space="preserve" font-family="AndaleMono" font-size="35.6" fill="#000000" transform="matrix(1.00, 0.00, -0.00, -1.00, 284.3, 493.0)"> </text><text xml:space="preserve" font-family="AndaleMono" font-size="35.6" fill="#000000" transform="matrix(1.00, 0.00, -0.00, -1.00, 305.7, 493.0)">S</text><text xml:space="preserve" font-family="AndaleMono" font-size="35.6" fill="#000000" transform="matrix(1.00, 0.00, -0.00, -1.00, 327.1, 493.0)">t</text><text xml:space="preserve" font-family="AndaleMono" font-size="35.6" fill="#000000" transform="matrix(1.00, 0.00, -0.00, -1.00, 348.5, 493.0)">r</text><text xml:space="preserve" font-family="AndaleMono" font-size="35.6" fill="#000000" transform="matrix(1.00, 0.00, -0.00, -1.00, 369.9, 493.0)">i</text><text xml:space="preserve" font-family="AndaleMono" font-size="35.6" fill="#000000" transform="matrix(1.00, 0.00, -0.00, -1.00, 391.3, 493.0)">n</text><text xml:space="preserve" font-family="AndaleMono" font-size="35.6" fill="#000000" transform="matrix(1.00, 0.00, -0.00, -1.00, 412.6, 493.0)">g</text><text xml:space="preserve" font-family="AndaleMono" font-size="35.6" fill="#000000" transform="matrix(1.00, 0.00, -0.00, -1.00, 434.0, 493.0)">F</text><text xml:space="preserve" font-family="AndaleMono" font-size="35.6" fill="#000000" transform="matrix(1.00, 0.00, -0.00, -1.00, 455.4, 493.0)">i</text><text xml:space="preserve" font-family="AndaleMono" font-size="35.6" fill="#000000" transform="matrix(1.00, 0.00, -0.00, -1.00, 476.8, 493.0)">e</text><text xml:space="preserve" font-family="AndaleMono" font-size="35.6" fill="#000000" transform="matrix(1.00, 0.00, -0.00, -1.00, 498.2, 493.0)">l</text><text xml:space="preserve" font-family="AndaleMono" font-size="35.6" fill="#000000" transform="matrix(1.00, 0.00, -0.00, -1.00, 519.6, 493.0)">d</text><text xml:space="preserve" font-family="AndaleMono" font-size="35.6" fill="#000000" transform="matrix(1.00, 0.00, -0.00, -1.00, 541.0, 493.0)">(</text><text xml:space="preserve" font-family="AndaleMono" font-size="35.6" fill="#000000" transform="matrix(1.00, 0.00, -0.00, -1.00, 562.4, 493.0)">r</text><text xml:space="preserve" font-family="AndaleMono" font-size="35.6" fill="#000000" transform="matrix(1.00, 0.00, -0.00, -1.00, 583.8, 493.0)">e</text><text xml:space="preserve" font-family="AndaleMono" font-size="35.6" fill="#000000" transform="matrix(1.00, 0.00, -0.00, -1.00, 605.2, 493.0)">q</text><text xml:space="preserve" font-family="AndaleMono" font-size="35.6" fill="#000000" transform="matrix(1.00, 0.00, -0.00, -1.00, 626.6, 493.0)">u</text><text xml:space="preserve" font-family="AndaleMono" font-size="35.6" fill="#000000" transform="matrix(1.00, 0.00, -0.00, -1.00, 647.9, 493.0)">i</text><text xml:space="preserve" font-family="AndaleMono" font-size="35.6" fill="#000000" transform="matrix(1.00, 0.00, -0.00, -1.00, 669.3, 493.0)">r</text><text xml:space="preserve" font-family="AndaleMono" font-size="35.6" fill="#000000" transform="matrix(1.00, 0.00, -0.00, -1.00, 690.7, 493.0)">e</text><text xml:space="preserve" font-family="AndaleMono" font-size="35.6" fill="#000000" transform="matrix(1.00, 0.00, -0.00, -1.00, 712.1, 493.0)">d</text><text xml:space="preserve" font-family="AndaleMono" font-size="35.6" fill="#000000" transform="matrix(1.00, 0.00, -0.00, -1.00, 733.5, 493.0)">=</text><text xml:space="preserve" font-family="AndaleMono" font-size="35.6" fill="#000000" transform="matrix(1.00, 0.00, -0.00, -1.00, 754.9, 493.0)">T</text><text xml:space="preserve" font-family="AndaleMono" font-size="35.6" fill="#000000" transform="matrix(1.00, 0.00, -0.00, -1.00, 776.3, 493.0)">r</text><text xml:space="preserve" font-family="AndaleMono" font-size="35.6" fill="#000000" transform="matrix(1.00, 0.00, -0.00, -1.00, 797.7, 493.0)">u</text><text xml:space="preserve" font-family="AndaleMono" font-size="35.6" fill="#000000" transform="matrix(1.00, 0.00, -0.00, -1.00, 819.1, 493.0)">e</text><text xml:space="preserve" font-family="AndaleMono" font-size="35.6" fill="#000000" transform="matrix(1.00, 0.00, -0.00, -1.00, 840.5, 493.0)">)</text><text xml:space="preserve" font-family="AndaleMono" font-size="35.6" fill="#000000" transform="matrix(1.00, 0.00, -0.00, -1.00, 861.9, 493.0)"> </text><text xml:space="preserve" font-family="AndaleMono" font-size="35.6" fill="#000000" transform="matrix(1.00, 0.00, -0.00, -1.00, 49.0, 429.0)"> </text><text xml:space="preserve" font-family="AndaleMono" font-size="35.6" fill="#000000" transform="matrix(1.00, 0.00, -0.00, -1.00, 70.4, 429.0)"> </text><text xml:space="preserve" font-family="AndaleMono" font-size="35.6" fill="#000000" transform="matrix(1.00, 0.00, -0.00, -1.00, 91.8, 429.0)"> </text><text xml:space="preserve" font-family="AndaleMono" font-size="35.6" fill="#000000" transform="matrix(1.00, 0.00, -0.00, -1.00, 113.2, 429.0)"> </text><text xml:space="preserve" font-family="AndaleMono" font-size="35.6" fill="#000000" transform="matrix(1.00, 0.00, -0.00, -1.00, 134.6, 429.0)">f</text><text xml:space="preserve" font-family="AndaleMono" font-size="35.6" fill="#000000" transform="matrix(1.00, 0.00, -0.00, -1.00, 156.0, 429.0)">i</text><text xml:space="preserve" font-family="AndaleMono" font-size="35.6" fill="#000000" transform="matrix(1.00, 0.00, -0.00, -1.00, 177.3, 429.0)">r</text><text xml:space="preserve" font-family="AndaleMono" font-size="35.6" fill="#000000" transform="matrix(1.00, 0.00, -0.00, -1.00, 198.7, 429.0)">s</text><text xml:space="preserve" font-family="AndaleMono" font-size="35.6" fill="#000000" transform="matrix(1.00, 0.00, -0.00, -1.00, 220.1, 429.0)">t</text><text xml:space="preserve" font-family="AndaleMono" font-size="35.6" fill="#000000" transform="matrix(1.00, 0.00, -0.00, -1.00, 241.5, 429.0)">_</text><text xml:space="preserve" font-family="AndaleMono" font-size="35.6" fill="#000000" transform="matrix(1.00, 0.00, -0.00, -1.00, 262.9, 429.0)">n</text><text xml:space="preserve" font-family="AndaleMono" font-size="35.6" fill="#000000" transform="matrix(1.00, 0.00, -0.00, -1.00, 284.3, 429.0)">a</text><text xml:space="preserve" font-family="AndaleMono" font-size="35.6" fill="#000000" transform="matrix(1.00, 0.00, -0.00, -1.00, 305.7, 429.0)">m</text><text xml:space="preserve" font-family="AndaleMono" font-size="35.6" fill="#000000" transform="matrix(1.00, 0.00, -0.00, -1.00, 327.1, 429.0)">e</text><text xml:space="preserve" font-family="AndaleMono" font-size="35.6" fill="#000000" transform="matrix(1.00, 0.00, -0.00, -1.00, 348.5, 429.0)"> </text><text xml:space="preserve" font-family="AndaleMono" font-size="35.6" fill="#000000" transform="matrix(1.00, 0.00, -0.00, -1.00, 369.9, 429.0)">=</text><text xml:space="preserve" font-family="AndaleMono" font-size="35.6" fill="#000000" transform="matrix(1.00, 0.00, -0.00, -1.00, 391.3, 429.0)"> </text><text xml:space="preserve" font-family="AndaleMono" font-size="35.6" fill="#000000" transform="matrix(1.00, 0.00, -0.00, -1.00, 412.6, 429.0)">S</text><text xml:space="preserve" font-family="AndaleMono" font-size="35.6" fill="#000000" transform="matrix(1.00, 0.00, -0.00, -1.00, 434.0, 429.0)">t</text><text xml:space="preserve" font-family="AndaleMono" font-size="35.6" fill="#000000" transform="matrix(1.00, 0.00, -0.00, -1.00, 455.4, 429.0)">r</text><text xml:space="preserve" font-family="AndaleMono" font-size="35.6" fill="#000000" transform="matrix(1.00, 0.00, -0.00, -1.00, 476.8, 429.0)">i</text><text xml:space="preserve" font-family="AndaleMono" font-size="35.6" fill="#000000" transform="matrix(1.00, 0.00, -0.00, -1.00, 498.2, 429.0)">n</text><text xml:space="preserve" font-family="AndaleMono" font-size="35.6" fill="#000000" transform="matrix(1.00, 0.00, -0.00, -1.00, 519.6, 429.0)">g</text><text xml:space="preserve" font-family="AndaleMono" font-size="35.6" fill="#000000" transform="matrix(1.00, 0.00, -0.00, -1.00, 541.0, 429.0)">F</text><text xml:space="preserve" font-family="AndaleMono" font-size="35.6" fill="#000000" transform="matrix(1.00, 0.00, -0.00, -1.00, 562.4, 429.0)">i</text><text xml:space="preserve" font-family="AndaleMono" font-size="35.6" fill="#000000" transform="matrix(1.00, 0.00, -0.00, -1.00, 583.8, 429.0)">e</text><text xml:space="preserve" font-family="AndaleMono" font-size="35.6" fill="#000000" transform="matrix(1.00, 0.00, -0.00, -1.00, 605.2, 429.0)">l</text><text xml:space="preserve" font-family="AndaleMono" font-size="35.6" fill="#000000" transform="matrix(1.00, 0.00, -0.00, -1.00, 626.6, 429.0)">d</text><text xml:space="preserve" font-family="AndaleMono" font-size="35.6" fill="#000000" transform="matrix(1.00, 0.00, -0.00, -1.00, 647.9, 429.0)">(</text><text xml:space="preserve" font-family="AndaleMono" font-size="35.6" fill="#000000" transform="matrix(1.00, 0.00, -0.00, -1.00, 669.3, 429.0)">m</text><text xml:space="preserve" font-family="AndaleMono" font-size="35.6" fill="#000000" transform="matrix(1.00, 0.00, -0.00, -1.00, 690.7, 429.0)">a</text><text xml:space="preserve" font-family="AndaleMono" font-size="35.6" fill="#000000" transform="matrix(1.00, 0.00, -0.00, -1.00, 712.1, 429.0)">x</text><text xml:space="preserve" font-family="AndaleMono" font-size="35.6" fill="#000000" transform="matrix(1.00, 0.00, -0.00, -1.00, 733.5, 429.0)">_</text><text xml:space="preserve" font-family="AndaleMono" font-size="35.6" fill="#000000" transform="matrix(1.00, 0.00, -0.00, -1.00, 754.9, 429.0)">l</text><text xml:space="preserve" font-family="AndaleMono" font-size="35.6" fill="#000000" transform="matrix(1.00, 0.00, -0.00, -1.00, 776.3, 429.0)">e</text><text xml:space="preserve" font-family="AndaleMono" font-size="35.6" fill="#000000" transform="matrix(1.00, 0.00, -0.00, -1.00, 797.7, 429.0)">n</text><text xml:space="preserve" font-family="AndaleMono" font-size="35.6" fill="#000000" transform="matrix(1.00, 0.00, -0.00, -1.00, 819.1, 429.0)">g</text><text xml:space="preserve" font-family="AndaleMono" font-size="35.6" fill="#000000" transform="matrix(1.00, 0.00, -0.00, -1.00, 840.5, 429.0)">t</text><text xml:space="preserve" font-family="AndaleMono" font-size="35.6" fill="#000000" transform="matrix(1.00, 0.00, -0.00, -1.00, 861.9, 429.0)">h</text><text xml:space="preserve" font-family="AndaleMono" font-size="35.6" fill="#000000" transform="matrix(1.00, 0.00, -0.00, -1.00, 883.3, 429.0)">=</text><text xml:space="preserve" font-family="AndaleMono" font-size="35.6" fill="#000000" transform="matrix(1.00, 0.00, -0.00, -1.00, 904.6, 429.0)">5</text><text xml:space="preserve" font-family="AndaleMono" font-size="35.6" fill="#000000" transform="matrix(1.00, 0.00, -0.00, -1.00, 926.0, 429.0)">0</text><text xml:space="preserve" font-family="AndaleMono" font-size="35.6" fill="#000000" transform="matrix(1.00, 0.00, -0.00, -1.00, 947.4, 429.0)">)</text><text xml:space="preserve" font-family="AndaleMono" font-size="35.6" fill="#000000" transform="matrix(1.00, 0.00, -0.00, -1.00, 968.8, 429.0)"> </text><text xml:space="preserve" font-family="AndaleMono" font-size="35.6" fill="#000000" transform="matrix(1.00, 0.00, -0.00, -1.00, 49.0, 365.0)"> </text><text xml:space="preserve" font-family="AndaleMono" font-size="35.6" fill="#000000" transform="matrix(1.00, 0.00, -0.00, -1.00, 70.4, 365.0)"> </text><text xml:space="preserve" font-family="AndaleMono" font-size="35.6" fill="#000000" transform="matrix(1.00, 0.00, -0.00, -1.00, 91.8, 365.0)"> </text><text xml:space="preserve" font-family="AndaleMono" font-size="35.6" fill="#000000" transform="matrix(1.00, 0.00, -0.00, -1.00, 113.2, 365.0)"> </text><text xml:space="preserve" font-family="AndaleMono" font-size="35.6" fill="#000000" transform="matrix(1.00, 0.00, -0.00, -1.00, 134.6, 365.0)">l</text><text xml:space="preserve" font-family="AndaleMono" font-size="35.6" fill="#000000" transform="matrix(1.00, 0.00, -0.00, -1.00, 156.0, 365.0)">a</text><text xml:space="preserve" font-family="AndaleMono" font-size="35.6" fill="#000000" transform="matrix(1.00, 0.00, -0.00, -1.00, 177.3, 365.0)">s</text><text xml:space="preserve" font-family="AndaleMono" font-size="35.6" fill="#000000" transform="matrix(1.00, 0.00, -0.00, -1.00, 198.7, 365.0)">t</text><text xml:space="preserve" font-family="AndaleMono" font-size="35.6" fill="#000000" transform="matrix(1.00, 0.00, -0.00, -1.00, 220.1, 365.0)">_</text><text xml:space="preserve" font-family="AndaleMono" font-size="35.6" fill="#000000" transform="matrix(1.00, 0.00, -0.00, -1.00, 241.5, 365.0)">n</text><text xml:space="preserve" font-family="AndaleMono" font-size="35.6" fill="#000000" transform="matrix(1.00, 0.00, -0.00, -1.00, 262.9, 365.0)">a</text><text xml:space="preserve" font-family="AndaleMono" font-size="35.6" fill="#000000" transform="matrix(1.00, 0.00, -0.00, -1.00, 284.3, 365.0)">m</text><text xml:space="preserve" font-family="AndaleMono" font-size="35.6" fill="#000000" transform="matrix(1.00, 0.00, -0.00, -1.00, 305.7, 365.0)">e</text><text xml:space="preserve" font-family="AndaleMono" font-size="35.6" fill="#000000" transform="matrix(1.00, 0.00, -0.00, -1.00, 327.1, 365.0)"> </text><text xml:space="preserve" font-family="AndaleMono" font-size="35.6" fill="#000000" transform="matrix(1.00, 0.00, -0.00, -1.00, 348.5, 365.0)">=</text><text xml:space="preserve" font-family="AndaleMono" font-size="35.6" fill="#000000" transform="matrix(1.00, 0.00, -0.00, -1.00, 369.9, 365.0)"> </text><text xml:space="preserve" font-family="AndaleMono" font-size="35.6" fill="#000000" transform="matrix(1.00, 0.00, -0.00, -1.00, 391.3, 365.0)">S</text><text xml:space="preserve" font-family="AndaleMono" font-size="35.6" fill="#000000" transform="matrix(1.00, 0.00, -0.00, -1.00, 412.6, 365.0)">t</text><text xml:space="preserve" font-family="AndaleMono" font-size="35.6" fill="#000000" transform="matrix(1.00, 0.00, -0.00, -1.00, 434.0, 365.0)">r</text><text xml:space="preserve" font-family="AndaleMono" font-size="35.6" fill="#000000" transform="matrix(1.00, 0.00, -0.00, -1.00, 455.4, 365.0)">i</text><text xml:space="preserve" font-family="AndaleMono" font-size="35.6" fill="#000000" transform="matrix(1.00, 0.00, -0.00, -1.00, 476.8, 365.0)">n</text><text xml:space="preserve" font-family="AndaleMono" font-size="35.6" fill="#000000" transform="matrix(1.00, 0.00, -0.00, -1.00, 498.2, 365.0)">g</text><text xml:space="preserve" font-family="AndaleMono" font-size="35.6" fill="#000000" transform="matrix(1.00, 0.00, -0.00, -1.00, 519.6, 365.0)">F</text><text xml:space="preserve" font-family="AndaleMono" font-size="35.6" fill="#000000" transform="matrix(1.00, 0.00, -0.00, -1.00, 541.0, 365.0)">i</text><text xml:space="preserve" font-family="AndaleMono" font-size="35.6" fill="#000000" transform="matrix(1.00, 0.00, -0.00, -1.00, 562.4, 365.0)">e</text><text xml:space="preserve" font-family="AndaleMono" font-size="35.6" fill="#000000" transform="matrix(1.00, 0.00, -0.00, -1.00, 583.8, 365.0)">l</text><text xml:space="preserve" font-family="AndaleMono" font-size="35.6" fill="#000000" transform="matrix(1.00, 0.00, -0.00, -1.00, 605.2, 365.0)">d</text><text xml:space="preserve" font-family="AndaleMono" font-size="35.6" fill="#000000" transform="matrix(1.00, 0.00, -0.00, -1.00, 626.6, 365.0)">(</text><text xml:space="preserve" font-family="AndaleMono" font-size="35.6" fill="#000000" transform="matrix(1.00, 0.00, -0.00, -1.00, 647.9, 365.0)">m</text><text xml:space="preserve" font-family="AndaleMono" font-size="35.6" fill="#000000" transform="matrix(1.00, 0.00, -0.00, -1.00, 669.3, 365.0)">a</text><text xml:space="preserve" font-family="AndaleMono" font-size="35.6" fill="#000000" transform="matrix(1.00, 0.00, -0.00, -1.00, 690.7, 365.0)">x</text><text xml:space="preserve" font-family="AndaleMono" font-size="35.6" fill="#000000" transform="matrix(1.00, 0.00, -0.00, -1.00, 712.1, 365.0)">_</text><text xml:space="preserve" font-family="AndaleMono" font-size="35.6" fill="#000000" transform="matrix(1.00, 0.00, -0.00, -1.00, 733.5, 365.0)">l</text><text xml:space="preserve" font-family="AndaleMono" font-size="35.6" fill="#000000" transform="matrix(1.00, 0.00, -0.00, -1.00, 754.9, 365.0)">e</text><text xml:space="preserve" font-family="AndaleMono" font-size="35.6" fill="#000000" transform="matrix(1.00, 0.00, -0.00, -1.00, 776.3, 365.0)">n</text><text xml:space="preserve" font-family="AndaleMono" font-size="35.6" fill="#000000" transform="matrix(1.00, 0.00, -0.00, -1.00, 797.7, 365.0)">g</text><text xml:space="preserve" font-family="AndaleMono" font-size="35.6" fill="#000000" transform="matrix(1.00, 0.00, -0.00, -1.00, 819.1, 365.0)">t</text><text xml:space="preserve" font-family="AndaleMono" font-size="35.6" fill="#000000" transform="matrix(1.00, 0.00, -0.00, -1.00, 840.5, 365.0)">h</text><text xml:space="preserve" font-family="AndaleMono" font-size="35.6" fill="#000000" transform="matrix(1.00, 0.00, -0.00, -1.00, 861.9, 365.0)">=</text><text xml:space="preserve" font-family="AndaleMono" font-size="35.6" fill="#000000" transform="matrix(1.00, 0.00, -0.00, -1.00, 883.3, 365.0)">5</text><text xml:space="preserve" font-family="AndaleMono" font-size="35.6" fill="#000000" transform="matrix(1.00, 0.00, -0.00, -1.00, 904.6, 365.0)">0</text><text xml:space="preserve" font-family="AndaleMono" font-size="35.6" fill="#000000" transform="matrix(1.00, 0.00, -0.00, -1.00, 926.0, 365.0)">)</text><text xml:space="preserve" font-family="AndaleMono" font-size="35.6" fill="#000000" transform="matrix(1.00, 0.00, -0.00, -1.00, 947.4, 365.0)"> </text><text xml:space="preserve" font-family="HelveticaNeue" font-size="26.7" fill="#747373" transform="matrix(1.00, 0.00, -0.00, -1.00, 49.0, 285.1)">•</text><text xml:space="preserve" font-family="HelveticaNeue-Light" font-size="35.6" fill="#747373" transform="matrix(1.00, 0.00, -0.00, -1.00, 85.0, 282.0)">D</text><text xml:space="preserve" font-family="HelveticaNeue-Light" font-size="35.6" fill="#747373" transform="matrix(1.00, 0.00, -0.00, -1.00, 109.4, 282.0)">o</text><text xml:space="preserve" font-family="HelveticaNeue-Light" font-size="35.6" fill="#747373" transform="matrix(1.00, 0.00, -0.00, -1.00, 129.2, 282.0)">c</text><text xml:space="preserve" font-family="HelveticaNeue-Light" font-size="35.6" fill="#747373" transform="matrix(1.00, 0.00, -0.00, -1.00, 147.7, 282.0)">u</text><text xml:space="preserve" font-family="HelveticaNeue-Light" font-size="35.6" fill="#747373" transform="matrix(1.00, 0.00, -0.00, -1.00, 166.9, 282.0)">m</text><text xml:space="preserve" font-family="HelveticaNeue-Light" font-size="35.6" fill="#747373" transform="matrix(1.00, 0.00, -0.00, -1.00, 196.6, 282.0)">e</text><text xml:space="preserve" font-family="HelveticaNeue-Light" font-size="35.6" fill="#747373" transform="matrix(1.00, 0.00, -0.00, -1.00, 215.1, 282.0)">n</text><text xml:space="preserve" font-family="HelveticaNeue-Light" font-size="35.6" fill="#747373" transform="matrix(1.00, 0.00, -0.00, -1.00, 234.2, 282.0)">t</text><text xml:space="preserve" font-family="HelveticaNeue-Light" font-size="35.6" fill="#747373" transform="matrix(1.00, 0.00, -0.00, -1.00, 244.7, 282.0)"> </text><text xml:space="preserve" font-family="HelveticaNeue-Light" font-size="35.6" fill="#747373" transform="matrix(1.00, 0.00, -0.00, -1.00, 254.6, 282.0)">c</text><text xml:space="preserve" font-family="HelveticaNeue-Light" font-size="35.6" fill="#747373" transform="matrix(1.00, 0.00, -0.00, -1.00, 273.1, 282.0)">l</text><text xml:space="preserve" font-family="HelveticaNeue-Light" font-size="35.6" fill="#747373" transform="matrix(1.00, 0.00, -0.00, -1.00, 279.7, 282.0)">a</text><text xml:space="preserve" font-family="HelveticaNeue-Light" font-size="35.6" fill="#747373" transform="matrix(1.00, 0.00, -0.00, -1.00, 298.2, 282.0)">s</text><text xml:space="preserve" font-family="HelveticaNeue-Light" font-size="35.6" fill="#747373" transform="matrix(1.00, 0.00, -0.00, -1.00, 315.4, 282.0)">s</text><text xml:space="preserve" font-family="HelveticaNeue-Light" font-size="35.6" fill="#747373" transform="matrix(1.00, 0.00, -0.00, -1.00, 332.5, 282.0)"> </text><text xml:space="preserve" font-family="HelveticaNeue-Light" font-size="35.6" fill="#747373" transform="matrix(1.00, 0.00, -0.00, -1.00, 342.4, 282.0)">h</text><text xml:space="preserve" font-family="HelveticaNeue-Light" font-size="35.6" fill="#747373" transform="matrix(1.00, 0.00, -0.00, -1.00, 361.6, 282.0)">a</text><text xml:space="preserve" font-family="HelveticaNeue-Light" font-size="35.6" fill="#747373" transform="matrix(1.00, 0.00, -0.00, -1.00, 380.1, 282.0)">s</text><text xml:space="preserve" font-family="HelveticaNeue-Light" font-size="35.6" fill="#747373" transform="matrix(1.00, 0.00, -0.00, -1.00, 397.2, 282.0)"> </text><text xml:space="preserve" font-family="HelveticaNeue-Light" font-size="35.6" fill="#747373" transform="matrix(1.00, 0.00, -0.00, -1.00, 407.1, 282.0)">a</text><text xml:space="preserve" font-family="HelveticaNeue-Light" font-size="35.6" fill="#747373" transform="matrix(1.00, 0.00, -0.00, -1.00, 425.6, 282.0)"> </text><text xml:space="preserve" font-family="AndaleMono" font-size="35.6" fill="#747373" transform="matrix(1.00, 0.00, -0.00, -1.00, 435.5, 282.0)">s</text><text xml:space="preserve" font-family="AndaleMono" font-size="35.6" fill="#747373" transform="matrix(1.00, 0.00, -0.00, -1.00, 456.9, 282.0)">a</text><text xml:space="preserve" font-family="AndaleMono" font-size="35.6" fill="#747373" transform="matrix(1.00, 0.00, -0.00, -1.00, 478.3, 282.0)">v</text><text xml:space="preserve" font-family="AndaleMono" font-size="35.6" fill="#747373" transform="matrix(1.00, 0.00, -0.00, -1.00, 499.7, 282.0)">e</text><text xml:space="preserve" font-family="AndaleMono" font-size="35.6" fill="#747373" transform="matrix(1.00, 0.00, -0.00, -1.00, 521.1, 282.0)">(</text><text xml:space="preserve" font-family="AndaleMono" font-size="35.6" fill="#747373" transform="matrix(1.00, 0.00, -0.00, -1.00, 542.5, 282.0)">)</text><text xml:space="preserve" font-family="HelveticaNeue-Light" font-size="35.6" fill="#747373" transform="matrix(1.00, 0.00, -0.00, -1.00, 563.8, 282.0)"> </text><text xml:space="preserve" font-family="HelveticaNeue-Light" font-size="35.6" fill="#747373" transform="matrix(1.00, 0.00, -0.00, -1.00, 573.8, 282.0)">m</text><text xml:space="preserve" font-family="HelveticaNeue-Light" font-size="35.6" fill="#747373" transform="matrix(1.00, 0.00, -0.00, -1.00, 603.4, 282.0)">e</text><text xml:space="preserve" font-family="HelveticaNeue-Light" font-size="35.6" fill="#747373" transform="matrix(1.00, 0.00, -0.00, -1.00, 621.9, 282.0)">t</text><text xml:space="preserve" font-family="HelveticaNeue-Light" font-size="35.6" fill="#747373" transform="matrix(1.00, 0.00, -0.00, -1.00, 632.5, 282.0)">h</text><text xml:space="preserve" font-family="HelveticaNeue-Light" font-size="35.6" fill="#747373" transform="matrix(1.00, 0.00, -0.00, -1.00, 651.6, 282.0)">o</text><text xml:space="preserve" font-family="HelveticaNeue-Light" font-size="35.6" fill="#747373" transform="matrix(1.00, 0.00, -0.00, -1.00, 671.4, 282.0)">d</text><text xml:space="preserve" font-family="HelveticaNeue-Light" font-size="35.6" fill="#747373" transform="matrix(1.00, 0.00, -0.00, -1.00, 691.9, 282.0)"> </text><text xml:space="preserve" font-family="HelveticaNeue-Light" font-size="35.6" fill="#747373" transform="matrix(1.00, 0.00, -0.00, -1.00, 701.8, 282.0)"> </text><text xml:space="preserve" font-family="HelveticaNeue" font-size="26.7" fill="#747373" transform="matrix(1.00, 0.00, -0.00, -1.00, 85.0, 200.5)">•</text><text xml:space="preserve" font-family="HelveticaNeue-Light" font-size="35.6" fill="#747373" transform="matrix(1.00, 0.00, -0.00, -1.00, 121.0, 197.0)">P</text><text xml:space="preserve" font-family="HelveticaNeue-Light" font-size="35.6" fill="#747373" transform="matrix(1.00, 0.00, -0.00, -1.00, 143.5, 197.0)">e</text><text xml:space="preserve" font-family="HelveticaNeue-Light" font-size="35.6" fill="#747373" transform="matrix(1.00, 0.00, -0.00, -1.00, 162.0, 197.0)">r</text><text xml:space="preserve" font-family="HelveticaNeue-Light" font-size="35.6" fill="#747373" transform="matrix(1.00, 0.00, -0.00, -1.00, 173.2, 197.0)">s</text><text xml:space="preserve" font-family="HelveticaNeue-Light" font-size="35.6" fill="#747373" transform="matrix(1.00, 0.00, -0.00, -1.00, 190.3, 197.0)">i</text><text xml:space="preserve" font-family="HelveticaNeue-Light" font-size="35.6" fill="#747373" transform="matrix(1.00, 0.00, -0.00, -1.00, 196.9, 197.0)">s</text><text xml:space="preserve" font-family="HelveticaNeue-Light" font-size="35.6" fill="#747373" transform="matrix(1.00, 0.00, -0.00, -1.00, 214.1, 197.0)">t</text><text xml:space="preserve" font-family="HelveticaNeue-Light" font-size="35.6" fill="#747373" transform="matrix(1.00, 0.00, -0.00, -1.00, 224.6, 197.0)">s</text><text xml:space="preserve" font-family="HelveticaNeue-Light" font-size="35.6" fill="#747373" transform="matrix(1.00, 0.00, -0.00, -1.00, 241.7, 197.0)"> </text><text xml:space="preserve" font-family="HelveticaNeue-Light" font-size="35.6" fill="#747373" transform="matrix(1.00, 0.00, -0.00, -1.00, 251.7, 197.0)">t</text><text xml:space="preserve" font-family="HelveticaNeue-Light" font-size="35.6" fill="#747373" transform="matrix(1.00, 0.00, -0.00, -1.00, 262.2, 197.0)">h</text><text xml:space="preserve" font-family="HelveticaNeue-Light" font-size="35.6" fill="#747373" transform="matrix(1.00, 0.00, -0.00, -1.00, 281.3, 197.0)">e</text><text xml:space="preserve" font-family="HelveticaNeue-Light" font-size="35.6" fill="#747373" transform="matrix(1.00, 0.00, -0.00, -1.00, 299.8, 197.0)"> </text><text xml:space="preserve" font-family="HelveticaNeue-Light" font-size="35.6" fill="#747373" transform="matrix(1.00, 0.00, -0.00, -1.00, 309.7, 197.0)">i</text><text xml:space="preserve" font-family="HelveticaNeue-Light" font-size="35.6" fill="#747373" transform="matrix(1.00, 0.00, -0.00, -1.00, 316.3, 197.0)">n</text><text xml:space="preserve" font-family="HelveticaNeue-Light" font-size="35.6" fill="#747373" transform="matrix(1.00, 0.00, -0.00, -1.00, 335.5, 197.0)">s</text><text xml:space="preserve" font-family="HelveticaNeue-Light" font-size="35.6" fill="#747373" transform="matrix(1.00, 0.00, -0.00, -1.00, 352.6, 197.0)">t</text><text xml:space="preserve" font-family="HelveticaNeue-Light" font-size="35.6" fill="#747373" transform="matrix(1.00, 0.00, -0.00, -1.00, 363.2, 197.0)">a</text><text xml:space="preserve" font-family="HelveticaNeue-Light" font-size="35.6" fill="#747373" transform="matrix(1.00, 0.00, -0.00, -1.00, 381.7, 197.0)">n</text><text xml:space="preserve" font-family="HelveticaNeue-Light" font-size="35.6" fill="#747373" transform="matrix(1.00, 0.00, -0.00, -1.00, 400.8, 197.0)">c</text><text xml:space="preserve" font-family="HelveticaNeue-Light" font-size="35.6" fill="#747373" transform="matrix(1.00, 0.00, -0.00, -1.00, 419.3, 197.0)">e</text><text xml:space="preserve" font-family="HelveticaNeue-Light" font-size="35.6" fill="#747373" transform="matrix(1.00, 0.00, -0.00, -1.00, 437.8, 197.0)"> </text><text xml:space="preserve" font-family="HelveticaNeue-Light" font-size="35.6" fill="#747373" transform="matrix(1.00, 0.00, -0.00, -1.00, 447.7, 197.0)">i</text><text xml:space="preserve" font-family="HelveticaNeue-Light" font-size="35.6" fill="#747373" transform="matrix(1.00, 0.00, -0.00, -1.00, 454.3, 197.0)">n</text><text xml:space="preserve" font-family="HelveticaNeue-Light" font-size="35.6" fill="#747373" transform="matrix(1.00, 0.00, -0.00, -1.00, 473.4, 197.0)"> </text><text xml:space="preserve" font-family="HelveticaNeue-Light" font-size="35.6" fill="#747373" transform="matrix(1.00, 0.00, -0.00, -1.00, 483.4, 197.0)">t</text><text xml:space="preserve" font-family="HelveticaNeue-Light" font-size="35.6" fill="#747373" transform="matrix(1.00, 0.00, -0.00, -1.00, 493.9, 197.0)">h</text><text xml:space="preserve" font-family="HelveticaNeue-Light" font-size="35.6" fill="#747373" transform="matrix(1.00, 0.00, -0.00, -1.00, 513.0, 197.0)">e</text><text xml:space="preserve" font-family="HelveticaNeue-Light" font-size="35.6" fill="#747373" transform="matrix(1.00, 0.00, -0.00, -1.00, 531.5, 197.0)"> </text><text xml:space="preserve" font-family="HelveticaNeue-Light" font-size="35.6" fill="#747373" transform="matrix(1.00, 0.00, -0.00, -1.00, 541.4, 197.0)">d</text><text xml:space="preserve" font-family="HelveticaNeue-Light" font-size="35.6" fill="#747373" transform="matrix(1.00, 0.00, -0.00, -1.00, 561.9, 197.0)">a</text><text xml:space="preserve" font-family="HelveticaNeue-Light" font-size="35.6" fill="#747373" transform="matrix(1.00, 0.00, -0.00, -1.00, 580.4, 197.0)">t</text><text xml:space="preserve" font-family="HelveticaNeue-Light" font-size="35.6" fill="#747373" transform="matrix(1.00, 0.00, -0.00, -1.00, 590.9, 197.0)">a</text><text xml:space="preserve" font-family="HelveticaNeue-Light" font-size="35.6" fill="#747373" transform="matrix(1.00, 0.00, -0.00, -1.00, 609.4, 197.0)">b</text><text xml:space="preserve" font-family="HelveticaNeue-Light" font-size="35.6" fill="#747373" transform="matrix(1.00, 0.00, -0.00, -1.00, 629.9, 197.0)">a</text><text xml:space="preserve" font-family="HelveticaNeue-Light" font-size="35.6" fill="#747373" transform="matrix(1.00, 0.00, -0.00, -1.00, 648.4, 197.0)">s</text><text xml:space="preserve" font-family="HelveticaNeue-Light" font-size="35.6" fill="#747373" transform="matrix(1.00, 0.00, -0.00, -1.00, 665.5, 197.0)">e</text><text xml:space="preserve" font-family="HelveticaNeue-Light" font-size="35.6" fill="#747373" transform="matrix(1.00, 0.00, -0.00, -1.00, 684.0, 197.0)"> </text><text xml:space="preserve" font-family="HelveticaNeue" font-size="26.7" fill="#747373" transform="matrix(1.00, 0.00, -0.00, -1.00, 49.0, 115.9)">•</text><text xml:space="preserve" font-family="HelveticaNeue-Light" font-size="35.6" fill="#747373" transform="matrix(1.00, 0.00, -0.00, -1.00, 85.0, 112.0)">E</text><text xml:space="preserve" font-family="HelveticaNeue-Light" font-size="35.6" fill="#747373" transform="matrix(1.00, 0.00, -0.00, -1.00, 106.1, 112.0)">l</text><text xml:space="preserve" font-family="HelveticaNeue-Light" font-size="35.6" fill="#747373" transform="matrix(1.00, 0.00, -0.00, -1.00, 112.7, 112.0)">e</text><text xml:space="preserve" font-family="HelveticaNeue-Light" font-size="35.6" fill="#747373" transform="matrix(1.00, 0.00, -0.00, -1.00, 131.2, 112.0)">g</text><text xml:space="preserve" font-family="HelveticaNeue-Light" font-size="35.6" fill="#747373" transform="matrix(1.00, 0.00, -0.00, -1.00, 151.0, 112.0)">a</text><text xml:space="preserve" font-family="HelveticaNeue-Light" font-size="35.6" fill="#747373" transform="matrix(1.00, 0.00, -0.00, -1.00, 169.5, 112.0)">n</text><text xml:space="preserve" font-family="HelveticaNeue-Light" font-size="35.6" fill="#747373" transform="matrix(1.00, 0.00, -0.00, -1.00, 188.7, 112.0)">t</text><text xml:space="preserve" font-family="HelveticaNeue-Light" font-size="35.6" fill="#747373" transform="matrix(1.00, 0.00, -0.00, -1.00, 199.2, 112.0)">.</text></g></svg>