<?xml version="1.0" encoding="UTF-8" standalone="no"?><svg xmlns="http://www.w3.org/2000/svg" xmlns:xlink="http://www.w3.org/1999/xlink" clip-rule="evenodd" stroke-miterlimit="4.00" viewBox="0 0 443 141"><desc>SVG generated by Keynote</desc><defs><linearGradient id="gradSh1.7" x1="0.0" y1="0.0" x2="100.0" y2="0.0" gradientUnits="userSpaceOnUse" gradientTransform="matrix(0.00, -1.27, -4.33, 0.00, 221.3, 134.1)"><stop offset="0.00000" stop-color="#5C5C5C"></stop><stop offset="0.01906" stop-color="#5B5B5B"></stop><stop offset="1.00000" stop-color="#353535"></stop></linearGradient></defs><g transform="matrix(1.00, 0.00, -0.00, -1.00, 0.0, 141.0)"><image xlink:href="87FC954B87EB9CB25D31D6AFE7E76674.png" width="440.00" height="134.00" transform="matrix(1.00, 0.00, -0.00, -1.00, 1.3, 135.6)" opacity="0.40"></image><g><clipPath id="clip-18"><path d="M 5.8 26.4 L 5.8 114.8 C 5.8 124.9 14.0 133.1 24.1 133.1 L 418.5 133.1 C 428.6 133.1 436.8 124.9 436.8 114.8 L 436.8 26.4 C 436.8 16.3 428.6 8.2 418.5 8.2 L 24.1 8.2 C 14.0 8.2 5.8 16.3 5.8 26.4 Z M 5.8 26.4 "></path></clipPath><g clip-path="url(#clip-18)"><path d="M 5.8 26.4 L 5.8 114.8 C 5.8 124.9 14.0 133.1 24.1 133.1 L 418.5 133.1 C 428.6 133.1 436.8 124.9 436.8 114.8 L 436.8 26.4 C 436.8 16.3 428.6 8.2 418.5 8.2 L 24.1 8.2 C 14.0 8.2 5.8 16.3 5.8 26.4 Z M 5.8 26.4 " fill="url(#gradSh1.7)"></path></g></g><path d="M 0.0 106.7 L 0.0 18.3 C 0.0 8.2 8.2 0.0 18.3 0.0 L 412.7 0.0 C 422.8 0.0 431.0 8.2 431.0 18.3 L 431.0 106.7 C 431.0 116.8 422.8 125.0 412.7 125.0 L 18.3 125.0 C 8.2 125.0 0.0 116.8 0.0 106.7 Z M 0.0 106.7 " fill="none" stroke="#000000" stroke-width="1.00" transform="matrix(1.00, 0.00, 0.00, -1.00, 5.8, 133.1)"></path><g><clipPath id="clip-19"><path d="M 5.8 8.2 L 436.8 8.2 L 436.8 142.3 L 5.8 142.3 Z M 5.8 8.2 "></path></clipPath><g clip-path="url(#clip-19)"><text xml:space="preserve" font-family="HelveticaNeue-Light" font-size="48.0" fill="#FFFFFF" transform="matrix(1.00, 0.00, -0.00, -1.00, 22.0, 83.0)">I</text><text xml:space="preserve" font-family="HelveticaNeue-Light" font-size="48.0" fill="#FFFFFF" transform="matrix(1.00, 0.00, -0.00, -1.00, 32.7, 83.0)">n</text><text xml:space="preserve" font-family="HelveticaNeue-Light" font-size="48.0" fill="#FFFFFF" transform="matrix(1.00, 0.00, -0.00, -1.00, 58.4, 83.0)"> </text><text xml:space="preserve" font-family="HelveticaNeue-Light" font-size="48.0" fill="#FFFFFF" transform="matrix(1.00, 0.00, -0.00, -1.00, 71.8, 83.0)">T</text><text xml:space="preserve" font-family="HelveticaNeue-Light" font-size="48.0" fill="#FFFFFF" transform="matrix(1.00, 0.00, -0.00, -1.00, 98.5, 83.0)">h</text><text xml:space="preserve" font-family="HelveticaNeue-Light" font-size="48.0" fill="#FFFFFF" transform="matrix(1.00, 0.00, -0.00, -1.00, 124.2, 83.0)">e</text><text xml:space="preserve" font-family="HelveticaNeue-Light" font-size="48.0" fill="#FFFFFF" transform="matrix(1.00, 0.00, -0.00, -1.00, 149.2, 83.0)"> </text><text xml:space="preserve" font-family="HelveticaNeue-Light" font-size="48.0" fill="#FFFFFF" transform="matrix(1.00, 0.00, -0.00, -1.00, 162.5, 83.0)">C</text><text xml:space="preserve" font-family="HelveticaNeue-Light" font-size="48.0" fill="#FFFFFF" transform="matrix(1.00, 0.00, -0.00, -1.00, 196.3, 83.0)">o</text><text xml:space="preserve" font-family="HelveticaNeue-Light" font-size="48.0" fill="#FFFFFF" transform="matrix(1.00, 0.00, -0.00, -1.00, 223.0, 83.0)">d</text><text xml:space="preserve" font-family="HelveticaNeue-Light" font-size="48.0" fill="#FFFFFF" transform="matrix(1.00, 0.00, -0.00, -1.00, 250.5, 83.0)">e</text></g></g></g></svg>