<?xml version="1.0" encoding="UTF-8" standalone="no"?><svg xmlns="http://www.w3.org/2000/svg" xmlns:xlink="http://www.w3.org/1999/xlink" clip-rule="evenodd" stroke-miterlimit="4.00" viewBox="0 0 1024 768"><desc>SVG generated by Keynote</desc><defs><linearGradient id="gradSh1.10" x1="0.0" y1="0.0" x2="100.0" y2="0.0" gradientUnits="userSpaceOnUse" gradientTransform="matrix(0.00, -1.27, -4.33, 0.00, 265.5, 565.1)"><stop offset="0.00000" stop-color="#5C5C5C"></stop><stop offset="0.01906" stop-color="#5B5B5B"></stop><stop offset="1.00000" stop-color="#353535"></stop></linearGradient><linearGradient id="gradSh1.11" x1="0.0" y1="0.0" x2="100.0" y2="0.0" gradientUnits="userSpaceOnUse" gradientTransform="matrix(0.00, -1.27, -4.33, 0.00, 758.3, 565.1)"><stop offset="0.00000" stop-color="#5C5C5C"></stop><stop offset="0.01906" stop-color="#5B5B5B"></stop><stop offset="1.00000" stop-color="#353535"></stop></linearGradient><linearGradient id="gradSh2.12" x1="0.0" y1="0.0" x2="100.0" y2="0.0" gradientUnits="userSpaceOnUse" gradientTransform="matrix(0.00, 1.61, -5.04, 0.00, 516.8, 94.4)"><stop offset="0.00000" stop-color="#AD584F"></stop><stop offset="0.00440" stop-color="#AD584E"></stop><stop offset="0.82625" stop-color="#803F38"></stop><stop offset="0.83284" stop-color="#7F3F38"></stop><stop offset="0.85191" stop-color="#7E3F38"></stop><stop offset="1.00000" stop-color="#763A34"></stop></linearGradient><linearGradient id="gradSh2.13" x1="0.0" y1="0.0" x2="100.0" y2="0.0" gradientUnits="userSpaceOnUse" gradientTransform="matrix(0.00, -0.53, -2.83, 0.00, 516.8, 241.3)"><stop offset="0.00000" stop-color="#AD584F"></stop><stop offset="0.00440" stop-color="#AD584E"></stop><stop offset="0.82625" stop-color="#803F38"></stop><stop offset="0.83284" stop-color="#7F3F38"></stop><stop offset="0.85191" stop-color="#7E3F38"></stop><stop offset="1.00000" stop-color="#763A34"></stop></linearGradient></defs><g transform="matrix(1.00, 0.00, -0.00, -1.00, 0.0, 768.0)"><path d="M 0.0 768.0 L 1024.0 768.0 L 1024.0 0.0 L 0.0 0.0 Z M 0.0 768.0 " fill="#FEFFFE"></path><path d="M 0.0 0.0 L 934.5 0.0 " fill="none" stroke="#9A9A9A" stroke-width="1.00" transform="matrix(1.00, 0.00, 0.00, -1.00, 45.0, 613.0)"></path><text xml:space="preserve" font-family="HelveticaNeue-Light" font-size="42.0" fill="#000000" transform="matrix(1.00, 0.00, -0.00, -1.00, 49.0, 645.0)">T</text><text xml:space="preserve" font-family="HelveticaNeue-Light" font-size="42.0" fill="#000000" transform="matrix(1.00, 0.00, -0.00, -1.00, 72.4, 645.0)">h</text><text xml:space="preserve" font-family="HelveticaNeue-Light" font-size="42.0" fill="#000000" transform="matrix(1.00, 0.00, -0.00, -1.00, 94.9, 645.0)">i</text><text xml:space="preserve" font-family="HelveticaNeue-Light" font-size="42.0" fill="#000000" transform="matrix(1.00, 0.00, -0.00, -1.00, 102.7, 645.0)">s</text><text xml:space="preserve" font-family="HelveticaNeue-Light" font-size="42.0" fill="#000000" transform="matrix(1.00, 0.00, -0.00, -1.00, 122.9, 645.0)"> </text><text xml:space="preserve" font-family="HelveticaNeue-Light" font-size="42.0" fill="#000000" transform="matrix(1.00, 0.00, -0.00, -1.00, 134.6, 645.0)">i</text><text xml:space="preserve" font-family="HelveticaNeue-Light" font-size="42.0" fill="#000000" transform="matrix(1.00, 0.00, -0.00, -1.00, 142.3, 645.0)">s</text><text xml:space="preserve" font-family="HelveticaNeue-Light" font-size="42.0" fill="#000000" transform="matrix(1.00, 0.00, -0.00, -1.00, 162.5, 645.0)"> </text><text xml:space="preserve" font-family="HelveticaNeue-Light" font-size="42.0" fill="#000000" transform="matrix(1.00, 0.00, -0.00, -1.00, 174.2, 645.0)">M</text><text xml:space="preserve" font-family="HelveticaNeue-Light" font-size="42.0" fill="#000000" transform="matrix(1.00, 0.00, -0.00, -1.00, 208.7, 645.0)">y</text><text xml:space="preserve" font-family="HelveticaNeue-Light" font-size="42.0" fill="#000000" transform="matrix(1.00, 0.00, -0.00, -1.00, 228.1, 645.0)"> </text><text xml:space="preserve" font-family="HelveticaNeue-Light" font-size="42.0" fill="#000000" transform="matrix(1.00, 0.00, -0.00, -1.00, 239.8, 645.0)">O</text><text xml:space="preserve" font-family="HelveticaNeue-Light" font-size="42.0" fill="#000000" transform="matrix(1.00, 0.00, -0.00, -1.00, 270.9, 645.0)">b</text><text xml:space="preserve" font-family="HelveticaNeue-Light" font-size="42.0" fill="#000000" transform="matrix(1.00, 0.00, -0.00, -1.00, 295.0, 645.0)">j</text><text xml:space="preserve" font-family="HelveticaNeue-Light" font-size="42.0" fill="#000000" transform="matrix(1.00, 0.00, -0.00, -1.00, 302.8, 645.0)">e</text><text xml:space="preserve" font-family="HelveticaNeue-Light" font-size="42.0" fill="#000000" transform="matrix(1.00, 0.00, -0.00, -1.00, 324.6, 645.0)">c</text><text xml:space="preserve" font-family="HelveticaNeue-Light" font-size="42.0" fill="#000000" transform="matrix(1.00, 0.00, -0.00, -1.00, 346.4, 645.0)">t</text><text xml:space="preserve" font-family="HelveticaNeue-Light" font-size="42.0" fill="#000000" transform="matrix(1.00, 0.00, -0.00, -1.00, 358.8, 645.0)">i</text><text xml:space="preserve" font-family="HelveticaNeue-Light" font-size="42.0" fill="#000000" transform="matrix(1.00, 0.00, -0.00, -1.00, 366.6, 645.0)">v</text><text xml:space="preserve" font-family="HelveticaNeue-Light" font-size="42.0" fill="#000000" transform="matrix(1.00, 0.00, -0.00, -1.00, 386.1, 645.0)">e</text><image xlink:href="../../85B669C0-ACFA-4CF3-85C7-0E29171BB23B/assets/F5CD1B964EF4D85001962AABCE335F1C.png" width="440.00" height="134.00" transform="matrix(1.00, 0.00, -0.00, -1.00, 45.7, 566.6)" opacity="0.40"></image><g><clipPath id="clip-28"><path d="M 50.2 457.4 L 50.2 545.8 C 50.2 555.9 58.4 564.1 68.5 564.1 L 462.5 564.1 C 472.6 564.1 480.8 555.9 480.8 545.8 L 480.8 457.4 C 480.8 447.3 472.6 439.2 462.5 439.2 L 68.5 439.2 C 58.4 439.2 50.2 447.3 50.2 457.4 Z M 50.2 457.4 "></path></clipPath><g clip-path="url(#clip-28)"><path d="M 50.2 457.4 L 50.2 545.8 C 50.2 555.9 58.4 564.1 68.5 564.1 L 462.5 564.1 C 472.6 564.1 480.8 555.9 480.8 545.8 L 480.8 457.4 C 480.8 447.3 472.6 439.2 462.5 439.2 L 68.5 439.2 C 58.4 439.2 50.2 447.3 50.2 457.4 Z M 50.2 457.4 " fill="url(#gradSh1.10)"></path></g></g><path d="M 0.0 106.7 L 0.0 18.3 C 0.0 8.2 8.2 0.0 18.3 0.0 L 412.4 0.0 C 422.5 0.0 430.7 8.2 430.7 18.3 L 430.7 106.7 C 430.7 116.8 422.5 125.0 412.4 125.0 L 18.3 125.0 C 8.2 125.0 0.0 116.8 0.0 106.7 Z M 0.0 106.7 " fill="none" stroke="#000000" stroke-width="1.00" transform="matrix(1.00, 0.00, 0.00, -1.00, 50.2, 564.1)"></path><g><clipPath id="clip-29"><path d="M 46.2 431.0 L 484.8 431.0 L 484.8 573.3 L 46.2 573.3 Z M 46.2 431.0 "></path></clipPath><g clip-path="url(#clip-29)"><text xml:space="preserve" font-family="HelveticaNeue-Light" font-size="48.0" fill="#FFFFFF" transform="matrix(1.00, 0.00, -0.00, -1.00, 66.0, 514.0)">A</text><text xml:space="preserve" font-family="HelveticaNeue-Light" font-size="48.0" fill="#FFFFFF" transform="matrix(1.00, 0.00, -0.00, -1.00, 96.2, 514.0)"> </text><text xml:space="preserve" font-family="HelveticaNeue-Light" font-size="48.0" fill="#FFFFFF" transform="matrix(1.00, 0.00, -0.00, -1.00, 109.6, 514.0)">D</text><text xml:space="preserve" font-family="HelveticaNeue-Light" font-size="48.0" fill="#FFFFFF" transform="matrix(1.00, 0.00, -0.00, -1.00, 142.5, 514.0)">e</text><text xml:space="preserve" font-family="HelveticaNeue-Light" font-size="48.0" fill="#FFFFFF" transform="matrix(1.00, 0.00, -0.00, -1.00, 167.4, 514.0)">ï¬</text><text xml:space="preserve" font-family="HelveticaNeue-Light" font-size="48.0" fill="#FFFFFF" transform="matrix(1.00, 0.00, -0.00, -1.00, 188.7, 514.0)">n</text><text xml:space="preserve" font-family="HelveticaNeue-Light" font-size="48.0" fill="#FFFFFF" transform="matrix(1.00, 0.00, -0.00, -1.00, 214.5, 514.0)">e</text><text xml:space="preserve" font-family="HelveticaNeue-Light" font-size="48.0" fill="#FFFFFF" transform="matrix(1.00, 0.00, -0.00, -1.00, 239.4, 514.0)">d</text><text xml:space="preserve" font-family="HelveticaNeue-Light" font-size="48.0" fill="#FFFFFF" transform="matrix(1.00, 0.00, -0.00, -1.00, 266.9, 514.0)"> </text><text xml:space="preserve" font-family="HelveticaNeue-Light" font-size="48.0" fill="#FFFFFF" transform="matrix(1.00, 0.00, -0.00, -1.00, 280.3, 514.0)">S</text><text xml:space="preserve" font-family="HelveticaNeue-Light" font-size="48.0" fill="#FFFFFF" transform="matrix(1.00, 0.00, -0.00, -1.00, 310.5, 514.0)">c</text><text xml:space="preserve" font-family="HelveticaNeue-Light" font-size="48.0" fill="#FFFFFF" transform="matrix(1.00, 0.00, -0.00, -1.00, 335.4, 514.0)">h</text><text xml:space="preserve" font-family="HelveticaNeue-Light" font-size="48.0" fill="#FFFFFF" transform="matrix(1.00, 0.00, -0.00, -1.00, 361.2, 514.0)">e</text><text xml:space="preserve" font-family="HelveticaNeue-Light" font-size="48.0" fill="#FFFFFF" transform="matrix(1.00, 0.00, -0.00, -1.00, 386.1, 514.0)">m</text><text xml:space="preserve" font-family="HelveticaNeue-Light" font-size="48.0" fill="#FFFFFF" transform="matrix(1.00, 0.00, -0.00, -1.00, 426.1, 514.0)">a</text><text xml:space="preserve" font-family="HelveticaNeue-Light" font-size="48.0" fill="#FFFFFF" transform="matrix(1.00, 0.00, -0.00, -1.00, 451.0, 514.0)"> </text></g></g><image xlink:href="../../85B669C0-ACFA-4CF3-85C7-0E29171BB23B/assets/87FC954B87EB9CB25D31D6AFE7E76674.png" width="440.00" height="134.00" transform="matrix(1.00, 0.00, -0.00, -1.00, 538.3, 566.6)" opacity="0.40"></image><g><clipPath id="clip-30"><path d="M 542.8 457.4 L 542.8 545.8 C 542.8 555.9 551.0 564.1 561.1 564.1 L 955.5 564.1 C 965.6 564.1 973.8 555.9 973.8 545.8 L 973.8 457.4 C 973.8 447.3 965.6 439.2 955.5 439.2 L 561.1 439.2 C 551.0 439.2 542.8 447.3 542.8 457.4 Z M 542.8 457.4 "></path></clipPath><g clip-path="url(#clip-30)"><path d="M 542.8 457.4 L 542.8 545.8 C 542.8 555.9 551.0 564.1 561.1 564.1 L 955.5 564.1 C 965.6 564.1 973.8 555.9 973.8 545.8 L 973.8 457.4 C 973.8 447.3 965.6 439.2 955.5 439.2 L 561.1 439.2 C 551.0 439.2 542.8 447.3 542.8 457.4 Z M 542.8 457.4 " fill="url(#gradSh1.11)"></path></g></g><path d="M 0.0 106.7 L 0.0 18.3 C 0.0 8.2 8.2 0.0 18.3 0.0 L 412.7 0.0 C 422.8 0.0 431.0 8.2 431.0 18.3 L 431.0 106.7 C 431.0 116.8 422.8 125.0 412.7 125.0 L 18.3 125.0 C 8.2 125.0 0.0 116.8 0.0 106.7 Z M 0.0 106.7 " fill="none" stroke="#000000" stroke-width="1.00" transform="matrix(1.00, 0.00, 0.00, -1.00, 542.8, 564.1)"></path><g><clipPath id="clip-31"><path d="M 542.8 439.2 L 973.8 439.2 L 973.8 573.3 L 542.8 573.3 Z M 542.8 439.2 "></path></clipPath><g clip-path="url(#clip-31)"><text xml:space="preserve" font-family="HelveticaNeue-Light" font-size="48.0" fill="#FFFFFF" transform="matrix(1.00, 0.00, -0.00, -1.00, 559.0, 514.0)">I</text><text xml:space="preserve" font-family="HelveticaNeue-Light" font-size="48.0" fill="#FFFFFF" transform="matrix(1.00, 0.00, -0.00, -1.00, 569.7, 514.0)">n</text><text xml:space="preserve" font-family="HelveticaNeue-Light" font-size="48.0" fill="#FFFFFF" transform="matrix(1.00, 0.00, -0.00, -1.00, 595.4, 514.0)"> </text><text xml:space="preserve" font-family="HelveticaNeue-Light" font-size="48.0" fill="#FFFFFF" transform="matrix(1.00, 0.00, -0.00, -1.00, 608.8, 514.0)">T</text><text xml:space="preserve" font-family="HelveticaNeue-Light" font-size="48.0" fill="#FFFFFF" transform="matrix(1.00, 0.00, -0.00, -1.00, 635.5, 514.0)">h</text><text xml:space="preserve" font-family="HelveticaNeue-Light" font-size="48.0" fill="#FFFFFF" transform="matrix(1.00, 0.00, -0.00, -1.00, 661.2, 514.0)">e</text><text xml:space="preserve" font-family="HelveticaNeue-Light" font-size="48.0" fill="#FFFFFF" transform="matrix(1.00, 0.00, -0.00, -1.00, 686.2, 514.0)"> </text><text xml:space="preserve" font-family="HelveticaNeue-Light" font-size="48.0" fill="#FFFFFF" transform="matrix(1.00, 0.00, -0.00, -1.00, 699.5, 514.0)">C</text><text xml:space="preserve" font-family="HelveticaNeue-Light" font-size="48.0" fill="#FFFFFF" transform="matrix(1.00, 0.00, -0.00, -1.00, 733.3, 514.0)">o</text><text xml:space="preserve" font-family="HelveticaNeue-Light" font-size="48.0" fill="#FFFFFF" transform="matrix(1.00, 0.00, -0.00, -1.00, 760.0, 514.0)">d</text><text xml:space="preserve" font-family="HelveticaNeue-Light" font-size="48.0" fill="#FFFFFF" transform="matrix(1.00, 0.00, -0.00, -1.00, 787.5, 514.0)">e</text></g></g><g><clipPath id="clip-32"><path d="M 375.2 295.8 L 658.4 295.8 L 658.4 397.8 L 375.2 397.8 Z M 375.2 295.8 "></path></clipPath><g clip-path="url(#clip-32)"><path d="M 399.2 396.8 L 634.4 396.8 C 641.0 396.8 644.4 396.8 647.9 395.6 C 651.8 394.2 654.8 391.2 656.2 387.3 C 657.4 383.7 657.4 380.4 657.4 373.7 L 657.4 319.7 C 657.4 313.1 657.4 309.8 656.2 306.2 C 654.8 302.3 651.8 299.3 647.9 297.9 C 644.4 296.8 641.0 296.8 634.3 296.8 L 399.2 296.8 C 392.6 296.8 389.3 296.8 385.7 297.9 C 381.8 299.3 378.8 302.3 377.4 306.2 C 376.2 309.8 376.2 313.1 376.2 319.8 L 376.2 373.8 C 376.2 380.4 376.2 383.7 377.4 387.3 C 378.8 391.2 381.8 394.2 385.7 395.6 C 389.3 396.8 392.6 396.8 399.3 396.8 Z M 399.2 396.8 " fill="#325D6A"></path></g></g><g><clipPath id="clip-33"><path d="M 413.6 320.3 L 620.0 320.3 L 620.0 373.2 L 413.6 373.2 Z M 413.6 320.3 "></path></clipPath><g clip-path="url(#clip-33)"><path d="M 414.6 372.2 L 619.0 372.2 L 619.0 321.3 L 414.6 321.3 Z M 414.6 372.2 " fill="#325D6A"></path></g></g><g><clipPath id="clip-34"><path d="M 408.0 313.6 L 625.6 313.6 L 625.6 378.8 L 408.0 378.8 Z M 408.0 313.6 "></path></clipPath><g clip-path="url(#clip-34)"><text xml:space="preserve" font-family="HelveticaNeue-Light" font-size="36.0" fill="#FFFFFF" transform="matrix(1.00, 0.00, -0.00, -1.00, 419.0, 333.0)">S</text><text xml:space="preserve" font-family="HelveticaNeue-Light" font-size="36.0" fill="#FFFFFF" transform="matrix(1.00, 0.00, -0.00, -1.00, 441.7, 333.0)">t</text><text xml:space="preserve" font-family="HelveticaNeue-Light" font-size="36.0" fill="#FFFFFF" transform="matrix(1.00, 0.00, -0.00, -1.00, 452.3, 333.0)">a</text><text xml:space="preserve" font-family="HelveticaNeue-Light" font-size="36.0" fill="#FFFFFF" transform="matrix(1.00, 0.00, -0.00, -1.00, 471.0, 333.0)">t</text><text xml:space="preserve" font-family="HelveticaNeue-Light" font-size="36.0" fill="#FFFFFF" transform="matrix(1.00, 0.00, -0.00, -1.00, 481.7, 333.0)">e</text><text xml:space="preserve" font-family="HelveticaNeue-Light" font-size="36.0" fill="#FFFFFF" transform="matrix(1.00, 0.00, -0.00, -1.00, 500.4, 333.0)">d</text><text xml:space="preserve" font-family="HelveticaNeue-Light" font-size="36.0" fill="#FFFFFF" transform="matrix(1.00, 0.00, -0.00, -1.00, 521.0, 333.0)"> </text><text xml:space="preserve" font-family="HelveticaNeue-Light" font-size="36.0" fill="#FFFFFF" transform="matrix(1.00, 0.00, -0.00, -1.00, 531.0, 333.0)">O</text><text xml:space="preserve" font-family="HelveticaNeue-Light" font-size="36.0" fill="#FFFFFF" transform="matrix(1.00, 0.00, -0.00, -1.00, 557.7, 333.0)">n</text><text xml:space="preserve" font-family="HelveticaNeue-Light" font-size="36.0" fill="#FFFFFF" transform="matrix(1.00, 0.00, -0.00, -1.00, 577.0, 333.0)">c</text><text xml:space="preserve" font-family="HelveticaNeue-Light" font-size="36.0" fill="#FFFFFF" transform="matrix(1.00, 0.00, -0.00, -1.00, 595.7, 333.0)">e</text></g></g><g><clipPath id="clip-35"><path d="M 264.9 94.4 L 768.7 94.4 L 768.7 255.8 L 264.9 255.8 Z M 264.9 94.4 "></path></clipPath><g clip-path="url(#clip-35)"><g><clipPath id="clip-36"><path d="M 516.8 95.4 L 767.7 254.8 L 265.9 254.8 Z M 516.8 95.4 "></path></clipPath><g clip-path="url(#clip-36)"><path d="M 516.8 95.4 L 767.7 254.8 L 265.9 254.8 Z M 516.8 95.4 " fill="url(#gradSh2.12)"></path></g></g></g></g><g><clipPath id="clip-37"><path d="M 376.2 240.3 L 657.4 240.3 L 657.4 189.3 L 376.2 189.3 Z M 376.2 240.3 "></path></clipPath><g clip-path="url(#clip-37)"><g><clipPath id="clip-38"><path d="M 375.2 188.3 L 658.4 188.3 L 658.4 241.3 L 375.2 241.3 Z M 375.2 188.3 "></path></clipPath><g clip-path="url(#clip-38)"><path d="M 375.2 188.3 L 658.4 188.3 L 658.4 241.3 L 375.2 241.3 Z M 375.2 188.3 " fill="url(#gradSh2.13)"></path></g></g></g></g><g><clipPath id="clip-39"><path d="M 369.6 181.7 L 664.0 181.7 L 664.0 246.9 L 369.6 246.9 Z M 369.6 181.7 "></path></clipPath><g clip-path="url(#clip-39)"><text xml:space="preserve" font-family="HelveticaNeue-Light" font-size="36.0" fill="#FFFFFF" transform="matrix(1.00, 0.00, -0.00, -1.00, 381.0, 201.0)">T</text><text xml:space="preserve" font-family="HelveticaNeue-Light" font-size="36.0" fill="#FFFFFF" transform="matrix(1.00, 0.00, -0.00, -1.00, 401.0, 201.0)">h</text><text xml:space="preserve" font-family="HelveticaNeue-Light" font-size="36.0" fill="#FFFFFF" transform="matrix(1.00, 0.00, -0.00, -1.00, 420.3, 201.0)">r</text><text xml:space="preserve" font-family="HelveticaNeue-Light" font-size="36.0" fill="#FFFFFF" transform="matrix(1.00, 0.00, -0.00, -1.00, 431.0, 201.0)">e</text><text xml:space="preserve" font-family="HelveticaNeue-Light" font-size="36.0" fill="#FFFFFF" transform="matrix(1.00, 0.00, -0.00, -1.00, 449.7, 201.0)">e</text><text xml:space="preserve" font-family="HelveticaNeue-Light" font-size="36.0" fill="#FFFFFF" transform="matrix(1.00, 0.00, -0.00, -1.00, 468.4, 201.0)"> </text><text xml:space="preserve" font-family="HelveticaNeue-Light" font-size="36.0" fill="#FFFFFF" transform="matrix(1.00, 0.00, -0.00, -1.00, 478.4, 201.0)">T</text><text xml:space="preserve" font-family="HelveticaNeue-Light" font-size="36.0" fill="#FFFFFF" transform="matrix(1.00, 0.00, -0.00, -1.00, 494.4, 201.0)">e</text><text xml:space="preserve" font-family="HelveticaNeue-Light" font-size="36.0" fill="#FFFFFF" transform="matrix(1.00, 0.00, -0.00, -1.00, 513.1, 201.0)">c</text><text xml:space="preserve" font-family="HelveticaNeue-Light" font-size="36.0" fill="#FFFFFF" transform="matrix(1.00, 0.00, -0.00, -1.00, 531.8, 201.0)">h</text><text xml:space="preserve" font-family="HelveticaNeue-Light" font-size="36.0" fill="#FFFFFF" transform="matrix(1.00, 0.00, -0.00, -1.00, 551.1, 201.0)">n</text><text xml:space="preserve" font-family="HelveticaNeue-Light" font-size="36.0" fill="#FFFFFF" transform="matrix(1.00, 0.00, -0.00, -1.00, 570.5, 201.0)">i</text><text xml:space="preserve" font-family="HelveticaNeue-Light" font-size="36.0" fill="#FFFFFF" transform="matrix(1.00, 0.00, -0.00, -1.00, 577.1, 201.0)">q</text><text xml:space="preserve" font-family="HelveticaNeue-Light" font-size="36.0" fill="#FFFFFF" transform="matrix(1.00, 0.00, -0.00, -1.00, 597.8, 201.0)">u</text><text xml:space="preserve" font-family="HelveticaNeue-Light" font-size="36.0" fill="#FFFFFF" transform="matrix(1.00, 0.00, -0.00, -1.00, 617.1, 201.0)">e</text><text xml:space="preserve" font-family="HelveticaNeue-Light" font-size="36.0" fill="#FFFFFF" transform="matrix(1.00, 0.00, -0.00, -1.00, 635.8, 201.0)">s</text></g></g></g></svg>