<?xml version="1.0" encoding="UTF-8" standalone="no"?><svg xmlns="http://www.w3.org/2000/svg" xmlns:xlink="http://www.w3.org/1999/xlink" clip-rule="evenodd" stroke-miterlimit="4.00" viewBox="0 0 1024 768"><desc>SVG generated by Keynote</desc><defs></defs><g transform="matrix(1.00, 0.00, -0.00, -1.00, 0.0, 768.0)"><path d="M 0.0 768.0 L 1024.0 768.0 L 1024.0 0.0 L 0.0 0.0 Z M 0.0 768.0 " fill="#FEFFFE"></path><path d="M 0.0 0.0 L 934.5 0.0 " fill="none" stroke="#9A9A9A" stroke-width="1.00" transform="matrix(1.00, 0.00, 0.00, -1.00, 45.0, 613.0)"></path><text xml:space="preserve" font-family="HelveticaNeue-Light" font-size="42.0" fill="#000000" transform="matrix(1.00, 0.00, -0.00, -1.00, 49.0, 645.0)">S</text><text xml:space="preserve" font-family="HelveticaNeue-Light" font-size="42.0" fill="#000000" transform="matrix(1.00, 0.00, -0.00, -1.00, 75.5, 645.0)">c</text><text xml:space="preserve" font-family="HelveticaNeue-Light" font-size="42.0" fill="#000000" transform="matrix(1.00, 0.00, -0.00, -1.00, 97.3, 645.0)">h</text><text xml:space="preserve" font-family="HelveticaNeue-Light" font-size="42.0" fill="#000000" transform="matrix(1.00, 0.00, -0.00, -1.00, 119.8, 645.0)">e</text><text xml:space="preserve" font-family="HelveticaNeue-Light" font-size="42.0" fill="#000000" transform="matrix(1.00, 0.00, -0.00, -1.00, 141.6, 645.0)">m</text><text xml:space="preserve" font-family="HelveticaNeue-Light" font-size="42.0" fill="#000000" transform="matrix(1.00, 0.00, -0.00, -1.00, 176.6, 645.0)">a</text><text xml:space="preserve" font-family="HelveticaNeue-Light" font-size="42.0" fill="#000000" transform="matrix(1.00, 0.00, -0.00, -1.00, 198.4, 645.0)"> </text><text xml:space="preserve" font-family="HelveticaNeue-Light" font-size="42.0" fill="#000000" transform="matrix(1.00, 0.00, -0.00, -1.00, 210.1, 645.0)">i</text><text xml:space="preserve" font-family="HelveticaNeue-Light" font-size="42.0" fill="#000000" transform="matrix(1.00, 0.00, -0.00, -1.00, 217.8, 645.0)">n</text><text xml:space="preserve" font-family="HelveticaNeue-Light" font-size="42.0" fill="#000000" transform="matrix(1.00, 0.00, -0.00, -1.00, 240.4, 645.0)"> </text><text xml:space="preserve" font-family="HelveticaNeue-Light" font-size="42.0" fill="#000000" transform="matrix(1.00, 0.00, -0.00, -1.00, 252.1, 645.0)">P</text><text xml:space="preserve" font-family="HelveticaNeue-Light" font-size="42.0" fill="#000000" transform="matrix(1.00, 0.00, -0.00, -1.00, 278.5, 645.0)">u</text><text xml:space="preserve" font-family="HelveticaNeue-Light" font-size="42.0" fill="#000000" transform="matrix(1.00, 0.00, -0.00, -1.00, 301.1, 645.0)">r</text><text xml:space="preserve" font-family="HelveticaNeue-Light" font-size="42.0" fill="#000000" transform="matrix(1.00, 0.00, -0.00, -1.00, 313.6, 645.0)">e</text><text xml:space="preserve" font-family="HelveticaNeue-Light" font-size="42.0" fill="#000000" transform="matrix(1.00, 0.00, -0.00, -1.00, 335.4, 645.0)"> </text><text xml:space="preserve" font-family="HelveticaNeue-Light" font-size="42.0" fill="#000000" transform="matrix(1.00, 0.00, -0.00, -1.00, 347.0, 645.0)">C</text><text xml:space="preserve" font-family="HelveticaNeue-Light" font-size="42.0" fill="#000000" transform="matrix(1.00, 0.00, -0.00, -1.00, 376.6, 645.0)">o</text><text xml:space="preserve" font-family="HelveticaNeue-Light" font-size="42.0" fill="#000000" transform="matrix(1.00, 0.00, -0.00, -1.00, 400.0, 645.0)">d</text><text xml:space="preserve" font-family="HelveticaNeue-Light" font-size="42.0" fill="#000000" transform="matrix(1.00, 0.00, -0.00, -1.00, 424.1, 645.0)">e</text><text xml:space="preserve" font-family="HelveticaNeue-Light" font-size="42.0" fill="#000000" transform="matrix(1.00, 0.00, -0.00, -1.00, 445.9, 645.0)"> </text><text xml:space="preserve" font-family="HelveticaNeue-Light" font-size="42.0" fill="#000000" transform="matrix(1.00, 0.00, -0.00, -1.00, 457.5, 645.0)">–</text><text xml:space="preserve" font-family="HelveticaNeue-Light" font-size="42.0" fill="#000000" transform="matrix(1.00, 0.00, -0.00, -1.00, 478.5, 645.0)"> </text><text xml:space="preserve" font-family="HelveticaNeue-Light" font-size="42.0" fill="#000000" transform="matrix(1.00, 0.00, -0.00, -1.00, 490.2, 645.0)">A</text><text xml:space="preserve" font-family="HelveticaNeue-Light" font-size="42.0" fill="#000000" transform="matrix(1.00, 0.00, -0.00, -1.00, 516.7, 645.0)">d</text><text xml:space="preserve" font-family="HelveticaNeue-Light" font-size="42.0" fill="#000000" transform="matrix(1.00, 0.00, -0.00, -1.00, 540.8, 645.0)"> </text><text xml:space="preserve" font-family="HelveticaNeue-Light" font-size="42.0" fill="#000000" transform="matrix(1.00, 0.00, -0.00, -1.00, 552.5, 645.0)">H</text><text xml:space="preserve" font-family="HelveticaNeue-Light" font-size="42.0" fill="#000000" transform="matrix(1.00, 0.00, -0.00, -1.00, 582.0, 645.0)">o</text><text xml:space="preserve" font-family="HelveticaNeue-Light" font-size="42.0" fill="#000000" transform="matrix(1.00, 0.00, -0.00, -1.00, 605.4, 645.0)">c</text><text xml:space="preserve" font-family="Courier" font-size="28.0" fill="#747373" transform="matrix(1.00, 0.00, -0.00, -1.00, 49.0, 563.0)">f</text><text xml:space="preserve" font-family="Courier" font-size="28.0" fill="#747373" transform="matrix(1.00, 0.00, -0.00, -1.00, 65.8, 563.0)">r</text><text xml:space="preserve" font-family="Courier" font-size="28.0" fill="#747373" transform="matrix(1.00, 0.00, -0.00, -1.00, 82.6, 563.0)">o</text><text xml:space="preserve" font-family="Courier" font-size="28.0" fill="#747373" transform="matrix(1.00, 0.00, -0.00, -1.00, 99.4, 563.0)">m</text><text xml:space="preserve" font-family="Courier" font-size="28.0" fill="#747373" transform="matrix(1.00, 0.00, -0.00, -1.00, 116.2, 563.0)"> </text><text xml:space="preserve" font-family="Courier" font-size="28.0" fill="#747373" transform="matrix(1.00, 0.00, -0.00, -1.00, 133.0, 563.0)">p</text><text xml:space="preserve" font-family="Courier" font-size="28.0" fill="#747373" transform="matrix(1.00, 0.00, -0.00, -1.00, 149.8, 563.0)">y</text><text xml:space="preserve" font-family="Courier" font-size="28.0" fill="#747373" transform="matrix(1.00, 0.00, -0.00, -1.00, 166.6, 563.0)">m</text><text xml:space="preserve" font-family="Courier" font-size="28.0" fill="#747373" transform="matrix(1.00, 0.00, -0.00, -1.00, 183.4, 563.0)">o</text><text xml:space="preserve" font-family="Courier" font-size="28.0" fill="#747373" transform="matrix(1.00, 0.00, -0.00, -1.00, 200.2, 563.0)">n</text><text xml:space="preserve" font-family="Courier" font-size="28.0" fill="#747373" transform="matrix(1.00, 0.00, -0.00, -1.00, 217.1, 563.0)">g</text><text xml:space="preserve" font-family="Courier" font-size="28.0" fill="#747373" transform="matrix(1.00, 0.00, -0.00, -1.00, 233.9, 563.0)">o</text><text xml:space="preserve" font-family="Courier" font-size="28.0" fill="#747373" transform="matrix(1.00, 0.00, -0.00, -1.00, 250.7, 563.0)"> </text><text xml:space="preserve" font-family="Courier" font-size="28.0" fill="#747373" transform="matrix(1.00, 0.00, -0.00, -1.00, 267.5, 563.0)">i</text><text xml:space="preserve" font-family="Courier" font-size="28.0" fill="#747373" transform="matrix(1.00, 0.00, -0.00, -1.00, 284.3, 563.0)">m</text><text xml:space="preserve" font-family="Courier" font-size="28.0" fill="#747373" transform="matrix(1.00, 0.00, -0.00, -1.00, 301.1, 563.0)">p</text><text xml:space="preserve" font-family="Courier" font-size="28.0" fill="#747373" transform="matrix(1.00, 0.00, -0.00, -1.00, 317.9, 563.0)">o</text><text xml:space="preserve" font-family="Courier" font-size="28.0" fill="#747373" transform="matrix(1.00, 0.00, -0.00, -1.00, 334.7, 563.0)">r</text><text xml:space="preserve" font-family="Courier" font-size="28.0" fill="#747373" transform="matrix(1.00, 0.00, -0.00, -1.00, 351.5, 563.0)">t</text><text xml:space="preserve" font-family="Courier" font-size="28.0" fill="#747373" transform="matrix(1.00, 0.00, -0.00, -1.00, 368.3, 563.0)"> </text><text xml:space="preserve" font-family="Courier" font-size="28.0" fill="#747373" transform="matrix(1.00, 0.00, -0.00, -1.00, 385.1, 563.0)">M</text><text xml:space="preserve" font-family="Courier" font-size="28.0" fill="#747373" transform="matrix(1.00, 0.00, -0.00, -1.00, 401.9, 563.0)">o</text><text xml:space="preserve" font-family="Courier" font-size="28.0" fill="#747373" transform="matrix(1.00, 0.00, -0.00, -1.00, 418.7, 563.0)">n</text><text xml:space="preserve" font-family="Courier" font-size="28.0" fill="#747373" transform="matrix(1.00, 0.00, -0.00, -1.00, 435.5, 563.0)">g</text><text xml:space="preserve" font-family="Courier" font-size="28.0" fill="#747373" transform="matrix(1.00, 0.00, -0.00, -1.00, 452.3, 563.0)">o</text><text xml:space="preserve" font-family="Courier" font-size="28.0" fill="#747373" transform="matrix(1.00, 0.00, -0.00, -1.00, 469.1, 563.0)">C</text><text xml:space="preserve" font-family="Courier" font-size="28.0" fill="#747373" transform="matrix(1.00, 0.00, -0.00, -1.00, 485.9, 563.0)">l</text><text xml:space="preserve" font-family="Courier" font-size="28.0" fill="#747373" transform="matrix(1.00, 0.00, -0.00, -1.00, 502.7, 563.0)">i</text><text xml:space="preserve" font-family="Courier" font-size="28.0" fill="#747373" transform="matrix(1.00, 0.00, -0.00, -1.00, 519.6, 563.0)">e</text><text xml:space="preserve" font-family="Courier" font-size="28.0" fill="#747373" transform="matrix(1.00, 0.00, -0.00, -1.00, 536.4, 563.0)">n</text><text xml:space="preserve" font-family="Courier" font-size="28.0" fill="#747373" transform="matrix(1.00, 0.00, -0.00, -1.00, 553.2, 563.0)">t</text><text xml:space="preserve" font-family="Courier" font-size="28.0" fill="#747373" transform="matrix(1.00, 0.00, -0.00, -1.00, 49.0, 447.0)">u</text><text xml:space="preserve" font-family="Courier" font-size="28.0" fill="#747373" transform="matrix(1.00, 0.00, -0.00, -1.00, 65.8, 447.0)">r</text><text xml:space="preserve" font-family="Courier" font-size="28.0" fill="#747373" transform="matrix(1.00, 0.00, -0.00, -1.00, 82.6, 447.0)">i</text><text xml:space="preserve" font-family="Courier" font-size="28.0" fill="#747373" transform="matrix(1.00, 0.00, -0.00, -1.00, 99.4, 447.0)"> </text><text xml:space="preserve" font-family="Courier" font-size="28.0" fill="#747373" transform="matrix(1.00, 0.00, -0.00, -1.00, 116.2, 447.0)">=</text><text xml:space="preserve" font-family="Courier" font-size="28.0" fill="#747373" transform="matrix(1.00, 0.00, -0.00, -1.00, 133.0, 447.0)"> </text><text xml:space="preserve" font-family="Courier" font-size="28.0" fill="#747373" transform="matrix(1.00, 0.00, -0.00, -1.00, 149.8, 447.0)">"</text><text xml:space="preserve" font-family="Courier" font-size="28.0" fill="#747373" transform="matrix(1.00, 0.00, -0.00, -1.00, 166.6, 447.0)">m</text><text xml:space="preserve" font-family="Courier" font-size="28.0" fill="#747373" transform="matrix(1.00, 0.00, -0.00, -1.00, 183.4, 447.0)">o</text><text xml:space="preserve" font-family="Courier" font-size="28.0" fill="#747373" transform="matrix(1.00, 0.00, -0.00, -1.00, 200.2, 447.0)">n</text><text xml:space="preserve" font-family="Courier" font-size="28.0" fill="#747373" transform="matrix(1.00, 0.00, -0.00, -1.00, 217.1, 447.0)">g</text><text xml:space="preserve" font-family="Courier" font-size="28.0" fill="#747373" transform="matrix(1.00, 0.00, -0.00, -1.00, 233.9, 447.0)">o</text><text xml:space="preserve" font-family="Courier" font-size="28.0" fill="#747373" transform="matrix(1.00, 0.00, -0.00, -1.00, 250.7, 447.0)">d</text><text xml:space="preserve" font-family="Courier" font-size="28.0" fill="#747373" transform="matrix(1.00, 0.00, -0.00, -1.00, 267.5, 447.0)">b</text><text xml:space="preserve" font-family="Courier" font-size="28.0" fill="#747373" transform="matrix(1.00, 0.00, -0.00, -1.00, 284.3, 447.0)">:</text><text xml:space="preserve" font-family="Courier" font-size="28.0" fill="#747373" transform="matrix(1.00, 0.00, -0.00, -1.00, 301.1, 447.0)">/</text><text xml:space="preserve" font-family="Courier" font-size="28.0" fill="#747373" transform="matrix(1.00, 0.00, -0.00, -1.00, 317.9, 447.0)">/</text><text xml:space="preserve" font-family="Courier" font-size="28.0" fill="#747373" transform="matrix(1.00, 0.00, -0.00, -1.00, 334.7, 447.0)">k</text><text xml:space="preserve" font-family="Courier" font-size="28.0" fill="#747373" transform="matrix(1.00, 0.00, -0.00, -1.00, 351.5, 447.0)">m</text><text xml:space="preserve" font-family="Courier" font-size="28.0" fill="#747373" transform="matrix(1.00, 0.00, -0.00, -1.00, 368.3, 447.0)">d</text><text xml:space="preserve" font-family="Courier" font-size="28.0" fill="#747373" transform="matrix(1.00, 0.00, -0.00, -1.00, 385.1, 447.0)">b</text><text xml:space="preserve" font-family="Courier" font-size="28.0" fill="#747373" transform="matrix(1.00, 0.00, -0.00, -1.00, 401.9, 447.0)">d</text><text xml:space="preserve" font-family="Courier" font-size="28.0" fill="#747373" transform="matrix(1.00, 0.00, -0.00, -1.00, 418.7, 447.0)">0</text><text xml:space="preserve" font-family="Courier" font-size="28.0" fill="#747373" transform="matrix(1.00, 0.00, -0.00, -1.00, 435.5, 447.0)">0</text><text xml:space="preserve" font-family="Courier" font-size="28.0" fill="#747373" transform="matrix(1.00, 0.00, -0.00, -1.00, 452.3, 447.0)">1</text><text xml:space="preserve" font-family="Courier" font-size="28.0" fill="#747373" transform="matrix(1.00, 0.00, -0.00, -1.00, 469.1, 447.0)">d</text><text xml:space="preserve" font-family="Courier" font-size="28.0" fill="#747373" transform="matrix(1.00, 0.00, -0.00, -1.00, 485.9, 447.0)">e</text><text xml:space="preserve" font-family="Courier" font-size="28.0" fill="#747373" transform="matrix(1.00, 0.00, -0.00, -1.00, 502.7, 447.0)">0</text><text xml:space="preserve" font-family="Courier" font-size="28.0" fill="#747373" transform="matrix(1.00, 0.00, -0.00, -1.00, 519.6, 447.0)">2</text><text xml:space="preserve" font-family="Courier" font-size="28.0" fill="#747373" transform="matrix(1.00, 0.00, -0.00, -1.00, 536.4, 447.0)">:</text><text xml:space="preserve" font-family="Courier" font-size="28.0" fill="#747373" transform="matrix(1.00, 0.00, -0.00, -1.00, 553.2, 447.0)">2</text><text xml:space="preserve" font-family="Courier" font-size="28.0" fill="#747373" transform="matrix(1.00, 0.00, -0.00, -1.00, 570.0, 447.0)">7</text><text xml:space="preserve" font-family="Courier" font-size="28.0" fill="#747373" transform="matrix(1.00, 0.00, -0.00, -1.00, 586.8, 447.0)">2</text><text xml:space="preserve" font-family="Courier" font-size="28.0" fill="#747373" transform="matrix(1.00, 0.00, -0.00, -1.00, 603.6, 447.0)">5</text><text xml:space="preserve" font-family="Courier" font-size="28.0" fill="#747373" transform="matrix(1.00, 0.00, -0.00, -1.00, 620.4, 447.0)">1</text><text xml:space="preserve" font-family="Courier" font-size="28.0" fill="#747373" transform="matrix(1.00, 0.00, -0.00, -1.00, 637.2, 447.0)">/</text><text xml:space="preserve" font-family="Courier" font-size="28.0" fill="#747373" transform="matrix(1.00, 0.00, -0.00, -1.00, 654.0, 447.0)">d</text><text xml:space="preserve" font-family="Courier" font-size="28.0" fill="#747373" transform="matrix(1.00, 0.00, -0.00, -1.00, 670.8, 447.0)">c</text><text xml:space="preserve" font-family="Courier" font-size="28.0" fill="#747373" transform="matrix(1.00, 0.00, -0.00, -1.00, 687.6, 447.0)">a</text><text xml:space="preserve" font-family="Courier" font-size="28.0" fill="#747373" transform="matrix(1.00, 0.00, -0.00, -1.00, 704.4, 447.0)">p</text><text xml:space="preserve" font-family="Courier" font-size="28.0" fill="#747373" transform="matrix(1.00, 0.00, -0.00, -1.00, 721.2, 447.0)">e</text><text xml:space="preserve" font-family="Courier" font-size="28.0" fill="#747373" transform="matrix(1.00, 0.00, -0.00, -1.00, 738.0, 447.0)">d</text><text xml:space="preserve" font-family="Courier" font-size="28.0" fill="#747373" transform="matrix(1.00, 0.00, -0.00, -1.00, 754.8, 447.0)">b</text><text xml:space="preserve" font-family="Courier" font-size="28.0" fill="#747373" transform="matrix(1.00, 0.00, -0.00, -1.00, 771.6, 447.0)">0</text><text xml:space="preserve" font-family="Courier" font-size="28.0" fill="#747373" transform="matrix(1.00, 0.00, -0.00, -1.00, 788.4, 447.0)">1</text><text xml:space="preserve" font-family="Courier" font-size="28.0" fill="#747373" transform="matrix(1.00, 0.00, -0.00, -1.00, 805.2, 447.0)">"</text><text xml:space="preserve" font-family="Courier" font-size="28.0" fill="#747373" transform="matrix(1.00, 0.00, -0.00, -1.00, 49.0, 332.0)">w</text><text xml:space="preserve" font-family="Courier" font-size="28.0" fill="#747373" transform="matrix(1.00, 0.00, -0.00, -1.00, 65.8, 332.0)">i</text><text xml:space="preserve" font-family="Courier" font-size="28.0" fill="#747373" transform="matrix(1.00, 0.00, -0.00, -1.00, 82.6, 332.0)">t</text><text xml:space="preserve" font-family="Courier" font-size="28.0" fill="#747373" transform="matrix(1.00, 0.00, -0.00, -1.00, 99.4, 332.0)">h</text><text xml:space="preserve" font-family="Courier" font-size="28.0" fill="#747373" transform="matrix(1.00, 0.00, -0.00, -1.00, 116.2, 332.0)"> </text><text xml:space="preserve" font-family="Courier" font-size="28.0" fill="#747373" transform="matrix(1.00, 0.00, -0.00, -1.00, 133.0, 332.0)">M</text><text xml:space="preserve" font-family="Courier" font-size="28.0" fill="#747373" transform="matrix(1.00, 0.00, -0.00, -1.00, 149.8, 332.0)">o</text><text xml:space="preserve" font-family="Courier" font-size="28.0" fill="#747373" transform="matrix(1.00, 0.00, -0.00, -1.00, 166.6, 332.0)">n</text><text xml:space="preserve" font-family="Courier" font-size="28.0" fill="#747373" transform="matrix(1.00, 0.00, -0.00, -1.00, 183.4, 332.0)">g</text><text xml:space="preserve" font-family="Courier" font-size="28.0" fill="#747373" transform="matrix(1.00, 0.00, -0.00, -1.00, 200.2, 332.0)">o</text><text xml:space="preserve" font-family="Courier" font-size="28.0" fill="#747373" transform="matrix(1.00, 0.00, -0.00, -1.00, 217.1, 332.0)">C</text><text xml:space="preserve" font-family="Courier" font-size="28.0" fill="#747373" transform="matrix(1.00, 0.00, -0.00, -1.00, 233.9, 332.0)">l</text><text xml:space="preserve" font-family="Courier" font-size="28.0" fill="#747373" transform="matrix(1.00, 0.00, -0.00, -1.00, 250.7, 332.0)">i</text><text xml:space="preserve" font-family="Courier" font-size="28.0" fill="#747373" transform="matrix(1.00, 0.00, -0.00, -1.00, 267.5, 332.0)">e</text><text xml:space="preserve" font-family="Courier" font-size="28.0" fill="#747373" transform="matrix(1.00, 0.00, -0.00, -1.00, 284.3, 332.0)">n</text><text xml:space="preserve" font-family="Courier" font-size="28.0" fill="#747373" transform="matrix(1.00, 0.00, -0.00, -1.00, 301.1, 332.0)">t</text><text xml:space="preserve" font-family="Courier" font-size="28.0" fill="#747373" transform="matrix(1.00, 0.00, -0.00, -1.00, 317.9, 332.0)">(</text><text xml:space="preserve" font-family="Courier" font-size="28.0" fill="#747373" transform="matrix(1.00, 0.00, -0.00, -1.00, 334.7, 332.0)">u</text><text xml:space="preserve" font-family="Courier" font-size="28.0" fill="#747373" transform="matrix(1.00, 0.00, -0.00, -1.00, 351.5, 332.0)">r</text><text xml:space="preserve" font-family="Courier" font-size="28.0" fill="#747373" transform="matrix(1.00, 0.00, -0.00, -1.00, 368.3, 332.0)">i</text><text xml:space="preserve" font-family="Courier" font-size="28.0" fill="#747373" transform="matrix(1.00, 0.00, -0.00, -1.00, 385.1, 332.0)">)</text><text xml:space="preserve" font-family="Courier" font-size="28.0" fill="#747373" transform="matrix(1.00, 0.00, -0.00, -1.00, 401.9, 332.0)"> </text><text xml:space="preserve" font-family="Courier" font-size="28.0" fill="#747373" transform="matrix(1.00, 0.00, -0.00, -1.00, 418.7, 332.0)">a</text><text xml:space="preserve" font-family="Courier" font-size="28.0" fill="#747373" transform="matrix(1.00, 0.00, -0.00, -1.00, 435.5, 332.0)">s</text><text xml:space="preserve" font-family="Courier" font-size="28.0" fill="#747373" transform="matrix(1.00, 0.00, -0.00, -1.00, 452.3, 332.0)"> </text><text xml:space="preserve" font-family="Courier" font-size="28.0" fill="#747373" transform="matrix(1.00, 0.00, -0.00, -1.00, 469.1, 332.0)">c</text><text xml:space="preserve" font-family="Courier" font-size="28.0" fill="#747373" transform="matrix(1.00, 0.00, -0.00, -1.00, 485.9, 332.0)">o</text><text xml:space="preserve" font-family="Courier" font-size="28.0" fill="#747373" transform="matrix(1.00, 0.00, -0.00, -1.00, 502.7, 332.0)">n</text><text xml:space="preserve" font-family="Courier" font-size="28.0" fill="#747373" transform="matrix(1.00, 0.00, -0.00, -1.00, 519.6, 332.0)">n</text><text xml:space="preserve" font-family="Courier" font-size="28.0" fill="#747373" transform="matrix(1.00, 0.00, -0.00, -1.00, 536.4, 332.0)">e</text><text xml:space="preserve" font-family="Courier" font-size="28.0" fill="#747373" transform="matrix(1.00, 0.00, -0.00, -1.00, 553.2, 332.0)">c</text><text xml:space="preserve" font-family="Courier" font-size="28.0" fill="#747373" transform="matrix(1.00, 0.00, -0.00, -1.00, 570.0, 332.0)">t</text><text xml:space="preserve" font-family="Courier" font-size="28.0" fill="#747373" transform="matrix(1.00, 0.00, -0.00, -1.00, 586.8, 332.0)">i</text><text xml:space="preserve" font-family="Courier" font-size="28.0" fill="#747373" transform="matrix(1.00, 0.00, -0.00, -1.00, 603.6, 332.0)">o</text><text xml:space="preserve" font-family="Courier" font-size="28.0" fill="#747373" transform="matrix(1.00, 0.00, -0.00, -1.00, 620.4, 332.0)">n</text><text xml:space="preserve" font-family="Courier" font-size="28.0" fill="#747373" transform="matrix(1.00, 0.00, -0.00, -1.00, 637.2, 332.0)">:</text><text xml:space="preserve" font-family="Courier" font-size="28.0" fill="#747373" transform="matrix(1.00, 0.00, -0.00, -1.00, 49.0, 292.0)"> </text><text xml:space="preserve" font-family="Courier" font-size="28.0" fill="#747373" transform="matrix(1.00, 0.00, -0.00, -1.00, 65.8, 292.0)"> </text><text xml:space="preserve" font-family="Courier" font-size="28.0" fill="#747373" transform="matrix(1.00, 0.00, -0.00, -1.00, 82.6, 292.0)"> </text><text xml:space="preserve" font-family="Courier" font-size="28.0" fill="#747373" transform="matrix(1.00, 0.00, -0.00, -1.00, 99.4, 292.0)"> </text><text xml:space="preserve" font-family="Courier" font-size="28.0" fill="#747373" transform="matrix(1.00, 0.00, -0.00, -1.00, 116.2, 292.0)">d</text><text xml:space="preserve" font-family="Courier" font-size="28.0" fill="#747373" transform="matrix(1.00, 0.00, -0.00, -1.00, 133.0, 292.0)">b</text><text xml:space="preserve" font-family="Courier" font-size="28.0" fill="#747373" transform="matrix(1.00, 0.00, -0.00, -1.00, 149.8, 292.0)"> </text><text xml:space="preserve" font-family="Courier" font-size="28.0" fill="#747373" transform="matrix(1.00, 0.00, -0.00, -1.00, 166.6, 292.0)">=</text><text xml:space="preserve" font-family="Courier" font-size="28.0" fill="#747373" transform="matrix(1.00, 0.00, -0.00, -1.00, 183.4, 292.0)"> </text><text xml:space="preserve" font-family="Courier" font-size="28.0" fill="#747373" transform="matrix(1.00, 0.00, -0.00, -1.00, 200.2, 292.0)">c</text><text xml:space="preserve" font-family="Courier" font-size="28.0" fill="#747373" transform="matrix(1.00, 0.00, -0.00, -1.00, 217.1, 292.0)">o</text><text xml:space="preserve" font-family="Courier" font-size="28.0" fill="#747373" transform="matrix(1.00, 0.00, -0.00, -1.00, 233.9, 292.0)">n</text><text xml:space="preserve" font-family="Courier" font-size="28.0" fill="#747373" transform="matrix(1.00, 0.00, -0.00, -1.00, 250.7, 292.0)">n</text><text xml:space="preserve" font-family="Courier" font-size="28.0" fill="#747373" transform="matrix(1.00, 0.00, -0.00, -1.00, 267.5, 292.0)">e</text><text xml:space="preserve" font-family="Courier" font-size="28.0" fill="#747373" transform="matrix(1.00, 0.00, -0.00, -1.00, 284.3, 292.0)">c</text><text xml:space="preserve" font-family="Courier" font-size="28.0" fill="#747373" transform="matrix(1.00, 0.00, -0.00, -1.00, 301.1, 292.0)">t</text><text xml:space="preserve" font-family="Courier" font-size="28.0" fill="#747373" transform="matrix(1.00, 0.00, -0.00, -1.00, 317.9, 292.0)">i</text><text xml:space="preserve" font-family="Courier" font-size="28.0" fill="#747373" transform="matrix(1.00, 0.00, -0.00, -1.00, 334.7, 292.0)">o</text><text xml:space="preserve" font-family="Courier" font-size="28.0" fill="#747373" transform="matrix(1.00, 0.00, -0.00, -1.00, 351.5, 292.0)">n</text><text xml:space="preserve" font-family="Courier" font-size="28.0" fill="#747373" transform="matrix(1.00, 0.00, -0.00, -1.00, 368.3, 292.0)">.</text><text xml:space="preserve" font-family="Courier" font-size="28.0" fill="#747373" transform="matrix(1.00, 0.00, -0.00, -1.00, 385.1, 292.0)">g</text><text xml:space="preserve" font-family="Courier" font-size="28.0" fill="#747373" transform="matrix(1.00, 0.00, -0.00, -1.00, 401.9, 292.0)">e</text><text xml:space="preserve" font-family="Courier" font-size="28.0" fill="#747373" transform="matrix(1.00, 0.00, -0.00, -1.00, 418.7, 292.0)">t</text><text xml:space="preserve" font-family="Courier" font-size="28.0" fill="#747373" transform="matrix(1.00, 0.00, -0.00, -1.00, 435.5, 292.0)">_</text><text xml:space="preserve" font-family="Courier" font-size="28.0" fill="#747373" transform="matrix(1.00, 0.00, -0.00, -1.00, 452.3, 292.0)">d</text><text xml:space="preserve" font-family="Courier" font-size="28.0" fill="#747373" transform="matrix(1.00, 0.00, -0.00, -1.00, 469.1, 292.0)">e</text><text xml:space="preserve" font-family="Courier" font-size="28.0" fill="#747373" transform="matrix(1.00, 0.00, -0.00, -1.00, 485.9, 292.0)">f</text><text xml:space="preserve" font-family="Courier" font-size="28.0" fill="#747373" transform="matrix(1.00, 0.00, -0.00, -1.00, 502.7, 292.0)">a</text><text xml:space="preserve" font-family="Courier" font-size="28.0" fill="#747373" transform="matrix(1.00, 0.00, -0.00, -1.00, 519.6, 292.0)">u</text><text xml:space="preserve" font-family="Courier" font-size="28.0" fill="#747373" transform="matrix(1.00, 0.00, -0.00, -1.00, 536.4, 292.0)">l</text><text xml:space="preserve" font-family="Courier" font-size="28.0" fill="#747373" transform="matrix(1.00, 0.00, -0.00, -1.00, 553.2, 292.0)">t</text><text xml:space="preserve" font-family="Courier" font-size="28.0" fill="#747373" transform="matrix(1.00, 0.00, -0.00, -1.00, 570.0, 292.0)">_</text><text xml:space="preserve" font-family="Courier" font-size="28.0" fill="#747373" transform="matrix(1.00, 0.00, -0.00, -1.00, 586.8, 292.0)">d</text><text xml:space="preserve" font-family="Courier" font-size="28.0" fill="#747373" transform="matrix(1.00, 0.00, -0.00, -1.00, 603.6, 292.0)">a</text><text xml:space="preserve" font-family="Courier" font-size="28.0" fill="#747373" transform="matrix(1.00, 0.00, -0.00, -1.00, 620.4, 292.0)">t</text><text xml:space="preserve" font-family="Courier" font-size="28.0" fill="#747373" transform="matrix(1.00, 0.00, -0.00, -1.00, 637.2, 292.0)">a</text><text xml:space="preserve" font-family="Courier" font-size="28.0" fill="#747373" transform="matrix(1.00, 0.00, -0.00, -1.00, 654.0, 292.0)">b</text><text xml:space="preserve" font-family="Courier" font-size="28.0" fill="#747373" transform="matrix(1.00, 0.00, -0.00, -1.00, 670.8, 292.0)">a</text><text xml:space="preserve" font-family="Courier" font-size="28.0" fill="#747373" transform="matrix(1.00, 0.00, -0.00, -1.00, 687.6, 292.0)">s</text><text xml:space="preserve" font-family="Courier" font-size="28.0" fill="#747373" transform="matrix(1.00, 0.00, -0.00, -1.00, 704.4, 292.0)">e</text><text xml:space="preserve" font-family="Courier" font-size="28.0" fill="#747373" transform="matrix(1.00, 0.00, -0.00, -1.00, 721.2, 292.0)">(</text><text xml:space="preserve" font-family="Courier" font-size="28.0" fill="#747373" transform="matrix(1.00, 0.00, -0.00, -1.00, 738.0, 292.0)">)</text><text xml:space="preserve" font-family="Courier" font-size="28.0" fill="#747373" transform="matrix(1.00, 0.00, -0.00, -1.00, 49.0, 253.0)"> </text><text xml:space="preserve" font-family="Courier" font-size="28.0" fill="#747373" transform="matrix(1.00, 0.00, -0.00, -1.00, 65.8, 253.0)"> </text><text xml:space="preserve" font-family="Courier" font-size="28.0" fill="#747373" transform="matrix(1.00, 0.00, -0.00, -1.00, 82.6, 253.0)"> </text><text xml:space="preserve" font-family="Courier" font-size="28.0" fill="#747373" transform="matrix(1.00, 0.00, -0.00, -1.00, 99.4, 253.0)"> </text><text xml:space="preserve" font-family="Courier" font-size="28.0" fill="#747373" transform="matrix(1.00, 0.00, -0.00, -1.00, 116.2, 253.0)">f</text><text xml:space="preserve" font-family="Courier" font-size="28.0" fill="#747373" transform="matrix(1.00, 0.00, -0.00, -1.00, 133.0, 253.0)">o</text><text xml:space="preserve" font-family="Courier" font-size="28.0" fill="#747373" transform="matrix(1.00, 0.00, -0.00, -1.00, 149.8, 253.0)">r</text><text xml:space="preserve" font-family="Courier" font-size="28.0" fill="#747373" transform="matrix(1.00, 0.00, -0.00, -1.00, 166.6, 253.0)"> </text><text xml:space="preserve" font-family="Courier" font-size="28.0" fill="#747373" transform="matrix(1.00, 0.00, -0.00, -1.00, 183.4, 253.0)">r</text><text xml:space="preserve" font-family="Courier" font-size="28.0" fill="#747373" transform="matrix(1.00, 0.00, -0.00, -1.00, 200.2, 253.0)">c</text><text xml:space="preserve" font-family="Courier" font-size="28.0" fill="#747373" transform="matrix(1.00, 0.00, -0.00, -1.00, 217.1, 253.0)"> </text><text xml:space="preserve" font-family="Courier" font-size="28.0" fill="#747373" transform="matrix(1.00, 0.00, -0.00, -1.00, 233.9, 253.0)">i</text><text xml:space="preserve" font-family="Courier" font-size="28.0" fill="#747373" transform="matrix(1.00, 0.00, -0.00, -1.00, 250.7, 253.0)">n</text><text xml:space="preserve" font-family="Courier" font-size="28.0" fill="#747373" transform="matrix(1.00, 0.00, -0.00, -1.00, 267.5, 253.0)"> </text><text xml:space="preserve" font-family="Courier" font-size="28.0" fill="#747373" transform="matrix(1.00, 0.00, -0.00, -1.00, 284.3, 253.0)">d</text><text xml:space="preserve" font-family="Courier" font-size="28.0" fill="#747373" transform="matrix(1.00, 0.00, -0.00, -1.00, 301.1, 253.0)">b</text><text xml:space="preserve" font-family="Courier" font-size="28.0" fill="#747373" transform="matrix(1.00, 0.00, -0.00, -1.00, 317.9, 253.0)">.</text><text xml:space="preserve" font-family="Courier" font-size="28.0" fill="#747373" transform="matrix(1.00, 0.00, -0.00, -1.00, 334.7, 253.0)">r</text><text xml:space="preserve" font-family="Courier" font-size="28.0" fill="#747373" transform="matrix(1.00, 0.00, -0.00, -1.00, 351.5, 253.0)">e</text><text xml:space="preserve" font-family="Courier" font-size="28.0" fill="#747373" transform="matrix(1.00, 0.00, -0.00, -1.00, 368.3, 253.0)">s</text><text xml:space="preserve" font-family="Courier" font-size="28.0" fill="#747373" transform="matrix(1.00, 0.00, -0.00, -1.00, 385.1, 253.0)">o</text><text xml:space="preserve" font-family="Courier" font-size="28.0" fill="#747373" transform="matrix(1.00, 0.00, -0.00, -1.00, 401.9, 253.0)">u</text><text xml:space="preserve" font-family="Courier" font-size="28.0" fill="#747373" transform="matrix(1.00, 0.00, -0.00, -1.00, 418.7, 253.0)">r</text><text xml:space="preserve" font-family="Courier" font-size="28.0" fill="#747373" transform="matrix(1.00, 0.00, -0.00, -1.00, 435.5, 253.0)">c</text><text xml:space="preserve" font-family="Courier" font-size="28.0" fill="#747373" transform="matrix(1.00, 0.00, -0.00, -1.00, 452.3, 253.0)">e</text><text xml:space="preserve" font-family="Courier" font-size="28.0" fill="#747373" transform="matrix(1.00, 0.00, -0.00, -1.00, 469.1, 253.0)">c</text><text xml:space="preserve" font-family="Courier" font-size="28.0" fill="#747373" transform="matrix(1.00, 0.00, -0.00, -1.00, 485.9, 253.0)">l</text><text xml:space="preserve" font-family="Courier" font-size="28.0" fill="#747373" transform="matrix(1.00, 0.00, -0.00, -1.00, 502.7, 253.0)">a</text><text xml:space="preserve" font-family="Courier" font-size="28.0" fill="#747373" transform="matrix(1.00, 0.00, -0.00, -1.00, 519.6, 253.0)">s</text><text xml:space="preserve" font-family="Courier" font-size="28.0" fill="#747373" transform="matrix(1.00, 0.00, -0.00, -1.00, 536.4, 253.0)">s</text><text xml:space="preserve" font-family="Courier" font-size="28.0" fill="#747373" transform="matrix(1.00, 0.00, -0.00, -1.00, 553.2, 253.0)">e</text><text xml:space="preserve" font-family="Courier" font-size="28.0" fill="#747373" transform="matrix(1.00, 0.00, -0.00, -1.00, 570.0, 253.0)">s</text><text xml:space="preserve" font-family="Courier" font-size="28.0" fill="#747373" transform="matrix(1.00, 0.00, -0.00, -1.00, 586.8, 253.0)">_</text><text xml:space="preserve" font-family="Courier" font-size="28.0" fill="#747373" transform="matrix(1.00, 0.00, -0.00, -1.00, 603.6, 253.0)">1</text><text xml:space="preserve" font-family="Courier" font-size="28.0" fill="#747373" transform="matrix(1.00, 0.00, -0.00, -1.00, 620.4, 253.0)">.</text><text xml:space="preserve" font-family="Courier" font-size="28.0" fill="#747373" transform="matrix(1.00, 0.00, -0.00, -1.00, 637.2, 253.0)">f</text><text xml:space="preserve" font-family="Courier" font-size="28.0" fill="#747373" transform="matrix(1.00, 0.00, -0.00, -1.00, 654.0, 253.0)">i</text><text xml:space="preserve" font-family="Courier" font-size="28.0" fill="#747373" transform="matrix(1.00, 0.00, -0.00, -1.00, 670.8, 253.0)">n</text><text xml:space="preserve" font-family="Courier" font-size="28.0" fill="#747373" transform="matrix(1.00, 0.00, -0.00, -1.00, 687.6, 253.0)">d</text><text xml:space="preserve" font-family="Courier" font-size="28.0" fill="#747373" transform="matrix(1.00, 0.00, -0.00, -1.00, 704.4, 253.0)">(</text><text xml:space="preserve" font-family="Courier" font-size="28.0" fill="#747373" transform="matrix(1.00, 0.00, -0.00, -1.00, 721.2, 253.0)">)</text><text xml:space="preserve" font-family="Courier" font-size="28.0" fill="#747373" transform="matrix(1.00, 0.00, -0.00, -1.00, 738.0, 253.0)">:</text><text xml:space="preserve" font-family="Courier" font-size="28.0" fill="#747373" transform="matrix(1.00, 0.00, -0.00, -1.00, 49.0, 214.0)"> </text><text xml:space="preserve" font-family="Courier" font-size="28.0" fill="#747373" transform="matrix(1.00, 0.00, -0.00, -1.00, 65.8, 214.0)"> </text><text xml:space="preserve" font-family="Courier" font-size="28.0" fill="#747373" transform="matrix(1.00, 0.00, -0.00, -1.00, 82.6, 214.0)"> </text><text xml:space="preserve" font-family="Courier" font-size="28.0" fill="#747373" transform="matrix(1.00, 0.00, -0.00, -1.00, 99.4, 214.0)"> </text><text xml:space="preserve" font-family="Courier" font-size="28.0" fill="#747373" transform="matrix(1.00, 0.00, -0.00, -1.00, 116.2, 214.0)"> </text><text xml:space="preserve" font-family="Courier" font-size="28.0" fill="#747373" transform="matrix(1.00, 0.00, -0.00, -1.00, 133.0, 214.0)"> </text><text xml:space="preserve" font-family="Courier" font-size="28.0" fill="#747373" transform="matrix(1.00, 0.00, -0.00, -1.00, 149.8, 214.0)"> </text><text xml:space="preserve" font-family="Courier" font-size="28.0" fill="#747373" transform="matrix(1.00, 0.00, -0.00, -1.00, 166.6, 214.0)"> </text><text xml:space="preserve" font-family="Courier" font-size="28.0" fill="#747373" transform="matrix(1.00, 0.00, -0.00, -1.00, 183.4, 214.0)">i</text><text xml:space="preserve" font-family="Courier" font-size="28.0" fill="#747373" transform="matrix(1.00, 0.00, -0.00, -1.00, 200.2, 214.0)">f</text><text xml:space="preserve" font-family="Courier" font-size="28.0" fill="#747373" transform="matrix(1.00, 0.00, -0.00, -1.00, 217.1, 214.0)"> </text><text xml:space="preserve" font-family="Courier" font-size="28.0" fill="#FF0000" transform="matrix(1.00, 0.00, -0.00, -1.00, 233.8, 214.0)">r</text><text xml:space="preserve" font-family="Courier" font-size="28.0" fill="#FF0000" transform="matrix(1.00, 0.00, -0.00, -1.00, 250.6, 214.0)">c</text><text xml:space="preserve" font-family="Courier" font-size="28.0" fill="#FF0000" transform="matrix(1.00, 0.00, -0.00, -1.00, 267.4, 214.0)">[</text><text xml:space="preserve" font-family="Courier" font-size="28.0" fill="#FF0000" transform="matrix(1.00, 0.00, -0.00, -1.00, 284.2, 214.0)">'</text><text xml:space="preserve" font-family="Courier" font-size="28.0" fill="#FF0000" transform="matrix(1.00, 0.00, -0.00, -1.00, 301.1, 214.0)">s</text><text xml:space="preserve" font-family="Courier" font-size="28.0" fill="#FF0000" transform="matrix(1.00, 0.00, -0.00, -1.00, 317.9, 214.0)">t</text><text xml:space="preserve" font-family="Courier" font-size="28.0" fill="#FF0000" transform="matrix(1.00, 0.00, -0.00, -1.00, 334.7, 214.0)">a</text><text xml:space="preserve" font-family="Courier" font-size="28.0" fill="#FF0000" transform="matrix(1.00, 0.00, -0.00, -1.00, 351.5, 214.0)">t</text><text xml:space="preserve" font-family="Courier" font-size="28.0" fill="#FF0000" transform="matrix(1.00, 0.00, -0.00, -1.00, 368.3, 214.0)">u</text><text xml:space="preserve" font-family="Courier" font-size="28.0" fill="#FF0000" transform="matrix(1.00, 0.00, -0.00, -1.00, 385.1, 214.0)">s</text><text xml:space="preserve" font-family="Courier" font-size="28.0" fill="#FF0000" transform="matrix(1.00, 0.00, -0.00, -1.00, 401.9, 214.0)">'</text><text xml:space="preserve" font-family="Courier" font-size="28.0" fill="#FF0000" transform="matrix(1.00, 0.00, -0.00, -1.00, 418.7, 214.0)">]</text><text xml:space="preserve" font-family="Courier" font-size="28.0" fill="#FF0000" transform="matrix(1.00, 0.00, -0.00, -1.00, 435.5, 214.0)"> </text><text xml:space="preserve" font-family="Courier" font-size="28.0" fill="#FF0000" transform="matrix(1.00, 0.00, -0.00, -1.00, 452.3, 214.0)">=</text><text xml:space="preserve" font-family="Courier" font-size="28.0" fill="#FF0000" transform="matrix(1.00, 0.00, -0.00, -1.00, 469.1, 214.0)">=</text><text xml:space="preserve" font-family="Courier" font-size="28.0" fill="#FF0000" transform="matrix(1.00, 0.00, -0.00, -1.00, 485.9, 214.0)"> </text><text xml:space="preserve" font-family="Courier" font-size="28.0" fill="#FF0000" transform="matrix(1.00, 0.00, -0.00, -1.00, 502.7, 214.0)">'</text><text xml:space="preserve" font-family="Courier" font-size="28.0" fill="#FF0000" transform="matrix(1.00, 0.00, -0.00, -1.00, 519.5, 214.0)">a</text><text xml:space="preserve" font-family="Courier" font-size="28.0" fill="#FF0000" transform="matrix(1.00, 0.00, -0.00, -1.00, 536.3, 214.0)">c</text><text xml:space="preserve" font-family="Courier" font-size="28.0" fill="#FF0000" transform="matrix(1.00, 0.00, -0.00, -1.00, 553.1, 214.0)">t</text><text xml:space="preserve" font-family="Courier" font-size="28.0" fill="#FF0000" transform="matrix(1.00, 0.00, -0.00, -1.00, 569.9, 214.0)">i</text><text xml:space="preserve" font-family="Courier" font-size="28.0" fill="#FF0000" transform="matrix(1.00, 0.00, -0.00, -1.00, 586.7, 214.0)">v</text><text xml:space="preserve" font-family="Courier" font-size="28.0" fill="#FF0000" transform="matrix(1.00, 0.00, -0.00, -1.00, 603.6, 214.0)">e</text><text xml:space="preserve" font-family="Courier" font-size="28.0" fill="#FF0000" transform="matrix(1.00, 0.00, -0.00, -1.00, 620.4, 214.0)">'</text><text xml:space="preserve" font-family="Courier" font-size="28.0" fill="#747373" transform="matrix(1.00, 0.00, -0.00, -1.00, 637.1, 214.0)">:</text><text xml:space="preserve" font-family="Courier" font-size="28.0" fill="#747373" transform="matrix(1.00, 0.00, -0.00, -1.00, 49.0, 174.0)"> </text><text xml:space="preserve" font-family="Courier" font-size="28.0" fill="#747373" transform="matrix(1.00, 0.00, -0.00, -1.00, 65.8, 174.0)"> </text><text xml:space="preserve" font-family="Courier" font-size="28.0" fill="#747373" transform="matrix(1.00, 0.00, -0.00, -1.00, 82.6, 174.0)"> </text><text xml:space="preserve" font-family="Courier" font-size="28.0" fill="#747373" transform="matrix(1.00, 0.00, -0.00, -1.00, 99.4, 174.0)"> </text><text xml:space="preserve" font-family="Courier" font-size="28.0" fill="#747373" transform="matrix(1.00, 0.00, -0.00, -1.00, 116.2, 174.0)"> </text><text xml:space="preserve" font-family="Courier" font-size="28.0" fill="#747373" transform="matrix(1.00, 0.00, -0.00, -1.00, 133.0, 174.0)"> </text><text xml:space="preserve" font-family="Courier" font-size="28.0" fill="#747373" transform="matrix(1.00, 0.00, -0.00, -1.00, 149.8, 174.0)"> </text><text xml:space="preserve" font-family="Courier" font-size="28.0" fill="#747373" transform="matrix(1.00, 0.00, -0.00, -1.00, 166.6, 174.0)"> </text><text xml:space="preserve" font-family="Courier" font-size="28.0" fill="#747373" transform="matrix(1.00, 0.00, -0.00, -1.00, 183.4, 174.0)"> </text><text xml:space="preserve" font-family="Courier" font-size="28.0" fill="#747373" transform="matrix(1.00, 0.00, -0.00, -1.00, 200.2, 174.0)"> </text><text xml:space="preserve" font-family="Courier" font-size="28.0" fill="#747373" transform="matrix(1.00, 0.00, -0.00, -1.00, 217.1, 174.0)"> </text><text xml:space="preserve" font-family="Courier" font-size="28.0" fill="#747373" transform="matrix(1.00, 0.00, -0.00, -1.00, 233.9, 174.0)"> </text><text xml:space="preserve" font-family="Courier" font-size="28.0" fill="#747373" transform="matrix(1.00, 0.00, -0.00, -1.00, 250.7, 174.0)">p</text><text xml:space="preserve" font-family="Courier" font-size="28.0" fill="#747373" transform="matrix(1.00, 0.00, -0.00, -1.00, 267.5, 174.0)">r</text><text xml:space="preserve" font-family="Courier" font-size="28.0" fill="#747373" transform="matrix(1.00, 0.00, -0.00, -1.00, 284.3, 174.0)">i</text><text xml:space="preserve" font-family="Courier" font-size="28.0" fill="#747373" transform="matrix(1.00, 0.00, -0.00, -1.00, 301.1, 174.0)">n</text><text xml:space="preserve" font-family="Courier" font-size="28.0" fill="#747373" transform="matrix(1.00, 0.00, -0.00, -1.00, 317.9, 174.0)">t</text><text xml:space="preserve" font-family="Courier" font-size="28.0" fill="#747373" transform="matrix(1.00, 0.00, -0.00, -1.00, 334.7, 174.0)">(</text><text xml:space="preserve" font-family="Courier" font-size="28.0" fill="#FF0000" transform="matrix(1.00, 0.00, -0.00, -1.00, 351.4, 174.0)">r</text><text xml:space="preserve" font-family="Courier" font-size="28.0" fill="#FF0000" transform="matrix(1.00, 0.00, -0.00, -1.00, 368.3, 174.0)">c</text><text xml:space="preserve" font-family="Courier" font-size="28.0" fill="#FF0000" transform="matrix(1.00, 0.00, -0.00, -1.00, 385.1, 174.0)">[</text><text xml:space="preserve" font-family="Courier" font-size="28.0" fill="#FF0000" transform="matrix(1.00, 0.00, -0.00, -1.00, 401.9, 174.0)">'</text><text xml:space="preserve" font-family="Courier" font-size="28.0" fill="#FF0000" transform="matrix(1.00, 0.00, -0.00, -1.00, 418.7, 174.0)">r</text><text xml:space="preserve" font-family="Courier" font-size="28.0" fill="#FF0000" transform="matrix(1.00, 0.00, -0.00, -1.00, 435.5, 174.0)">e</text><text xml:space="preserve" font-family="Courier" font-size="28.0" fill="#FF0000" transform="matrix(1.00, 0.00, -0.00, -1.00, 452.3, 174.0)">s</text><text xml:space="preserve" font-family="Courier" font-size="28.0" fill="#FF0000" transform="matrix(1.00, 0.00, -0.00, -1.00, 469.1, 174.0)">o</text><text xml:space="preserve" font-family="Courier" font-size="28.0" fill="#FF0000" transform="matrix(1.00, 0.00, -0.00, -1.00, 485.9, 174.0)">u</text><text xml:space="preserve" font-family="Courier" font-size="28.0" fill="#FF0000" transform="matrix(1.00, 0.00, -0.00, -1.00, 502.7, 174.0)">r</text><text xml:space="preserve" font-family="Courier" font-size="28.0" fill="#FF0000" transform="matrix(1.00, 0.00, -0.00, -1.00, 519.5, 174.0)">c</text><text xml:space="preserve" font-family="Courier" font-size="28.0" fill="#FF0000" transform="matrix(1.00, 0.00, -0.00, -1.00, 536.3, 174.0)">e</text><text xml:space="preserve" font-family="Courier" font-size="28.0" fill="#FF0000" transform="matrix(1.00, 0.00, -0.00, -1.00, 553.1, 174.0)">_</text><text xml:space="preserve" font-family="Courier" font-size="28.0" fill="#FF0000" transform="matrix(1.00, 0.00, -0.00, -1.00, 569.9, 174.0)">n</text><text xml:space="preserve" font-family="Courier" font-size="28.0" fill="#FF0000" transform="matrix(1.00, 0.00, -0.00, -1.00, 586.7, 174.0)">a</text><text xml:space="preserve" font-family="Courier" font-size="28.0" fill="#FF0000" transform="matrix(1.00, 0.00, -0.00, -1.00, 603.5, 174.0)">m</text><text xml:space="preserve" font-family="Courier" font-size="28.0" fill="#FF0000" transform="matrix(1.00, 0.00, -0.00, -1.00, 620.3, 174.0)">e</text><text xml:space="preserve" font-family="Courier" font-size="28.0" fill="#FF0000" transform="matrix(1.00, 0.00, -0.00, -1.00, 637.1, 174.0)">'</text><text xml:space="preserve" font-family="Courier" font-size="28.0" fill="#FF0000" transform="matrix(1.00, 0.00, -0.00, -1.00, 653.9, 174.0)">]</text><text xml:space="preserve" font-family="Courier" font-size="28.0" fill="#FF0000" transform="matrix(1.00, 0.00, -0.00, -1.00, 670.8, 174.0)">,</text><text xml:space="preserve" font-family="Courier" font-size="28.0" fill="#FF0000" transform="matrix(1.00, 0.00, -0.00, -1.00, 687.6, 174.0)"> </text><text xml:space="preserve" font-family="Courier" font-size="28.0" fill="#FF0000" transform="matrix(1.00, 0.00, -0.00, -1.00, 704.4, 174.0)">r</text><text xml:space="preserve" font-family="Courier" font-size="28.0" fill="#FF0000" transform="matrix(1.00, 0.00, -0.00, -1.00, 721.2, 174.0)">c</text><text xml:space="preserve" font-family="Courier" font-size="28.0" fill="#FF0000" transform="matrix(1.00, 0.00, -0.00, -1.00, 738.0, 174.0)">[</text><text xml:space="preserve" font-family="Courier" font-size="28.0" fill="#FF0000" transform="matrix(1.00, 0.00, -0.00, -1.00, 754.8, 174.0)">'</text><text xml:space="preserve" font-family="Courier" font-size="28.0" fill="#FF0000" transform="matrix(1.00, 0.00, -0.00, -1.00, 771.6, 174.0)">r</text><text xml:space="preserve" font-family="Courier" font-size="28.0" fill="#FF0000" transform="matrix(1.00, 0.00, -0.00, -1.00, 788.4, 174.0)">e</text><text xml:space="preserve" font-family="Courier" font-size="28.0" fill="#FF0000" transform="matrix(1.00, 0.00, -0.00, -1.00, 805.2, 174.0)">s</text><text xml:space="preserve" font-family="Courier" font-size="28.0" fill="#FF0000" transform="matrix(1.00, 0.00, -0.00, -1.00, 822.0, 174.0)">o</text><text xml:space="preserve" font-family="Courier" font-size="28.0" fill="#FF0000" transform="matrix(1.00, 0.00, -0.00, -1.00, 838.8, 174.0)">u</text><text xml:space="preserve" font-family="Courier" font-size="28.0" fill="#FF0000" transform="matrix(1.00, 0.00, -0.00, -1.00, 855.6, 174.0)">r</text><text xml:space="preserve" font-family="Courier" font-size="28.0" fill="#FF0000" transform="matrix(1.00, 0.00, -0.00, -1.00, 872.4, 174.0)">c</text><text xml:space="preserve" font-family="Courier" font-size="28.0" fill="#FF0000" transform="matrix(1.00, 0.00, -0.00, -1.00, 889.2, 174.0)">e</text><text xml:space="preserve" font-family="Courier" font-size="28.0" fill="#FF0000" transform="matrix(1.00, 0.00, -0.00, -1.00, 906.0, 174.0)">s</text><text xml:space="preserve" font-family="Courier" font-size="28.0" fill="#FF0000" transform="matrix(1.00, 0.00, -0.00, -1.00, 922.8, 174.0)">'</text><text xml:space="preserve" font-family="Courier" font-size="28.0" fill="#FF0000" transform="matrix(1.00, 0.00, -0.00, -1.00, 939.6, 174.0)">]</text><text xml:space="preserve" font-family="Courier" font-size="28.0" fill="#747373" transform="matrix(1.00, 0.00, -0.00, -1.00, 956.3, 174.0)">)</text></g></svg>