<?xml version="1.0" encoding="UTF-8" standalone="no"?><svg xmlns="http://www.w3.org/2000/svg" xmlns:xlink="http://www.w3.org/1999/xlink" clip-rule="evenodd" stroke-miterlimit="4.00" viewBox="0 0 1024 768"><desc>SVG generated by Keynote</desc><defs></defs><g transform="matrix(1.00, 0.00, -0.00, -1.00, 0.0, 768.0)"><path d="M 0.0 768.0 L 1024.0 768.0 L 1024.0 0.0 L 0.0 0.0 Z M 0.0 768.0 " fill="#FEFFFE"></path><path d="M 0.0 0.0 L 934.5 0.0 " fill="none" stroke="#9A9A9A" stroke-width="1.00" transform="matrix(1.00, 0.00, 0.00, -1.00, 45.0, 613.0)"></path><text xml:space="preserve" font-family="HelveticaNeue-Light" font-size="42.0" fill="#000000" transform="matrix(1.00, 0.00, -0.00, -1.00, 49.0, 645.0)">B</text><text xml:space="preserve" font-family="HelveticaNeue-Light" font-size="42.0" fill="#000000" transform="matrix(1.00, 0.00, -0.00, -1.00, 77.0, 645.0)">o</text><text xml:space="preserve" font-family="HelveticaNeue-Light" font-size="42.0" fill="#000000" transform="matrix(1.00, 0.00, -0.00, -1.00, 100.4, 645.0)">o</text><text xml:space="preserve" font-family="HelveticaNeue-Light" font-size="42.0" fill="#000000" transform="matrix(1.00, 0.00, -0.00, -1.00, 123.7, 645.0)">k</text><text xml:space="preserve" font-family="HelveticaNeue-Light" font-size="42.0" fill="#000000" transform="matrix(1.00, 0.00, -0.00, -1.00, 144.7, 645.0)">s</text><text xml:space="preserve" font-family="HelveticaNeue" font-size="25.1" fill="#747373" transform="matrix(1.00, 0.00, -0.00, -1.00, 49.0, 560.2)">•</text><text xml:space="preserve" font-family="HelveticaNeue-Light" font-size="33.5" fill="#747373" transform="matrix(1.00, 0.00, -0.00, -1.00, 82.0, 557.0)">M</text><text xml:space="preserve" font-family="HelveticaNeue-Light" font-size="33.5" fill="#747373" transform="matrix(1.00, 0.00, -0.00, -1.00, 109.5, 557.0)">a</text><text xml:space="preserve" font-family="HelveticaNeue-Light" font-size="33.5" fill="#747373" transform="matrix(1.00, 0.00, -0.00, -1.00, 126.9, 557.0)">s</text><text xml:space="preserve" font-family="HelveticaNeue-Light" font-size="33.5" fill="#747373" transform="matrix(1.00, 0.00, -0.00, -1.00, 143.0, 557.0)">t</text><text xml:space="preserve" font-family="HelveticaNeue-Light" font-size="33.5" fill="#747373" transform="matrix(1.00, 0.00, -0.00, -1.00, 152.9, 557.0)">e</text><text xml:space="preserve" font-family="HelveticaNeue-Light" font-size="33.5" fill="#747373" transform="matrix(1.00, 0.00, -0.00, -1.00, 170.3, 557.0)">r</text><text xml:space="preserve" font-family="HelveticaNeue-Light" font-size="33.5" fill="#747373" transform="matrix(1.00, 0.00, -0.00, -1.00, 180.8, 557.0)">i</text><text xml:space="preserve" font-family="HelveticaNeue-Light" font-size="33.5" fill="#747373" transform="matrix(1.00, 0.00, -0.00, -1.00, 187.0, 557.0)">n</text><text xml:space="preserve" font-family="HelveticaNeue-Light" font-size="33.5" fill="#747373" transform="matrix(1.00, 0.00, -0.00, -1.00, 205.0, 557.0)">g</text><text xml:space="preserve" font-family="HelveticaNeue-Light" font-size="33.5" fill="#747373" transform="matrix(1.00, 0.00, -0.00, -1.00, 223.6, 557.0)"> </text><text xml:space="preserve" font-family="HelveticaNeue-Light" font-size="33.5" fill="#747373" transform="matrix(1.00, 0.00, -0.00, -1.00, 232.9, 557.0)">O</text><text xml:space="preserve" font-family="HelveticaNeue-Light" font-size="33.5" fill="#747373" transform="matrix(1.00, 0.00, -0.00, -1.00, 257.7, 557.0)">b</text><text xml:space="preserve" font-family="HelveticaNeue-Light" font-size="33.5" fill="#747373" transform="matrix(1.00, 0.00, -0.00, -1.00, 276.9, 557.0)">j</text><text xml:space="preserve" font-family="HelveticaNeue-Light" font-size="33.5" fill="#747373" transform="matrix(1.00, 0.00, -0.00, -1.00, 283.1, 557.0)">e</text><text xml:space="preserve" font-family="HelveticaNeue-Light" font-size="33.5" fill="#747373" transform="matrix(1.00, 0.00, -0.00, -1.00, 300.5, 557.0)">c</text><text xml:space="preserve" font-family="HelveticaNeue-Light" font-size="33.5" fill="#747373" transform="matrix(1.00, 0.00, -0.00, -1.00, 317.9, 557.0)">t</text><text xml:space="preserve" font-family="HelveticaNeue-Light" font-size="33.5" fill="#747373" transform="matrix(1.00, 0.00, -0.00, -1.00, 327.8, 557.0)">-</text><text xml:space="preserve" font-family="HelveticaNeue-Light" font-size="33.5" fill="#747373" transform="matrix(1.00, 0.00, -0.00, -1.00, 340.2, 557.0)">O</text><text xml:space="preserve" font-family="HelveticaNeue-Light" font-size="33.5" fill="#747373" transform="matrix(1.00, 0.00, -0.00, -1.00, 365.0, 557.0)">r</text><text xml:space="preserve" font-family="HelveticaNeue-Light" font-size="33.5" fill="#747373" transform="matrix(1.00, 0.00, -0.00, -1.00, 375.5, 557.0)">i</text><text xml:space="preserve" font-family="HelveticaNeue-Light" font-size="33.5" fill="#747373" transform="matrix(1.00, 0.00, -0.00, -1.00, 381.7, 557.0)">e</text><text xml:space="preserve" font-family="HelveticaNeue-Light" font-size="33.5" fill="#747373" transform="matrix(1.00, 0.00, -0.00, -1.00, 399.1, 557.0)">n</text><text xml:space="preserve" font-family="HelveticaNeue-Light" font-size="33.5" fill="#747373" transform="matrix(1.00, 0.00, -0.00, -1.00, 417.1, 557.0)">t</text><text xml:space="preserve" font-family="HelveticaNeue-Light" font-size="33.5" fill="#747373" transform="matrix(1.00, 0.00, -0.00, -1.00, 427.0, 557.0)">e</text><text xml:space="preserve" font-family="HelveticaNeue-Light" font-size="33.5" fill="#747373" transform="matrix(1.00, 0.00, -0.00, -1.00, 444.4, 557.0)">d</text><text xml:space="preserve" font-family="HelveticaNeue-Light" font-size="33.5" fill="#747373" transform="matrix(1.00, 0.00, -0.00, -1.00, 463.6, 557.0)"> </text><text xml:space="preserve" font-family="HelveticaNeue-Light" font-size="33.5" fill="#747373" transform="matrix(1.00, 0.00, -0.00, -1.00, 472.9, 557.0)">P</text><text xml:space="preserve" font-family="HelveticaNeue-Light" font-size="33.5" fill="#747373" transform="matrix(1.00, 0.00, -0.00, -1.00, 494.0, 557.0)">y</text><text xml:space="preserve" font-family="HelveticaNeue-Light" font-size="33.5" fill="#747373" transform="matrix(1.00, 0.00, -0.00, -1.00, 509.5, 557.0)">t</text><text xml:space="preserve" font-family="HelveticaNeue-Light" font-size="33.5" fill="#747373" transform="matrix(1.00, 0.00, -0.00, -1.00, 519.4, 557.0)">h</text><text xml:space="preserve" font-family="HelveticaNeue-Light" font-size="33.5" fill="#747373" transform="matrix(1.00, 0.00, -0.00, -1.00, 537.4, 557.0)">o</text><text xml:space="preserve" font-family="HelveticaNeue-Light" font-size="33.5" fill="#747373" transform="matrix(1.00, 0.00, -0.00, -1.00, 556.0, 557.0)">n</text><text xml:space="preserve" font-family="HelveticaNeue-Light" font-size="33.5" fill="#747373" transform="matrix(1.00, 0.00, -0.00, -1.00, 574.0, 557.0)"> </text><text xml:space="preserve" font-family="HelveticaNeue" font-size="25.1" fill="#747373" transform="matrix(1.00, 0.00, -0.00, -1.00, 49.0, 481.1)">•</text><text xml:space="preserve" font-family="HelveticaNeue-Light" font-size="33.5" fill="#747373" transform="matrix(1.00, 0.00, -0.00, -1.00, 82.0, 478.0)">P</text><text xml:space="preserve" font-family="HelveticaNeue-Light" font-size="33.5" fill="#747373" transform="matrix(1.00, 0.00, -0.00, -1.00, 103.1, 478.0)">y</text><text xml:space="preserve" font-family="HelveticaNeue-Light" font-size="33.5" fill="#747373" transform="matrix(1.00, 0.00, -0.00, -1.00, 118.6, 478.0)">t</text><text xml:space="preserve" font-family="HelveticaNeue-Light" font-size="33.5" fill="#747373" transform="matrix(1.00, 0.00, -0.00, -1.00, 128.5, 478.0)">h</text><text xml:space="preserve" font-family="HelveticaNeue-Light" font-size="33.5" fill="#747373" transform="matrix(1.00, 0.00, -0.00, -1.00, 146.5, 478.0)">o</text><text xml:space="preserve" font-family="HelveticaNeue-Light" font-size="33.5" fill="#747373" transform="matrix(1.00, 0.00, -0.00, -1.00, 165.1, 478.0)">n</text><text xml:space="preserve" font-family="HelveticaNeue-Light" font-size="33.5" fill="#747373" transform="matrix(1.00, 0.00, -0.00, -1.00, 183.1, 478.0)"> </text><text xml:space="preserve" font-family="HelveticaNeue-Light" font-size="33.5" fill="#747373" transform="matrix(1.00, 0.00, -0.00, -1.00, 192.4, 478.0)">E</text><text xml:space="preserve" font-family="HelveticaNeue-Light" font-size="33.5" fill="#747373" transform="matrix(1.00, 0.00, -0.00, -1.00, 212.2, 478.0)">s</text><text xml:space="preserve" font-family="HelveticaNeue-Light" font-size="33.5" fill="#747373" transform="matrix(1.00, 0.00, -0.00, -1.00, 228.3, 478.0)">s</text><text xml:space="preserve" font-family="HelveticaNeue-Light" font-size="33.5" fill="#747373" transform="matrix(1.00, 0.00, -0.00, -1.00, 244.4, 478.0)">e</text><text xml:space="preserve" font-family="HelveticaNeue-Light" font-size="33.5" fill="#747373" transform="matrix(1.00, 0.00, -0.00, -1.00, 261.8, 478.0)">n</text><text xml:space="preserve" font-family="HelveticaNeue-Light" font-size="33.5" fill="#747373" transform="matrix(1.00, 0.00, -0.00, -1.00, 279.8, 478.0)">t</text><text xml:space="preserve" font-family="HelveticaNeue-Light" font-size="33.5" fill="#747373" transform="matrix(1.00, 0.00, -0.00, -1.00, 289.7, 478.0)">i</text><text xml:space="preserve" font-family="HelveticaNeue-Light" font-size="33.5" fill="#747373" transform="matrix(1.00, 0.00, -0.00, -1.00, 295.9, 478.0)">a</text><text xml:space="preserve" font-family="HelveticaNeue-Light" font-size="33.5" fill="#747373" transform="matrix(1.00, 0.00, -0.00, -1.00, 313.3, 478.0)">l</text><text xml:space="preserve" font-family="HelveticaNeue-Light" font-size="33.5" fill="#747373" transform="matrix(1.00, 0.00, -0.00, -1.00, 319.5, 478.0)">s</text><text xml:space="preserve" font-family="HelveticaNeue-Light" font-size="33.5" fill="#747373" transform="matrix(1.00, 0.00, -0.00, -1.00, 335.6, 478.0)"> </text><text xml:space="preserve" font-family="HelveticaNeue" font-size="25.1" fill="#747373" transform="matrix(1.00, 0.00, -0.00, -1.00, 49.0, 402.1)">•</text><text xml:space="preserve" font-family="HelveticaNeue-Light" font-size="33.5" fill="#747373" transform="matrix(1.00, 0.00, -0.00, -1.00, 82.0, 399.0)">F</text><text xml:space="preserve" font-family="HelveticaNeue-Light" font-size="33.5" fill="#747373" transform="matrix(1.00, 0.00, -0.00, -1.00, 100.0, 399.0)">u</text><text xml:space="preserve" font-family="HelveticaNeue-Light" font-size="33.5" fill="#747373" transform="matrix(1.00, 0.00, -0.00, -1.00, 118.0, 399.0)">n</text><text xml:space="preserve" font-family="HelveticaNeue-Light" font-size="33.5" fill="#747373" transform="matrix(1.00, 0.00, -0.00, -1.00, 135.9, 399.0)">c</text><text xml:space="preserve" font-family="HelveticaNeue-Light" font-size="33.5" fill="#747373" transform="matrix(1.00, 0.00, -0.00, -1.00, 153.3, 399.0)">t</text><text xml:space="preserve" font-family="HelveticaNeue-Light" font-size="33.5" fill="#747373" transform="matrix(1.00, 0.00, -0.00, -1.00, 163.2, 399.0)">i</text><text xml:space="preserve" font-family="HelveticaNeue-Light" font-size="33.5" fill="#747373" transform="matrix(1.00, 0.00, -0.00, -1.00, 169.4, 399.0)">o</text><text xml:space="preserve" font-family="HelveticaNeue-Light" font-size="33.5" fill="#747373" transform="matrix(1.00, 0.00, -0.00, -1.00, 188.0, 399.0)">n</text><text xml:space="preserve" font-family="HelveticaNeue-Light" font-size="33.5" fill="#747373" transform="matrix(1.00, 0.00, -0.00, -1.00, 206.0, 399.0)">a</text><text xml:space="preserve" font-family="HelveticaNeue-Light" font-size="33.5" fill="#747373" transform="matrix(1.00, 0.00, -0.00, -1.00, 223.4, 399.0)">l</text><text xml:space="preserve" font-family="HelveticaNeue-Light" font-size="33.5" fill="#747373" transform="matrix(1.00, 0.00, -0.00, -1.00, 229.6, 399.0)"> </text><text xml:space="preserve" font-family="HelveticaNeue-Light" font-size="33.5" fill="#747373" transform="matrix(1.00, 0.00, -0.00, -1.00, 238.9, 399.0)">P</text><text xml:space="preserve" font-family="HelveticaNeue-Light" font-size="33.5" fill="#747373" transform="matrix(1.00, 0.00, -0.00, -1.00, 260.0, 399.0)">y</text><text xml:space="preserve" font-family="HelveticaNeue-Light" font-size="33.5" fill="#747373" transform="matrix(1.00, 0.00, -0.00, -1.00, 275.5, 399.0)">t</text><text xml:space="preserve" font-family="HelveticaNeue-Light" font-size="33.5" fill="#747373" transform="matrix(1.00, 0.00, -0.00, -1.00, 285.4, 399.0)">h</text><text xml:space="preserve" font-family="HelveticaNeue-Light" font-size="33.5" fill="#747373" transform="matrix(1.00, 0.00, -0.00, -1.00, 303.4, 399.0)">o</text><text xml:space="preserve" font-family="HelveticaNeue-Light" font-size="33.5" fill="#747373" transform="matrix(1.00, 0.00, -0.00, -1.00, 322.0, 399.0)">n</text><text xml:space="preserve" font-family="HelveticaNeue-Light" font-size="33.5" fill="#747373" transform="matrix(1.00, 0.00, -0.00, -1.00, 340.0, 399.0)"> </text><text xml:space="preserve" font-family="HelveticaNeue-Light" font-size="33.5" fill="#747373" transform="matrix(1.00, 0.00, -0.00, -1.00, 349.3, 399.0)">P</text><text xml:space="preserve" font-family="HelveticaNeue-Light" font-size="33.5" fill="#747373" transform="matrix(1.00, 0.00, -0.00, -1.00, 370.4, 399.0)">r</text><text xml:space="preserve" font-family="HelveticaNeue-Light" font-size="33.5" fill="#747373" transform="matrix(1.00, 0.00, -0.00, -1.00, 380.3, 399.0)">o</text><text xml:space="preserve" font-family="HelveticaNeue-Light" font-size="33.5" fill="#747373" transform="matrix(1.00, 0.00, -0.00, -1.00, 398.9, 399.0)">g</text><text xml:space="preserve" font-family="HelveticaNeue-Light" font-size="33.5" fill="#747373" transform="matrix(1.00, 0.00, -0.00, -1.00, 417.5, 399.0)">r</text><text xml:space="preserve" font-family="HelveticaNeue-Light" font-size="33.5" fill="#747373" transform="matrix(1.00, 0.00, -0.00, -1.00, 428.1, 399.0)">a</text><text xml:space="preserve" font-family="HelveticaNeue-Light" font-size="33.5" fill="#747373" transform="matrix(1.00, 0.00, -0.00, -1.00, 445.5, 399.0)">m</text><text xml:space="preserve" font-family="HelveticaNeue-Light" font-size="33.5" fill="#747373" transform="matrix(1.00, 0.00, -0.00, -1.00, 473.3, 399.0)">m</text><text xml:space="preserve" font-family="HelveticaNeue-Light" font-size="33.5" fill="#747373" transform="matrix(1.00, 0.00, -0.00, -1.00, 501.2, 399.0)">i</text><text xml:space="preserve" font-family="HelveticaNeue-Light" font-size="33.5" fill="#747373" transform="matrix(1.00, 0.00, -0.00, -1.00, 507.4, 399.0)">n</text><text xml:space="preserve" font-family="HelveticaNeue-Light" font-size="33.5" fill="#747373" transform="matrix(1.00, 0.00, -0.00, -1.00, 525.4, 399.0)">g</text><text xml:space="preserve" font-family="HelveticaNeue-Light" font-size="33.5" fill="#747373" transform="matrix(1.00, 0.00, -0.00, -1.00, 544.0, 399.0)"> </text><text xml:space="preserve" font-family="HelveticaNeue" font-size="25.1" fill="#747373" transform="matrix(1.00, 0.00, -0.00, -1.00, 49.0, 323.0)">•</text><text xml:space="preserve" font-family="HelveticaNeue-Light" font-size="33.5" fill="#747373" transform="matrix(1.00, 0.00, -0.00, -1.00, 82.0, 320.0)">P</text><text xml:space="preserve" font-family="HelveticaNeue-Light" font-size="33.5" fill="#747373" transform="matrix(1.00, 0.00, -0.00, -1.00, 103.1, 320.0)">y</text><text xml:space="preserve" font-family="HelveticaNeue-Light" font-size="33.5" fill="#747373" transform="matrix(1.00, 0.00, -0.00, -1.00, 118.6, 320.0)">t</text><text xml:space="preserve" font-family="HelveticaNeue-Light" font-size="33.5" fill="#747373" transform="matrix(1.00, 0.00, -0.00, -1.00, 128.5, 320.0)">h</text><text xml:space="preserve" font-family="HelveticaNeue-Light" font-size="33.5" fill="#747373" transform="matrix(1.00, 0.00, -0.00, -1.00, 146.5, 320.0)">o</text><text xml:space="preserve" font-family="HelveticaNeue-Light" font-size="33.5" fill="#747373" transform="matrix(1.00, 0.00, -0.00, -1.00, 165.1, 320.0)">n</text><text xml:space="preserve" font-family="HelveticaNeue-Light" font-size="33.5" fill="#747373" transform="matrix(1.00, 0.00, -0.00, -1.00, 183.1, 320.0)"> </text><text xml:space="preserve" font-family="HelveticaNeue-Light" font-size="33.5" fill="#747373" transform="matrix(1.00, 0.00, -0.00, -1.00, 192.4, 320.0)">f</text><text xml:space="preserve" font-family="HelveticaNeue-Light" font-size="33.5" fill="#747373" transform="matrix(1.00, 0.00, -0.00, -1.00, 201.1, 320.0)">o</text><text xml:space="preserve" font-family="HelveticaNeue-Light" font-size="33.5" fill="#747373" transform="matrix(1.00, 0.00, -0.00, -1.00, 219.7, 320.0)">r</text><text xml:space="preserve" font-family="HelveticaNeue-Light" font-size="33.5" fill="#747373" transform="matrix(1.00, 0.00, -0.00, -1.00, 230.2, 320.0)"> </text><text xml:space="preserve" font-family="HelveticaNeue-Light" font-size="33.5" fill="#747373" transform="matrix(1.00, 0.00, -0.00, -1.00, 239.5, 320.0)">S</text><text xml:space="preserve" font-family="HelveticaNeue-Light" font-size="33.5" fill="#747373" transform="matrix(1.00, 0.00, -0.00, -1.00, 260.6, 320.0)">e</text><text xml:space="preserve" font-family="HelveticaNeue-Light" font-size="33.5" fill="#747373" transform="matrix(1.00, 0.00, -0.00, -1.00, 278.0, 320.0)">c</text><text xml:space="preserve" font-family="HelveticaNeue-Light" font-size="33.5" fill="#747373" transform="matrix(1.00, 0.00, -0.00, -1.00, 295.4, 320.0)">r</text><text xml:space="preserve" font-family="HelveticaNeue-Light" font-size="33.5" fill="#747373" transform="matrix(1.00, 0.00, -0.00, -1.00, 305.3, 320.0)">e</text><text xml:space="preserve" font-family="HelveticaNeue-Light" font-size="33.5" fill="#747373" transform="matrix(1.00, 0.00, -0.00, -1.00, 322.7, 320.0)">t</text><text xml:space="preserve" font-family="HelveticaNeue-Light" font-size="33.5" fill="#747373" transform="matrix(1.00, 0.00, -0.00, -1.00, 332.6, 320.0)"> </text><text xml:space="preserve" font-family="HelveticaNeue-Light" font-size="33.5" fill="#747373" transform="matrix(1.00, 0.00, -0.00, -1.00, 341.9, 320.0)">A</text><text xml:space="preserve" font-family="HelveticaNeue-Light" font-size="33.5" fill="#747373" transform="matrix(1.00, 0.00, -0.00, -1.00, 363.0, 320.0)">g</text><text xml:space="preserve" font-family="HelveticaNeue-Light" font-size="33.5" fill="#747373" transform="matrix(1.00, 0.00, -0.00, -1.00, 381.6, 320.0)">e</text><text xml:space="preserve" font-family="HelveticaNeue-Light" font-size="33.5" fill="#747373" transform="matrix(1.00, 0.00, -0.00, -1.00, 399.0, 320.0)">n</text><text xml:space="preserve" font-family="HelveticaNeue-Light" font-size="33.5" fill="#747373" transform="matrix(1.00, 0.00, -0.00, -1.00, 417.0, 320.0)">t</text><text xml:space="preserve" font-family="HelveticaNeue-Light" font-size="33.5" fill="#747373" transform="matrix(1.00, 0.00, -0.00, -1.00, 426.9, 320.0)">s</text><text xml:space="preserve" font-family="HelveticaNeue-Light" font-size="33.5" fill="#747373" transform="matrix(1.00, 0.00, -0.00, -1.00, 443.0, 320.0)"> </text><text xml:space="preserve" font-family="HelveticaNeue" font-size="25.1" fill="#747373" transform="matrix(1.00, 0.00, -0.00, -1.00, 49.0, 243.9)">•</text><text xml:space="preserve" font-family="HelveticaNeue-Light" font-size="33.5" fill="#747373" transform="matrix(1.00, 0.00, -0.00, -1.00, 82.0, 241.0)">P</text><text xml:space="preserve" font-family="HelveticaNeue-Light" font-size="33.5" fill="#747373" transform="matrix(1.00, 0.00, -0.00, -1.00, 103.1, 241.0)">y</text><text xml:space="preserve" font-family="HelveticaNeue-Light" font-size="33.5" fill="#747373" transform="matrix(1.00, 0.00, -0.00, -1.00, 118.6, 241.0)">t</text><text xml:space="preserve" font-family="HelveticaNeue-Light" font-size="33.5" fill="#747373" transform="matrix(1.00, 0.00, -0.00, -1.00, 128.5, 241.0)">h</text><text xml:space="preserve" font-family="HelveticaNeue-Light" font-size="33.5" fill="#747373" transform="matrix(1.00, 0.00, -0.00, -1.00, 146.5, 241.0)">o</text><text xml:space="preserve" font-family="HelveticaNeue-Light" font-size="33.5" fill="#747373" transform="matrix(1.00, 0.00, -0.00, -1.00, 165.1, 241.0)">n</text><text xml:space="preserve" font-family="HelveticaNeue-Light" font-size="33.5" fill="#747373" transform="matrix(1.00, 0.00, -0.00, -1.00, 183.1, 241.0)"> </text><text xml:space="preserve" font-family="HelveticaNeue-Light" font-size="33.5" fill="#747373" transform="matrix(1.00, 0.00, -0.00, -1.00, 192.4, 241.0)">f</text><text xml:space="preserve" font-family="HelveticaNeue-Light" font-size="33.5" fill="#747373" transform="matrix(1.00, 0.00, -0.00, -1.00, 201.1, 241.0)">o</text><text xml:space="preserve" font-family="HelveticaNeue-Light" font-size="33.5" fill="#747373" transform="matrix(1.00, 0.00, -0.00, -1.00, 219.7, 241.0)">r</text><text xml:space="preserve" font-family="HelveticaNeue-Light" font-size="33.5" fill="#747373" transform="matrix(1.00, 0.00, -0.00, -1.00, 230.2, 241.0)"> </text><text xml:space="preserve" font-family="HelveticaNeue-Light" font-size="33.5" fill="#747373" transform="matrix(1.00, 0.00, -0.00, -1.00, 239.5, 241.0)">S</text><text xml:space="preserve" font-family="HelveticaNeue-Light" font-size="33.5" fill="#747373" transform="matrix(1.00, 0.00, -0.00, -1.00, 260.6, 241.0)">e</text><text xml:space="preserve" font-family="HelveticaNeue-Light" font-size="33.5" fill="#747373" transform="matrix(1.00, 0.00, -0.00, -1.00, 278.0, 241.0)">c</text><text xml:space="preserve" font-family="HelveticaNeue-Light" font-size="33.5" fill="#747373" transform="matrix(1.00, 0.00, -0.00, -1.00, 295.4, 241.0)">r</text><text xml:space="preserve" font-family="HelveticaNeue-Light" font-size="33.5" fill="#747373" transform="matrix(1.00, 0.00, -0.00, -1.00, 305.3, 241.0)">e</text><text xml:space="preserve" font-family="HelveticaNeue-Light" font-size="33.5" fill="#747373" transform="matrix(1.00, 0.00, -0.00, -1.00, 322.7, 241.0)">t</text><text xml:space="preserve" font-family="HelveticaNeue-Light" font-size="33.5" fill="#747373" transform="matrix(1.00, 0.00, -0.00, -1.00, 332.6, 241.0)"> </text><text xml:space="preserve" font-family="HelveticaNeue-Light" font-size="33.5" fill="#747373" transform="matrix(1.00, 0.00, -0.00, -1.00, 341.9, 241.0)">A</text><text xml:space="preserve" font-family="HelveticaNeue-Light" font-size="33.5" fill="#747373" transform="matrix(1.00, 0.00, -0.00, -1.00, 363.0, 241.0)">g</text><text xml:space="preserve" font-family="HelveticaNeue-Light" font-size="33.5" fill="#747373" transform="matrix(1.00, 0.00, -0.00, -1.00, 381.6, 241.0)">e</text><text xml:space="preserve" font-family="HelveticaNeue-Light" font-size="33.5" fill="#747373" transform="matrix(1.00, 0.00, -0.00, -1.00, 399.0, 241.0)">n</text><text xml:space="preserve" font-family="HelveticaNeue-Light" font-size="33.5" fill="#747373" transform="matrix(1.00, 0.00, -0.00, -1.00, 417.0, 241.0)">t</text><text xml:space="preserve" font-family="HelveticaNeue-Light" font-size="33.5" fill="#747373" transform="matrix(1.00, 0.00, -0.00, -1.00, 426.9, 241.0)">s</text><text xml:space="preserve" font-family="HelveticaNeue-Light" font-size="33.5" fill="#747373" transform="matrix(1.00, 0.00, -0.00, -1.00, 443.0, 241.0)"> </text><text xml:space="preserve" font-family="HelveticaNeue-Light" font-size="33.5" fill="#747373" transform="matrix(1.00, 0.00, -0.00, -1.00, 452.3, 241.0)">I</text><text xml:space="preserve" font-family="HelveticaNeue-Light" font-size="33.5" fill="#747373" transform="matrix(1.00, 0.00, -0.00, -1.00, 459.7, 241.0)">I</text><text xml:space="preserve" font-family="HelveticaNeue-Light" font-size="33.5" fill="#747373" transform="matrix(1.00, 0.00, -0.00, -1.00, 467.2, 241.0)"> </text><text xml:space="preserve" font-family="HelveticaNeue" font-size="25.1" fill="#747373" transform="matrix(1.00, 0.00, -0.00, -1.00, 49.0, 164.9)">•</text><text xml:space="preserve" font-family="HelveticaNeue-Light" font-size="33.5" fill="#747373" transform="matrix(1.00, 0.00, -0.00, -1.00, 82.0, 162.0)">T</text><text xml:space="preserve" font-family="HelveticaNeue-Light" font-size="33.5" fill="#747373" transform="matrix(1.00, 0.00, -0.00, -1.00, 100.6, 162.0)">h</text><text xml:space="preserve" font-family="HelveticaNeue-Light" font-size="33.5" fill="#747373" transform="matrix(1.00, 0.00, -0.00, -1.00, 118.6, 162.0)">e</text><text xml:space="preserve" font-family="HelveticaNeue-Light" font-size="33.5" fill="#747373" transform="matrix(1.00, 0.00, -0.00, -1.00, 136.0, 162.0)"> </text><text xml:space="preserve" font-family="HelveticaNeue-Light" font-size="33.5" fill="#747373" transform="matrix(1.00, 0.00, -0.00, -1.00, 145.3, 162.0)">P</text><text xml:space="preserve" font-family="HelveticaNeue-Light" font-size="33.5" fill="#747373" transform="matrix(1.00, 0.00, -0.00, -1.00, 166.4, 162.0)">y</text><text xml:space="preserve" font-family="HelveticaNeue-Light" font-size="33.5" fill="#747373" transform="matrix(1.00, 0.00, -0.00, -1.00, 181.9, 162.0)">t</text><text xml:space="preserve" font-family="HelveticaNeue-Light" font-size="33.5" fill="#747373" transform="matrix(1.00, 0.00, -0.00, -1.00, 191.8, 162.0)">h</text><text xml:space="preserve" font-family="HelveticaNeue-Light" font-size="33.5" fill="#747373" transform="matrix(1.00, 0.00, -0.00, -1.00, 209.8, 162.0)">o</text><text xml:space="preserve" font-family="HelveticaNeue-Light" font-size="33.5" fill="#747373" transform="matrix(1.00, 0.00, -0.00, -1.00, 228.4, 162.0)">n</text><text xml:space="preserve" font-family="HelveticaNeue-Light" font-size="33.5" fill="#747373" transform="matrix(1.00, 0.00, -0.00, -1.00, 246.4, 162.0)"> </text><text xml:space="preserve" font-family="HelveticaNeue-Light" font-size="33.5" fill="#747373" transform="matrix(1.00, 0.00, -0.00, -1.00, 255.7, 162.0)">C</text><text xml:space="preserve" font-family="HelveticaNeue-Light" font-size="33.5" fill="#747373" transform="matrix(1.00, 0.00, -0.00, -1.00, 279.2, 162.0)">o</text><text xml:space="preserve" font-family="HelveticaNeue-Light" font-size="33.5" fill="#747373" transform="matrix(1.00, 0.00, -0.00, -1.00, 297.8, 162.0)">o</text><text xml:space="preserve" font-family="HelveticaNeue-Light" font-size="33.5" fill="#747373" transform="matrix(1.00, 0.00, -0.00, -1.00, 316.5, 162.0)">k</text><text xml:space="preserve" font-family="HelveticaNeue-Light" font-size="33.5" fill="#747373" transform="matrix(1.00, 0.00, -0.00, -1.00, 333.2, 162.0)">b</text><text xml:space="preserve" font-family="HelveticaNeue-Light" font-size="33.5" fill="#747373" transform="matrix(1.00, 0.00, -0.00, -1.00, 352.4, 162.0)">o</text><text xml:space="preserve" font-family="HelveticaNeue-Light" font-size="33.5" fill="#747373" transform="matrix(1.00, 0.00, -0.00, -1.00, 371.0, 162.0)">o</text><text xml:space="preserve" font-family="HelveticaNeue-Light" font-size="33.5" fill="#747373" transform="matrix(1.00, 0.00, -0.00, -1.00, 389.6, 162.0)">k</text><text xml:space="preserve" font-family="HelveticaNeue-Light" font-size="33.5" fill="#747373" transform="matrix(1.00, 0.00, -0.00, -1.00, 406.4, 162.0)"> </text><text xml:space="preserve" font-family="HelveticaNeue" font-size="25.1" fill="#747373" transform="matrix(1.00, 0.00, -0.00, -1.00, 49.0, 85.8)">•</text><text xml:space="preserve" font-family="HelveticaNeue-Light" font-size="33.5" fill="#747373" transform="matrix(1.00, 0.00, -0.00, -1.00, 82.0, 83.0)">S</text><text xml:space="preserve" font-family="HelveticaNeue-Light" font-size="33.5" fill="#747373" transform="matrix(1.00, 0.00, -0.00, -1.00, 103.1, 83.0)">e</text><text xml:space="preserve" font-family="HelveticaNeue-Light" font-size="33.5" fill="#747373" transform="matrix(1.00, 0.00, -0.00, -1.00, 120.5, 83.0)">e</text><text xml:space="preserve" font-family="HelveticaNeue-Light" font-size="33.5" fill="#747373" transform="matrix(1.00, 0.00, -0.00, -1.00, 137.8, 83.0)"> </text><text xml:space="preserve" font-family="HelveticaNeue-Light" font-size="33.5" fill="#747373" transform="matrix(1.00, 0.00, -0.00, -1.00, 147.2, 83.0)">h</text><text xml:space="preserve" font-family="HelveticaNeue-Light" font-size="33.5" fill="#747373" transform="matrix(1.00, 0.00, -0.00, -1.00, 165.1, 83.0)">t</text><text xml:space="preserve" font-family="HelveticaNeue-Light" font-size="33.5" fill="#747373" transform="matrix(1.00, 0.00, -0.00, -1.00, 175.0, 83.0)">t</text><text xml:space="preserve" font-family="HelveticaNeue-Light" font-size="33.5" fill="#747373" transform="matrix(1.00, 0.00, -0.00, -1.00, 185.0, 83.0)">p</text><text xml:space="preserve" font-family="HelveticaNeue-Light" font-size="33.5" fill="#747373" transform="matrix(1.00, 0.00, -0.00, -1.00, 204.2, 83.0)">:</text><text xml:space="preserve" font-family="HelveticaNeue-Light" font-size="33.5" fill="#747373" transform="matrix(1.00, 0.00, -0.00, -1.00, 213.5, 83.0)">/</text><text xml:space="preserve" font-family="HelveticaNeue-Light" font-size="33.5" fill="#747373" transform="matrix(1.00, 0.00, -0.00, -1.00, 224.6, 83.0)">/</text><text xml:space="preserve" font-family="HelveticaNeue-Light" font-size="33.5" fill="#747373" transform="matrix(1.00, 0.00, -0.00, -1.00, 235.8, 83.0)">w</text><text xml:space="preserve" font-family="HelveticaNeue-Light" font-size="33.5" fill="#747373" transform="matrix(1.00, 0.00, -0.00, -1.00, 260.6, 83.0)">w</text><text xml:space="preserve" font-family="HelveticaNeue-Light" font-size="33.5" fill="#747373" transform="matrix(1.00, 0.00, -0.00, -1.00, 285.4, 83.0)">w</text><text xml:space="preserve" font-family="HelveticaNeue-Light" font-size="33.5" fill="#747373" transform="matrix(1.00, 0.00, -0.00, -1.00, 308.4, 83.0)">.</text><text xml:space="preserve" font-family="HelveticaNeue-Light" font-size="33.5" fill="#747373" transform="matrix(1.00, 0.00, -0.00, -1.00, 317.7, 83.0)">p</text><text xml:space="preserve" font-family="HelveticaNeue-Light" font-size="33.5" fill="#747373" transform="matrix(1.00, 0.00, -0.00, -1.00, 336.9, 83.0)">a</text><text xml:space="preserve" font-family="HelveticaNeue-Light" font-size="33.5" fill="#747373" transform="matrix(1.00, 0.00, -0.00, -1.00, 354.3, 83.0)">c</text><text xml:space="preserve" font-family="HelveticaNeue-Light" font-size="33.5" fill="#747373" transform="matrix(1.00, 0.00, -0.00, -1.00, 371.6, 83.0)">k</text><text xml:space="preserve" font-family="HelveticaNeue-Light" font-size="33.5" fill="#747373" transform="matrix(1.00, 0.00, -0.00, -1.00, 388.4, 83.0)">t</text><text xml:space="preserve" font-family="HelveticaNeue-Light" font-size="33.5" fill="#747373" transform="matrix(1.00, 0.00, -0.00, -1.00, 398.3, 83.0)">p</text><text xml:space="preserve" font-family="HelveticaNeue-Light" font-size="33.5" fill="#747373" transform="matrix(1.00, 0.00, -0.00, -1.00, 417.5, 83.0)">u</text><text xml:space="preserve" font-family="HelveticaNeue-Light" font-size="33.5" fill="#747373" transform="matrix(1.00, 0.00, -0.00, -1.00, 435.5, 83.0)">b</text><text xml:space="preserve" font-family="HelveticaNeue-Light" font-size="33.5" fill="#747373" transform="matrix(1.00, 0.00, -0.00, -1.00, 454.7, 83.0)">.</text><text xml:space="preserve" font-family="HelveticaNeue-Light" font-size="33.5" fill="#747373" transform="matrix(1.00, 0.00, -0.00, -1.00, 464.0, 83.0)">c</text><text xml:space="preserve" font-family="HelveticaNeue-Light" font-size="33.5" fill="#747373" transform="matrix(1.00, 0.00, -0.00, -1.00, 481.4, 83.0)">o</text><text xml:space="preserve" font-family="HelveticaNeue-Light" font-size="33.5" fill="#747373" transform="matrix(1.00, 0.00, -0.00, -1.00, 500.0, 83.0)">m</text></g></svg>