<?xml version="1.0" encoding="UTF-8" standalone="no"?><svg xmlns="http://www.w3.org/2000/svg" xmlns:xlink="http://www.w3.org/1999/xlink" clip-rule="evenodd" stroke-miterlimit="4.00" viewBox="0 0 1024 768"><desc>SVG generated by Keynote</desc><defs></defs><g transform="matrix(1.00, 0.00, -0.00, -1.00, 0.0, 768.0)"><path d="M 0.0 768.0 L 1024.0 768.0 L 1024.0 0.0 L 0.0 0.0 Z M 0.0 768.0 " fill="#FEFFFE"></path><path d="M 0.0 0.0 L 934.5 0.0 " fill="none" stroke="#9A9A9A" stroke-width="1.00" transform="matrix(1.00, 0.00, 0.00, -1.00, 45.0, 613.0)"></path><text xml:space="preserve" font-family="HelveticaNeue-Light" font-size="42.0" fill="#000000" transform="matrix(1.00, 0.00, -0.00, -1.00, 49.0, 645.0)">B</text><text xml:space="preserve" font-family="HelveticaNeue-Light" font-size="42.0" fill="#000000" transform="matrix(1.00, 0.00, -0.00, -1.00, 77.0, 645.0)">o</text><text xml:space="preserve" font-family="HelveticaNeue-Light" font-size="42.0" fill="#000000" transform="matrix(1.00, 0.00, -0.00, -1.00, 100.4, 645.0)">t</text><text xml:space="preserve" font-family="HelveticaNeue-Light" font-size="42.0" fill="#000000" transform="matrix(1.00, 0.00, -0.00, -1.00, 112.8, 645.0)">t</text><text xml:space="preserve" font-family="HelveticaNeue-Light" font-size="42.0" fill="#000000" transform="matrix(1.00, 0.00, -0.00, -1.00, 125.2, 645.0)">o</text><text xml:space="preserve" font-family="HelveticaNeue-Light" font-size="42.0" fill="#000000" transform="matrix(1.00, 0.00, -0.00, -1.00, 148.6, 645.0)">m</text><text xml:space="preserve" font-family="HelveticaNeue-Light" font-size="42.0" fill="#000000" transform="matrix(1.00, 0.00, -0.00, -1.00, 183.6, 645.0)"> </text><text xml:space="preserve" font-family="HelveticaNeue-Light" font-size="42.0" fill="#000000" transform="matrix(1.00, 0.00, -0.00, -1.00, 195.2, 645.0)">L</text><text xml:space="preserve" font-family="HelveticaNeue-Light" font-size="42.0" fill="#000000" transform="matrix(1.00, 0.00, -0.00, -1.00, 217.8, 645.0)">i</text><text xml:space="preserve" font-family="HelveticaNeue-Light" font-size="42.0" fill="#000000" transform="matrix(1.00, 0.00, -0.00, -1.00, 225.6, 645.0)">n</text><text xml:space="preserve" font-family="HelveticaNeue-Light" font-size="42.0" fill="#000000" transform="matrix(1.00, 0.00, -0.00, -1.00, 248.1, 645.0)">e</text><text xml:space="preserve" font-family="HelveticaNeue" font-size="25.1" fill="#747373" transform="matrix(1.00, 0.00, -0.00, -1.00, 49.0, 560.2)">•</text><text xml:space="preserve" font-family="HelveticaNeue-Light" font-size="33.5" fill="#747373" transform="matrix(1.00, 0.00, -0.00, -1.00, 82.0, 557.0)">N</text><text xml:space="preserve" font-family="HelveticaNeue-Light" font-size="33.5" fill="#747373" transform="matrix(1.00, 0.00, -0.00, -1.00, 105.6, 557.0)">o</text><text xml:space="preserve" font-family="HelveticaNeue-Light" font-size="33.5" fill="#747373" transform="matrix(1.00, 0.00, -0.00, -1.00, 124.2, 557.0)">S</text><text xml:space="preserve" font-family="HelveticaNeue-Light" font-size="33.5" fill="#747373" transform="matrix(1.00, 0.00, -0.00, -1.00, 145.3, 557.0)">Q</text><text xml:space="preserve" font-family="HelveticaNeue-Light" font-size="33.5" fill="#747373" transform="matrix(1.00, 0.00, -0.00, -1.00, 170.1, 557.0)">L</text><text xml:space="preserve" font-family="HelveticaNeue-Light" font-size="33.5" fill="#747373" transform="matrix(1.00, 0.00, -0.00, -1.00, 188.1, 557.0)"> </text><text xml:space="preserve" font-family="HelveticaNeue-Light" font-size="33.5" fill="#747373" transform="matrix(1.00, 0.00, -0.00, -1.00, 197.4, 557.0)">d</text><text xml:space="preserve" font-family="HelveticaNeue-Light" font-size="33.5" fill="#747373" transform="matrix(1.00, 0.00, -0.00, -1.00, 216.6, 557.0)">o</text><text xml:space="preserve" font-family="HelveticaNeue-Light" font-size="33.5" fill="#747373" transform="matrix(1.00, 0.00, -0.00, -1.00, 235.2, 557.0)">e</text><text xml:space="preserve" font-family="HelveticaNeue-Light" font-size="33.5" fill="#747373" transform="matrix(1.00, 0.00, -0.00, -1.00, 252.6, 557.0)">s</text><text xml:space="preserve" font-family="HelveticaNeue-Light" font-size="33.5" fill="#747373" transform="matrix(1.00, 0.00, -0.00, -1.00, 268.7, 557.0)">n</text><text xml:space="preserve" font-family="HelveticaNeue-Light" font-size="33.5" fill="#747373" transform="matrix(1.00, 0.00, -0.00, -1.00, 286.7, 557.0)">’</text><text xml:space="preserve" font-family="HelveticaNeue-Light" font-size="33.5" fill="#747373" transform="matrix(1.00, 0.00, -0.00, -1.00, 295.4, 557.0)">t</text><text xml:space="preserve" font-family="HelveticaNeue-Light" font-size="33.5" fill="#747373" transform="matrix(1.00, 0.00, -0.00, -1.00, 305.3, 557.0)"> </text><text xml:space="preserve" font-family="HelveticaNeue-Light" font-size="33.5" fill="#747373" transform="matrix(1.00, 0.00, -0.00, -1.00, 314.6, 557.0)">m</text><text xml:space="preserve" font-family="HelveticaNeue-Light" font-size="33.5" fill="#747373" transform="matrix(1.00, 0.00, -0.00, -1.00, 342.5, 557.0)">e</text><text xml:space="preserve" font-family="HelveticaNeue-Light" font-size="33.5" fill="#747373" transform="matrix(1.00, 0.00, -0.00, -1.00, 359.9, 557.0)">a</text><text xml:space="preserve" font-family="HelveticaNeue-Light" font-size="33.5" fill="#747373" transform="matrix(1.00, 0.00, -0.00, -1.00, 377.2, 557.0)">n</text><text xml:space="preserve" font-family="HelveticaNeue-Light" font-size="33.5" fill="#747373" transform="matrix(1.00, 0.00, -0.00, -1.00, 395.2, 557.0)"> </text><text xml:space="preserve" font-family="HelveticaNeue-Light" font-size="33.5" fill="#747373" transform="matrix(1.00, 0.00, -0.00, -1.00, 404.5, 557.0)">N</text><text xml:space="preserve" font-family="HelveticaNeue-Light" font-size="33.5" fill="#747373" transform="matrix(1.00, 0.00, -0.00, -1.00, 428.1, 557.0)">o</text><text xml:space="preserve" font-family="HelveticaNeue-Light" font-size="33.5" fill="#747373" transform="matrix(1.00, 0.00, -0.00, -1.00, 446.7, 557.0)"> </text><text xml:space="preserve" font-family="HelveticaNeue-Light" font-size="33.5" fill="#747373" transform="matrix(1.00, 0.00, -0.00, -1.00, 456.0, 557.0)">S</text><text xml:space="preserve" font-family="HelveticaNeue-Light" font-size="33.5" fill="#747373" transform="matrix(1.00, 0.00, -0.00, -1.00, 477.1, 557.0)">c</text><text xml:space="preserve" font-family="HelveticaNeue-Light" font-size="33.5" fill="#747373" transform="matrix(1.00, 0.00, -0.00, -1.00, 494.5, 557.0)">h</text><text xml:space="preserve" font-family="HelveticaNeue-Light" font-size="33.5" fill="#747373" transform="matrix(1.00, 0.00, -0.00, -1.00, 512.5, 557.0)">e</text><text xml:space="preserve" font-family="HelveticaNeue-Light" font-size="33.5" fill="#747373" transform="matrix(1.00, 0.00, -0.00, -1.00, 529.8, 557.0)">m</text><text xml:space="preserve" font-family="HelveticaNeue-Light" font-size="33.5" fill="#747373" transform="matrix(1.00, 0.00, -0.00, -1.00, 557.7, 557.0)">a</text><text xml:space="preserve" font-family="HelveticaNeue-Light" font-size="33.5" fill="#747373" transform="matrix(1.00, 0.00, -0.00, -1.00, 575.1, 557.0)"> </text><text xml:space="preserve" font-family="HelveticaNeue" font-size="25.1" fill="#747373" transform="matrix(1.00, 0.00, -0.00, -1.00, 85.0, 481.1)">•</text><text xml:space="preserve" font-family="HelveticaNeue-Light" font-size="33.5" fill="#747373" transform="matrix(1.00, 0.00, -0.00, -1.00, 118.0, 478.0)">T</text><text xml:space="preserve" font-family="HelveticaNeue-Light" font-size="33.5" fill="#747373" transform="matrix(1.00, 0.00, -0.00, -1.00, 136.6, 478.0)">h</text><text xml:space="preserve" font-family="HelveticaNeue-Light" font-size="33.5" fill="#747373" transform="matrix(1.00, 0.00, -0.00, -1.00, 154.6, 478.0)">e</text><text xml:space="preserve" font-family="HelveticaNeue-Light" font-size="33.5" fill="#747373" transform="matrix(1.00, 0.00, -0.00, -1.00, 172.0, 478.0)">r</text><text xml:space="preserve" font-family="HelveticaNeue-Light" font-size="33.5" fill="#747373" transform="matrix(1.00, 0.00, -0.00, -1.00, 181.9, 478.0)">e</text><text xml:space="preserve" font-family="HelveticaNeue-Light" font-size="33.5" fill="#747373" transform="matrix(1.00, 0.00, -0.00, -1.00, 199.3, 478.0)"> </text><text xml:space="preserve" font-family="HelveticaNeue-Light" font-size="33.5" fill="#747373" transform="matrix(1.00, 0.00, -0.00, -1.00, 208.6, 478.0)">i</text><text xml:space="preserve" font-family="HelveticaNeue-Light" font-size="33.5" fill="#747373" transform="matrix(1.00, 0.00, -0.00, -1.00, 214.8, 478.0)">s</text><text xml:space="preserve" font-family="HelveticaNeue-Light" font-size="33.5" fill="#747373" transform="matrix(1.00, 0.00, -0.00, -1.00, 230.9, 478.0)"> </text><text xml:space="preserve" font-family="HelveticaNeue-Light" font-size="33.5" fill="#747373" transform="matrix(1.00, 0.00, -0.00, -1.00, 240.2, 478.0)">a</text><text xml:space="preserve" font-family="HelveticaNeue-Light" font-size="33.5" fill="#747373" transform="matrix(1.00, 0.00, -0.00, -1.00, 257.6, 478.0)">l</text><text xml:space="preserve" font-family="HelveticaNeue-Light" font-size="33.5" fill="#747373" transform="matrix(1.00, 0.00, -0.00, -1.00, 263.8, 478.0)">w</text><text xml:space="preserve" font-family="HelveticaNeue-Light" font-size="33.5" fill="#747373" transform="matrix(1.00, 0.00, -0.00, -1.00, 288.6, 478.0)">a</text><text xml:space="preserve" font-family="HelveticaNeue-Light" font-size="33.5" fill="#747373" transform="matrix(1.00, 0.00, -0.00, -1.00, 306.0, 478.0)">y</text><text xml:space="preserve" font-family="HelveticaNeue-Light" font-size="33.5" fill="#747373" transform="matrix(1.00, 0.00, -0.00, -1.00, 321.5, 478.0)">s</text><text xml:space="preserve" font-family="HelveticaNeue-Light" font-size="33.5" fill="#747373" transform="matrix(1.00, 0.00, -0.00, -1.00, 337.6, 478.0)"> </text><text xml:space="preserve" font-family="HelveticaNeue-Light" font-size="33.5" fill="#747373" transform="matrix(1.00, 0.00, -0.00, -1.00, 346.9, 478.0)">a</text><text xml:space="preserve" font-family="HelveticaNeue-Light" font-size="33.5" fill="#747373" transform="matrix(1.00, 0.00, -0.00, -1.00, 364.2, 478.0)"> </text><text xml:space="preserve" font-family="HelveticaNeue-Light" font-size="33.5" fill="#747373" transform="matrix(1.00, 0.00, -0.00, -1.00, 373.6, 478.0)">s</text><text xml:space="preserve" font-family="HelveticaNeue-Light" font-size="33.5" fill="#747373" transform="matrix(1.00, 0.00, -0.00, -1.00, 389.7, 478.0)">c</text><text xml:space="preserve" font-family="HelveticaNeue-Light" font-size="33.5" fill="#747373" transform="matrix(1.00, 0.00, -0.00, -1.00, 407.0, 478.0)">h</text><text xml:space="preserve" font-family="HelveticaNeue-Light" font-size="33.5" fill="#747373" transform="matrix(1.00, 0.00, -0.00, -1.00, 425.0, 478.0)">e</text><text xml:space="preserve" font-family="HelveticaNeue-Light" font-size="33.5" fill="#747373" transform="matrix(1.00, 0.00, -0.00, -1.00, 442.4, 478.0)">m</text><text xml:space="preserve" font-family="HelveticaNeue-Light" font-size="33.5" fill="#747373" transform="matrix(1.00, 0.00, -0.00, -1.00, 470.3, 478.0)">a</text><text xml:space="preserve" font-family="HelveticaNeue-Light" font-size="33.5" fill="#747373" transform="matrix(1.00, 0.00, -0.00, -1.00, 487.7, 478.0)"> </text><text xml:space="preserve" font-family="HelveticaNeue" font-size="25.1" fill="#747373" transform="matrix(1.00, 0.00, -0.00, -1.00, 85.0, 402.1)">•</text><text xml:space="preserve" font-family="HelveticaNeue-Light" font-size="33.5" fill="#747373" transform="matrix(1.00, 0.00, -0.00, -1.00, 118.0, 399.0)">A</text><text xml:space="preserve" font-family="HelveticaNeue-Light" font-size="33.5" fill="#747373" transform="matrix(1.00, 0.00, -0.00, -1.00, 139.1, 399.0)">n</text><text xml:space="preserve" font-family="HelveticaNeue-Light" font-size="33.5" fill="#747373" transform="matrix(1.00, 0.00, -0.00, -1.00, 157.1, 399.0)"> </text><text xml:space="preserve" font-family="HelveticaNeue-Light" font-size="33.5" fill="#747373" transform="matrix(1.00, 0.00, -0.00, -1.00, 166.4, 399.0)">a</text><text xml:space="preserve" font-family="HelveticaNeue-Light" font-size="33.5" fill="#747373" transform="matrix(1.00, 0.00, -0.00, -1.00, 183.8, 399.0)">d</text><text xml:space="preserve" font-family="HelveticaNeue-Light" font-size="33.5" fill="#747373" transform="matrix(1.00, 0.00, -0.00, -1.00, 203.0, 399.0)">-</text><text xml:space="preserve" font-family="HelveticaNeue-Light" font-size="33.5" fill="#747373" transform="matrix(1.00, 0.00, -0.00, -1.00, 215.4, 399.0)">h</text><text xml:space="preserve" font-family="HelveticaNeue-Light" font-size="33.5" fill="#747373" transform="matrix(1.00, 0.00, -0.00, -1.00, 233.3, 399.0)">o</text><text xml:space="preserve" font-family="HelveticaNeue-Light" font-size="33.5" fill="#747373" transform="matrix(1.00, 0.00, -0.00, -1.00, 252.0, 399.0)">c</text><text xml:space="preserve" font-family="HelveticaNeue-Light" font-size="33.5" fill="#747373" transform="matrix(1.00, 0.00, -0.00, -1.00, 269.3, 399.0)"> </text><text xml:space="preserve" font-family="HelveticaNeue-Light" font-size="33.5" fill="#747373" transform="matrix(1.00, 0.00, -0.00, -1.00, 278.6, 399.0)">s</text><text xml:space="preserve" font-family="HelveticaNeue-Light" font-size="33.5" fill="#747373" transform="matrix(1.00, 0.00, -0.00, -1.00, 294.7, 399.0)">c</text><text xml:space="preserve" font-family="HelveticaNeue-Light" font-size="33.5" fill="#747373" transform="matrix(1.00, 0.00, -0.00, -1.00, 312.1, 399.0)">h</text><text xml:space="preserve" font-family="HelveticaNeue-Light" font-size="33.5" fill="#747373" transform="matrix(1.00, 0.00, -0.00, -1.00, 330.1, 399.0)">e</text><text xml:space="preserve" font-family="HelveticaNeue-Light" font-size="33.5" fill="#747373" transform="matrix(1.00, 0.00, -0.00, -1.00, 347.5, 399.0)">m</text><text xml:space="preserve" font-family="HelveticaNeue-Light" font-size="33.5" fill="#747373" transform="matrix(1.00, 0.00, -0.00, -1.00, 375.4, 399.0)">a</text><text xml:space="preserve" font-family="HelveticaNeue-Light" font-size="33.5" fill="#747373" transform="matrix(1.00, 0.00, -0.00, -1.00, 392.7, 399.0)"> </text><text xml:space="preserve" font-family="HelveticaNeue-Light" font-size="33.5" fill="#747373" transform="matrix(1.00, 0.00, -0.00, -1.00, 402.0, 399.0)">i</text><text xml:space="preserve" font-family="HelveticaNeue-Light" font-size="33.5" fill="#747373" transform="matrix(1.00, 0.00, -0.00, -1.00, 408.2, 399.0)">s</text><text xml:space="preserve" font-family="HelveticaNeue-Light" font-size="33.5" fill="#747373" transform="matrix(1.00, 0.00, -0.00, -1.00, 424.3, 399.0)"> </text><text xml:space="preserve" font-family="HelveticaNeue-Light" font-size="33.5" fill="#747373" transform="matrix(1.00, 0.00, -0.00, -1.00, 433.6, 399.0)">a</text><text xml:space="preserve" font-family="HelveticaNeue-Light" font-size="33.5" fill="#747373" transform="matrix(1.00, 0.00, -0.00, -1.00, 451.0, 399.0)"> </text><text xml:space="preserve" font-family="HelveticaNeue-Light" font-size="33.5" fill="#747373" transform="matrix(1.00, 0.00, -0.00, -1.00, 460.3, 399.0)">V</text><text xml:space="preserve" font-family="HelveticaNeue-Light" font-size="33.5" fill="#747373" transform="matrix(1.00, 0.00, -0.00, -1.00, 478.3, 399.0)">e</text><text xml:space="preserve" font-family="HelveticaNeue-Light" font-size="33.5" fill="#747373" transform="matrix(1.00, 0.00, -0.00, -1.00, 495.7, 399.0)">r</text><text xml:space="preserve" font-family="HelveticaNeue-Light" font-size="33.5" fill="#747373" transform="matrix(1.00, 0.00, -0.00, -1.00, 506.3, 399.0)">y</text><text xml:space="preserve" font-family="HelveticaNeue-Light" font-size="33.5" fill="#747373" transform="matrix(1.00, 0.00, -0.00, -1.00, 521.8, 399.0)"> </text><text xml:space="preserve" font-family="HelveticaNeue-Light" font-size="33.5" fill="#747373" transform="matrix(1.00, 0.00, -0.00, -1.00, 531.1, 399.0)">B</text><text xml:space="preserve" font-family="HelveticaNeue-Light" font-size="33.5" fill="#747373" transform="matrix(1.00, 0.00, -0.00, -1.00, 553.4, 399.0)">a</text><text xml:space="preserve" font-family="HelveticaNeue-Light" font-size="33.5" fill="#747373" transform="matrix(1.00, 0.00, -0.00, -1.00, 570.8, 399.0)">d</text><text xml:space="preserve" font-family="HelveticaNeue-Light" font-size="33.5" fill="#747373" transform="matrix(1.00, 0.00, -0.00, -1.00, 590.0, 399.0)"> </text><text xml:space="preserve" font-family="HelveticaNeue-Light" font-size="33.5" fill="#747373" transform="matrix(1.00, 0.00, -0.00, -1.00, 599.3, 399.0)">I</text><text xml:space="preserve" font-family="HelveticaNeue-Light" font-size="33.5" fill="#747373" transform="matrix(1.00, 0.00, -0.00, -1.00, 606.7, 399.0)">d</text><text xml:space="preserve" font-family="HelveticaNeue-Light" font-size="33.5" fill="#747373" transform="matrix(1.00, 0.00, -0.00, -1.00, 626.0, 399.0)">e</text><text xml:space="preserve" font-family="HelveticaNeue-Light" font-size="33.5" fill="#747373" transform="matrix(1.00, 0.00, -0.00, -1.00, 643.3, 399.0)">a</text><text xml:space="preserve" font-family="HelveticaNeue-Light" font-size="33.5" fill="#747373" transform="matrix(1.00, 0.00, -0.00, -1.00, 660.7, 399.0)"> </text><text xml:space="preserve" font-family="HelveticaNeue-Light" font-size="33.5" fill="#747373" transform="matrix(1.00, 0.00, -0.00, -1.00, 670.0, 399.0)">(</text><text xml:space="preserve" font-family="HelveticaNeue-Light" font-size="33.5" fill="#747373" transform="matrix(1.00, 0.00, -0.00, -1.00, 678.1, 399.0)">V</text><text xml:space="preserve" font-family="HelveticaNeue-Light" font-size="33.5" fill="#747373" transform="matrix(1.00, 0.00, -0.00, -1.00, 697.9, 399.0)">B</text><text xml:space="preserve" font-family="HelveticaNeue-Light" font-size="33.5" fill="#747373" transform="matrix(1.00, 0.00, -0.00, -1.00, 720.3, 399.0)">I</text><text xml:space="preserve" font-family="HelveticaNeue-Light" font-size="33.5" fill="#747373" transform="matrix(1.00, 0.00, -0.00, -1.00, 727.7, 399.0)">™</text><text xml:space="preserve" font-family="HelveticaNeue-Light" font-size="33.5" fill="#747373" transform="matrix(1.00, 0.00, -0.00, -1.00, 760.8, 399.0)">)</text><text xml:space="preserve" font-family="HelveticaNeue-Light" font-size="33.5" fill="#747373" transform="matrix(1.00, 0.00, -0.00, -1.00, 768.9, 399.0)"> </text><text xml:space="preserve" font-family="HelveticaNeue" font-size="25.1" fill="#747373" transform="matrix(1.00, 0.00, -0.00, -1.00, 49.0, 323.0)">•</text><text xml:space="preserve" font-family="HelveticaNeue-Light" font-size="33.5" fill="#747373" transform="matrix(1.00, 0.00, -0.00, -1.00, 82.0, 320.0)">N</text><text xml:space="preserve" font-family="HelveticaNeue-Light" font-size="33.5" fill="#747373" transform="matrix(1.00, 0.00, -0.00, -1.00, 105.6, 320.0)">o</text><text xml:space="preserve" font-family="HelveticaNeue-Light" font-size="33.5" fill="#747373" transform="matrix(1.00, 0.00, -0.00, -1.00, 124.2, 320.0)">S</text><text xml:space="preserve" font-family="HelveticaNeue-Light" font-size="33.5" fill="#747373" transform="matrix(1.00, 0.00, -0.00, -1.00, 145.3, 320.0)">Q</text><text xml:space="preserve" font-family="HelveticaNeue-Light" font-size="33.5" fill="#747373" transform="matrix(1.00, 0.00, -0.00, -1.00, 170.1, 320.0)">L</text><text xml:space="preserve" font-family="HelveticaNeue-Light" font-size="33.5" fill="#747373" transform="matrix(1.00, 0.00, -0.00, -1.00, 188.1, 320.0)"> </text><text xml:space="preserve" font-family="HelveticaNeue-Light" font-size="33.5" fill="#747373" transform="matrix(1.00, 0.00, -0.00, -1.00, 197.4, 320.0)">l</text><text xml:space="preserve" font-family="HelveticaNeue-Light" font-size="33.5" fill="#747373" transform="matrix(1.00, 0.00, -0.00, -1.00, 203.6, 320.0)">e</text><text xml:space="preserve" font-family="HelveticaNeue-Light" font-size="33.5" fill="#747373" transform="matrix(1.00, 0.00, -0.00, -1.00, 220.9, 320.0)">t</text><text xml:space="preserve" font-family="HelveticaNeue-Light" font-size="33.5" fill="#747373" transform="matrix(1.00, 0.00, -0.00, -1.00, 230.9, 320.0)">s</text><text xml:space="preserve" font-family="HelveticaNeue-Light" font-size="33.5" fill="#747373" transform="matrix(1.00, 0.00, -0.00, -1.00, 247.0, 320.0)"> </text><text xml:space="preserve" font-family="HelveticaNeue-Light" font-size="33.5" fill="#747373" transform="matrix(1.00, 0.00, -0.00, -1.00, 256.3, 320.0)">u</text><text xml:space="preserve" font-family="HelveticaNeue-Light" font-size="33.5" fill="#747373" transform="matrix(1.00, 0.00, -0.00, -1.00, 274.2, 320.0)">s</text><text xml:space="preserve" font-family="HelveticaNeue-Light" font-size="33.5" fill="#747373" transform="matrix(1.00, 0.00, -0.00, -1.00, 290.3, 320.0)"> </text><text xml:space="preserve" font-family="HelveticaNeue-Light" font-size="33.5" fill="#747373" transform="matrix(1.00, 0.00, -0.00, -1.00, 299.7, 320.0)">h</text><text xml:space="preserve" font-family="HelveticaNeue-Light" font-size="33.5" fill="#747373" transform="matrix(1.00, 0.00, -0.00, -1.00, 317.6, 320.0)">a</text><text xml:space="preserve" font-family="HelveticaNeue-Light" font-size="33.5" fill="#747373" transform="matrix(1.00, 0.00, -0.00, -1.00, 335.0, 320.0)">v</text><text xml:space="preserve" font-family="HelveticaNeue-Light" font-size="33.5" fill="#747373" transform="matrix(1.00, 0.00, -0.00, -1.00, 350.5, 320.0)">e</text><text xml:space="preserve" font-family="HelveticaNeue-Light" font-size="33.5" fill="#747373" transform="matrix(1.00, 0.00, -0.00, -1.00, 367.9, 320.0)"> </text><text xml:space="preserve" font-family="HelveticaNeue-Light" font-size="33.5" fill="#747373" transform="matrix(1.00, 0.00, -0.00, -1.00, 377.2, 320.0)">o</text><text xml:space="preserve" font-family="HelveticaNeue-Light" font-size="33.5" fill="#747373" transform="matrix(1.00, 0.00, -0.00, -1.00, 395.8, 320.0)">n</text><text xml:space="preserve" font-family="HelveticaNeue-Light" font-size="33.5" fill="#747373" transform="matrix(1.00, 0.00, -0.00, -1.00, 413.8, 320.0)">e</text><text xml:space="preserve" font-family="HelveticaNeue-Light" font-size="33.5" fill="#747373" transform="matrix(1.00, 0.00, -0.00, -1.00, 431.2, 320.0)"> </text><text xml:space="preserve" font-family="HelveticaNeue-Light" font-size="33.5" fill="#747373" transform="matrix(1.00, 0.00, -0.00, -1.00, 440.5, 320.0)">s</text><text xml:space="preserve" font-family="HelveticaNeue-Light" font-size="33.5" fill="#747373" transform="matrix(1.00, 0.00, -0.00, -1.00, 456.6, 320.0)">c</text><text xml:space="preserve" font-family="HelveticaNeue-Light" font-size="33.5" fill="#747373" transform="matrix(1.00, 0.00, -0.00, -1.00, 474.0, 320.0)">h</text><text xml:space="preserve" font-family="HelveticaNeue-Light" font-size="33.5" fill="#747373" transform="matrix(1.00, 0.00, -0.00, -1.00, 491.9, 320.0)">e</text><text xml:space="preserve" font-family="HelveticaNeue-Light" font-size="33.5" fill="#747373" transform="matrix(1.00, 0.00, -0.00, -1.00, 509.3, 320.0)">m</text><text xml:space="preserve" font-family="HelveticaNeue-Light" font-size="33.5" fill="#747373" transform="matrix(1.00, 0.00, -0.00, -1.00, 537.2, 320.0)">a</text><text xml:space="preserve" font-family="HelveticaNeue-Light" font-size="33.5" fill="#747373" transform="matrix(1.00, 0.00, -0.00, -1.00, 554.6, 320.0)"> </text><text xml:space="preserve" font-family="HelveticaNeue" font-size="25.1" fill="#747373" transform="matrix(1.00, 0.00, -0.00, -1.00, 85.0, 243.9)">•</text><text xml:space="preserve" font-family="HelveticaNeue-Light" font-size="33.5" fill="#747373" transform="matrix(1.00, 0.00, -0.00, -1.00, 118.0, 241.0)">A</text><text xml:space="preserve" font-family="HelveticaNeue-Light" font-size="33.5" fill="#747373" transform="matrix(1.00, 0.00, -0.00, -1.00, 139.1, 241.0)">n</text><text xml:space="preserve" font-family="HelveticaNeue-Light" font-size="33.5" fill="#747373" transform="matrix(1.00, 0.00, -0.00, -1.00, 157.1, 241.0)">d</text><text xml:space="preserve" font-family="HelveticaNeue-Light" font-size="33.5" fill="#747373" transform="matrix(1.00, 0.00, -0.00, -1.00, 176.3, 241.0)"> </text><text xml:space="preserve" font-family="HelveticaNeue-Light" font-size="33.5" fill="#747373" transform="matrix(1.00, 0.00, -0.00, -1.00, 185.6, 241.0)">w</text><text xml:space="preserve" font-family="HelveticaNeue-Light" font-size="33.5" fill="#747373" transform="matrix(1.00, 0.00, -0.00, -1.00, 210.4, 241.0)">e</text><text xml:space="preserve" font-family="HelveticaNeue-Light" font-size="33.5" fill="#747373" transform="matrix(1.00, 0.00, -0.00, -1.00, 227.8, 241.0)"> </text><text xml:space="preserve" font-family="HelveticaNeue-Light" font-size="33.5" fill="#747373" transform="matrix(1.00, 0.00, -0.00, -1.00, 237.1, 241.0)">c</text><text xml:space="preserve" font-family="HelveticaNeue-Light" font-size="33.5" fill="#747373" transform="matrix(1.00, 0.00, -0.00, -1.00, 254.5, 241.0)">a</text><text xml:space="preserve" font-family="HelveticaNeue-Light" font-size="33.5" fill="#747373" transform="matrix(1.00, 0.00, -0.00, -1.00, 271.8, 241.0)">n</text><text xml:space="preserve" font-family="HelveticaNeue-Light" font-size="33.5" fill="#747373" transform="matrix(1.00, 0.00, -0.00, -1.00, 289.8, 241.0)"> </text><text xml:space="preserve" font-family="HelveticaNeue-Light" font-size="33.5" fill="#747373" transform="matrix(1.00, 0.00, -0.00, -1.00, 299.1, 241.0)">p</text><text xml:space="preserve" font-family="HelveticaNeue-Light" font-size="33.5" fill="#747373" transform="matrix(1.00, 0.00, -0.00, -1.00, 318.3, 241.0)">u</text><text xml:space="preserve" font-family="HelveticaNeue-Light" font-size="33.5" fill="#747373" transform="matrix(1.00, 0.00, -0.00, -1.00, 336.3, 241.0)">t</text><text xml:space="preserve" font-family="HelveticaNeue-Light" font-size="33.5" fill="#747373" transform="matrix(1.00, 0.00, -0.00, -1.00, 346.2, 241.0)"> </text><text xml:space="preserve" font-family="HelveticaNeue-Light" font-size="33.5" fill="#747373" transform="matrix(1.00, 0.00, -0.00, -1.00, 355.5, 241.0)">t</text><text xml:space="preserve" font-family="HelveticaNeue-Light" font-size="33.5" fill="#747373" transform="matrix(1.00, 0.00, -0.00, -1.00, 365.5, 241.0)">h</text><text xml:space="preserve" font-family="HelveticaNeue-Light" font-size="33.5" fill="#747373" transform="matrix(1.00, 0.00, -0.00, -1.00, 383.4, 241.0)">e</text><text xml:space="preserve" font-family="HelveticaNeue-Light" font-size="33.5" fill="#747373" transform="matrix(1.00, 0.00, -0.00, -1.00, 400.8, 241.0)"> </text><text xml:space="preserve" font-family="HelveticaNeue-Light" font-size="33.5" fill="#747373" transform="matrix(1.00, 0.00, -0.00, -1.00, 410.1, 241.0)">o</text><text xml:space="preserve" font-family="HelveticaNeue-Light" font-size="33.5" fill="#747373" transform="matrix(1.00, 0.00, -0.00, -1.00, 428.7, 241.0)">n</text><text xml:space="preserve" font-family="HelveticaNeue-Light" font-size="33.5" fill="#747373" transform="matrix(1.00, 0.00, -0.00, -1.00, 446.7, 241.0)">e</text><text xml:space="preserve" font-family="HelveticaNeue-Light" font-size="33.5" fill="#747373" transform="matrix(1.00, 0.00, -0.00, -1.00, 464.1, 241.0)"> </text><text xml:space="preserve" font-family="HelveticaNeue-Light" font-size="33.5" fill="#747373" transform="matrix(1.00, 0.00, -0.00, -1.00, 473.4, 241.0)">s</text><text xml:space="preserve" font-family="HelveticaNeue-Light" font-size="33.5" fill="#747373" transform="matrix(1.00, 0.00, -0.00, -1.00, 489.5, 241.0)">c</text><text xml:space="preserve" font-family="HelveticaNeue-Light" font-size="33.5" fill="#747373" transform="matrix(1.00, 0.00, -0.00, -1.00, 506.9, 241.0)">h</text><text xml:space="preserve" font-family="HelveticaNeue-Light" font-size="33.5" fill="#747373" transform="matrix(1.00, 0.00, -0.00, -1.00, 524.8, 241.0)">e</text><text xml:space="preserve" font-family="HelveticaNeue-Light" font-size="33.5" fill="#747373" transform="matrix(1.00, 0.00, -0.00, -1.00, 542.2, 241.0)">m</text><text xml:space="preserve" font-family="HelveticaNeue-Light" font-size="33.5" fill="#747373" transform="matrix(1.00, 0.00, -0.00, -1.00, 570.1, 241.0)">a</text><text xml:space="preserve" font-family="HelveticaNeue-Light" font-size="33.5" fill="#747373" transform="matrix(1.00, 0.00, -0.00, -1.00, 587.5, 241.0)"> </text><text xml:space="preserve" font-family="HelveticaNeue-Light" font-size="33.5" fill="#747373" transform="matrix(1.00, 0.00, -0.00, -1.00, 596.8, 241.0)">i</text><text xml:space="preserve" font-family="HelveticaNeue-Light" font-size="33.5" fill="#747373" transform="matrix(1.00, 0.00, -0.00, -1.00, 603.0, 241.0)">n</text><text xml:space="preserve" font-family="HelveticaNeue-Light" font-size="33.5" fill="#747373" transform="matrix(1.00, 0.00, -0.00, -1.00, 621.0, 241.0)"> </text><text xml:space="preserve" font-family="HelveticaNeue-Light" font-size="33.5" fill="#747373" transform="matrix(1.00, 0.00, -0.00, -1.00, 630.3, 241.0)">t</text><text xml:space="preserve" font-family="HelveticaNeue-Light" font-size="33.5" fill="#747373" transform="matrix(1.00, 0.00, -0.00, -1.00, 640.2, 241.0)">h</text><text xml:space="preserve" font-family="HelveticaNeue-Light" font-size="33.5" fill="#747373" transform="matrix(1.00, 0.00, -0.00, -1.00, 658.2, 241.0)">e</text><text xml:space="preserve" font-family="HelveticaNeue-Light" font-size="33.5" fill="#747373" transform="matrix(1.00, 0.00, -0.00, -1.00, 675.5, 241.0)"> </text><text xml:space="preserve" font-family="HelveticaNeue-Light" font-size="33.5" fill="#747373" transform="matrix(1.00, 0.00, -0.00, -1.00, 684.8, 241.0)">c</text><text xml:space="preserve" font-family="HelveticaNeue-Light" font-size="33.5" fill="#747373" transform="matrix(1.00, 0.00, -0.00, -1.00, 702.2, 241.0)">o</text><text xml:space="preserve" font-family="HelveticaNeue-Light" font-size="33.5" fill="#747373" transform="matrix(1.00, 0.00, -0.00, -1.00, 720.8, 241.0)">d</text><text xml:space="preserve" font-family="HelveticaNeue-Light" font-size="33.5" fill="#747373" transform="matrix(1.00, 0.00, -0.00, -1.00, 740.1, 241.0)">e</text><text xml:space="preserve" font-family="HelveticaNeue-Light" font-size="33.5" fill="#747373" transform="matrix(1.00, 0.00, -0.00, -1.00, 757.4, 241.0)"> </text><text xml:space="preserve" font-family="HelveticaNeue" font-size="25.1" fill="#747373" transform="matrix(1.00, 0.00, -0.00, -1.00, 49.0, 164.9)">•</text><text xml:space="preserve" font-family="HelveticaNeue-Light" font-size="33.5" fill="#747373" transform="matrix(1.00, 0.00, -0.00, -1.00, 82.0, 162.0)">A</text><text xml:space="preserve" font-family="HelveticaNeue-Light" font-size="33.5" fill="#747373" transform="matrix(1.00, 0.00, -0.00, -1.00, 103.1, 162.0)"> </text><text xml:space="preserve" font-family="HelveticaNeue-Light" font-size="33.5" fill="#747373" transform="matrix(1.00, 0.00, -0.00, -1.00, 112.4, 162.0)">J</text><text xml:space="preserve" font-family="HelveticaNeue-Light" font-size="33.5" fill="#747373" transform="matrix(1.00, 0.00, -0.00, -1.00, 129.1, 162.0)">S</text><text xml:space="preserve" font-family="HelveticaNeue-Light" font-size="33.5" fill="#747373" transform="matrix(1.00, 0.00, -0.00, -1.00, 150.2, 162.0)">O</text><text xml:space="preserve" font-family="HelveticaNeue-Light" font-size="33.5" fill="#747373" transform="matrix(1.00, 0.00, -0.00, -1.00, 175.0, 162.0)">N</text><text xml:space="preserve" font-family="HelveticaNeue-Light" font-size="33.5" fill="#747373" transform="matrix(1.00, 0.00, -0.00, -1.00, 198.6, 162.0)"> </text><text xml:space="preserve" font-family="HelveticaNeue-Light" font-size="33.5" fill="#747373" transform="matrix(1.00, 0.00, -0.00, -1.00, 207.9, 162.0)">S</text><text xml:space="preserve" font-family="HelveticaNeue-Light" font-size="33.5" fill="#747373" transform="matrix(1.00, 0.00, -0.00, -1.00, 229.0, 162.0)">c</text><text xml:space="preserve" font-family="HelveticaNeue-Light" font-size="33.5" fill="#747373" transform="matrix(1.00, 0.00, -0.00, -1.00, 246.4, 162.0)">h</text><text xml:space="preserve" font-family="HelveticaNeue-Light" font-size="33.5" fill="#747373" transform="matrix(1.00, 0.00, -0.00, -1.00, 264.4, 162.0)">e</text><text xml:space="preserve" font-family="HelveticaNeue-Light" font-size="33.5" fill="#747373" transform="matrix(1.00, 0.00, -0.00, -1.00, 281.7, 162.0)">m</text><text xml:space="preserve" font-family="HelveticaNeue-Light" font-size="33.5" fill="#747373" transform="matrix(1.00, 0.00, -0.00, -1.00, 309.6, 162.0)">a</text><text xml:space="preserve" font-family="HelveticaNeue-Light" font-size="33.5" fill="#747373" transform="matrix(1.00, 0.00, -0.00, -1.00, 327.0, 162.0)"> </text><text xml:space="preserve" font-family="HelveticaNeue-Light" font-size="33.5" fill="#747373" transform="matrix(1.00, 0.00, -0.00, -1.00, 336.3, 162.0)">d</text><text xml:space="preserve" font-family="HelveticaNeue-Light" font-size="33.5" fill="#747373" transform="matrix(1.00, 0.00, -0.00, -1.00, 355.5, 162.0)">e</text><text xml:space="preserve" font-family="HelveticaNeue-Light" font-size="33.5" fill="#747373" transform="matrix(1.00, 0.00, -0.00, -1.00, 372.9, 162.0)">ﬁ</text><text xml:space="preserve" font-family="HelveticaNeue-Light" font-size="33.5" fill="#747373" transform="matrix(1.00, 0.00, -0.00, -1.00, 387.8, 162.0)">n</text><text xml:space="preserve" font-family="HelveticaNeue-Light" font-size="33.5" fill="#747373" transform="matrix(1.00, 0.00, -0.00, -1.00, 405.8, 162.0)">i</text><text xml:space="preserve" font-family="HelveticaNeue-Light" font-size="33.5" fill="#747373" transform="matrix(1.00, 0.00, -0.00, -1.00, 411.9, 162.0)">t</text><text xml:space="preserve" font-family="HelveticaNeue-Light" font-size="33.5" fill="#747373" transform="matrix(1.00, 0.00, -0.00, -1.00, 421.9, 162.0)">i</text><text xml:space="preserve" font-family="HelveticaNeue-Light" font-size="33.5" fill="#747373" transform="matrix(1.00, 0.00, -0.00, -1.00, 428.0, 162.0)">o</text><text xml:space="preserve" font-family="HelveticaNeue-Light" font-size="33.5" fill="#747373" transform="matrix(1.00, 0.00, -0.00, -1.00, 446.7, 162.0)">n</text><text xml:space="preserve" font-family="HelveticaNeue-Light" font-size="33.5" fill="#747373" transform="matrix(1.00, 0.00, -0.00, -1.00, 464.6, 162.0)"> </text><text xml:space="preserve" font-family="HelveticaNeue-Light" font-size="33.5" fill="#747373" transform="matrix(1.00, 0.00, -0.00, -1.00, 474.0, 162.0)">i</text><text xml:space="preserve" font-family="HelveticaNeue-Light" font-size="33.5" fill="#747373" transform="matrix(1.00, 0.00, -0.00, -1.00, 480.1, 162.0)">s</text><text xml:space="preserve" font-family="HelveticaNeue-Light" font-size="33.5" fill="#747373" transform="matrix(1.00, 0.00, -0.00, -1.00, 496.2, 162.0)"> </text><text xml:space="preserve" font-family="HelveticaNeue-Light" font-size="33.5" fill="#747373" transform="matrix(1.00, 0.00, -0.00, -1.00, 505.6, 162.0)">v</text><text xml:space="preserve" font-family="HelveticaNeue-Light" font-size="33.5" fill="#747373" transform="matrix(1.00, 0.00, -0.00, -1.00, 521.1, 162.0)">e</text><text xml:space="preserve" font-family="HelveticaNeue-Light" font-size="33.5" fill="#747373" transform="matrix(1.00, 0.00, -0.00, -1.00, 538.4, 162.0)">r</text><text xml:space="preserve" font-family="HelveticaNeue-Light" font-size="33.5" fill="#747373" transform="matrix(1.00, 0.00, -0.00, -1.00, 549.0, 162.0)">y</text><text xml:space="preserve" font-family="HelveticaNeue-Light" font-size="33.5" fill="#747373" transform="matrix(1.00, 0.00, -0.00, -1.00, 564.5, 162.0)"> </text><text xml:space="preserve" font-family="HelveticaNeue-Light" font-size="33.5" fill="#747373" transform="matrix(1.00, 0.00, -0.00, -1.00, 573.8, 162.0)">u</text><text xml:space="preserve" font-family="HelveticaNeue-Light" font-size="33.5" fill="#747373" transform="matrix(1.00, 0.00, -0.00, -1.00, 591.8, 162.0)">s</text><text xml:space="preserve" font-family="HelveticaNeue-Light" font-size="33.5" fill="#747373" transform="matrix(1.00, 0.00, -0.00, -1.00, 607.9, 162.0)">e</text><text xml:space="preserve" font-family="HelveticaNeue-Light" font-size="33.5" fill="#747373" transform="matrix(1.00, 0.00, -0.00, -1.00, 625.2, 162.0)">f</text><text xml:space="preserve" font-family="HelveticaNeue-Light" font-size="33.5" fill="#747373" transform="matrix(1.00, 0.00, -0.00, -1.00, 633.9, 162.0)">u</text><text xml:space="preserve" font-family="HelveticaNeue-Light" font-size="33.5" fill="#747373" transform="matrix(1.00, 0.00, -0.00, -1.00, 651.9, 162.0)">l</text><text xml:space="preserve" font-family="HelveticaNeue-Light" font-size="33.5" fill="#747373" transform="matrix(1.00, 0.00, -0.00, -1.00, 658.1, 162.0)"> </text><text xml:space="preserve" font-family="HelveticaNeue" font-size="25.1" fill="#747373" transform="matrix(1.00, 0.00, -0.00, -1.00, 85.0, 85.8)">•</text><text xml:space="preserve" font-family="HelveticaNeue-Light" font-size="33.5" fill="#747373" transform="matrix(1.00, 0.00, -0.00, -1.00, 118.0, 83.0)">T</text><text xml:space="preserve" font-family="HelveticaNeue-Light" font-size="33.5" fill="#747373" transform="matrix(1.00, 0.00, -0.00, -1.00, 136.6, 83.0)">h</text><text xml:space="preserve" font-family="HelveticaNeue-Light" font-size="33.5" fill="#747373" transform="matrix(1.00, 0.00, -0.00, -1.00, 154.6, 83.0)">e</text><text xml:space="preserve" font-family="HelveticaNeue-Light" font-size="33.5" fill="#747373" transform="matrix(1.00, 0.00, -0.00, -1.00, 172.0, 83.0)"> </text><text xml:space="preserve" font-family="HelveticaNeue-Light" font-size="33.5" fill="#747373" transform="matrix(1.00, 0.00, -0.00, -1.00, 181.3, 83.0)">P</text><text xml:space="preserve" font-family="HelveticaNeue-Light" font-size="33.5" fill="#747373" transform="matrix(1.00, 0.00, -0.00, -1.00, 202.4, 83.0)">y</text><text xml:space="preserve" font-family="HelveticaNeue-Light" font-size="33.5" fill="#747373" transform="matrix(1.00, 0.00, -0.00, -1.00, 217.9, 83.0)">t</text><text xml:space="preserve" font-family="HelveticaNeue-Light" font-size="33.5" fill="#747373" transform="matrix(1.00, 0.00, -0.00, -1.00, 227.8, 83.0)">h</text><text xml:space="preserve" font-family="HelveticaNeue-Light" font-size="33.5" fill="#747373" transform="matrix(1.00, 0.00, -0.00, -1.00, 245.8, 83.0)">o</text><text xml:space="preserve" font-family="HelveticaNeue-Light" font-size="33.5" fill="#747373" transform="matrix(1.00, 0.00, -0.00, -1.00, 264.4, 83.0)">n</text><text xml:space="preserve" font-family="HelveticaNeue-Light" font-size="33.5" fill="#747373" transform="matrix(1.00, 0.00, -0.00, -1.00, 282.4, 83.0)"> </text><text xml:space="preserve" font-family="HelveticaNeue-Light" font-size="33.5" fill="#747373" transform="matrix(1.00, 0.00, -0.00, -1.00, 291.7, 83.0)">j</text><text xml:space="preserve" font-family="HelveticaNeue-Light" font-size="33.5" fill="#747373" transform="matrix(1.00, 0.00, -0.00, -1.00, 297.9, 83.0)">s</text><text xml:space="preserve" font-family="HelveticaNeue-Light" font-size="33.5" fill="#747373" transform="matrix(1.00, 0.00, -0.00, -1.00, 314.0, 83.0)">o</text><text xml:space="preserve" font-family="HelveticaNeue-Light" font-size="33.5" fill="#747373" transform="matrix(1.00, 0.00, -0.00, -1.00, 332.6, 83.0)">n</text><text xml:space="preserve" font-family="HelveticaNeue-Light" font-size="33.5" fill="#747373" transform="matrix(1.00, 0.00, -0.00, -1.00, 350.6, 83.0)">s</text><text xml:space="preserve" font-family="HelveticaNeue-Light" font-size="33.5" fill="#747373" transform="matrix(1.00, 0.00, -0.00, -1.00, 366.7, 83.0)">c</text><text xml:space="preserve" font-family="HelveticaNeue-Light" font-size="33.5" fill="#747373" transform="matrix(1.00, 0.00, -0.00, -1.00, 384.0, 83.0)">h</text><text xml:space="preserve" font-family="HelveticaNeue-Light" font-size="33.5" fill="#747373" transform="matrix(1.00, 0.00, -0.00, -1.00, 402.0, 83.0)">e</text><text xml:space="preserve" font-family="HelveticaNeue-Light" font-size="33.5" fill="#747373" transform="matrix(1.00, 0.00, -0.00, -1.00, 419.4, 83.0)">m</text><text xml:space="preserve" font-family="HelveticaNeue-Light" font-size="33.5" fill="#747373" transform="matrix(1.00, 0.00, -0.00, -1.00, 447.3, 83.0)">a</text><text xml:space="preserve" font-family="HelveticaNeue-Light" font-size="33.5" fill="#747373" transform="matrix(1.00, 0.00, -0.00, -1.00, 464.7, 83.0)"> </text><text xml:space="preserve" font-family="HelveticaNeue-Light" font-size="33.5" fill="#747373" transform="matrix(1.00, 0.00, -0.00, -1.00, 474.0, 83.0)">m</text><text xml:space="preserve" font-family="HelveticaNeue-Light" font-size="33.5" fill="#747373" transform="matrix(1.00, 0.00, -0.00, -1.00, 501.8, 83.0)">o</text><text xml:space="preserve" font-family="HelveticaNeue-Light" font-size="33.5" fill="#747373" transform="matrix(1.00, 0.00, -0.00, -1.00, 520.5, 83.0)">d</text><text xml:space="preserve" font-family="HelveticaNeue-Light" font-size="33.5" fill="#747373" transform="matrix(1.00, 0.00, -0.00, -1.00, 539.7, 83.0)">u</text><text xml:space="preserve" font-family="HelveticaNeue-Light" font-size="33.5" fill="#747373" transform="matrix(1.00, 0.00, -0.00, -1.00, 557.7, 83.0)">l</text><text xml:space="preserve" font-family="HelveticaNeue-Light" font-size="33.5" fill="#747373" transform="matrix(1.00, 0.00, -0.00, -1.00, 563.9, 83.0)">e</text><text xml:space="preserve" font-family="HelveticaNeue-Light" font-size="33.5" fill="#747373" transform="matrix(1.00, 0.00, -0.00, -1.00, 581.2, 83.0)"> </text><text xml:space="preserve" font-family="HelveticaNeue-Light" font-size="33.5" fill="#747373" transform="matrix(1.00, 0.00, -0.00, -1.00, 590.5, 83.0)">h</text><text xml:space="preserve" font-family="HelveticaNeue-Light" font-size="33.5" fill="#747373" transform="matrix(1.00, 0.00, -0.00, -1.00, 608.5, 83.0)">e</text><text xml:space="preserve" font-family="HelveticaNeue-Light" font-size="33.5" fill="#747373" transform="matrix(1.00, 0.00, -0.00, -1.00, 625.9, 83.0)">l</text><text xml:space="preserve" font-family="HelveticaNeue-Light" font-size="33.5" fill="#747373" transform="matrix(1.00, 0.00, -0.00, -1.00, 632.1, 83.0)">p</text><text xml:space="preserve" font-family="HelveticaNeue-Light" font-size="33.5" fill="#747373" transform="matrix(1.00, 0.00, -0.00, -1.00, 651.3, 83.0)">s</text><text xml:space="preserve" font-family="HelveticaNeue-Light" font-size="33.5" fill="#747373" transform="matrix(1.00, 0.00, -0.00, -1.00, 667.4, 83.0)"> </text><text xml:space="preserve" font-family="HelveticaNeue-Light" font-size="33.5" fill="#747373" transform="matrix(1.00, 0.00, -0.00, -1.00, 676.7, 83.0)">m</text><text xml:space="preserve" font-family="HelveticaNeue-Light" font-size="33.5" fill="#747373" transform="matrix(1.00, 0.00, -0.00, -1.00, 704.6, 83.0)">a</text><text xml:space="preserve" font-family="HelveticaNeue-Light" font-size="33.5" fill="#747373" transform="matrix(1.00, 0.00, -0.00, -1.00, 722.0, 83.0)">n</text><text xml:space="preserve" font-family="HelveticaNeue-Light" font-size="33.5" fill="#747373" transform="matrix(1.00, 0.00, -0.00, -1.00, 740.0, 83.0)">a</text><text xml:space="preserve" font-family="HelveticaNeue-Light" font-size="33.5" fill="#747373" transform="matrix(1.00, 0.00, -0.00, -1.00, 757.3, 83.0)">g</text><text xml:space="preserve" font-family="HelveticaNeue-Light" font-size="33.5" fill="#747373" transform="matrix(1.00, 0.00, -0.00, -1.00, 775.9, 83.0)">e</text><text xml:space="preserve" font-family="HelveticaNeue-Light" font-size="33.5" fill="#747373" transform="matrix(1.00, 0.00, -0.00, -1.00, 793.3, 83.0)"> </text><text xml:space="preserve" font-family="HelveticaNeue-Light" font-size="33.5" fill="#747373" transform="matrix(1.00, 0.00, -0.00, -1.00, 802.6, 83.0)">d</text><text xml:space="preserve" font-family="HelveticaNeue-Light" font-size="33.5" fill="#747373" transform="matrix(1.00, 0.00, -0.00, -1.00, 821.9, 83.0)">a</text><text xml:space="preserve" font-family="HelveticaNeue-Light" font-size="33.5" fill="#747373" transform="matrix(1.00, 0.00, -0.00, -1.00, 839.2, 83.0)">t</text><text xml:space="preserve" font-family="HelveticaNeue-Light" font-size="33.5" fill="#747373" transform="matrix(1.00, 0.00, -0.00, -1.00, 849.1, 83.0)">a</text></g></svg>