<?xml version="1.0" encoding="UTF-8" standalone="no"?><svg xmlns="http://www.w3.org/2000/svg" xmlns:xlink="http://www.w3.org/1999/xlink" clip-rule="evenodd" stroke-miterlimit="4.00" viewBox="0 0 698 31"><desc>SVG generated by Keynote</desc><defs></defs><g transform="matrix(1.00, 0.00, -0.00, -1.00, 0.0, 31.0)"><text xml:space="preserve" font-family="HelveticaNeue" font-size="21.6" fill="#747373" transform="matrix(1.00, 0.00, -0.00, -1.00, 0.0, 9.3)">•</text><text xml:space="preserve" font-family="HelveticaNeue-Light" font-size="28.8" fill="#747373" transform="matrix(1.00, 0.00, -0.00, -1.00, 29.0, 7.0)">S</text><text xml:space="preserve" font-family="HelveticaNeue-Light" font-size="28.8" fill="#747373" transform="matrix(1.00, 0.00, -0.00, -1.00, 47.1, 7.0)">o</text><text xml:space="preserve" font-family="HelveticaNeue-Light" font-size="28.8" fill="#747373" transform="matrix(1.00, 0.00, -0.00, -1.00, 63.2, 7.0)">m</text><text xml:space="preserve" font-family="HelveticaNeue-Light" font-size="28.8" fill="#747373" transform="matrix(1.00, 0.00, -0.00, -1.00, 87.1, 7.0)">e</text><text xml:space="preserve" font-family="HelveticaNeue-Light" font-size="28.8" fill="#747373" transform="matrix(1.00, 0.00, -0.00, -1.00, 102.1, 7.0)">t</text><text xml:space="preserve" font-family="HelveticaNeue-Light" font-size="28.8" fill="#747373" transform="matrix(1.00, 0.00, -0.00, -1.00, 110.6, 7.0)">i</text><text xml:space="preserve" font-family="HelveticaNeue-Light" font-size="28.8" fill="#747373" transform="matrix(1.00, 0.00, -0.00, -1.00, 115.9, 7.0)">m</text><text xml:space="preserve" font-family="HelveticaNeue-Light" font-size="28.8" fill="#747373" transform="matrix(1.00, 0.00, -0.00, -1.00, 139.9, 7.0)">e</text><text xml:space="preserve" font-family="HelveticaNeue-Light" font-size="28.8" fill="#747373" transform="matrix(1.00, 0.00, -0.00, -1.00, 154.9, 7.0)">s</text><text xml:space="preserve" font-family="HelveticaNeue-Light" font-size="28.8" fill="#747373" transform="matrix(1.00, 0.00, -0.00, -1.00, 168.7, 7.0)"> </text><text xml:space="preserve" font-family="HelveticaNeue-Light" font-size="28.8" fill="#747373" transform="matrix(1.00, 0.00, -0.00, -1.00, 176.7, 7.0)">i</text><text xml:space="preserve" font-family="HelveticaNeue-Light" font-size="28.8" fill="#747373" transform="matrix(1.00, 0.00, -0.00, -1.00, 182.1, 7.0)">t</text><text xml:space="preserve" font-family="HelveticaNeue-Light" font-size="28.8" fill="#747373" transform="matrix(1.00, 0.00, -0.00, -1.00, 190.6, 7.0)"> </text><text xml:space="preserve" font-family="HelveticaNeue-Light" font-size="28.8" fill="#747373" transform="matrix(1.00, 0.00, -0.00, -1.00, 198.6, 7.0)">h</text><text xml:space="preserve" font-family="HelveticaNeue-Light" font-size="28.8" fill="#747373" transform="matrix(1.00, 0.00, -0.00, -1.00, 214.1, 7.0)">e</text><text xml:space="preserve" font-family="HelveticaNeue-Light" font-size="28.8" fill="#747373" transform="matrix(1.00, 0.00, -0.00, -1.00, 229.0, 7.0)">l</text><text xml:space="preserve" font-family="HelveticaNeue-Light" font-size="28.8" fill="#747373" transform="matrix(1.00, 0.00, -0.00, -1.00, 234.3, 7.0)">p</text><text xml:space="preserve" font-family="HelveticaNeue-Light" font-size="28.8" fill="#747373" transform="matrix(1.00, 0.00, -0.00, -1.00, 250.9, 7.0)">s</text><text xml:space="preserve" font-family="HelveticaNeue-Light" font-size="28.8" fill="#747373" transform="matrix(1.00, 0.00, -0.00, -1.00, 264.7, 7.0)"> </text><text xml:space="preserve" font-family="HelveticaNeue-Light" font-size="28.8" fill="#747373" transform="matrix(1.00, 0.00, -0.00, -1.00, 272.7, 7.0)">t</text><text xml:space="preserve" font-family="HelveticaNeue-Light" font-size="28.8" fill="#747373" transform="matrix(1.00, 0.00, -0.00, -1.00, 281.3, 7.0)">o</text><text xml:space="preserve" font-family="HelveticaNeue-Light" font-size="28.8" fill="#747373" transform="matrix(1.00, 0.00, -0.00, -1.00, 297.3, 7.0)"> </text><text xml:space="preserve" font-family="HelveticaNeue-Light" font-size="28.8" fill="#747373" transform="matrix(1.00, 0.00, -0.00, -1.00, 305.3, 7.0)">c</text><text xml:space="preserve" font-family="HelveticaNeue-Light" font-size="28.8" fill="#747373" transform="matrix(1.00, 0.00, -0.00, -1.00, 320.2, 7.0)">o</text><text xml:space="preserve" font-family="HelveticaNeue-Light" font-size="28.8" fill="#747373" transform="matrix(1.00, 0.00, -0.00, -1.00, 336.2, 7.0)">m</text><text xml:space="preserve" font-family="HelveticaNeue-Light" font-size="28.8" fill="#747373" transform="matrix(1.00, 0.00, -0.00, -1.00, 360.2, 7.0)">m</text><text xml:space="preserve" font-family="HelveticaNeue-Light" font-size="28.8" fill="#747373" transform="matrix(1.00, 0.00, -0.00, -1.00, 384.2, 7.0)">i</text><text xml:space="preserve" font-family="HelveticaNeue-Light" font-size="28.8" fill="#747373" transform="matrix(1.00, 0.00, -0.00, -1.00, 389.5, 7.0)">t</text><text xml:space="preserve" font-family="HelveticaNeue-Light" font-size="28.8" fill="#747373" transform="matrix(1.00, 0.00, -0.00, -1.00, 398.1, 7.0)"> </text><text xml:space="preserve" font-family="HelveticaNeue-Light" font-size="28.8" fill="#747373" transform="matrix(1.00, 0.00, -0.00, -1.00, 406.1, 7.0)">t</text><text xml:space="preserve" font-family="HelveticaNeue-Light" font-size="28.8" fill="#747373" transform="matrix(1.00, 0.00, -0.00, -1.00, 414.6, 7.0)">h</text><text xml:space="preserve" font-family="HelveticaNeue-Light" font-size="28.8" fill="#747373" transform="matrix(1.00, 0.00, -0.00, -1.00, 430.1, 7.0)">e</text><text xml:space="preserve" font-family="HelveticaNeue-Light" font-size="28.8" fill="#747373" transform="matrix(1.00, 0.00, -0.00, -1.00, 445.0, 7.0)"> </text><text xml:space="preserve" font-family="HelveticaNeue-Light" font-size="28.8" fill="#747373" transform="matrix(1.00, 0.00, -0.00, -1.00, 453.0, 7.0)">d</text><text xml:space="preserve" font-family="HelveticaNeue-Light" font-size="28.8" fill="#747373" transform="matrix(1.00, 0.00, -0.00, -1.00, 469.6, 7.0)">e</text><text xml:space="preserve" font-family="HelveticaNeue-Light" font-size="28.8" fill="#747373" transform="matrix(1.00, 0.00, -0.00, -1.00, 484.5, 7.0)">s</text><text xml:space="preserve" font-family="HelveticaNeue-Light" font-size="28.8" fill="#747373" transform="matrix(1.00, 0.00, -0.00, -1.00, 498.4, 7.0)">i</text><text xml:space="preserve" font-family="HelveticaNeue-Light" font-size="28.8" fill="#747373" transform="matrix(1.00, 0.00, -0.00, -1.00, 503.7, 7.0)">g</text><text xml:space="preserve" font-family="HelveticaNeue-Light" font-size="28.8" fill="#747373" transform="matrix(1.00, 0.00, -0.00, -1.00, 519.7, 7.0)">n</text><text xml:space="preserve" font-family="HelveticaNeue-Light" font-size="28.8" fill="#747373" transform="matrix(1.00, 0.00, -0.00, -1.00, 535.2, 7.0)"> </text><text xml:space="preserve" font-family="HelveticaNeue-Light" font-size="28.8" fill="#747373" transform="matrix(1.00, 0.00, -0.00, -1.00, 543.2, 7.0)">t</text><text xml:space="preserve" font-family="HelveticaNeue-Light" font-size="28.8" fill="#747373" transform="matrix(1.00, 0.00, -0.00, -1.00, 551.7, 7.0)">o</text><text xml:space="preserve" font-family="HelveticaNeue-Light" font-size="28.8" fill="#747373" transform="matrix(1.00, 0.00, -0.00, -1.00, 567.7, 7.0)"> </text><text xml:space="preserve" font-family="HelveticaNeue-Light" font-size="28.8" fill="#747373" transform="matrix(1.00, 0.00, -0.00, -1.00, 575.7, 7.0)">a</text><text xml:space="preserve" font-family="HelveticaNeue-Light" font-size="28.8" fill="#747373" transform="matrix(1.00, 0.00, -0.00, -1.00, 590.7, 7.0)"> </text><text xml:space="preserve" font-family="HelveticaNeue-Light" font-size="28.8" fill="#747373" transform="matrix(1.00, 0.00, -0.00, -1.00, 598.7, 7.0)">s</text><text xml:space="preserve" font-family="HelveticaNeue-Light" font-size="28.8" fill="#747373" transform="matrix(1.00, 0.00, -0.00, -1.00, 612.5, 7.0)">c</text><text xml:space="preserve" font-family="HelveticaNeue-Light" font-size="28.8" fill="#747373" transform="matrix(1.00, 0.00, -0.00, -1.00, 627.5, 7.0)">h</text><text xml:space="preserve" font-family="HelveticaNeue-Light" font-size="28.8" fill="#747373" transform="matrix(1.00, 0.00, -0.00, -1.00, 642.9, 7.0)">e</text><text xml:space="preserve" font-family="HelveticaNeue-Light" font-size="28.8" fill="#747373" transform="matrix(1.00, 0.00, -0.00, -1.00, 657.9, 7.0)">m</text><text xml:space="preserve" font-family="HelveticaNeue-Light" font-size="28.8" fill="#747373" transform="matrix(1.00, 0.00, -0.00, -1.00, 681.9, 7.0)">a</text></g></svg>