<?xml version="1.0" encoding="UTF-8" standalone="no"?><svg xmlns="http://www.w3.org/2000/svg" xmlns:xlink="http://www.w3.org/1999/xlink" clip-rule="evenodd" stroke-miterlimit="4.00" viewBox="0 0 826 305"><desc>SVG generated by Keynote</desc><defs></defs><g transform="matrix(1.00, 0.00, -0.00, -1.00, 0.0, 305.0)"><text xml:space="preserve" font-family="HelveticaNeue" font-size="21.6" fill="#747373" transform="matrix(1.00, 0.00, -0.00, -1.00, 0.0, 283.7)">•</text><text xml:space="preserve" font-family="HelveticaNeue-Light" font-size="28.8" fill="#747373" transform="matrix(1.00, 0.00, -0.00, -1.00, 29.0, 281.0)">W</text><text xml:space="preserve" font-family="HelveticaNeue-Light" font-size="28.8" fill="#747373" transform="matrix(1.00, 0.00, -0.00, -1.00, 55.8, 281.0)">i</text><text xml:space="preserve" font-family="HelveticaNeue-Light" font-size="28.8" fill="#747373" transform="matrix(1.00, 0.00, -0.00, -1.00, 61.1, 281.0)">t</text><text xml:space="preserve" font-family="HelveticaNeue-Light" font-size="28.8" fill="#747373" transform="matrix(1.00, 0.00, -0.00, -1.00, 69.7, 281.0)">h</text><text xml:space="preserve" font-family="HelveticaNeue-Light" font-size="28.8" fill="#747373" transform="matrix(1.00, 0.00, -0.00, -1.00, 85.1, 281.0)"> </text><text xml:space="preserve" font-family="HelveticaNeue-Light" font-size="28.8" fill="#747373" transform="matrix(1.00, 0.00, -0.00, -1.00, 93.1, 281.0)">a</text><text xml:space="preserve" font-family="HelveticaNeue-Light" font-size="28.8" fill="#747373" transform="matrix(1.00, 0.00, -0.00, -1.00, 108.1, 281.0)"> </text><text xml:space="preserve" font-family="HelveticaNeue-Light" font-size="28.8" fill="#747373" transform="matrix(1.00, 0.00, -0.00, -1.00, 116.1, 281.0)">l</text><text xml:space="preserve" font-family="HelveticaNeue-Light" font-size="28.8" fill="#747373" transform="matrix(1.00, 0.00, -0.00, -1.00, 121.4, 281.0)">a</text><text xml:space="preserve" font-family="HelveticaNeue-Light" font-size="28.8" fill="#747373" transform="matrix(1.00, 0.00, -0.00, -1.00, 136.4, 281.0)">n</text><text xml:space="preserve" font-family="HelveticaNeue-Light" font-size="28.8" fill="#747373" transform="matrix(1.00, 0.00, -0.00, -1.00, 151.8, 281.0)">g</text><text xml:space="preserve" font-family="HelveticaNeue-Light" font-size="28.8" fill="#747373" transform="matrix(1.00, 0.00, -0.00, -1.00, 167.8, 281.0)">u</text><text xml:space="preserve" font-family="HelveticaNeue-Light" font-size="28.8" fill="#747373" transform="matrix(1.00, 0.00, -0.00, -1.00, 183.3, 281.0)">a</text><text xml:space="preserve" font-family="HelveticaNeue-Light" font-size="28.8" fill="#747373" transform="matrix(1.00, 0.00, -0.00, -1.00, 198.3, 281.0)">g</text><text xml:space="preserve" font-family="HelveticaNeue-Light" font-size="28.8" fill="#747373" transform="matrix(1.00, 0.00, -0.00, -1.00, 214.3, 281.0)">e</text><text xml:space="preserve" font-family="HelveticaNeue-Light" font-size="28.8" fill="#747373" transform="matrix(1.00, 0.00, -0.00, -1.00, 229.2, 281.0)"> </text><text xml:space="preserve" font-family="HelveticaNeue-Light" font-size="28.8" fill="#747373" transform="matrix(1.00, 0.00, -0.00, -1.00, 237.2, 281.0)">l</text><text xml:space="preserve" font-family="HelveticaNeue-Light" font-size="28.8" fill="#747373" transform="matrix(1.00, 0.00, -0.00, -1.00, 242.6, 281.0)">i</text><text xml:space="preserve" font-family="HelveticaNeue-Light" font-size="28.8" fill="#747373" transform="matrix(1.00, 0.00, -0.00, -1.00, 247.9, 281.0)">k</text><text xml:space="preserve" font-family="HelveticaNeue-Light" font-size="28.8" fill="#747373" transform="matrix(1.00, 0.00, -0.00, -1.00, 262.3, 281.0)">e</text><text xml:space="preserve" font-family="HelveticaNeue-Light" font-size="28.8" fill="#747373" transform="matrix(1.00, 0.00, -0.00, -1.00, 277.2, 281.0)"> </text><text xml:space="preserve" font-family="HelveticaNeue-Light" font-size="28.8" fill="#747373" transform="matrix(1.00, 0.00, -0.00, -1.00, 285.2, 281.0)">P</text><text xml:space="preserve" font-family="HelveticaNeue-Light" font-size="28.8" fill="#747373" transform="matrix(1.00, 0.00, -0.00, -1.00, 303.4, 281.0)">y</text><text xml:space="preserve" font-family="HelveticaNeue-Light" font-size="28.8" fill="#747373" transform="matrix(1.00, 0.00, -0.00, -1.00, 316.7, 281.0)">t</text><text xml:space="preserve" font-family="HelveticaNeue-Light" font-size="28.8" fill="#747373" transform="matrix(1.00, 0.00, -0.00, -1.00, 325.2, 281.0)">h</text><text xml:space="preserve" font-family="HelveticaNeue-Light" font-size="28.8" fill="#747373" transform="matrix(1.00, 0.00, -0.00, -1.00, 340.7, 281.0)">o</text><text xml:space="preserve" font-family="HelveticaNeue-Light" font-size="28.8" fill="#747373" transform="matrix(1.00, 0.00, -0.00, -1.00, 356.7, 281.0)">n</text><text xml:space="preserve" font-family="HelveticaNeue-Light" font-size="28.8" fill="#747373" transform="matrix(1.00, 0.00, -0.00, -1.00, 372.2, 281.0)">,</text><text xml:space="preserve" font-family="HelveticaNeue-Light" font-size="28.8" fill="#747373" transform="matrix(1.00, 0.00, -0.00, -1.00, 380.2, 281.0)"> </text><text xml:space="preserve" font-family="HelveticaNeue-Light" font-size="28.8" fill="#747373" transform="matrix(1.00, 0.00, -0.00, -1.00, 388.2, 281.0)">a</text><text xml:space="preserve" font-family="HelveticaNeue-Light" font-size="28.8" fill="#747373" transform="matrix(1.00, 0.00, -0.00, -1.00, 403.1, 281.0)"> </text><text xml:space="preserve" font-family="HelveticaNeue-Light" font-size="28.8" fill="#747373" transform="matrix(1.00, 0.00, -0.00, -1.00, 411.1, 281.0)">s</text><text xml:space="preserve" font-family="HelveticaNeue-Light" font-size="28.8" fill="#747373" transform="matrix(1.00, 0.00, -0.00, -1.00, 425.0, 281.0)">p</text><text xml:space="preserve" font-family="HelveticaNeue-Light" font-size="28.8" fill="#747373" transform="matrix(1.00, 0.00, -0.00, -1.00, 441.5, 281.0)">i</text><text xml:space="preserve" font-family="HelveticaNeue-Light" font-size="28.8" fill="#747373" transform="matrix(1.00, 0.00, -0.00, -1.00, 446.9, 281.0)">k</text><text xml:space="preserve" font-family="HelveticaNeue-Light" font-size="28.8" fill="#747373" transform="matrix(1.00, 0.00, -0.00, -1.00, 461.3, 281.0)">e</text><text xml:space="preserve" font-family="HelveticaNeue-Light" font-size="28.8" fill="#747373" transform="matrix(1.00, 0.00, -0.00, -1.00, 476.2, 281.0)"> </text><text xml:space="preserve" font-family="HelveticaNeue-Light" font-size="28.8" fill="#747373" transform="matrix(1.00, 0.00, -0.00, -1.00, 484.2, 281.0)">i</text><text xml:space="preserve" font-family="HelveticaNeue-Light" font-size="28.8" fill="#747373" transform="matrix(1.00, 0.00, -0.00, -1.00, 489.5, 281.0)">s</text><text xml:space="preserve" font-family="HelveticaNeue-Light" font-size="28.8" fill="#747373" transform="matrix(1.00, 0.00, -0.00, -1.00, 503.4, 281.0)"> </text><text xml:space="preserve" font-family="HelveticaNeue-Light" font-size="28.8" fill="#747373" transform="matrix(1.00, 0.00, -0.00, -1.00, 511.4, 281.0)">o</text><text xml:space="preserve" font-family="HelveticaNeue-Light" font-size="28.8" fill="#747373" transform="matrix(1.00, 0.00, -0.00, -1.00, 527.4, 281.0)">f</text><text xml:space="preserve" font-family="HelveticaNeue-Light" font-size="28.8" fill="#747373" transform="matrix(1.00, 0.00, -0.00, -1.00, 534.9, 281.0)">t</text><text xml:space="preserve" font-family="HelveticaNeue-Light" font-size="28.8" fill="#747373" transform="matrix(1.00, 0.00, -0.00, -1.00, 543.4, 281.0)">e</text><text xml:space="preserve" font-family="HelveticaNeue-Light" font-size="28.8" fill="#747373" transform="matrix(1.00, 0.00, -0.00, -1.00, 558.3, 281.0)">n</text><text xml:space="preserve" font-family="HelveticaNeue-Light" font-size="28.8" fill="#747373" transform="matrix(1.00, 0.00, -0.00, -1.00, 573.8, 281.0)"> </text><text xml:space="preserve" font-family="HelveticaNeue-Light" font-size="28.8" fill="#747373" transform="matrix(1.00, 0.00, -0.00, -1.00, 581.8, 281.0)">e</text><text xml:space="preserve" font-family="HelveticaNeue-Light" font-size="28.8" fill="#747373" transform="matrix(1.00, 0.00, -0.00, -1.00, 596.8, 281.0)">a</text><text xml:space="preserve" font-family="HelveticaNeue-Light" font-size="28.8" fill="#747373" transform="matrix(1.00, 0.00, -0.00, -1.00, 611.7, 281.0)">s</text><text xml:space="preserve" font-family="HelveticaNeue-Light" font-size="28.8" fill="#747373" transform="matrix(1.00, 0.00, -0.00, -1.00, 625.6, 281.0)">i</text><text xml:space="preserve" font-family="HelveticaNeue-Light" font-size="28.8" fill="#747373" transform="matrix(1.00, 0.00, -0.00, -1.00, 630.9, 281.0)">e</text><text xml:space="preserve" font-family="HelveticaNeue-Light" font-size="28.8" fill="#747373" transform="matrix(1.00, 0.00, -0.00, -1.00, 645.8, 281.0)">s</text><text xml:space="preserve" font-family="HelveticaNeue-Light" font-size="28.8" fill="#747373" transform="matrix(1.00, 0.00, -0.00, -1.00, 659.7, 281.0)">t</text><text xml:space="preserve" font-family="HelveticaNeue-Light" font-size="28.8" fill="#747373" transform="matrix(1.00, 0.00, -0.00, -1.00, 668.2, 281.0)"> </text><text xml:space="preserve" font-family="HelveticaNeue" font-size="21.6" fill="#747373" transform="matrix(1.00, 0.00, -0.00, -1.00, 36.0, 215.1)">•</text><text xml:space="preserve" font-family="HelveticaNeue-Light" font-size="28.8" fill="#747373" transform="matrix(1.00, 0.00, -0.00, -1.00, 65.0, 213.0)">C</text><text xml:space="preserve" font-family="HelveticaNeue-Light" font-size="28.8" fill="#747373" transform="matrix(1.00, 0.00, -0.00, -1.00, 85.3, 213.0)">r</text><text xml:space="preserve" font-family="HelveticaNeue-Light" font-size="28.8" fill="#747373" transform="matrix(1.00, 0.00, -0.00, -1.00, 93.8, 213.0)">e</text><text xml:space="preserve" font-family="HelveticaNeue-Light" font-size="28.8" fill="#747373" transform="matrix(1.00, 0.00, -0.00, -1.00, 108.8, 213.0)">a</text><text xml:space="preserve" font-family="HelveticaNeue-Light" font-size="28.8" fill="#747373" transform="matrix(1.00, 0.00, -0.00, -1.00, 123.7, 213.0)">t</text><text xml:space="preserve" font-family="HelveticaNeue-Light" font-size="28.8" fill="#747373" transform="matrix(1.00, 0.00, -0.00, -1.00, 132.2, 213.0)">e</text><text xml:space="preserve" font-family="HelveticaNeue-Light" font-size="28.8" fill="#747373" transform="matrix(1.00, 0.00, -0.00, -1.00, 147.2, 213.0)"> </text><text xml:space="preserve" font-family="HelveticaNeue-Light" font-size="28.8" fill="#747373" transform="matrix(1.00, 0.00, -0.00, -1.00, 155.2, 213.0)">s</text><text xml:space="preserve" font-family="HelveticaNeue-Light" font-size="28.8" fill="#747373" transform="matrix(1.00, 0.00, -0.00, -1.00, 169.1, 213.0)">c</text><text xml:space="preserve" font-family="HelveticaNeue-Light" font-size="28.8" fill="#747373" transform="matrix(1.00, 0.00, -0.00, -1.00, 184.0, 213.0)">r</text><text xml:space="preserve" font-family="HelveticaNeue-Light" font-size="28.8" fill="#747373" transform="matrix(1.00, 0.00, -0.00, -1.00, 193.1, 213.0)">i</text><text xml:space="preserve" font-family="HelveticaNeue-Light" font-size="28.8" fill="#747373" transform="matrix(1.00, 0.00, -0.00, -1.00, 198.4, 213.0)">p</text><text xml:space="preserve" font-family="HelveticaNeue-Light" font-size="28.8" fill="#747373" transform="matrix(1.00, 0.00, -0.00, -1.00, 214.9, 213.0)">t</text><text xml:space="preserve" font-family="HelveticaNeue-Light" font-size="28.8" fill="#747373" transform="matrix(1.00, 0.00, -0.00, -1.00, 223.5, 213.0)">(</text><text xml:space="preserve" font-family="HelveticaNeue-Light" font-size="28.8" fill="#747373" transform="matrix(1.00, 0.00, -0.00, -1.00, 230.4, 213.0)">s</text><text xml:space="preserve" font-family="HelveticaNeue-Light" font-size="28.8" fill="#747373" transform="matrix(1.00, 0.00, -0.00, -1.00, 244.3, 213.0)">)</text><text xml:space="preserve" font-family="HelveticaNeue-Light" font-size="28.8" fill="#747373" transform="matrix(1.00, 0.00, -0.00, -1.00, 251.2, 213.0)"> </text><text xml:space="preserve" font-family="HelveticaNeue-Light" font-size="28.8" fill="#747373" transform="matrix(1.00, 0.00, -0.00, -1.00, 259.2, 213.0)">t</text><text xml:space="preserve" font-family="HelveticaNeue-Light" font-size="28.8" fill="#747373" transform="matrix(1.00, 0.00, -0.00, -1.00, 267.7, 213.0)">h</text><text xml:space="preserve" font-family="HelveticaNeue-Light" font-size="28.8" fill="#747373" transform="matrix(1.00, 0.00, -0.00, -1.00, 283.2, 213.0)">a</text><text xml:space="preserve" font-family="HelveticaNeue-Light" font-size="28.8" fill="#747373" transform="matrix(1.00, 0.00, -0.00, -1.00, 298.1, 213.0)">t</text><text xml:space="preserve" font-family="HelveticaNeue-Light" font-size="28.8" fill="#747373" transform="matrix(1.00, 0.00, -0.00, -1.00, 306.7, 213.0)"> </text><text xml:space="preserve" font-family="HelveticaNeue-Light" font-size="28.8" fill="#747373" transform="matrix(1.00, 0.00, -0.00, -1.00, 314.7, 213.0)">m</text><text xml:space="preserve" font-family="HelveticaNeue-Light" font-size="28.8" fill="#747373" transform="matrix(1.00, 0.00, -0.00, -1.00, 338.7, 213.0)">i</text><text xml:space="preserve" font-family="HelveticaNeue-Light" font-size="28.8" fill="#747373" transform="matrix(1.00, 0.00, -0.00, -1.00, 344.0, 213.0)">m</text><text xml:space="preserve" font-family="HelveticaNeue-Light" font-size="28.8" fill="#747373" transform="matrix(1.00, 0.00, -0.00, -1.00, 368.0, 213.0)">i</text><text xml:space="preserve" font-family="HelveticaNeue-Light" font-size="28.8" fill="#747373" transform="matrix(1.00, 0.00, -0.00, -1.00, 373.3, 213.0)">c</text><text xml:space="preserve" font-family="HelveticaNeue-Light" font-size="28.8" fill="#747373" transform="matrix(1.00, 0.00, -0.00, -1.00, 388.3, 213.0)"> </text><text xml:space="preserve" font-family="HelveticaNeue-Light" font-size="28.8" fill="#747373" transform="matrix(1.00, 0.00, -0.00, -1.00, 396.3, 213.0)">t</text><text xml:space="preserve" font-family="HelveticaNeue-Light" font-size="28.8" fill="#747373" transform="matrix(1.00, 0.00, -0.00, -1.00, 404.8, 213.0)">h</text><text xml:space="preserve" font-family="HelveticaNeue-Light" font-size="28.8" fill="#747373" transform="matrix(1.00, 0.00, -0.00, -1.00, 420.2, 213.0)">e</text><text xml:space="preserve" font-family="HelveticaNeue-Light" font-size="28.8" fill="#747373" transform="matrix(1.00, 0.00, -0.00, -1.00, 435.2, 213.0)"> </text><text xml:space="preserve" font-family="HelveticaNeue-Light" font-size="28.8" fill="#747373" transform="matrix(1.00, 0.00, -0.00, -1.00, 443.2, 213.0)">a</text><text xml:space="preserve" font-family="HelveticaNeue-Light" font-size="28.8" fill="#747373" transform="matrix(1.00, 0.00, -0.00, -1.00, 458.1, 213.0)">p</text><text xml:space="preserve" font-family="HelveticaNeue-Light" font-size="28.8" fill="#747373" transform="matrix(1.00, 0.00, -0.00, -1.00, 474.7, 213.0)">p</text><text xml:space="preserve" font-family="HelveticaNeue-Light" font-size="28.8" fill="#747373" transform="matrix(1.00, 0.00, -0.00, -1.00, 491.2, 213.0)">l</text><text xml:space="preserve" font-family="HelveticaNeue-Light" font-size="28.8" fill="#747373" transform="matrix(1.00, 0.00, -0.00, -1.00, 496.5, 213.0)">i</text><text xml:space="preserve" font-family="HelveticaNeue-Light" font-size="28.8" fill="#747373" transform="matrix(1.00, 0.00, -0.00, -1.00, 501.9, 213.0)">c</text><text xml:space="preserve" font-family="HelveticaNeue-Light" font-size="28.8" fill="#747373" transform="matrix(1.00, 0.00, -0.00, -1.00, 516.8, 213.0)">a</text><text xml:space="preserve" font-family="HelveticaNeue-Light" font-size="28.8" fill="#747373" transform="matrix(1.00, 0.00, -0.00, -1.00, 531.8, 213.0)">t</text><text xml:space="preserve" font-family="HelveticaNeue-Light" font-size="28.8" fill="#747373" transform="matrix(1.00, 0.00, -0.00, -1.00, 540.3, 213.0)">i</text><text xml:space="preserve" font-family="HelveticaNeue-Light" font-size="28.8" fill="#747373" transform="matrix(1.00, 0.00, -0.00, -1.00, 545.6, 213.0)">o</text><text xml:space="preserve" font-family="HelveticaNeue-Light" font-size="28.8" fill="#747373" transform="matrix(1.00, 0.00, -0.00, -1.00, 561.6, 213.0)">n</text><text xml:space="preserve" font-family="HelveticaNeue-Light" font-size="28.8" fill="#747373" transform="matrix(1.00, 0.00, -0.00, -1.00, 577.1, 213.0)"> </text><text xml:space="preserve" font-family="HelveticaNeue-Light" font-size="28.8" fill="#747373" transform="matrix(1.00, 0.00, -0.00, -1.00, 585.1, 213.0)">u</text><text xml:space="preserve" font-family="HelveticaNeue-Light" font-size="28.8" fill="#747373" transform="matrix(1.00, 0.00, -0.00, -1.00, 600.6, 213.0)">s</text><text xml:space="preserve" font-family="HelveticaNeue-Light" font-size="28.8" fill="#747373" transform="matrix(1.00, 0.00, -0.00, -1.00, 614.4, 213.0)">e</text><text xml:space="preserve" font-family="HelveticaNeue-Light" font-size="28.8" fill="#747373" transform="matrix(1.00, 0.00, -0.00, -1.00, 629.4, 213.0)">r</text><text xml:space="preserve" font-family="HelveticaNeue-Light" font-size="28.8" fill="#747373" transform="matrix(1.00, 0.00, -0.00, -1.00, 638.4, 213.0)"> </text><text xml:space="preserve" font-family="HelveticaNeue-Light" font-size="28.8" fill="#747373" transform="matrix(1.00, 0.00, -0.00, -1.00, 646.4, 213.0)">s</text><text xml:space="preserve" font-family="HelveticaNeue-Light" font-size="28.8" fill="#747373" transform="matrix(1.00, 0.00, -0.00, -1.00, 660.3, 213.0)">t</text><text xml:space="preserve" font-family="HelveticaNeue-Light" font-size="28.8" fill="#747373" transform="matrix(1.00, 0.00, -0.00, -1.00, 668.8, 213.0)">o</text><text xml:space="preserve" font-family="HelveticaNeue-Light" font-size="28.8" fill="#747373" transform="matrix(1.00, 0.00, -0.00, -1.00, 684.8, 213.0)">r</text><text xml:space="preserve" font-family="HelveticaNeue-Light" font-size="28.8" fill="#747373" transform="matrix(1.00, 0.00, -0.00, -1.00, 693.9, 213.0)">i</text><text xml:space="preserve" font-family="HelveticaNeue-Light" font-size="28.8" fill="#747373" transform="matrix(1.00, 0.00, -0.00, -1.00, 699.2, 213.0)">e</text><text xml:space="preserve" font-family="HelveticaNeue-Light" font-size="28.8" fill="#747373" transform="matrix(1.00, 0.00, -0.00, -1.00, 714.2, 213.0)">s</text><text xml:space="preserve" font-family="HelveticaNeue-Light" font-size="28.8" fill="#747373" transform="matrix(1.00, 0.00, -0.00, -1.00, 728.0, 213.0)"> </text><text xml:space="preserve" font-family="HelveticaNeue" font-size="21.6" fill="#747373" transform="matrix(1.00, 0.00, -0.00, -1.00, 36.0, 146.5)">•</text><text xml:space="preserve" font-family="HelveticaNeue-Light" font-size="28.8" fill="#747373" transform="matrix(1.00, 0.00, -0.00, -1.00, 65.0, 144.0)">T</text><text xml:space="preserve" font-family="HelveticaNeue-Light" font-size="28.8" fill="#747373" transform="matrix(1.00, 0.00, -0.00, -1.00, 77.8, 144.0)">w</text><text xml:space="preserve" font-family="HelveticaNeue-Light" font-size="28.8" fill="#747373" transform="matrix(1.00, 0.00, -0.00, -1.00, 99.2, 144.0)">e</text><text xml:space="preserve" font-family="HelveticaNeue-Light" font-size="28.8" fill="#747373" transform="matrix(1.00, 0.00, -0.00, -1.00, 114.1, 144.0)">a</text><text xml:space="preserve" font-family="HelveticaNeue-Light" font-size="28.8" fill="#747373" transform="matrix(1.00, 0.00, -0.00, -1.00, 129.1, 144.0)">k</text><text xml:space="preserve" font-family="HelveticaNeue-Light" font-size="28.8" fill="#747373" transform="matrix(1.00, 0.00, -0.00, -1.00, 143.5, 144.0)"> </text><text xml:space="preserve" font-family="HelveticaNeue-Light" font-size="28.8" fill="#747373" transform="matrix(1.00, 0.00, -0.00, -1.00, 151.5, 144.0)">t</text><text xml:space="preserve" font-family="HelveticaNeue-Light" font-size="28.8" fill="#747373" transform="matrix(1.00, 0.00, -0.00, -1.00, 160.0, 144.0)">h</text><text xml:space="preserve" font-family="HelveticaNeue-Light" font-size="28.8" fill="#747373" transform="matrix(1.00, 0.00, -0.00, -1.00, 175.4, 144.0)">e</text><text xml:space="preserve" font-family="HelveticaNeue-Light" font-size="28.8" fill="#747373" transform="matrix(1.00, 0.00, -0.00, -1.00, 190.4, 144.0)"> </text><text xml:space="preserve" font-family="HelveticaNeue-Light" font-size="28.8" fill="#747373" transform="matrix(1.00, 0.00, -0.00, -1.00, 198.4, 144.0)">s</text><text xml:space="preserve" font-family="HelveticaNeue-Light" font-size="28.8" fill="#747373" transform="matrix(1.00, 0.00, -0.00, -1.00, 212.3, 144.0)">c</text><text xml:space="preserve" font-family="HelveticaNeue-Light" font-size="28.8" fill="#747373" transform="matrix(1.00, 0.00, -0.00, -1.00, 227.2, 144.0)">r</text><text xml:space="preserve" font-family="HelveticaNeue-Light" font-size="28.8" fill="#747373" transform="matrix(1.00, 0.00, -0.00, -1.00, 236.3, 144.0)">i</text><text xml:space="preserve" font-family="HelveticaNeue-Light" font-size="28.8" fill="#747373" transform="matrix(1.00, 0.00, -0.00, -1.00, 241.6, 144.0)">p</text><text xml:space="preserve" font-family="HelveticaNeue-Light" font-size="28.8" fill="#747373" transform="matrix(1.00, 0.00, -0.00, -1.00, 258.1, 144.0)">t</text><text xml:space="preserve" font-family="HelveticaNeue-Light" font-size="28.8" fill="#747373" transform="matrix(1.00, 0.00, -0.00, -1.00, 266.7, 144.0)">s</text><text xml:space="preserve" font-family="HelveticaNeue-Light" font-size="28.8" fill="#747373" transform="matrix(1.00, 0.00, -0.00, -1.00, 280.5, 144.0)"> </text><text xml:space="preserve" font-family="HelveticaNeue-Light" font-size="28.8" fill="#747373" transform="matrix(1.00, 0.00, -0.00, -1.00, 288.5, 144.0)">u</text><text xml:space="preserve" font-family="HelveticaNeue-Light" font-size="28.8" fill="#747373" transform="matrix(1.00, 0.00, -0.00, -1.00, 304.0, 144.0)">n</text><text xml:space="preserve" font-family="HelveticaNeue-Light" font-size="28.8" fill="#747373" transform="matrix(1.00, 0.00, -0.00, -1.00, 319.4, 144.0)">t</text><text xml:space="preserve" font-family="HelveticaNeue-Light" font-size="28.8" fill="#747373" transform="matrix(1.00, 0.00, -0.00, -1.00, 328.0, 144.0)">i</text><text xml:space="preserve" font-family="HelveticaNeue-Light" font-size="28.8" fill="#747373" transform="matrix(1.00, 0.00, -0.00, -1.00, 333.3, 144.0)">l</text><text xml:space="preserve" font-family="HelveticaNeue-Light" font-size="28.8" fill="#747373" transform="matrix(1.00, 0.00, -0.00, -1.00, 338.6, 144.0)"> </text><text xml:space="preserve" font-family="HelveticaNeue-Light" font-size="28.8" fill="#747373" transform="matrix(1.00, 0.00, -0.00, -1.00, 346.6, 144.0)">t</text><text xml:space="preserve" font-family="HelveticaNeue-Light" font-size="28.8" fill="#747373" transform="matrix(1.00, 0.00, -0.00, -1.00, 355.2, 144.0)">h</text><text xml:space="preserve" font-family="HelveticaNeue-Light" font-size="28.8" fill="#747373" transform="matrix(1.00, 0.00, -0.00, -1.00, 370.6, 144.0)">e</text><text xml:space="preserve" font-family="HelveticaNeue-Light" font-size="28.8" fill="#747373" transform="matrix(1.00, 0.00, -0.00, -1.00, 385.6, 144.0)">y</text><text xml:space="preserve" font-family="HelveticaNeue-Light" font-size="28.8" fill="#747373" transform="matrix(1.00, 0.00, -0.00, -1.00, 398.9, 144.0)"> </text><text xml:space="preserve" font-family="HelveticaNeue-Light" font-size="28.8" fill="#747373" transform="matrix(1.00, 0.00, -0.00, -1.00, 406.9, 144.0)">a</text><text xml:space="preserve" font-family="HelveticaNeue-Light" font-size="28.8" fill="#747373" transform="matrix(1.00, 0.00, -0.00, -1.00, 421.9, 144.0)">l</text><text xml:space="preserve" font-family="HelveticaNeue-Light" font-size="28.8" fill="#747373" transform="matrix(1.00, 0.00, -0.00, -1.00, 427.2, 144.0)">l</text><text xml:space="preserve" font-family="HelveticaNeue-Light" font-size="28.8" fill="#747373" transform="matrix(1.00, 0.00, -0.00, -1.00, 432.5, 144.0)"> </text><text xml:space="preserve" font-family="HelveticaNeue-Light" font-size="28.8" fill="#747373" transform="matrix(1.00, 0.00, -0.00, -1.00, 440.5, 144.0)">w</text><text xml:space="preserve" font-family="HelveticaNeue-Light" font-size="28.8" fill="#747373" transform="matrix(1.00, 0.00, -0.00, -1.00, 461.9, 144.0)">o</text><text xml:space="preserve" font-family="HelveticaNeue-Light" font-size="28.8" fill="#747373" transform="matrix(1.00, 0.00, -0.00, -1.00, 477.9, 144.0)">r</text><text xml:space="preserve" font-family="HelveticaNeue-Light" font-size="28.8" fill="#747373" transform="matrix(1.00, 0.00, -0.00, -1.00, 486.9, 144.0)">k</text><text xml:space="preserve" font-family="HelveticaNeue-Light" font-size="28.8" fill="#747373" transform="matrix(1.00, 0.00, -0.00, -1.00, 501.3, 144.0)"> </text><text xml:space="preserve" font-family="HelveticaNeue-Light" font-size="28.8" fill="#747373" transform="matrix(1.00, 0.00, -0.00, -1.00, 509.4, 144.0)">w</text><text xml:space="preserve" font-family="HelveticaNeue-Light" font-size="28.8" fill="#747373" transform="matrix(1.00, 0.00, -0.00, -1.00, 530.7, 144.0)">e</text><text xml:space="preserve" font-family="HelveticaNeue-Light" font-size="28.8" fill="#747373" transform="matrix(1.00, 0.00, -0.00, -1.00, 545.6, 144.0)">l</text><text xml:space="preserve" font-family="HelveticaNeue-Light" font-size="28.8" fill="#747373" transform="matrix(1.00, 0.00, -0.00, -1.00, 551.0, 144.0)">l</text><text xml:space="preserve" font-family="HelveticaNeue-Light" font-size="28.8" fill="#747373" transform="matrix(1.00, 0.00, -0.00, -1.00, 556.3, 144.0)"> </text><text xml:space="preserve" font-family="HelveticaNeue" font-size="21.6" fill="#747373" transform="matrix(1.00, 0.00, -0.00, -1.00, 36.0, 77.9)">•</text><text xml:space="preserve" font-family="HelveticaNeue-Light" font-size="28.8" fill="#747373" transform="matrix(1.00, 0.00, -0.00, -1.00, 65.0, 76.0)">M</text><text xml:space="preserve" font-family="HelveticaNeue-Light" font-size="28.8" fill="#747373" transform="matrix(1.00, 0.00, -0.00, -1.00, 88.6, 76.0)">a</text><text xml:space="preserve" font-family="HelveticaNeue-Light" font-size="28.8" fill="#747373" transform="matrix(1.00, 0.00, -0.00, -1.00, 103.6, 76.0)">y</text><text xml:space="preserve" font-family="HelveticaNeue-Light" font-size="28.8" fill="#747373" transform="matrix(1.00, 0.00, -0.00, -1.00, 116.9, 76.0)">b</text><text xml:space="preserve" font-family="HelveticaNeue-Light" font-size="28.8" fill="#747373" transform="matrix(1.00, 0.00, -0.00, -1.00, 133.5, 76.0)">e</text><text xml:space="preserve" font-family="HelveticaNeue-Light" font-size="28.8" fill="#747373" transform="matrix(1.00, 0.00, -0.00, -1.00, 148.4, 76.0)"> </text><text xml:space="preserve" font-family="HelveticaNeue-Light" font-size="28.8" fill="#747373" transform="matrix(1.00, 0.00, -0.00, -1.00, 156.4, 76.0)">e</text><text xml:space="preserve" font-family="HelveticaNeue-Light" font-size="28.8" fill="#747373" transform="matrix(1.00, 0.00, -0.00, -1.00, 171.4, 76.0)">v</text><text xml:space="preserve" font-family="HelveticaNeue-Light" font-size="28.8" fill="#747373" transform="matrix(1.00, 0.00, -0.00, -1.00, 184.7, 76.0)">e</text><text xml:space="preserve" font-family="HelveticaNeue-Light" font-size="28.8" fill="#747373" transform="matrix(1.00, 0.00, -0.00, -1.00, 199.6, 76.0)">n</text><text xml:space="preserve" font-family="HelveticaNeue-Light" font-size="28.8" fill="#747373" transform="matrix(1.00, 0.00, -0.00, -1.00, 215.1, 76.0)"> </text><text xml:space="preserve" font-family="HelveticaNeue-Light" font-size="28.8" fill="#747373" transform="matrix(1.00, 0.00, -0.00, -1.00, 223.1, 76.0)">u</text><text xml:space="preserve" font-family="HelveticaNeue-Light" font-size="28.8" fill="#747373" transform="matrix(1.00, 0.00, -0.00, -1.00, 238.6, 76.0)">s</text><text xml:space="preserve" font-family="HelveticaNeue-Light" font-size="28.8" fill="#747373" transform="matrix(1.00, 0.00, -0.00, -1.00, 252.4, 76.0)">e</text><text xml:space="preserve" font-family="HelveticaNeue-Light" font-size="28.8" fill="#747373" transform="matrix(1.00, 0.00, -0.00, -1.00, 267.4, 76.0)"> </text><text xml:space="preserve" font-family="HelveticaNeue-Light" font-size="28.8" fill="#747373" transform="matrix(1.00, 0.00, -0.00, -1.00, 275.4, 76.0)">t</text><text xml:space="preserve" font-family="HelveticaNeue-Light" font-size="28.8" fill="#747373" transform="matrix(1.00, 0.00, -0.00, -1.00, 283.9, 76.0)">h</text><text xml:space="preserve" font-family="HelveticaNeue-Light" font-size="28.8" fill="#747373" transform="matrix(1.00, 0.00, -0.00, -1.00, 299.4, 76.0)">e</text><text xml:space="preserve" font-family="HelveticaNeue-Light" font-size="28.8" fill="#747373" transform="matrix(1.00, 0.00, -0.00, -1.00, 314.3, 76.0)">m</text><text xml:space="preserve" font-family="HelveticaNeue-Light" font-size="28.8" fill="#747373" transform="matrix(1.00, 0.00, -0.00, -1.00, 338.3, 76.0)"> </text><text xml:space="preserve" font-family="HelveticaNeue-Light" font-size="28.8" fill="#747373" transform="matrix(1.00, 0.00, -0.00, -1.00, 346.3, 76.0)">f</text><text xml:space="preserve" font-family="HelveticaNeue-Light" font-size="28.8" fill="#747373" transform="matrix(1.00, 0.00, -0.00, -1.00, 353.8, 76.0)">o</text><text xml:space="preserve" font-family="HelveticaNeue-Light" font-size="28.8" fill="#747373" transform="matrix(1.00, 0.00, -0.00, -1.00, 369.8, 76.0)">r</text><text xml:space="preserve" font-family="HelveticaNeue-Light" font-size="28.8" fill="#747373" transform="matrix(1.00, 0.00, -0.00, -1.00, 378.9, 76.0)"> </text><text xml:space="preserve" font-family="HelveticaNeue-Light" font-size="28.8" fill="#747373" transform="matrix(1.00, 0.00, -0.00, -1.00, 386.9, 76.0)">p</text><text xml:space="preserve" font-family="HelveticaNeue-Light" font-size="28.8" fill="#747373" transform="matrix(1.00, 0.00, -0.00, -1.00, 403.4, 76.0)">e</text><text xml:space="preserve" font-family="HelveticaNeue-Light" font-size="28.8" fill="#747373" transform="matrix(1.00, 0.00, -0.00, -1.00, 418.3, 76.0)">r</text><text xml:space="preserve" font-family="HelveticaNeue-Light" font-size="28.8" fill="#747373" transform="matrix(1.00, 0.00, -0.00, -1.00, 427.4, 76.0)">f</text><text xml:space="preserve" font-family="HelveticaNeue-Light" font-size="28.8" fill="#747373" transform="matrix(1.00, 0.00, -0.00, -1.00, 434.9, 76.0)">o</text><text xml:space="preserve" font-family="HelveticaNeue-Light" font-size="28.8" fill="#747373" transform="matrix(1.00, 0.00, -0.00, -1.00, 450.9, 76.0)">r</text><text xml:space="preserve" font-family="HelveticaNeue-Light" font-size="28.8" fill="#747373" transform="matrix(1.00, 0.00, -0.00, -1.00, 460.0, 76.0)">m</text><text xml:space="preserve" font-family="HelveticaNeue-Light" font-size="28.8" fill="#747373" transform="matrix(1.00, 0.00, -0.00, -1.00, 484.0, 76.0)">a</text><text xml:space="preserve" font-family="HelveticaNeue-Light" font-size="28.8" fill="#747373" transform="matrix(1.00, 0.00, -0.00, -1.00, 498.9, 76.0)">n</text><text xml:space="preserve" font-family="HelveticaNeue-Light" font-size="28.8" fill="#747373" transform="matrix(1.00, 0.00, -0.00, -1.00, 514.4, 76.0)">c</text><text xml:space="preserve" font-family="HelveticaNeue-Light" font-size="28.8" fill="#747373" transform="matrix(1.00, 0.00, -0.00, -1.00, 529.3, 76.0)">e</text><text xml:space="preserve" font-family="HelveticaNeue-Light" font-size="28.8" fill="#747373" transform="matrix(1.00, 0.00, -0.00, -1.00, 544.3, 76.0)"> </text><text xml:space="preserve" font-family="HelveticaNeue-Light" font-size="28.8" fill="#747373" transform="matrix(1.00, 0.00, -0.00, -1.00, 552.3, 76.0)">t</text><text xml:space="preserve" font-family="HelveticaNeue-Light" font-size="28.8" fill="#747373" transform="matrix(1.00, 0.00, -0.00, -1.00, 560.8, 76.0)">e</text><text xml:space="preserve" font-family="HelveticaNeue-Light" font-size="28.8" fill="#747373" transform="matrix(1.00, 0.00, -0.00, -1.00, 575.7, 76.0)">s</text><text xml:space="preserve" font-family="HelveticaNeue-Light" font-size="28.8" fill="#747373" transform="matrix(1.00, 0.00, -0.00, -1.00, 589.6, 76.0)">t</text><text xml:space="preserve" font-family="HelveticaNeue-Light" font-size="28.8" fill="#747373" transform="matrix(1.00, 0.00, -0.00, -1.00, 598.1, 76.0)">i</text><text xml:space="preserve" font-family="HelveticaNeue-Light" font-size="28.8" fill="#747373" transform="matrix(1.00, 0.00, -0.00, -1.00, 603.4, 76.0)">n</text><text xml:space="preserve" font-family="HelveticaNeue-Light" font-size="28.8" fill="#747373" transform="matrix(1.00, 0.00, -0.00, -1.00, 618.9, 76.0)">g</text><text xml:space="preserve" font-family="HelveticaNeue-Light" font-size="28.8" fill="#747373" transform="matrix(1.00, 0.00, -0.00, -1.00, 634.9, 76.0)"> </text><text xml:space="preserve" font-family="HelveticaNeue" font-size="21.6" fill="#747373" transform="matrix(1.00, 0.00, -0.00, -1.00, 36.0, 9.3)">•</text><text xml:space="preserve" font-family="HelveticaNeue-Light" font-size="28.8" fill="#747373" transform="matrix(1.00, 0.00, -0.00, -1.00, 65.0, 7.0)">F</text><text xml:space="preserve" font-family="HelveticaNeue-Light" font-size="28.8" fill="#747373" transform="matrix(1.00, 0.00, -0.00, -1.00, 80.5, 7.0)">o</text><text xml:space="preserve" font-family="HelveticaNeue-Light" font-size="28.8" fill="#747373" transform="matrix(1.00, 0.00, -0.00, -1.00, 96.5, 7.0)">r</text><text xml:space="preserve" font-family="HelveticaNeue-Light" font-size="28.8" fill="#747373" transform="matrix(1.00, 0.00, -0.00, -1.00, 105.6, 7.0)">m</text><text xml:space="preserve" font-family="HelveticaNeue-Light" font-size="28.8" fill="#747373" transform="matrix(1.00, 0.00, -0.00, -1.00, 129.5, 7.0)">a</text><text xml:space="preserve" font-family="HelveticaNeue-Light" font-size="28.8" fill="#747373" transform="matrix(1.00, 0.00, -0.00, -1.00, 144.5, 7.0)">l</text><text xml:space="preserve" font-family="HelveticaNeue-Light" font-size="28.8" fill="#747373" transform="matrix(1.00, 0.00, -0.00, -1.00, 149.8, 7.0)">i</text><text xml:space="preserve" font-family="HelveticaNeue-Light" font-size="28.8" fill="#747373" transform="matrix(1.00, 0.00, -0.00, -1.00, 155.1, 7.0)">z</text><text xml:space="preserve" font-family="HelveticaNeue-Light" font-size="28.8" fill="#747373" transform="matrix(1.00, 0.00, -0.00, -1.00, 168.5, 7.0)">e</text><text xml:space="preserve" font-family="HelveticaNeue-Light" font-size="28.8" fill="#747373" transform="matrix(1.00, 0.00, -0.00, -1.00, 183.4, 7.0)"> </text><text xml:space="preserve" font-family="HelveticaNeue-Light" font-size="28.8" fill="#747373" transform="matrix(1.00, 0.00, -0.00, -1.00, 191.4, 7.0)">t</text><text xml:space="preserve" font-family="HelveticaNeue-Light" font-size="28.8" fill="#747373" transform="matrix(1.00, 0.00, -0.00, -1.00, 200.0, 7.0)">h</text><text xml:space="preserve" font-family="HelveticaNeue-Light" font-size="28.8" fill="#747373" transform="matrix(1.00, 0.00, -0.00, -1.00, 215.4, 7.0)">e</text><text xml:space="preserve" font-family="HelveticaNeue-Light" font-size="28.8" fill="#747373" transform="matrix(1.00, 0.00, -0.00, -1.00, 230.4, 7.0)"> </text><text xml:space="preserve" font-family="HelveticaNeue-Light" font-size="28.8" fill="#747373" transform="matrix(1.00, 0.00, -0.00, -1.00, 238.4, 7.0)">r</text><text xml:space="preserve" font-family="HelveticaNeue-Light" font-size="28.8" fill="#747373" transform="matrix(1.00, 0.00, -0.00, -1.00, 246.9, 7.0)">e</text><text xml:space="preserve" font-family="HelveticaNeue-Light" font-size="28.8" fill="#747373" transform="matrix(1.00, 0.00, -0.00, -1.00, 261.9, 7.0)">s</text><text xml:space="preserve" font-family="HelveticaNeue-Light" font-size="28.8" fill="#747373" transform="matrix(1.00, 0.00, -0.00, -1.00, 275.7, 7.0)">u</text><text xml:space="preserve" font-family="HelveticaNeue-Light" font-size="28.8" fill="#747373" transform="matrix(1.00, 0.00, -0.00, -1.00, 291.2, 7.0)">l</text><text xml:space="preserve" font-family="HelveticaNeue-Light" font-size="28.8" fill="#747373" transform="matrix(1.00, 0.00, -0.00, -1.00, 296.5, 7.0)">t</text><text xml:space="preserve" font-family="HelveticaNeue-Light" font-size="28.8" fill="#747373" transform="matrix(1.00, 0.00, -0.00, -1.00, 305.0, 7.0)">i</text><text xml:space="preserve" font-family="HelveticaNeue-Light" font-size="28.8" fill="#747373" transform="matrix(1.00, 0.00, -0.00, -1.00, 310.4, 7.0)">n</text><text xml:space="preserve" font-family="HelveticaNeue-Light" font-size="28.8" fill="#747373" transform="matrix(1.00, 0.00, -0.00, -1.00, 325.8, 7.0)">g</text><text xml:space="preserve" font-family="HelveticaNeue-Light" font-size="28.8" fill="#747373" transform="matrix(1.00, 0.00, -0.00, -1.00, 341.9, 7.0)"> </text><text xml:space="preserve" font-family="HelveticaNeue-Light" font-size="28.8" fill="#747373" transform="matrix(1.00, 0.00, -0.00, -1.00, 349.9, 7.0)">s</text><text xml:space="preserve" font-family="HelveticaNeue-Light" font-size="28.8" fill="#747373" transform="matrix(1.00, 0.00, -0.00, -1.00, 363.7, 7.0)">c</text><text xml:space="preserve" font-family="HelveticaNeue-Light" font-size="28.8" fill="#747373" transform="matrix(1.00, 0.00, -0.00, -1.00, 378.7, 7.0)">h</text><text xml:space="preserve" font-family="HelveticaNeue-Light" font-size="28.8" fill="#747373" transform="matrix(1.00, 0.00, -0.00, -1.00, 394.1, 7.0)">e</text><text xml:space="preserve" font-family="HelveticaNeue-Light" font-size="28.8" fill="#747373" transform="matrix(1.00, 0.00, -0.00, -1.00, 409.1, 7.0)">m</text><text xml:space="preserve" font-family="HelveticaNeue-Light" font-size="28.8" fill="#747373" transform="matrix(1.00, 0.00, -0.00, -1.00, 433.1, 7.0)">a</text><text xml:space="preserve" font-family="HelveticaNeue-Light" font-size="28.8" fill="#747373" transform="matrix(1.00, 0.00, -0.00, -1.00, 448.0, 7.0)"> </text><text xml:space="preserve" font-family="HelveticaNeue-Light" font-size="28.8" fill="#747373" transform="matrix(1.00, 0.00, -0.00, -1.00, 456.0, 7.0)">(</text><text xml:space="preserve" font-family="HelveticaNeue-Light" font-size="28.8" fill="#747373" transform="matrix(1.00, 0.00, -0.00, -1.00, 463.0, 7.0)">i</text><text xml:space="preserve" font-family="HelveticaNeue-Light" font-size="28.8" fill="#747373" transform="matrix(1.00, 0.00, -0.00, -1.00, 468.3, 7.0)">.</text><text xml:space="preserve" font-family="HelveticaNeue-Light" font-size="28.8" fill="#747373" transform="matrix(1.00, 0.00, -0.00, -1.00, 476.3, 7.0)">e</text><text xml:space="preserve" font-family="HelveticaNeue-Light" font-size="28.8" fill="#747373" transform="matrix(1.00, 0.00, -0.00, -1.00, 491.2, 7.0)">.</text><text xml:space="preserve" font-family="HelveticaNeue-Light" font-size="28.8" fill="#747373" transform="matrix(1.00, 0.00, -0.00, -1.00, 499.2, 7.0)">,</text><text xml:space="preserve" font-family="HelveticaNeue-Light" font-size="28.8" fill="#747373" transform="matrix(1.00, 0.00, -0.00, -1.00, 507.3, 7.0)"> </text><text xml:space="preserve" font-family="HelveticaNeue-Light" font-size="28.8" fill="#747373" transform="matrix(1.00, 0.00, -0.00, -1.00, 515.3, 7.0)">w</text><text xml:space="preserve" font-family="HelveticaNeue-Light" font-size="28.8" fill="#747373" transform="matrix(1.00, 0.00, -0.00, -1.00, 536.6, 7.0)">r</text><text xml:space="preserve" font-family="HelveticaNeue-Light" font-size="28.8" fill="#747373" transform="matrix(1.00, 0.00, -0.00, -1.00, 545.7, 7.0)">i</text><text xml:space="preserve" font-family="HelveticaNeue-Light" font-size="28.8" fill="#747373" transform="matrix(1.00, 0.00, -0.00, -1.00, 551.0, 7.0)">t</text><text xml:space="preserve" font-family="HelveticaNeue-Light" font-size="28.8" fill="#747373" transform="matrix(1.00, 0.00, -0.00, -1.00, 559.5, 7.0)">e</text><text xml:space="preserve" font-family="HelveticaNeue-Light" font-size="28.8" fill="#747373" transform="matrix(1.00, 0.00, -0.00, -1.00, 574.5, 7.0)"> </text><text xml:space="preserve" font-family="HelveticaNeue-Light" font-size="28.8" fill="#747373" transform="matrix(1.00, 0.00, -0.00, -1.00, 582.5, 7.0)">y</text><text xml:space="preserve" font-family="HelveticaNeue-Light" font-size="28.8" fill="#747373" transform="matrix(1.00, 0.00, -0.00, -1.00, 595.8, 7.0)">o</text><text xml:space="preserve" font-family="HelveticaNeue-Light" font-size="28.8" fill="#747373" transform="matrix(1.00, 0.00, -0.00, -1.00, 611.8, 7.0)">u</text><text xml:space="preserve" font-family="HelveticaNeue-Light" font-size="28.8" fill="#747373" transform="matrix(1.00, 0.00, -0.00, -1.00, 627.3, 7.0)">r</text><text xml:space="preserve" font-family="HelveticaNeue-Light" font-size="28.8" fill="#747373" transform="matrix(1.00, 0.00, -0.00, -1.00, 636.4, 7.0)"> </text><text xml:space="preserve" font-family="HelveticaNeue-Light" font-size="28.8" fill="#747373" transform="matrix(1.00, 0.00, -0.00, -1.00, 644.4, 7.0)">s</text><text xml:space="preserve" font-family="HelveticaNeue-Light" font-size="28.8" fill="#747373" transform="matrix(1.00, 0.00, -0.00, -1.00, 658.2, 7.0)">w</text><text xml:space="preserve" font-family="HelveticaNeue-Light" font-size="28.8" fill="#747373" transform="matrix(1.00, 0.00, -0.00, -1.00, 679.6, 7.0)">a</text><text xml:space="preserve" font-family="HelveticaNeue-Light" font-size="28.8" fill="#747373" transform="matrix(1.00, 0.00, -0.00, -1.00, 694.5, 7.0)">g</text><text xml:space="preserve" font-family="HelveticaNeue-Light" font-size="28.8" fill="#747373" transform="matrix(1.00, 0.00, -0.00, -1.00, 710.5, 7.0)">g</text><text xml:space="preserve" font-family="HelveticaNeue-Light" font-size="28.8" fill="#747373" transform="matrix(1.00, 0.00, -0.00, -1.00, 726.5, 7.0)">e</text><text xml:space="preserve" font-family="HelveticaNeue-Light" font-size="28.8" fill="#747373" transform="matrix(1.00, 0.00, -0.00, -1.00, 741.5, 7.0)">r</text><text xml:space="preserve" font-family="HelveticaNeue-Light" font-size="28.8" fill="#747373" transform="matrix(1.00, 0.00, -0.00, -1.00, 750.6, 7.0)"> </text><text xml:space="preserve" font-family="HelveticaNeue-Light" font-size="28.8" fill="#747373" transform="matrix(1.00, 0.00, -0.00, -1.00, 758.6, 7.0)">s</text><text xml:space="preserve" font-family="HelveticaNeue-Light" font-size="28.8" fill="#747373" transform="matrix(1.00, 0.00, -0.00, -1.00, 772.4, 7.0)">p</text><text xml:space="preserve" font-family="HelveticaNeue-Light" font-size="28.8" fill="#747373" transform="matrix(1.00, 0.00, -0.00, -1.00, 788.9, 7.0)">e</text><text xml:space="preserve" font-family="HelveticaNeue-Light" font-size="28.8" fill="#747373" transform="matrix(1.00, 0.00, -0.00, -1.00, 803.9, 7.0)">c</text><text xml:space="preserve" font-family="HelveticaNeue-Light" font-size="28.8" fill="#747373" transform="matrix(1.00, 0.00, -0.00, -1.00, 818.8, 7.0)">)</text></g></svg>