<?xml version="1.0" encoding="UTF-8" standalone="no"?><svg xmlns="http://www.w3.org/2000/svg" xmlns:xlink="http://www.w3.org/1999/xlink" clip-rule="evenodd" stroke-miterlimit="4.00" viewBox="0 0 372 256"><desc>SVG generated by Keynote</desc><defs><linearGradient id="gradSh1.17" x1="0.0" y1="0.0" x2="100.0" y2="0.0" gradientUnits="userSpaceOnUse" gradientTransform="matrix(0.00, -2.42, -3.62, 0.00, 186.5, 249.0)"><stop offset="0.00000" stop-color="#5C5C5C"></stop><stop offset="0.01906" stop-color="#5B5B5B"></stop><stop offset="1.00000" stop-color="#353535"></stop></linearGradient></defs><g transform="matrix(1.00, 0.00, -0.00, -1.00, 0.0, 256.0)"><image xlink:href="../../E0F0DAC4-94FE-46A2-8728-0324DBA2E9D1/assets/C558875704A0E7C698AF569B9F3EF0C6.png" width="369.00" height="249.00" transform="matrix(1.00, 0.00, -0.00, -1.00, 2.0, 250.5)" opacity="0.40"></image><g><clipPath id="clip-48"><path d="M 6.5 26.3 L 6.5 229.7 C 6.5 239.8 14.6 248.0 24.7 248.0 L 348.2 248.0 C 358.3 248.0 366.5 239.8 366.5 229.7 L 366.5 26.3 C 366.5 16.2 358.3 8.0 348.2 8.0 L 24.7 8.0 C 14.6 8.0 6.5 16.2 6.5 26.3 Z M 6.5 26.3 "></path></clipPath><g clip-path="url(#clip-48)"><path d="M 6.5 26.3 L 6.5 229.7 C 6.5 239.8 14.6 248.0 24.7 248.0 L 348.2 248.0 C 358.3 248.0 366.5 239.8 366.5 229.7 L 366.5 26.3 C 366.5 16.2 358.3 8.0 348.2 8.0 L 24.7 8.0 C 14.6 8.0 6.5 16.2 6.5 26.3 Z M 6.5 26.3 " fill="url(#gradSh1.17)"></path></g></g><path d="M 0.0 221.7 L 0.0 18.3 C 0.0 8.2 8.2 0.0 18.3 0.0 L 341.7 0.0 C 351.8 0.0 360.0 8.2 360.0 18.3 L 360.0 221.7 C 360.0 231.8 351.8 240.0 341.7 240.0 L 18.3 240.0 C 8.2 240.0 0.0 231.8 0.0 221.7 Z M 0.0 221.7 " fill="none" stroke="#000000" stroke-width="1.00" transform="matrix(1.00, 0.00, 0.00, -1.00, 6.5, 248.0)"></path><g><clipPath id="clip-49"><path d="M 0.3 8.0 L 372.6 8.0 L 372.6 253.6 L 0.3 253.6 Z M 0.3 8.0 "></path></clipPath><g clip-path="url(#clip-49)"><text xml:space="preserve" font-family="HelveticaNeue-Light" font-size="36.0" fill="#FFFFFF" transform="matrix(1.00, 0.00, -0.00, -1.00, 22.0, 208.0)">S</text><text xml:space="preserve" font-family="HelveticaNeue-Light" font-size="36.0" fill="#FFFFFF" transform="matrix(1.00, 0.00, -0.00, -1.00, 44.7, 208.0)">e</text><text xml:space="preserve" font-family="HelveticaNeue-Light" font-size="36.0" fill="#FFFFFF" transform="matrix(1.00, 0.00, -0.00, -1.00, 63.4, 208.0)">p</text><text xml:space="preserve" font-family="HelveticaNeue-Light" font-size="36.0" fill="#FFFFFF" transform="matrix(1.00, 0.00, -0.00, -1.00, 84.0, 208.0)">a</text><text xml:space="preserve" font-family="HelveticaNeue-Light" font-size="36.0" fill="#FFFFFF" transform="matrix(1.00, 0.00, -0.00, -1.00, 102.7, 208.0)">r</text><text xml:space="preserve" font-family="HelveticaNeue-Light" font-size="36.0" fill="#FFFFFF" transform="matrix(1.00, 0.00, -0.00, -1.00, 114.1, 208.0)">a</text><text xml:space="preserve" font-family="HelveticaNeue-Light" font-size="36.0" fill="#FFFFFF" transform="matrix(1.00, 0.00, -0.00, -1.00, 132.7, 208.0)">t</text><text xml:space="preserve" font-family="HelveticaNeue-Light" font-size="36.0" fill="#FFFFFF" transform="matrix(1.00, 0.00, -0.00, -1.00, 143.4, 208.0)">e</text><text xml:space="preserve" font-family="HelveticaNeue-Light" font-size="36.0" fill="#FFFFFF" transform="matrix(1.00, 0.00, -0.00, -1.00, 162.1, 208.0)"> </text><text xml:space="preserve" font-family="HelveticaNeue-Light" font-size="36.0" fill="#FFFFFF" transform="matrix(1.00, 0.00, -0.00, -1.00, 172.1, 208.0)">M</text><text xml:space="preserve" font-family="HelveticaNeue-Light" font-size="36.0" fill="#FFFFFF" transform="matrix(1.00, 0.00, -0.00, -1.00, 201.6, 208.0)">e</text><text xml:space="preserve" font-family="HelveticaNeue-Light" font-size="36.0" fill="#FFFFFF" transform="matrix(1.00, 0.00, -0.00, -1.00, 220.3, 208.0)">t</text><text xml:space="preserve" font-family="HelveticaNeue-Light" font-size="36.0" fill="#FFFFFF" transform="matrix(1.00, 0.00, -0.00, -1.00, 231.0, 208.0)">a</text><text xml:space="preserve" font-family="HelveticaNeue-Light" font-size="36.0" fill="#FFFFFF" transform="matrix(1.00, 0.00, -0.00, -1.00, 249.7, 208.0)">d</text><text xml:space="preserve" font-family="HelveticaNeue-Light" font-size="36.0" fill="#FFFFFF" transform="matrix(1.00, 0.00, -0.00, -1.00, 270.3, 208.0)">a</text><text xml:space="preserve" font-family="HelveticaNeue-Light" font-size="36.0" fill="#FFFFFF" transform="matrix(1.00, 0.00, -0.00, -1.00, 289.0, 208.0)">t</text><text xml:space="preserve" font-family="HelveticaNeue-Light" font-size="36.0" fill="#FFFFFF" transform="matrix(1.00, 0.00, -0.00, -1.00, 299.7, 208.0)">a</text><text xml:space="preserve" font-family="HelveticaNeue-Light" font-size="48.0" fill="#FFFFFF" transform="matrix(1.00, 0.00, -0.00, -1.00, 318.4, 208.0)"> </text><text xml:space="preserve" font-family="HelveticaNeue" font-size="27.0" fill="#FFFFFF" transform="matrix(1.00, 0.00, -0.00, -1.00, 11.0, 155.2)">•</text><text xml:space="preserve" font-family="HelveticaNeue-Light" font-size="36.0" fill="#FFFFFF" transform="matrix(1.00, 0.00, -0.00, -1.00, 46.0, 152.0)">I</text><text xml:space="preserve" font-family="HelveticaNeue-Light" font-size="36.0" fill="#FFFFFF" transform="matrix(1.00, 0.00, -0.00, -1.00, 54.0, 152.0)">n</text><text xml:space="preserve" font-family="HelveticaNeue-Light" font-size="36.0" fill="#FFFFFF" transform="matrix(1.00, 0.00, -0.00, -1.00, 73.3, 152.0)"> </text><text xml:space="preserve" font-family="HelveticaNeue-Light" font-size="36.0" fill="#FFFFFF" transform="matrix(1.00, 0.00, -0.00, -1.00, 83.3, 152.0)">C</text><text xml:space="preserve" font-family="HelveticaNeue-Light" font-size="36.0" fill="#FFFFFF" transform="matrix(1.00, 0.00, -0.00, -1.00, 108.7, 152.0)">o</text><text xml:space="preserve" font-family="HelveticaNeue-Light" font-size="36.0" fill="#FFFFFF" transform="matrix(1.00, 0.00, -0.00, -1.00, 128.7, 152.0)">d</text><text xml:space="preserve" font-family="HelveticaNeue-Light" font-size="36.0" fill="#FFFFFF" transform="matrix(1.00, 0.00, -0.00, -1.00, 149.4, 152.0)">e</text><text xml:space="preserve" font-family="HelveticaNeue-Light" font-size="48.0" fill="#FFFFFF" transform="matrix(1.00, 0.00, -0.00, -1.00, 168.0, 152.0)"> </text><text xml:space="preserve" font-family="HelveticaNeue" font-size="27.0" fill="#FFFFFF" transform="matrix(1.00, 0.00, -0.00, -1.00, 11.0, 99.2)">•</text><text xml:space="preserve" font-family="HelveticaNeue-Light" font-size="36.0" fill="#FFFFFF" transform="matrix(1.00, 0.00, -0.00, -1.00, 46.0, 96.0)">I</text><text xml:space="preserve" font-family="HelveticaNeue-Light" font-size="36.0" fill="#FFFFFF" transform="matrix(1.00, 0.00, -0.00, -1.00, 54.0, 96.0)">n</text><text xml:space="preserve" font-family="HelveticaNeue-Light" font-size="36.0" fill="#FFFFFF" transform="matrix(1.00, 0.00, -0.00, -1.00, 73.3, 96.0)"> </text><text xml:space="preserve" font-family="HelveticaNeue-Light" font-size="36.0" fill="#FFFFFF" transform="matrix(1.00, 0.00, -0.00, -1.00, 83.3, 96.0)">F</text><text xml:space="preserve" font-family="HelveticaNeue-Light" font-size="36.0" fill="#FFFFFF" transform="matrix(1.00, 0.00, -0.00, -1.00, 102.7, 96.0)">i</text><text xml:space="preserve" font-family="HelveticaNeue-Light" font-size="36.0" fill="#FFFFFF" transform="matrix(1.00, 0.00, -0.00, -1.00, 109.3, 96.0)">l</text><text xml:space="preserve" font-family="HelveticaNeue-Light" font-size="36.0" fill="#FFFFFF" transform="matrix(1.00, 0.00, -0.00, -1.00, 116.0, 96.0)">e</text><text xml:space="preserve" font-family="HelveticaNeue-Light" font-size="36.0" fill="#FFFFFF" transform="matrix(1.00, 0.00, -0.00, -1.00, 134.7, 96.0)">s</text><text xml:space="preserve" font-family="HelveticaNeue-Light" font-size="48.0" fill="#FFFFFF" transform="matrix(1.00, 0.00, -0.00, -1.00, 152.0, 96.0)"> </text><text xml:space="preserve" font-family="HelveticaNeue" font-size="27.0" fill="#FFFFFF" transform="matrix(1.00, 0.00, -0.00, -1.00, 11.0, 43.2)">•</text><text xml:space="preserve" font-family="HelveticaNeue-Light" font-size="36.0" fill="#FFFFFF" transform="matrix(1.00, 0.00, -0.00, -1.00, 46.0, 40.0)">I</text><text xml:space="preserve" font-family="HelveticaNeue-Light" font-size="36.0" fill="#FFFFFF" transform="matrix(1.00, 0.00, -0.00, -1.00, 54.0, 40.0)">n</text><text xml:space="preserve" font-family="HelveticaNeue-Light" font-size="36.0" fill="#FFFFFF" transform="matrix(1.00, 0.00, -0.00, -1.00, 73.3, 40.0)"> </text><text xml:space="preserve" font-family="HelveticaNeue-Light" font-size="36.0" fill="#FFFFFF" transform="matrix(1.00, 0.00, -0.00, -1.00, 83.3, 40.0)">M</text><text xml:space="preserve" font-family="HelveticaNeue-Light" font-size="36.0" fill="#FFFFFF" transform="matrix(1.00, 0.00, -0.00, -1.00, 112.9, 40.0)">o</text><text xml:space="preserve" font-family="HelveticaNeue-Light" font-size="36.0" fill="#FFFFFF" transform="matrix(1.00, 0.00, -0.00, -1.00, 132.9, 40.0)">n</text><text xml:space="preserve" font-family="HelveticaNeue-Light" font-size="36.0" fill="#FFFFFF" transform="matrix(1.00, 0.00, -0.00, -1.00, 152.2, 40.0)">g</text><text xml:space="preserve" font-family="HelveticaNeue-Light" font-size="36.0" fill="#FFFFFF" transform="matrix(1.00, 0.00, -0.00, -1.00, 172.3, 40.0)">o</text></g></g></g></svg>