<?xml version="1.0" encoding="UTF-8" standalone="no"?><svg xmlns="http://www.w3.org/2000/svg" xmlns:xlink="http://www.w3.org/1999/xlink" clip-rule="evenodd" stroke-miterlimit="4.00" viewBox="0 0 900 466"><desc>SVG generated by Keynote</desc><defs></defs><g transform="matrix(1.00, 0.00, -0.00, -1.00, 0.0, 466.0)"><text xml:space="preserve" font-family="HelveticaNeue" font-size="27.0" fill="#747373" transform="matrix(1.00, 0.00, -0.00, -1.00, 0.0, 439.2)">•</text><text xml:space="preserve" font-family="HelveticaNeue-Light" font-size="36.0" fill="#747373" transform="matrix(1.00, 0.00, -0.00, -1.00, 36.0, 436.0)">S</text><text xml:space="preserve" font-family="HelveticaNeue-Light" font-size="36.0" fill="#747373" transform="matrix(1.00, 0.00, -0.00, -1.00, 58.7, 436.0)">e</text><text xml:space="preserve" font-family="HelveticaNeue-Light" font-size="36.0" fill="#747373" transform="matrix(1.00, 0.00, -0.00, -1.00, 77.4, 436.0)">e</text><text xml:space="preserve" font-family="HelveticaNeue-Light" font-size="36.0" fill="#747373" transform="matrix(1.00, 0.00, -0.00, -1.00, 96.0, 436.0)"> </text><text xml:space="preserve" font-family="HelveticaNeue-Light" font-size="36.0" fill="#747373" transform="matrix(1.00, 0.00, -0.00, -1.00, 106.1, 436.0)">h</text><text xml:space="preserve" font-family="HelveticaNeue-Light" font-size="36.0" fill="#747373" transform="matrix(1.00, 0.00, -0.00, -1.00, 125.4, 436.0)">t</text><text xml:space="preserve" font-family="HelveticaNeue-Light" font-size="36.0" fill="#747373" transform="matrix(1.00, 0.00, -0.00, -1.00, 136.0, 436.0)">t</text><text xml:space="preserve" font-family="HelveticaNeue-Light" font-size="36.0" fill="#747373" transform="matrix(1.00, 0.00, -0.00, -1.00, 146.7, 436.0)">p</text><text xml:space="preserve" font-family="HelveticaNeue-Light" font-size="36.0" fill="#747373" transform="matrix(1.00, 0.00, -0.00, -1.00, 167.4, 436.0)">s</text><text xml:space="preserve" font-family="HelveticaNeue-Light" font-size="36.0" fill="#747373" transform="matrix(1.00, 0.00, -0.00, -1.00, 184.7, 436.0)">:</text><text xml:space="preserve" font-family="HelveticaNeue-Light" font-size="36.0" fill="#747373" transform="matrix(1.00, 0.00, -0.00, -1.00, 194.7, 436.0)">/</text><text xml:space="preserve" font-family="HelveticaNeue-Light" font-size="36.0" fill="#747373" transform="matrix(1.00, 0.00, -0.00, -1.00, 206.7, 436.0)">/</text><text xml:space="preserve" font-family="HelveticaNeue-Light" font-size="36.0" fill="#747373" transform="matrix(1.00, 0.00, -0.00, -1.00, 218.7, 436.0)">g</text><text xml:space="preserve" font-family="HelveticaNeue-Light" font-size="36.0" fill="#747373" transform="matrix(1.00, 0.00, -0.00, -1.00, 238.7, 436.0)">i</text><text xml:space="preserve" font-family="HelveticaNeue-Light" font-size="36.0" fill="#747373" transform="matrix(1.00, 0.00, -0.00, -1.00, 245.3, 436.0)">t</text><text xml:space="preserve" font-family="HelveticaNeue-Light" font-size="36.0" fill="#747373" transform="matrix(1.00, 0.00, -0.00, -1.00, 256.0, 436.0)">h</text><text xml:space="preserve" font-family="HelveticaNeue-Light" font-size="36.0" fill="#747373" transform="matrix(1.00, 0.00, -0.00, -1.00, 275.3, 436.0)">u</text><text xml:space="preserve" font-family="HelveticaNeue-Light" font-size="36.0" fill="#747373" transform="matrix(1.00, 0.00, -0.00, -1.00, 294.7, 436.0)">b</text><text xml:space="preserve" font-family="HelveticaNeue-Light" font-size="36.0" fill="#747373" transform="matrix(1.00, 0.00, -0.00, -1.00, 315.3, 436.0)">.</text><text xml:space="preserve" font-family="HelveticaNeue-Light" font-size="36.0" fill="#747373" transform="matrix(1.00, 0.00, -0.00, -1.00, 325.3, 436.0)">k</text><text xml:space="preserve" font-family="HelveticaNeue-Light" font-size="36.0" fill="#747373" transform="matrix(1.00, 0.00, -0.00, -1.00, 343.3, 436.0)">d</text><text xml:space="preserve" font-family="HelveticaNeue-Light" font-size="36.0" fill="#747373" transform="matrix(1.00, 0.00, -0.00, -1.00, 364.0, 436.0)">c</text><text xml:space="preserve" font-family="HelveticaNeue-Light" font-size="36.0" fill="#747373" transform="matrix(1.00, 0.00, -0.00, -1.00, 382.7, 436.0)">.</text><text xml:space="preserve" font-family="HelveticaNeue-Light" font-size="36.0" fill="#747373" transform="matrix(1.00, 0.00, -0.00, -1.00, 392.7, 436.0)">c</text><text xml:space="preserve" font-family="HelveticaNeue-Light" font-size="36.0" fill="#747373" transform="matrix(1.00, 0.00, -0.00, -1.00, 411.4, 436.0)">a</text><text xml:space="preserve" font-family="HelveticaNeue-Light" font-size="36.0" fill="#747373" transform="matrix(1.00, 0.00, -0.00, -1.00, 430.1, 436.0)">p</text><text xml:space="preserve" font-family="HelveticaNeue-Light" font-size="36.0" fill="#747373" transform="matrix(1.00, 0.00, -0.00, -1.00, 450.7, 436.0)">i</text><text xml:space="preserve" font-family="HelveticaNeue-Light" font-size="36.0" fill="#747373" transform="matrix(1.00, 0.00, -0.00, -1.00, 457.4, 436.0)">t</text><text xml:space="preserve" font-family="HelveticaNeue-Light" font-size="36.0" fill="#747373" transform="matrix(1.00, 0.00, -0.00, -1.00, 468.0, 436.0)">a</text><text xml:space="preserve" font-family="HelveticaNeue-Light" font-size="36.0" fill="#747373" transform="matrix(1.00, 0.00, -0.00, -1.00, 486.7, 436.0)">l</text><text xml:space="preserve" font-family="HelveticaNeue-Light" font-size="36.0" fill="#747373" transform="matrix(1.00, 0.00, -0.00, -1.00, 493.4, 436.0)">o</text><text xml:space="preserve" font-family="HelveticaNeue-Light" font-size="36.0" fill="#747373" transform="matrix(1.00, 0.00, -0.00, -1.00, 513.4, 436.0)">n</text><text xml:space="preserve" font-family="HelveticaNeue-Light" font-size="36.0" fill="#747373" transform="matrix(1.00, 0.00, -0.00, -1.00, 532.7, 436.0)">e</text><text xml:space="preserve" font-family="HelveticaNeue-Light" font-size="36.0" fill="#747373" transform="matrix(1.00, 0.00, -0.00, -1.00, 551.4, 436.0)">.</text><text xml:space="preserve" font-family="HelveticaNeue-Light" font-size="36.0" fill="#747373" transform="matrix(1.00, 0.00, -0.00, -1.00, 561.4, 436.0)">c</text><text xml:space="preserve" font-family="HelveticaNeue-Light" font-size="36.0" fill="#747373" transform="matrix(1.00, 0.00, -0.00, -1.00, 580.1, 436.0)">o</text><text xml:space="preserve" font-family="HelveticaNeue-Light" font-size="36.0" fill="#747373" transform="matrix(1.00, 0.00, -0.00, -1.00, 600.1, 436.0)">m</text><text xml:space="preserve" font-family="HelveticaNeue-Light" font-size="36.0" fill="#747373" transform="matrix(1.00, 0.00, -0.00, -1.00, 630.1, 436.0)">/</text><text xml:space="preserve" font-family="HelveticaNeue-Light" font-size="36.0" fill="#747373" transform="matrix(1.00, 0.00, -0.00, -1.00, 642.1, 436.0)">N</text><text xml:space="preserve" font-family="HelveticaNeue-Light" font-size="36.0" fill="#747373" transform="matrix(1.00, 0.00, -0.00, -1.00, 667.4, 436.0)">O</text><text xml:space="preserve" font-family="HelveticaNeue-Light" font-size="36.0" fill="#747373" transform="matrix(1.00, 0.00, -0.00, -1.00, 694.1, 436.0)">S</text><text xml:space="preserve" font-family="HelveticaNeue-Light" font-size="36.0" fill="#747373" transform="matrix(1.00, 0.00, -0.00, -1.00, 716.8, 436.0)">Q</text><text xml:space="preserve" font-family="HelveticaNeue-Light" font-size="36.0" fill="#747373" transform="matrix(1.00, 0.00, -0.00, -1.00, 743.5, 436.0)">L</text><text xml:space="preserve" font-family="HelveticaNeue-Light" font-size="36.0" fill="#747373" transform="matrix(1.00, 0.00, -0.00, -1.00, 762.8, 436.0)">/</text><text xml:space="preserve" font-family="HelveticaNeue-Light" font-size="36.0" fill="#747373" transform="matrix(1.00, 0.00, -0.00, -1.00, 36.0, 392.0)">c</text><text xml:space="preserve" font-family="HelveticaNeue-Light" font-size="36.0" fill="#747373" transform="matrix(1.00, 0.00, -0.00, -1.00, 54.7, 392.0)">h</text><text xml:space="preserve" font-family="HelveticaNeue-Light" font-size="36.0" fill="#747373" transform="matrix(1.00, 0.00, -0.00, -1.00, 74.0, 392.0)">r</text><text xml:space="preserve" font-family="HelveticaNeue-Light" font-size="36.0" fill="#747373" transform="matrix(1.00, 0.00, -0.00, -1.00, 84.7, 392.0)">o</text><text xml:space="preserve" font-family="HelveticaNeue-Light" font-size="36.0" fill="#747373" transform="matrix(1.00, 0.00, -0.00, -1.00, 104.7, 392.0)">m</text><text xml:space="preserve" font-family="HelveticaNeue-Light" font-size="36.0" fill="#747373" transform="matrix(1.00, 0.00, -0.00, -1.00, 134.7, 392.0)">o</text><text xml:space="preserve" font-family="HelveticaNeue-Light" font-size="36.0" fill="#747373" transform="matrix(1.00, 0.00, -0.00, -1.00, 154.7, 392.0)">b</text><text xml:space="preserve" font-family="HelveticaNeue-Light" font-size="36.0" fill="#747373" transform="matrix(1.00, 0.00, -0.00, -1.00, 175.4, 392.0)">o</text><text xml:space="preserve" font-family="HelveticaNeue-Light" font-size="36.0" fill="#747373" transform="matrix(1.00, 0.00, -0.00, -1.00, 195.4, 392.0)">t</text><text xml:space="preserve" font-family="HelveticaNeue-Light" font-size="36.0" fill="#747373" transform="matrix(1.00, 0.00, -0.00, -1.00, 206.1, 392.0)">i</text><text xml:space="preserve" font-family="HelveticaNeue-Light" font-size="36.0" fill="#747373" transform="matrix(1.00, 0.00, -0.00, -1.00, 212.7, 392.0)">a</text><text xml:space="preserve" font-family="HelveticaNeue-Light" font-size="36.0" fill="#747373" transform="matrix(1.00, 0.00, -0.00, -1.00, 231.4, 392.0)"> </text><text xml:space="preserve" font-family="HelveticaNeue" font-size="27.0" fill="#747373" transform="matrix(1.00, 0.00, -0.00, -1.00, 0.0, 309.2)">•</text><text xml:space="preserve" font-family="HelveticaNeue-Light" font-size="36.0" fill="#747373" transform="matrix(1.00, 0.00, -0.00, -1.00, 36.0, 306.0)">T</text><text xml:space="preserve" font-family="HelveticaNeue-Light" font-size="36.0" fill="#747373" transform="matrix(1.00, 0.00, -0.00, -1.00, 56.0, 306.0)">h</text><text xml:space="preserve" font-family="HelveticaNeue-Light" font-size="36.0" fill="#747373" transform="matrix(1.00, 0.00, -0.00, -1.00, 75.3, 306.0)">i</text><text xml:space="preserve" font-family="HelveticaNeue-Light" font-size="36.0" fill="#747373" transform="matrix(1.00, 0.00, -0.00, -1.00, 82.0, 306.0)">s</text><text xml:space="preserve" font-family="HelveticaNeue-Light" font-size="36.0" fill="#747373" transform="matrix(1.00, 0.00, -0.00, -1.00, 99.3, 306.0)"> </text><text xml:space="preserve" font-family="HelveticaNeue-Light" font-size="36.0" fill="#747373" transform="matrix(1.00, 0.00, -0.00, -1.00, 109.3, 306.0)">h</text><text xml:space="preserve" font-family="HelveticaNeue-Light" font-size="36.0" fill="#747373" transform="matrix(1.00, 0.00, -0.00, -1.00, 128.7, 306.0)">a</text><text xml:space="preserve" font-family="HelveticaNeue-Light" font-size="36.0" fill="#747373" transform="matrix(1.00, 0.00, -0.00, -1.00, 147.3, 306.0)">s</text><text xml:space="preserve" font-family="HelveticaNeue-Light" font-size="36.0" fill="#747373" transform="matrix(1.00, 0.00, -0.00, -1.00, 164.7, 306.0)"> </text><text xml:space="preserve" font-family="HelveticaNeue-Light" font-size="36.0" fill="#747373" transform="matrix(1.00, 0.00, -0.00, -1.00, 174.7, 306.0)">t</text><text xml:space="preserve" font-family="HelveticaNeue-Light" font-size="36.0" fill="#747373" transform="matrix(1.00, 0.00, -0.00, -1.00, 185.3, 306.0)">o</text><text xml:space="preserve" font-family="HelveticaNeue-Light" font-size="36.0" fill="#747373" transform="matrix(1.00, 0.00, -0.00, -1.00, 205.3, 306.0)">o</text><text xml:space="preserve" font-family="HelveticaNeue-Light" font-size="36.0" fill="#747373" transform="matrix(1.00, 0.00, -0.00, -1.00, 225.4, 306.0)">l</text><text xml:space="preserve" font-family="HelveticaNeue-Light" font-size="36.0" fill="#747373" transform="matrix(1.00, 0.00, -0.00, -1.00, 232.0, 306.0)">s</text><text xml:space="preserve" font-family="HelveticaNeue-Light" font-size="36.0" fill="#747373" transform="matrix(1.00, 0.00, -0.00, -1.00, 249.3, 306.0)"> </text><text xml:space="preserve" font-family="HelveticaNeue-Light" font-size="36.0" fill="#747373" transform="matrix(1.00, 0.00, -0.00, -1.00, 259.3, 306.0)">t</text><text xml:space="preserve" font-family="HelveticaNeue-Light" font-size="36.0" fill="#747373" transform="matrix(1.00, 0.00, -0.00, -1.00, 270.0, 306.0)">o</text><text xml:space="preserve" font-family="HelveticaNeue-Light" font-size="36.0" fill="#747373" transform="matrix(1.00, 0.00, -0.00, -1.00, 290.0, 306.0)"> </text><text xml:space="preserve" font-family="HelveticaNeue-Light" font-size="36.0" fill="#747373" transform="matrix(1.00, 0.00, -0.00, -1.00, 300.0, 306.0)">c</text><text xml:space="preserve" font-family="HelveticaNeue-Light" font-size="36.0" fill="#747373" transform="matrix(1.00, 0.00, -0.00, -1.00, 318.7, 306.0)">o</text><text xml:space="preserve" font-family="HelveticaNeue-Light" font-size="36.0" fill="#747373" transform="matrix(1.00, 0.00, -0.00, -1.00, 338.7, 306.0)">n</text><text xml:space="preserve" font-family="HelveticaNeue-Light" font-size="36.0" fill="#747373" transform="matrix(1.00, 0.00, -0.00, -1.00, 358.1, 306.0)">v</text><text xml:space="preserve" font-family="HelveticaNeue-Light" font-size="36.0" fill="#747373" transform="matrix(1.00, 0.00, -0.00, -1.00, 374.7, 306.0)">e</text><text xml:space="preserve" font-family="HelveticaNeue-Light" font-size="36.0" fill="#747373" transform="matrix(1.00, 0.00, -0.00, -1.00, 393.4, 306.0)">r</text><text xml:space="preserve" font-family="HelveticaNeue-Light" font-size="36.0" fill="#747373" transform="matrix(1.00, 0.00, -0.00, -1.00, 404.7, 306.0)">t</text><text xml:space="preserve" font-family="HelveticaNeue-Light" font-size="36.0" fill="#747373" transform="matrix(1.00, 0.00, -0.00, -1.00, 415.4, 306.0)"> </text><text xml:space="preserve" font-family="HelveticaNeue-Light" font-size="36.0" fill="#747373" transform="matrix(1.00, 0.00, -0.00, -1.00, 425.4, 306.0)">f</text><text xml:space="preserve" font-family="HelveticaNeue-Light" font-size="36.0" fill="#747373" transform="matrix(1.00, 0.00, -0.00, -1.00, 434.7, 306.0)">r</text><text xml:space="preserve" font-family="HelveticaNeue-Light" font-size="36.0" fill="#747373" transform="matrix(1.00, 0.00, -0.00, -1.00, 445.4, 306.0)">o</text><text xml:space="preserve" font-family="HelveticaNeue-Light" font-size="36.0" fill="#747373" transform="matrix(1.00, 0.00, -0.00, -1.00, 465.4, 306.0)">m</text><text xml:space="preserve" font-family="HelveticaNeue-Light" font-size="36.0" fill="#747373" transform="matrix(1.00, 0.00, -0.00, -1.00, 495.4, 306.0)"> </text><text xml:space="preserve" font-family="HelveticaNeue-Light" font-size="36.0" fill="#747373" transform="matrix(1.00, 0.00, -0.00, -1.00, 505.4, 306.0)">J</text><text xml:space="preserve" font-family="HelveticaNeue-Light" font-size="36.0" fill="#747373" transform="matrix(1.00, 0.00, -0.00, -1.00, 523.4, 306.0)">a</text><text xml:space="preserve" font-family="HelveticaNeue-Light" font-size="36.0" fill="#747373" transform="matrix(1.00, 0.00, -0.00, -1.00, 542.1, 306.0)">v</text><text xml:space="preserve" font-family="HelveticaNeue-Light" font-size="36.0" fill="#747373" transform="matrix(1.00, 0.00, -0.00, -1.00, 558.8, 306.0)">a</text><text xml:space="preserve" font-family="HelveticaNeue-Light" font-size="36.0" fill="#747373" transform="matrix(1.00, 0.00, -0.00, -1.00, 577.5, 306.0)"> </text><text xml:space="preserve" font-family="HelveticaNeue-Light" font-size="36.0" fill="#747373" transform="matrix(1.00, 0.00, -0.00, -1.00, 587.5, 306.0)">c</text><text xml:space="preserve" font-family="HelveticaNeue-Light" font-size="36.0" fill="#747373" transform="matrix(1.00, 0.00, -0.00, -1.00, 606.2, 306.0)">l</text><text xml:space="preserve" font-family="HelveticaNeue-Light" font-size="36.0" fill="#747373" transform="matrix(1.00, 0.00, -0.00, -1.00, 612.8, 306.0)">a</text><text xml:space="preserve" font-family="HelveticaNeue-Light" font-size="36.0" fill="#747373" transform="matrix(1.00, 0.00, -0.00, -1.00, 631.5, 306.0)">s</text><text xml:space="preserve" font-family="HelveticaNeue-Light" font-size="36.0" fill="#747373" transform="matrix(1.00, 0.00, -0.00, -1.00, 648.8, 306.0)">s</text><text xml:space="preserve" font-family="HelveticaNeue-Light" font-size="36.0" fill="#747373" transform="matrix(1.00, 0.00, -0.00, -1.00, 666.1, 306.0)">e</text><text xml:space="preserve" font-family="HelveticaNeue-Light" font-size="36.0" fill="#747373" transform="matrix(1.00, 0.00, -0.00, -1.00, 684.8, 306.0)">s</text><text xml:space="preserve" font-family="HelveticaNeue-Light" font-size="36.0" fill="#747373" transform="matrix(1.00, 0.00, -0.00, -1.00, 702.1, 306.0)"> </text><text xml:space="preserve" font-family="HelveticaNeue-Light" font-size="36.0" fill="#747373" transform="matrix(1.00, 0.00, -0.00, -1.00, 712.2, 306.0)">t</text><text xml:space="preserve" font-family="HelveticaNeue-Light" font-size="36.0" fill="#747373" transform="matrix(1.00, 0.00, -0.00, -1.00, 722.8, 306.0)">o</text><text xml:space="preserve" font-family="HelveticaNeue-Light" font-size="36.0" fill="#747373" transform="matrix(1.00, 0.00, -0.00, -1.00, 742.8, 306.0)"> </text><text xml:space="preserve" font-family="HelveticaNeue-Light" font-size="36.0" fill="#747373" transform="matrix(1.00, 0.00, -0.00, -1.00, 752.8, 306.0)">J</text><text xml:space="preserve" font-family="HelveticaNeue-Light" font-size="36.0" fill="#747373" transform="matrix(1.00, 0.00, -0.00, -1.00, 770.8, 306.0)">S</text><text xml:space="preserve" font-family="HelveticaNeue-Light" font-size="36.0" fill="#747373" transform="matrix(1.00, 0.00, -0.00, -1.00, 793.5, 306.0)">O</text><text xml:space="preserve" font-family="HelveticaNeue-Light" font-size="36.0" fill="#747373" transform="matrix(1.00, 0.00, -0.00, -1.00, 820.2, 306.0)">N</text><text xml:space="preserve" font-family="HelveticaNeue-Light" font-size="36.0" fill="#747373" transform="matrix(1.00, 0.00, -0.00, -1.00, 845.5, 306.0)"> </text><text xml:space="preserve" font-family="HelveticaNeue-Light" font-size="36.0" fill="#747373" transform="matrix(1.00, 0.00, -0.00, -1.00, 36.0, 262.0)">S</text><text xml:space="preserve" font-family="HelveticaNeue-Light" font-size="36.0" fill="#747373" transform="matrix(1.00, 0.00, -0.00, -1.00, 58.7, 262.0)">c</text><text xml:space="preserve" font-family="HelveticaNeue-Light" font-size="36.0" fill="#747373" transform="matrix(1.00, 0.00, -0.00, -1.00, 77.4, 262.0)">h</text><text xml:space="preserve" font-family="HelveticaNeue-Light" font-size="36.0" fill="#747373" transform="matrix(1.00, 0.00, -0.00, -1.00, 96.7, 262.0)">e</text><text xml:space="preserve" font-family="HelveticaNeue-Light" font-size="36.0" fill="#747373" transform="matrix(1.00, 0.00, -0.00, -1.00, 115.4, 262.0)">m</text><text xml:space="preserve" font-family="HelveticaNeue-Light" font-size="36.0" fill="#747373" transform="matrix(1.00, 0.00, -0.00, -1.00, 145.4, 262.0)">a</text><text xml:space="preserve" font-family="HelveticaNeue-Light" font-size="36.0" fill="#747373" transform="matrix(1.00, 0.00, -0.00, -1.00, 164.1, 262.0)"> </text><text xml:space="preserve" font-family="HelveticaNeue" font-size="27.0" fill="#747373" transform="matrix(1.00, 0.00, -0.00, -1.00, 0.0, 179.2)">•</text><text xml:space="preserve" font-family="HelveticaNeue-Light" font-size="36.0" fill="#747373" transform="matrix(1.00, 0.00, -0.00, -1.00, 36.0, 176.0)">I</text><text xml:space="preserve" font-family="HelveticaNeue-Light" font-size="36.0" fill="#747373" transform="matrix(1.00, 0.00, -0.00, -1.00, 44.0, 176.0)">t</text><text xml:space="preserve" font-family="HelveticaNeue-Light" font-size="36.0" fill="#747373" transform="matrix(1.00, 0.00, -0.00, -1.00, 54.6, 176.0)">’</text><text xml:space="preserve" font-family="HelveticaNeue-Light" font-size="36.0" fill="#747373" transform="matrix(1.00, 0.00, -0.00, -1.00, 60.7, 176.0)">s</text><text xml:space="preserve" font-family="HelveticaNeue-Light" font-size="36.0" fill="#747373" transform="matrix(1.00, 0.00, -0.00, -1.00, 78.0, 176.0)"> </text><text xml:space="preserve" font-family="HelveticaNeue-Light" font-size="36.0" fill="#747373" transform="matrix(1.00, 0.00, -0.00, -1.00, 88.0, 176.0)">a</text><text xml:space="preserve" font-family="HelveticaNeue-Light" font-size="36.0" fill="#747373" transform="matrix(1.00, 0.00, -0.00, -1.00, 106.7, 176.0)">l</text><text xml:space="preserve" font-family="HelveticaNeue-Light" font-size="36.0" fill="#747373" transform="matrix(1.00, 0.00, -0.00, -1.00, 113.3, 176.0)">s</text><text xml:space="preserve" font-family="HelveticaNeue-Light" font-size="36.0" fill="#747373" transform="matrix(1.00, 0.00, -0.00, -1.00, 130.6, 176.0)">o</text><text xml:space="preserve" font-family="HelveticaNeue-Light" font-size="36.0" fill="#747373" transform="matrix(1.00, 0.00, -0.00, -1.00, 150.7, 176.0)"> </text><text xml:space="preserve" font-family="HelveticaNeue-Light" font-size="36.0" fill="#747373" transform="matrix(1.00, 0.00, -0.00, -1.00, 160.7, 176.0)">p</text><text xml:space="preserve" font-family="HelveticaNeue-Light" font-size="36.0" fill="#747373" transform="matrix(1.00, 0.00, -0.00, -1.00, 181.3, 176.0)">o</text><text xml:space="preserve" font-family="HelveticaNeue-Light" font-size="36.0" fill="#747373" transform="matrix(1.00, 0.00, -0.00, -1.00, 201.3, 176.0)">s</text><text xml:space="preserve" font-family="HelveticaNeue-Light" font-size="36.0" fill="#747373" transform="matrix(1.00, 0.00, -0.00, -1.00, 218.7, 176.0)">s</text><text xml:space="preserve" font-family="HelveticaNeue-Light" font-size="36.0" fill="#747373" transform="matrix(1.00, 0.00, -0.00, -1.00, 236.0, 176.0)">i</text><text xml:space="preserve" font-family="HelveticaNeue-Light" font-size="36.0" fill="#747373" transform="matrix(1.00, 0.00, -0.00, -1.00, 242.6, 176.0)">b</text><text xml:space="preserve" font-family="HelveticaNeue-Light" font-size="36.0" fill="#747373" transform="matrix(1.00, 0.00, -0.00, -1.00, 263.3, 176.0)">l</text><text xml:space="preserve" font-family="HelveticaNeue-Light" font-size="36.0" fill="#747373" transform="matrix(1.00, 0.00, -0.00, -1.00, 270.0, 176.0)">e</text><text xml:space="preserve" font-family="HelveticaNeue-Light" font-size="36.0" fill="#747373" transform="matrix(1.00, 0.00, -0.00, -1.00, 288.6, 176.0)"> </text><text xml:space="preserve" font-family="HelveticaNeue-Light" font-size="36.0" fill="#747373" transform="matrix(1.00, 0.00, -0.00, -1.00, 298.7, 176.0)">t</text><text xml:space="preserve" font-family="HelveticaNeue-Light" font-size="36.0" fill="#747373" transform="matrix(1.00, 0.00, -0.00, -1.00, 309.3, 176.0)">o</text><text xml:space="preserve" font-family="HelveticaNeue-Light" font-size="36.0" fill="#747373" transform="matrix(1.00, 0.00, -0.00, -1.00, 329.3, 176.0)"> </text><text xml:space="preserve" font-family="HelveticaNeue-Light" font-size="36.0" fill="#747373" transform="matrix(1.00, 0.00, -0.00, -1.00, 339.3, 176.0)">b</text><text xml:space="preserve" font-family="HelveticaNeue-Light" font-size="36.0" fill="#747373" transform="matrix(1.00, 0.00, -0.00, -1.00, 360.0, 176.0)">u</text><text xml:space="preserve" font-family="HelveticaNeue-Light" font-size="36.0" fill="#747373" transform="matrix(1.00, 0.00, -0.00, -1.00, 379.3, 176.0)">i</text><text xml:space="preserve" font-family="HelveticaNeue-Light" font-size="36.0" fill="#747373" transform="matrix(1.00, 0.00, -0.00, -1.00, 386.0, 176.0)">l</text><text xml:space="preserve" font-family="HelveticaNeue-Light" font-size="36.0" fill="#747373" transform="matrix(1.00, 0.00, -0.00, -1.00, 392.7, 176.0)">d</text><text xml:space="preserve" font-family="HelveticaNeue-Light" font-size="36.0" fill="#747373" transform="matrix(1.00, 0.00, -0.00, -1.00, 413.3, 176.0)"> </text><text xml:space="preserve" font-family="HelveticaNeue-Light" font-size="36.0" fill="#747373" transform="matrix(1.00, 0.00, -0.00, -1.00, 423.3, 176.0)">J</text><text xml:space="preserve" font-family="HelveticaNeue-Light" font-size="36.0" fill="#747373" transform="matrix(1.00, 0.00, -0.00, -1.00, 441.3, 176.0)">a</text><text xml:space="preserve" font-family="HelveticaNeue-Light" font-size="36.0" fill="#747373" transform="matrix(1.00, 0.00, -0.00, -1.00, 460.0, 176.0)">v</text><text xml:space="preserve" font-family="HelveticaNeue-Light" font-size="36.0" fill="#747373" transform="matrix(1.00, 0.00, -0.00, -1.00, 476.7, 176.0)">a</text><text xml:space="preserve" font-family="HelveticaNeue-Light" font-size="36.0" fill="#747373" transform="matrix(1.00, 0.00, -0.00, -1.00, 495.4, 176.0)"> </text><text xml:space="preserve" font-family="HelveticaNeue-Light" font-size="36.0" fill="#747373" transform="matrix(1.00, 0.00, -0.00, -1.00, 505.4, 176.0)">c</text><text xml:space="preserve" font-family="HelveticaNeue-Light" font-size="36.0" fill="#747373" transform="matrix(1.00, 0.00, -0.00, -1.00, 524.1, 176.0)">l</text><text xml:space="preserve" font-family="HelveticaNeue-Light" font-size="36.0" fill="#747373" transform="matrix(1.00, 0.00, -0.00, -1.00, 530.7, 176.0)">a</text><text xml:space="preserve" font-family="HelveticaNeue-Light" font-size="36.0" fill="#747373" transform="matrix(1.00, 0.00, -0.00, -1.00, 549.4, 176.0)">s</text><text xml:space="preserve" font-family="HelveticaNeue-Light" font-size="36.0" fill="#747373" transform="matrix(1.00, 0.00, -0.00, -1.00, 566.7, 176.0)">s</text><text xml:space="preserve" font-family="HelveticaNeue-Light" font-size="36.0" fill="#747373" transform="matrix(1.00, 0.00, -0.00, -1.00, 584.0, 176.0)">e</text><text xml:space="preserve" font-family="HelveticaNeue-Light" font-size="36.0" fill="#747373" transform="matrix(1.00, 0.00, -0.00, -1.00, 602.7, 176.0)">s</text><text xml:space="preserve" font-family="HelveticaNeue-Light" font-size="36.0" fill="#747373" transform="matrix(1.00, 0.00, -0.00, -1.00, 620.0, 176.0)"> </text><text xml:space="preserve" font-family="HelveticaNeue-Light" font-size="36.0" fill="#747373" transform="matrix(1.00, 0.00, -0.00, -1.00, 630.0, 176.0)">f</text><text xml:space="preserve" font-family="HelveticaNeue-Light" font-size="36.0" fill="#747373" transform="matrix(1.00, 0.00, -0.00, -1.00, 639.4, 176.0)">r</text><text xml:space="preserve" font-family="HelveticaNeue-Light" font-size="36.0" fill="#747373" transform="matrix(1.00, 0.00, -0.00, -1.00, 650.1, 176.0)">o</text><text xml:space="preserve" font-family="HelveticaNeue-Light" font-size="36.0" fill="#747373" transform="matrix(1.00, 0.00, -0.00, -1.00, 670.1, 176.0)">m</text><text xml:space="preserve" font-family="HelveticaNeue-Light" font-size="36.0" fill="#747373" transform="matrix(1.00, 0.00, -0.00, -1.00, 700.1, 176.0)"> </text><text xml:space="preserve" font-family="HelveticaNeue-Light" font-size="36.0" fill="#747373" transform="matrix(1.00, 0.00, -0.00, -1.00, 710.1, 176.0)">J</text><text xml:space="preserve" font-family="HelveticaNeue-Light" font-size="36.0" fill="#747373" transform="matrix(1.00, 0.00, -0.00, -1.00, 728.1, 176.0)">S</text><text xml:space="preserve" font-family="HelveticaNeue-Light" font-size="36.0" fill="#747373" transform="matrix(1.00, 0.00, -0.00, -1.00, 750.7, 176.0)">O</text><text xml:space="preserve" font-family="HelveticaNeue-Light" font-size="36.0" fill="#747373" transform="matrix(1.00, 0.00, -0.00, -1.00, 777.4, 176.0)">N</text><text xml:space="preserve" font-family="HelveticaNeue-Light" font-size="36.0" fill="#747373" transform="matrix(1.00, 0.00, -0.00, -1.00, 802.8, 176.0)"> </text><text xml:space="preserve" font-family="HelveticaNeue-Light" font-size="36.0" fill="#747373" transform="matrix(1.00, 0.00, -0.00, -1.00, 36.0, 132.0)">S</text><text xml:space="preserve" font-family="HelveticaNeue-Light" font-size="36.0" fill="#747373" transform="matrix(1.00, 0.00, -0.00, -1.00, 58.7, 132.0)">c</text><text xml:space="preserve" font-family="HelveticaNeue-Light" font-size="36.0" fill="#747373" transform="matrix(1.00, 0.00, -0.00, -1.00, 77.4, 132.0)">h</text><text xml:space="preserve" font-family="HelveticaNeue-Light" font-size="36.0" fill="#747373" transform="matrix(1.00, 0.00, -0.00, -1.00, 96.7, 132.0)">e</text><text xml:space="preserve" font-family="HelveticaNeue-Light" font-size="36.0" fill="#747373" transform="matrix(1.00, 0.00, -0.00, -1.00, 115.4, 132.0)">m</text><text xml:space="preserve" font-family="HelveticaNeue-Light" font-size="36.0" fill="#747373" transform="matrix(1.00, 0.00, -0.00, -1.00, 145.4, 132.0)">a</text><text xml:space="preserve" font-family="HelveticaNeue-Light" font-size="36.0" fill="#747373" transform="matrix(1.00, 0.00, -0.00, -1.00, 164.1, 132.0)"> </text><text xml:space="preserve" font-family="HelveticaNeue" font-size="27.0" fill="#747373" transform="matrix(1.00, 0.00, -0.00, -1.00, 0.0, 49.2)">•</text><text xml:space="preserve" font-family="HelveticaNeue-Light" font-size="36.0" fill="#747373" transform="matrix(1.00, 0.00, -0.00, -1.00, 36.0, 46.0)">T</text><text xml:space="preserve" font-family="HelveticaNeue-Light" font-size="36.0" fill="#747373" transform="matrix(1.00, 0.00, -0.00, -1.00, 56.0, 46.0)">h</text><text xml:space="preserve" font-family="HelveticaNeue-Light" font-size="36.0" fill="#747373" transform="matrix(1.00, 0.00, -0.00, -1.00, 75.3, 46.0)">i</text><text xml:space="preserve" font-family="HelveticaNeue-Light" font-size="36.0" fill="#747373" transform="matrix(1.00, 0.00, -0.00, -1.00, 82.0, 46.0)">s</text><text xml:space="preserve" font-family="HelveticaNeue-Light" font-size="36.0" fill="#747373" transform="matrix(1.00, 0.00, -0.00, -1.00, 99.3, 46.0)"> </text><text xml:space="preserve" font-family="HelveticaNeue-Light" font-size="36.0" fill="#747373" transform="matrix(1.00, 0.00, -0.00, -1.00, 109.3, 46.0)">m</text><text xml:space="preserve" font-family="HelveticaNeue-Light" font-size="36.0" fill="#747373" transform="matrix(1.00, 0.00, -0.00, -1.00, 139.3, 46.0)">e</text><text xml:space="preserve" font-family="HelveticaNeue-Light" font-size="36.0" fill="#747373" transform="matrix(1.00, 0.00, -0.00, -1.00, 158.0, 46.0)">a</text><text xml:space="preserve" font-family="HelveticaNeue-Light" font-size="36.0" fill="#747373" transform="matrix(1.00, 0.00, -0.00, -1.00, 176.7, 46.0)">n</text><text xml:space="preserve" font-family="HelveticaNeue-Light" font-size="36.0" fill="#747373" transform="matrix(1.00, 0.00, -0.00, -1.00, 196.0, 46.0)">s</text><text xml:space="preserve" font-family="HelveticaNeue-Light" font-size="36.0" fill="#747373" transform="matrix(1.00, 0.00, -0.00, -1.00, 213.3, 46.0)"> </text><text xml:space="preserve" font-family="HelveticaNeue-Light" font-size="36.0" fill="#747373" transform="matrix(1.00, 0.00, -0.00, -1.00, 223.3, 46.0)">t</text><text xml:space="preserve" font-family="HelveticaNeue-Light" font-size="36.0" fill="#747373" transform="matrix(1.00, 0.00, -0.00, -1.00, 234.0, 46.0)">h</text><text xml:space="preserve" font-family="HelveticaNeue-Light" font-size="36.0" fill="#747373" transform="matrix(1.00, 0.00, -0.00, -1.00, 253.3, 46.0)">a</text><text xml:space="preserve" font-family="HelveticaNeue-Light" font-size="36.0" fill="#747373" transform="matrix(1.00, 0.00, -0.00, -1.00, 272.0, 46.0)">t</text><text xml:space="preserve" font-family="HelveticaNeue-Light" font-size="36.0" fill="#747373" transform="matrix(1.00, 0.00, -0.00, -1.00, 282.7, 46.0)"> </text><text xml:space="preserve" font-family="HelveticaNeue-Light" font-size="36.0" fill="#747373" transform="matrix(1.00, 0.00, -0.00, -1.00, 292.7, 46.0)">P</text><text xml:space="preserve" font-family="HelveticaNeue-Light" font-size="36.0" fill="#747373" transform="matrix(1.00, 0.00, -0.00, -1.00, 315.4, 46.0)">y</text><text xml:space="preserve" font-family="HelveticaNeue-Light" font-size="36.0" fill="#747373" transform="matrix(1.00, 0.00, -0.00, -1.00, 332.0, 46.0)">t</text><text xml:space="preserve" font-family="HelveticaNeue-Light" font-size="36.0" fill="#747373" transform="matrix(1.00, 0.00, -0.00, -1.00, 342.7, 46.0)">h</text><text xml:space="preserve" font-family="HelveticaNeue-Light" font-size="36.0" fill="#747373" transform="matrix(1.00, 0.00, -0.00, -1.00, 362.0, 46.0)">o</text><text xml:space="preserve" font-family="HelveticaNeue-Light" font-size="36.0" fill="#747373" transform="matrix(1.00, 0.00, -0.00, -1.00, 382.0, 46.0)">n</text><text xml:space="preserve" font-family="HelveticaNeue-Light" font-size="36.0" fill="#747373" transform="matrix(1.00, 0.00, -0.00, -1.00, 401.4, 46.0)"> </text><text xml:space="preserve" font-family="HelveticaNeue-Light" font-size="36.0" fill="#747373" transform="matrix(1.00, 0.00, -0.00, -1.00, 411.4, 46.0)">a</text><text xml:space="preserve" font-family="HelveticaNeue-Light" font-size="36.0" fill="#747373" transform="matrix(1.00, 0.00, -0.00, -1.00, 430.1, 46.0)">n</text><text xml:space="preserve" font-family="HelveticaNeue-Light" font-size="36.0" fill="#747373" transform="matrix(1.00, 0.00, -0.00, -1.00, 449.4, 46.0)">a</text><text xml:space="preserve" font-family="HelveticaNeue-Light" font-size="36.0" fill="#747373" transform="matrix(1.00, 0.00, -0.00, -1.00, 468.1, 46.0)">l</text><text xml:space="preserve" font-family="HelveticaNeue-Light" font-size="36.0" fill="#747373" transform="matrix(1.00, 0.00, -0.00, -1.00, 474.7, 46.0)">y</text><text xml:space="preserve" font-family="HelveticaNeue-Light" font-size="36.0" fill="#747373" transform="matrix(1.00, 0.00, -0.00, -1.00, 491.4, 46.0)">t</text><text xml:space="preserve" font-family="HelveticaNeue-Light" font-size="36.0" fill="#747373" transform="matrix(1.00, 0.00, -0.00, -1.00, 502.1, 46.0)">i</text><text xml:space="preserve" font-family="HelveticaNeue-Light" font-size="36.0" fill="#747373" transform="matrix(1.00, 0.00, -0.00, -1.00, 508.7, 46.0)">c</text><text xml:space="preserve" font-family="HelveticaNeue-Light" font-size="36.0" fill="#747373" transform="matrix(1.00, 0.00, -0.00, -1.00, 527.4, 46.0)">s</text><text xml:space="preserve" font-family="HelveticaNeue-Light" font-size="36.0" fill="#747373" transform="matrix(1.00, 0.00, -0.00, -1.00, 544.7, 46.0)"> </text><text xml:space="preserve" font-family="HelveticaNeue-Light" font-size="36.0" fill="#747373" transform="matrix(1.00, 0.00, -0.00, -1.00, 554.7, 46.0)">c</text><text xml:space="preserve" font-family="HelveticaNeue-Light" font-size="36.0" fill="#747373" transform="matrix(1.00, 0.00, -0.00, -1.00, 573.4, 46.0)">a</text><text xml:space="preserve" font-family="HelveticaNeue-Light" font-size="36.0" fill="#747373" transform="matrix(1.00, 0.00, -0.00, -1.00, 592.1, 46.0)">n</text><text xml:space="preserve" font-family="HelveticaNeue-Light" font-size="36.0" fill="#747373" transform="matrix(1.00, 0.00, -0.00, -1.00, 611.4, 46.0)"> </text><text xml:space="preserve" font-family="HelveticaNeue-Light" font-size="36.0" fill="#747373" transform="matrix(1.00, 0.00, -0.00, -1.00, 621.4, 46.0)">e</text><text xml:space="preserve" font-family="HelveticaNeue-Light" font-size="36.0" fill="#747373" transform="matrix(1.00, 0.00, -0.00, -1.00, 640.1, 46.0)">a</text><text xml:space="preserve" font-family="HelveticaNeue-Light" font-size="36.0" fill="#747373" transform="matrix(1.00, 0.00, -0.00, -1.00, 658.8, 46.0)">s</text><text xml:space="preserve" font-family="HelveticaNeue-Light" font-size="36.0" fill="#747373" transform="matrix(1.00, 0.00, -0.00, -1.00, 676.1, 46.0)">i</text><text xml:space="preserve" font-family="HelveticaNeue-Light" font-size="36.0" fill="#747373" transform="matrix(1.00, 0.00, -0.00, -1.00, 682.8, 46.0)">l</text><text xml:space="preserve" font-family="HelveticaNeue-Light" font-size="36.0" fill="#747373" transform="matrix(1.00, 0.00, -0.00, -1.00, 689.4, 46.0)">y</text><text xml:space="preserve" font-family="HelveticaNeue-Light" font-size="36.0" fill="#747373" transform="matrix(1.00, 0.00, -0.00, -1.00, 706.1, 46.0)"> </text><text xml:space="preserve" font-family="HelveticaNeue-Light" font-size="36.0" fill="#747373" transform="matrix(1.00, 0.00, -0.00, -1.00, 716.1, 46.0)">c</text><text xml:space="preserve" font-family="HelveticaNeue-Light" font-size="36.0" fill="#747373" transform="matrix(1.00, 0.00, -0.00, -1.00, 734.8, 46.0)">o</text><text xml:space="preserve" font-family="HelveticaNeue-Light" font-size="36.0" fill="#747373" transform="matrix(1.00, 0.00, -0.00, -1.00, 754.8, 46.0)">e</text><text xml:space="preserve" font-family="HelveticaNeue-Light" font-size="36.0" fill="#747373" transform="matrix(1.00, 0.00, -0.00, -1.00, 773.5, 46.0)">x</text><text xml:space="preserve" font-family="HelveticaNeue-Light" font-size="36.0" fill="#747373" transform="matrix(1.00, 0.00, -0.00, -1.00, 790.8, 46.0)">i</text><text xml:space="preserve" font-family="HelveticaNeue-Light" font-size="36.0" fill="#747373" transform="matrix(1.00, 0.00, -0.00, -1.00, 797.5, 46.0)">s</text><text xml:space="preserve" font-family="HelveticaNeue-Light" font-size="36.0" fill="#747373" transform="matrix(1.00, 0.00, -0.00, -1.00, 814.8, 46.0)">t</text><text xml:space="preserve" font-family="HelveticaNeue-Light" font-size="36.0" fill="#747373" transform="matrix(1.00, 0.00, -0.00, -1.00, 825.4, 46.0)"> </text><text xml:space="preserve" font-family="HelveticaNeue-Light" font-size="36.0" fill="#747373" transform="matrix(1.00, 0.00, -0.00, -1.00, 835.5, 46.0)">w</text><text xml:space="preserve" font-family="HelveticaNeue-Light" font-size="36.0" fill="#747373" transform="matrix(1.00, 0.00, -0.00, -1.00, 862.1, 46.0)">i</text><text xml:space="preserve" font-family="HelveticaNeue-Light" font-size="36.0" fill="#747373" transform="matrix(1.00, 0.00, -0.00, -1.00, 868.8, 46.0)">t</text><text xml:space="preserve" font-family="HelveticaNeue-Light" font-size="36.0" fill="#747373" transform="matrix(1.00, 0.00, -0.00, -1.00, 879.4, 46.0)">h</text><text xml:space="preserve" font-family="HelveticaNeue-Light" font-size="36.0" fill="#747373" transform="matrix(1.00, 0.00, -0.00, -1.00, 898.8, 46.0)"> </text><text xml:space="preserve" font-family="HelveticaNeue-Light" font-size="36.0" fill="#747373" transform="matrix(1.00, 0.00, -0.00, -1.00, 36.0, 2.0)">J</text><text xml:space="preserve" font-family="HelveticaNeue-Light" font-size="36.0" fill="#747373" transform="matrix(1.00, 0.00, -0.00, -1.00, 54.0, 2.0)">a</text><text xml:space="preserve" font-family="HelveticaNeue-Light" font-size="36.0" fill="#747373" transform="matrix(1.00, 0.00, -0.00, -1.00, 72.7, 2.0)">v</text><text xml:space="preserve" font-family="HelveticaNeue-Light" font-size="36.0" fill="#747373" transform="matrix(1.00, 0.00, -0.00, -1.00, 89.4, 2.0)">a</text><text xml:space="preserve" font-family="HelveticaNeue-Light" font-size="36.0" fill="#747373" transform="matrix(1.00, 0.00, -0.00, -1.00, 108.0, 2.0)"> </text><text xml:space="preserve" font-family="HelveticaNeue-Light" font-size="36.0" fill="#747373" transform="matrix(1.00, 0.00, -0.00, -1.00, 118.0, 2.0)">A</text><text xml:space="preserve" font-family="HelveticaNeue-Light" font-size="36.0" fill="#747373" transform="matrix(1.00, 0.00, -0.00, -1.00, 140.7, 2.0)">P</text><text xml:space="preserve" font-family="HelveticaNeue-Light" font-size="36.0" fill="#747373" transform="matrix(1.00, 0.00, -0.00, -1.00, 163.4, 2.0)">I</text><text xml:space="preserve" font-family="HelveticaNeue-Light" font-size="36.0" fill="#747373" transform="matrix(1.00, 0.00, -0.00, -1.00, 171.4, 2.0)">’</text><text xml:space="preserve" font-family="HelveticaNeue-Light" font-size="36.0" fill="#747373" transform="matrix(1.00, 0.00, -0.00, -1.00, 177.4, 2.0)">s</text></g></svg>