<?xml version="1.0" encoding="UTF-8" standalone="no"?><svg xmlns="http://www.w3.org/2000/svg" xmlns:xlink="http://www.w3.org/1999/xlink" clip-rule="evenodd" stroke-miterlimit="4.00" viewBox="0 0 745 121"><desc>SVG generated by Keynote</desc><defs></defs><g transform="matrix(1.00, 0.00, -0.00, -1.00, 0.0, 121.0)"><g><clipPath id="clip-96"><path d="M 499.7 23.2 L 744.3 23.2 L 744.3 120.3 L 499.7 120.3 Z M 499.7 23.2 "></path></clipPath><g clip-path="url(#clip-96)"><path d="M 0.0 0.0 L 241.6 0.0 L 241.6 94.1 L 0.0 94.1 Z M 0.0 0.0 " fill="none" stroke="#FF0000" stroke-width="1.00" stroke-linejoin="round" transform="matrix(1.00, 0.00, 0.00, -1.00, 501.2, 118.8)"></path></g></g><g><clipPath id="clip-97"><path d="M 0.9 0.6 L 482.1 0.6 L 482.1 102.7 L 0.9 102.7 Z M 0.9 0.6 "></path></clipPath><g clip-path="url(#clip-97)"><path d="M 479.1 0.0 L 458.9 0.0 L 0.0 99.1 " fill="none" stroke="#FF0000" stroke-width="1.00" stroke-linejoin="round" transform="matrix(1.00, 0.00, 0.00, -1.00, 2.0, 101.2)"></path></g></g><g><clipPath id="clip-98"><path d="M 500.2 52.1 L 743.8 52.1 L 743.8 91.3 L 500.2 91.3 Z M 500.2 52.1 "></path></clipPath><g clip-path="url(#clip-98)"><text xml:space="preserve" font-family="Arial-BoldMT" font-weight="bold" font-size="18.0" fill="#000000" transform="matrix(1.00, 0.00, -0.00, -1.00, 541.0, 66.0)">E</text><text xml:space="preserve" font-family="Arial-BoldMT" font-weight="bold" font-size="18.0" fill="#000000" transform="matrix(1.00, 0.00, -0.00, -1.00, 553.0, 66.0)">x</text><text xml:space="preserve" font-family="Arial-BoldMT" font-weight="bold" font-size="18.0" fill="#000000" transform="matrix(1.00, 0.00, -0.00, -1.00, 563.0, 66.0)">t</text><text xml:space="preserve" font-family="Arial-BoldMT" font-weight="bold" font-size="18.0" fill="#000000" transform="matrix(1.00, 0.00, -0.00, -1.00, 569.0, 66.0)">e</text><text xml:space="preserve" font-family="Arial-BoldMT" font-weight="bold" font-size="18.0" fill="#000000" transform="matrix(1.00, 0.00, -0.00, -1.00, 579.0, 66.0)">n</text><text xml:space="preserve" font-family="Arial-BoldMT" font-weight="bold" font-size="18.0" fill="#000000" transform="matrix(1.00, 0.00, -0.00, -1.00, 590.0, 66.0)">d</text><text xml:space="preserve" font-family="Arial-BoldMT" font-weight="bold" font-size="18.0" fill="#000000" transform="matrix(1.00, 0.00, -0.00, -1.00, 601.0, 66.0)">s</text><text xml:space="preserve" font-family="Arial-BoldMT" font-weight="bold" font-size="18.0" fill="#000000" transform="matrix(1.00, 0.00, -0.00, -1.00, 611.0, 66.0)"> </text><text xml:space="preserve" font-family="Arial-BoldMT" font-weight="bold" font-size="18.0" fill="#000000" transform="matrix(1.00, 0.00, -0.00, -1.00, 616.0, 66.0)">b</text><text xml:space="preserve" font-family="Arial-BoldMT" font-weight="bold" font-size="18.0" fill="#000000" transform="matrix(1.00, 0.00, -0.00, -1.00, 627.0, 66.0)">s</text><text xml:space="preserve" font-family="Arial-BoldMT" font-weight="bold" font-size="18.0" fill="#000000" transform="matrix(1.00, 0.00, -0.00, -1.00, 637.0, 66.0)">o</text><text xml:space="preserve" font-family="Arial-BoldMT" font-weight="bold" font-size="18.0" fill="#000000" transform="matrix(1.00, 0.00, -0.00, -1.00, 648.0, 66.0)">n</text><text xml:space="preserve" font-family="Arial-BoldMT" font-weight="bold" font-size="18.0" fill="#000000" transform="matrix(1.00, 0.00, -0.00, -1.00, 659.0, 66.0)">.</text><text xml:space="preserve" font-family="Arial-BoldMT" font-weight="bold" font-size="18.0" fill="#000000" transform="matrix(1.00, 0.00, -0.00, -1.00, 664.0, 66.0)">S</text><text xml:space="preserve" font-family="Arial-BoldMT" font-weight="bold" font-size="18.0" fill="#000000" transform="matrix(1.00, 0.00, -0.00, -1.00, 676.0, 66.0)">O</text><text xml:space="preserve" font-family="Arial-BoldMT" font-weight="bold" font-size="18.0" fill="#000000" transform="matrix(1.00, 0.00, -0.00, -1.00, 690.0, 66.0)">N</text></g></g></g></svg>