<?xml version="1.0" encoding="UTF-8" standalone="no"?><svg xmlns="http://www.w3.org/2000/svg" xmlns:xlink="http://www.w3.org/1999/xlink" clip-rule="evenodd" stroke-miterlimit="4.00" viewBox="0 0 232 131"><desc>SVG generated by Keynote</desc><defs></defs><g transform="matrix(1.00, 0.00, -0.00, -1.00, 0.0, 131.0)"><g><clipPath id="clip-113"><path d="M 0.7 32.4 L 231.9 32.4 L 231.9 130.5 L 0.7 130.5 Z M 0.7 32.4 "></path></clipPath><g clip-path="url(#clip-113)"><path d="M 0.0 0.0 L 228.3 0.0 L 228.3 95.1 L 0.0 95.1 Z M 0.0 0.0 " fill="none" stroke="#FF0000" stroke-width="1.00" stroke-linejoin="round" transform="matrix(1.00, 0.00, 0.00, -1.00, 2.2, 129.0)"></path></g></g><g><clipPath id="clip-114"><path d="M 7.7 0.1 L 130.5 0.1 L 130.5 32.7 L 7.7 32.7 Z M 7.7 0.1 "></path></clipPath><g clip-path="url(#clip-114)"><path d="M -0.0 29.6 L 37.3 29.6 L 120.6 0.0 " fill="none" stroke="#FF0000" stroke-width="1.00" stroke-linejoin="round" transform="matrix(1.00, 0.00, 0.00, -1.00, 8.7, 31.3)"></path></g></g><g><clipPath id="clip-115"><path d="M 1.1 49.0 L 231.5 49.0 L 231.5 109.2 L 1.1 109.2 Z M 1.1 49.0 "></path></clipPath><g clip-path="url(#clip-115)"><text xml:space="preserve" font-family="Arial-BoldMT" font-weight="bold" font-size="18.0" fill="#000000" transform="matrix(1.00, 0.00, -0.00, -1.00, 36.0, 88.0)">T</text><text xml:space="preserve" font-family="Arial-BoldMT" font-weight="bold" font-size="18.0" fill="#000000" transform="matrix(1.00, 0.00, -0.00, -1.00, 47.0, 88.0)">h</text><text xml:space="preserve" font-family="Arial-BoldMT" font-weight="bold" font-size="18.0" fill="#000000" transform="matrix(1.00, 0.00, -0.00, -1.00, 58.0, 88.0)">e</text><text xml:space="preserve" font-family="Arial-BoldMT" font-weight="bold" font-size="18.0" fill="#000000" transform="matrix(1.00, 0.00, -0.00, -1.00, 68.0, 88.0)"> </text><text xml:space="preserve" font-family="Arial-BoldMT" font-weight="bold" font-size="18.0" fill="#000000" transform="matrix(1.00, 0.00, -0.00, -1.00, 73.0, 88.0)">_</text><text xml:space="preserve" font-family="Arial-BoldMT" font-weight="bold" font-size="18.0" fill="#000000" transform="matrix(1.00, 0.00, -0.00, -1.00, 83.0, 88.0)">_</text><text xml:space="preserve" font-family="Arial-BoldMT" font-weight="bold" font-size="18.0" fill="#000000" transform="matrix(1.00, 0.00, -0.00, -1.00, 93.0, 88.0)">d</text><text xml:space="preserve" font-family="Arial-BoldMT" font-weight="bold" font-size="18.0" fill="#000000" transform="matrix(1.00, 0.00, -0.00, -1.00, 104.0, 88.0)">o</text><text xml:space="preserve" font-family="Arial-BoldMT" font-weight="bold" font-size="18.0" fill="#000000" transform="matrix(1.00, 0.00, -0.00, -1.00, 115.0, 88.0)">c</text><text xml:space="preserve" font-family="Arial-BoldMT" font-weight="bold" font-size="18.0" fill="#000000" transform="matrix(1.00, 0.00, -0.00, -1.00, 125.0, 88.0)">_</text><text xml:space="preserve" font-family="Arial-BoldMT" font-weight="bold" font-size="18.0" fill="#000000" transform="matrix(1.00, 0.00, -0.00, -1.00, 135.0, 88.0)">_</text><text xml:space="preserve" font-family="Arial-BoldMT" font-weight="bold" font-size="18.0" fill="#000000" transform="matrix(1.00, 0.00, -0.00, -1.00, 145.0, 88.0)"> </text><text xml:space="preserve" font-family="Arial-BoldMT" font-weight="bold" font-size="18.0" fill="#000000" transform="matrix(1.00, 0.00, -0.00, -1.00, 150.0, 88.0)">i</text><text xml:space="preserve" font-family="Arial-BoldMT" font-weight="bold" font-size="18.0" fill="#000000" transform="matrix(1.00, 0.00, -0.00, -1.00, 155.0, 88.0)">s</text><text xml:space="preserve" font-family="Arial-BoldMT" font-weight="bold" font-size="18.0" fill="#000000" transform="matrix(1.00, 0.00, -0.00, -1.00, 165.1, 88.0)"> </text><text xml:space="preserve" font-family="Arial-BoldMT" font-weight="bold" font-size="18.0" fill="#000000" transform="matrix(1.00, 0.00, -0.00, -1.00, 170.1, 88.0)">t</text><text xml:space="preserve" font-family="Arial-BoldMT" font-weight="bold" font-size="18.0" fill="#000000" transform="matrix(1.00, 0.00, -0.00, -1.00, 176.1, 88.0)">h</text><text xml:space="preserve" font-family="Arial-BoldMT" font-weight="bold" font-size="18.0" fill="#000000" transform="matrix(1.00, 0.00, -0.00, -1.00, 187.0, 88.0)">e</text><text xml:space="preserve" font-family="Arial-BoldMT" font-weight="bold" font-size="18.0" fill="#000000" transform="matrix(1.00, 0.00, -0.00, -1.00, 197.1, 88.0)"> </text><text xml:space="preserve" font-family="Arial-BoldMT" font-weight="bold" font-size="18.0" fill="#000000" transform="matrix(1.00, 0.00, -0.00, -1.00, 32.0, 63.0)">s</text><text xml:space="preserve" font-family="Arial-BoldMT" font-weight="bold" font-size="18.0" fill="#000000" transform="matrix(1.00, 0.00, -0.00, -1.00, 42.0, 63.0)">c</text><text xml:space="preserve" font-family="Arial-BoldMT" font-weight="bold" font-size="18.0" fill="#000000" transform="matrix(1.00, 0.00, -0.00, -1.00, 52.0, 63.0)">h</text><text xml:space="preserve" font-family="Arial-BoldMT" font-weight="bold" font-size="18.0" fill="#000000" transform="matrix(1.00, 0.00, -0.00, -1.00, 63.0, 63.0)">e</text><text xml:space="preserve" font-family="Arial-BoldMT" font-weight="bold" font-size="18.0" fill="#000000" transform="matrix(1.00, 0.00, -0.00, -1.00, 73.0, 63.0)">m</text><text xml:space="preserve" font-family="Arial-BoldMT" font-weight="bold" font-size="18.0" fill="#000000" transform="matrix(1.00, 0.00, -0.00, -1.00, 89.0, 63.0)">a</text><text xml:space="preserve" font-family="Arial-BoldMT" font-weight="bold" font-size="18.0" fill="#000000" transform="matrix(1.00, 0.00, -0.00, -1.00, 99.1, 63.0)"> </text><text xml:space="preserve" font-family="Arial-BoldMT" font-weight="bold" font-size="18.0" fill="#000000" transform="matrix(1.00, 0.00, -0.00, -1.00, 104.1, 63.0)">d</text><text xml:space="preserve" font-family="Arial-BoldMT" font-weight="bold" font-size="18.0" fill="#000000" transform="matrix(1.00, 0.00, -0.00, -1.00, 115.0, 63.0)">e</text><text xml:space="preserve" font-family="Arial-BoldMT" font-weight="bold" font-size="18.0" fill="#000000" transform="matrix(1.00, 0.00, -0.00, -1.00, 125.1, 63.0)">s</text><text xml:space="preserve" font-family="Arial-BoldMT" font-weight="bold" font-size="18.0" fill="#000000" transform="matrix(1.00, 0.00, -0.00, -1.00, 135.1, 63.0)">c</text><text xml:space="preserve" font-family="Arial-BoldMT" font-weight="bold" font-size="18.0" fill="#000000" transform="matrix(1.00, 0.00, -0.00, -1.00, 145.1, 63.0)">r</text><text xml:space="preserve" font-family="Arial-BoldMT" font-weight="bold" font-size="18.0" fill="#000000" transform="matrix(1.00, 0.00, -0.00, -1.00, 152.1, 63.0)">i</text><text xml:space="preserve" font-family="Arial-BoldMT" font-weight="bold" font-size="18.0" fill="#000000" transform="matrix(1.00, 0.00, -0.00, -1.00, 157.1, 63.0)">p</text><text xml:space="preserve" font-family="Arial-BoldMT" font-weight="bold" font-size="18.0" fill="#000000" transform="matrix(1.00, 0.00, -0.00, -1.00, 168.1, 63.0)">t</text><text xml:space="preserve" font-family="Arial-BoldMT" font-weight="bold" font-size="18.0" fill="#000000" transform="matrix(1.00, 0.00, -0.00, -1.00, 174.1, 63.0)">i</text><text xml:space="preserve" font-family="Arial-BoldMT" font-weight="bold" font-size="18.0" fill="#000000" transform="matrix(1.00, 0.00, -0.00, -1.00, 179.1, 63.0)">o</text><text xml:space="preserve" font-family="Arial-BoldMT" font-weight="bold" font-size="18.0" fill="#000000" transform="matrix(1.00, 0.00, -0.00, -1.00, 190.1, 63.0)">n</text></g></g></g></svg>