<?xml version="1.0" encoding="UTF-8" standalone="no"?><svg xmlns="http://www.w3.org/2000/svg" xmlns:xlink="http://www.w3.org/1999/xlink" clip-rule="evenodd" stroke-miterlimit="4.00" viewBox="0 0 1024 768"><desc>SVG generated by Keynote</desc><defs></defs><g transform="matrix(1.00, 0.00, -0.00, -1.00, 0.0, 768.0)"><path d="M 0.0 768.0 L 1024.0 768.0 L 1024.0 0.0 L 0.0 0.0 Z M 0.0 768.0 " fill="#FEFFFE"></path><path d="M 0.0 0.0 L 934.5 0.0 " fill="none" stroke="#9A9A9A" stroke-width="1.00" transform="matrix(1.00, 0.00, 0.00, -1.00, 45.0, 613.0)"></path><text xml:space="preserve" font-family="HelveticaNeue-Light" font-size="42.0" fill="#000000" transform="matrix(1.00, 0.00, -0.00, -1.00, 49.0, 645.0)">I</text><text xml:space="preserve" font-family="HelveticaNeue-Light" font-size="42.0" fill="#000000" transform="matrix(1.00, 0.00, -0.00, -1.00, 58.3, 645.0)">t</text><text xml:space="preserve" font-family="HelveticaNeue-Light" font-size="42.0" fill="#000000" transform="matrix(1.00, 0.00, -0.00, -1.00, 70.8, 645.0)">’</text><text xml:space="preserve" font-family="HelveticaNeue-Light" font-size="42.0" fill="#000000" transform="matrix(1.00, 0.00, -0.00, -1.00, 77.8, 645.0)">s</text><text xml:space="preserve" font-family="HelveticaNeue-Light" font-size="42.0" fill="#000000" transform="matrix(1.00, 0.00, -0.00, -1.00, 98.0, 645.0)"> </text><text xml:space="preserve" font-family="HelveticaNeue-Light" font-size="42.0" fill="#000000" transform="matrix(1.00, 0.00, -0.00, -1.00, 109.6, 645.0)">a</text><text xml:space="preserve" font-family="HelveticaNeue-Light" font-size="42.0" fill="#000000" transform="matrix(1.00, 0.00, -0.00, -1.00, 131.4, 645.0)">l</text><text xml:space="preserve" font-family="HelveticaNeue-Light" font-size="42.0" fill="#000000" transform="matrix(1.00, 0.00, -0.00, -1.00, 139.2, 645.0)">l</text><text xml:space="preserve" font-family="HelveticaNeue-Light" font-size="42.0" fill="#000000" transform="matrix(1.00, 0.00, -0.00, -1.00, 147.0, 645.0)"> </text><text xml:space="preserve" font-family="HelveticaNeue-Light" font-size="42.0" fill="#000000" transform="matrix(1.00, 0.00, -0.00, -1.00, 158.7, 645.0)">a</text><text xml:space="preserve" font-family="HelveticaNeue-Light" font-size="42.0" fill="#000000" transform="matrix(1.00, 0.00, -0.00, -1.00, 180.5, 645.0)">b</text><text xml:space="preserve" font-family="HelveticaNeue-Light" font-size="42.0" fill="#000000" transform="matrix(1.00, 0.00, -0.00, -1.00, 204.6, 645.0)">o</text><text xml:space="preserve" font-family="HelveticaNeue-Light" font-size="42.0" fill="#000000" transform="matrix(1.00, 0.00, -0.00, -1.00, 227.9, 645.0)">u</text><text xml:space="preserve" font-family="HelveticaNeue-Light" font-size="42.0" fill="#000000" transform="matrix(1.00, 0.00, -0.00, -1.00, 250.5, 645.0)">t</text><text xml:space="preserve" font-family="HelveticaNeue-Light" font-size="42.0" fill="#000000" transform="matrix(1.00, 0.00, -0.00, -1.00, 262.9, 645.0)"> </text><text xml:space="preserve" font-family="HelveticaNeue-Light" font-size="42.0" fill="#000000" transform="matrix(1.00, 0.00, -0.00, -1.00, 274.6, 645.0)">r</text><text xml:space="preserve" font-family="HelveticaNeue-Light" font-size="42.0" fill="#000000" transform="matrix(1.00, 0.00, -0.00, -1.00, 287.1, 645.0)">e</text><text xml:space="preserve" font-family="HelveticaNeue-Light" font-size="42.0" fill="#000000" transform="matrix(1.00, 0.00, -0.00, -1.00, 308.9, 645.0)">p</text><text xml:space="preserve" font-family="HelveticaNeue-Light" font-size="42.0" fill="#000000" transform="matrix(1.00, 0.00, -0.00, -1.00, 333.0, 645.0)">r</text><text xml:space="preserve" font-family="HelveticaNeue-Light" font-size="42.0" fill="#000000" transform="matrix(1.00, 0.00, -0.00, -1.00, 345.4, 645.0)">e</text><text xml:space="preserve" font-family="HelveticaNeue-Light" font-size="42.0" fill="#000000" transform="matrix(1.00, 0.00, -0.00, -1.00, 367.2, 645.0)">s</text><text xml:space="preserve" font-family="HelveticaNeue-Light" font-size="42.0" fill="#000000" transform="matrix(1.00, 0.00, -0.00, -1.00, 387.4, 645.0)">e</text><text xml:space="preserve" font-family="HelveticaNeue-Light" font-size="42.0" fill="#000000" transform="matrix(1.00, 0.00, -0.00, -1.00, 409.2, 645.0)">n</text><text xml:space="preserve" font-family="HelveticaNeue-Light" font-size="42.0" fill="#000000" transform="matrix(1.00, 0.00, -0.00, -1.00, 431.8, 645.0)">t</text><text xml:space="preserve" font-family="HelveticaNeue-Light" font-size="42.0" fill="#000000" transform="matrix(1.00, 0.00, -0.00, -1.00, 444.2, 645.0)">a</text><text xml:space="preserve" font-family="HelveticaNeue-Light" font-size="42.0" fill="#000000" transform="matrix(1.00, 0.00, -0.00, -1.00, 466.0, 645.0)">t</text><text xml:space="preserve" font-family="HelveticaNeue-Light" font-size="42.0" fill="#000000" transform="matrix(1.00, 0.00, -0.00, -1.00, 478.5, 645.0)">i</text><text xml:space="preserve" font-family="HelveticaNeue-Light" font-size="42.0" fill="#000000" transform="matrix(1.00, 0.00, -0.00, -1.00, 486.2, 645.0)">o</text><text xml:space="preserve" font-family="HelveticaNeue-Light" font-size="42.0" fill="#000000" transform="matrix(1.00, 0.00, -0.00, -1.00, 509.6, 645.0)">n</text><text xml:space="preserve" font-family="HelveticaNeue" font-size="25.1" fill="#747373" transform="matrix(1.00, 0.00, -0.00, -1.00, 49.0, 559.7)">•</text><text xml:space="preserve" font-family="HelveticaNeue-Light" font-size="33.5" fill="#747373" transform="matrix(1.00, 0.00, -0.00, -1.00, 82.0, 556.0)">S</text><text xml:space="preserve" font-family="HelveticaNeue-Light" font-size="33.5" fill="#747373" transform="matrix(1.00, 0.00, -0.00, -1.00, 103.1, 556.0)">Q</text><text xml:space="preserve" font-family="HelveticaNeue-Light" font-size="33.5" fill="#747373" transform="matrix(1.00, 0.00, -0.00, -1.00, 127.9, 556.0)">L</text><text xml:space="preserve" font-family="HelveticaNeue-Light" font-size="33.5" fill="#747373" transform="matrix(1.00, 0.00, -0.00, -1.00, 145.9, 556.0)"> </text><text xml:space="preserve" font-family="HelveticaNeue-Light" font-size="33.5" fill="#747373" transform="matrix(1.00, 0.00, -0.00, -1.00, 155.2, 556.0)">S</text><text xml:space="preserve" font-family="HelveticaNeue-Light" font-size="33.5" fill="#747373" transform="matrix(1.00, 0.00, -0.00, -1.00, 176.3, 556.0)">c</text><text xml:space="preserve" font-family="HelveticaNeue-Light" font-size="33.5" fill="#747373" transform="matrix(1.00, 0.00, -0.00, -1.00, 193.7, 556.0)">h</text><text xml:space="preserve" font-family="HelveticaNeue-Light" font-size="33.5" fill="#747373" transform="matrix(1.00, 0.00, -0.00, -1.00, 211.6, 556.0)">e</text><text xml:space="preserve" font-family="HelveticaNeue-Light" font-size="33.5" fill="#747373" transform="matrix(1.00, 0.00, -0.00, -1.00, 229.0, 556.0)">m</text><text xml:space="preserve" font-family="HelveticaNeue-Light" font-size="33.5" fill="#747373" transform="matrix(1.00, 0.00, -0.00, -1.00, 256.9, 556.0)">a</text><text xml:space="preserve" font-family="HelveticaNeue-Light" font-size="33.5" fill="#747373" transform="matrix(1.00, 0.00, -0.00, -1.00, 274.3, 556.0)"> </text><text xml:space="preserve" font-family="HelveticaNeue-Light" font-size="33.5" fill="#747373" transform="matrix(1.00, 0.00, -0.00, -1.00, 283.6, 556.0)">e</text><text xml:space="preserve" font-family="HelveticaNeue-Light" font-size="33.5" fill="#747373" transform="matrix(1.00, 0.00, -0.00, -1.00, 301.0, 556.0)">n</text><text xml:space="preserve" font-family="HelveticaNeue-Light" font-size="33.5" fill="#747373" transform="matrix(1.00, 0.00, -0.00, -1.00, 318.9, 556.0)">c</text><text xml:space="preserve" font-family="HelveticaNeue-Light" font-size="33.5" fill="#747373" transform="matrix(1.00, 0.00, -0.00, -1.00, 336.3, 556.0)">o</text><text xml:space="preserve" font-family="HelveticaNeue-Light" font-size="33.5" fill="#747373" transform="matrix(1.00, 0.00, -0.00, -1.00, 354.9, 556.0)">d</text><text xml:space="preserve" font-family="HelveticaNeue-Light" font-size="33.5" fill="#747373" transform="matrix(1.00, 0.00, -0.00, -1.00, 374.1, 556.0)">e</text><text xml:space="preserve" font-family="HelveticaNeue-Light" font-size="33.5" fill="#747373" transform="matrix(1.00, 0.00, -0.00, -1.00, 391.5, 556.0)">d</text><text xml:space="preserve" font-family="HelveticaNeue-Light" font-size="33.5" fill="#747373" transform="matrix(1.00, 0.00, -0.00, -1.00, 410.7, 556.0)"> </text><text xml:space="preserve" font-family="HelveticaNeue-Bold" font-weight="bold" font-size="33.5" fill="#A85648" transform="matrix(1.00, 0.00, -0.00, -1.00, 420.0, 556.0)">f</text><text xml:space="preserve" font-family="HelveticaNeue-Bold" font-weight="bold" font-size="33.5" fill="#A85648" transform="matrix(1.00, 0.00, -0.00, -1.00, 431.2, 556.0)">o</text><text xml:space="preserve" font-family="HelveticaNeue-Bold" font-weight="bold" font-size="33.5" fill="#A85648" transform="matrix(1.00, 0.00, -0.00, -1.00, 451.7, 556.0)">u</text><text xml:space="preserve" font-family="HelveticaNeue-Bold" font-weight="bold" font-size="33.5" fill="#A85648" transform="matrix(1.00, 0.00, -0.00, -1.00, 471.5, 556.0)">r</text><text xml:space="preserve" font-family="HelveticaNeue-Light" font-size="33.5" fill="#747373" transform="matrix(1.00, 0.00, -0.00, -1.00, 484.5, 556.0)"> </text><text xml:space="preserve" font-family="HelveticaNeue-Light" font-size="33.5" fill="#747373" transform="matrix(1.00, 0.00, -0.00, -1.00, 493.8, 556.0)">t</text><text xml:space="preserve" font-family="HelveticaNeue-Light" font-size="33.5" fill="#747373" transform="matrix(1.00, 0.00, -0.00, -1.00, 503.7, 556.0)">i</text><text xml:space="preserve" font-family="HelveticaNeue-Light" font-size="33.5" fill="#747373" transform="matrix(1.00, 0.00, -0.00, -1.00, 509.9, 556.0)">m</text><text xml:space="preserve" font-family="HelveticaNeue-Light" font-size="33.5" fill="#747373" transform="matrix(1.00, 0.00, -0.00, -1.00, 537.8, 556.0)">e</text><text xml:space="preserve" font-family="HelveticaNeue-Light" font-size="33.5" fill="#747373" transform="matrix(1.00, 0.00, -0.00, -1.00, 555.2, 556.0)">s</text><text xml:space="preserve" font-family="HelveticaNeue-Light" font-size="33.5" fill="#747373" transform="matrix(1.00, 0.00, -0.00, -1.00, 571.3, 556.0)">:</text><text xml:space="preserve" font-family="HelveticaNeue-Light" font-size="33.5" fill="#747373" transform="matrix(1.00, 0.00, -0.00, -1.00, 580.6, 556.0)"> </text><text xml:space="preserve" font-family="HelveticaNeue" font-size="25.1" fill="#747373" transform="matrix(1.00, 0.00, -0.00, -1.00, 85.0, 480.1)">•</text><text xml:space="preserve" font-family="HelveticaNeue-Light" font-size="33.5" fill="#747373" transform="matrix(1.00, 0.00, -0.00, -1.00, 118.0, 477.0)">I</text><text xml:space="preserve" font-family="HelveticaNeue-Light" font-size="33.5" fill="#747373" transform="matrix(1.00, 0.00, -0.00, -1.00, 125.4, 477.0)">n</text><text xml:space="preserve" font-family="HelveticaNeue-Light" font-size="33.5" fill="#747373" transform="matrix(1.00, 0.00, -0.00, -1.00, 143.4, 477.0)"> </text><text xml:space="preserve" font-family="HelveticaNeue-Light" font-size="33.5" fill="#747373" transform="matrix(1.00, 0.00, -0.00, -1.00, 152.7, 477.0)">D</text><text xml:space="preserve" font-family="HelveticaNeue-Light" font-size="33.5" fill="#747373" transform="matrix(1.00, 0.00, -0.00, -1.00, 175.7, 477.0)">D</text><text xml:space="preserve" font-family="HelveticaNeue-Light" font-size="33.5" fill="#747373" transform="matrix(1.00, 0.00, -0.00, -1.00, 198.6, 477.0)">L</text><text xml:space="preserve" font-family="HelveticaNeue-Light" font-size="33.5" fill="#747373" transform="matrix(1.00, 0.00, -0.00, -1.00, 216.6, 477.0)"> </text><text xml:space="preserve" font-family="HelveticaNeue-Light" font-size="33.5" fill="#747373" transform="matrix(1.00, 0.00, -0.00, -1.00, 225.9, 477.0)">S</text><text xml:space="preserve" font-family="HelveticaNeue-Light" font-size="33.5" fill="#747373" transform="matrix(1.00, 0.00, -0.00, -1.00, 247.0, 477.0)">Q</text><text xml:space="preserve" font-family="HelveticaNeue-Light" font-size="33.5" fill="#747373" transform="matrix(1.00, 0.00, -0.00, -1.00, 271.8, 477.0)">L</text><text xml:space="preserve" font-family="HelveticaNeue-Light" font-size="33.5" fill="#747373" transform="matrix(1.00, 0.00, -0.00, -1.00, 289.8, 477.0)"> </text><text xml:space="preserve" font-family="HelveticaNeue-Light" font-size="33.5" fill="#747373" transform="matrix(1.00, 0.00, -0.00, -1.00, 299.1, 477.0)">–</text><text xml:space="preserve" font-family="HelveticaNeue-Light" font-size="33.5" fill="#747373" transform="matrix(1.00, 0.00, -0.00, -1.00, 315.8, 477.0)"> </text><text xml:space="preserve" font-family="HelveticaNeue-Light" font-size="33.5" fill="#747373" transform="matrix(1.00, 0.00, -0.00, -1.00, 325.1, 477.0)">t</text><text xml:space="preserve" font-family="HelveticaNeue-Light" font-size="33.5" fill="#747373" transform="matrix(1.00, 0.00, -0.00, -1.00, 335.0, 477.0)">h</text><text xml:space="preserve" font-family="HelveticaNeue-Light" font-size="33.5" fill="#747373" transform="matrix(1.00, 0.00, -0.00, -1.00, 353.0, 477.0)">e</text><text xml:space="preserve" font-family="HelveticaNeue-Light" font-size="33.5" fill="#747373" transform="matrix(1.00, 0.00, -0.00, -1.00, 370.4, 477.0)"> </text><text xml:space="preserve" font-family="HelveticaNeue-Light" font-size="33.5" fill="#747373" transform="matrix(1.00, 0.00, -0.00, -1.00, 379.7, 477.0)">C</text><text xml:space="preserve" font-family="HelveticaNeue-Light" font-size="33.5" fill="#747373" transform="matrix(1.00, 0.00, -0.00, -1.00, 403.2, 477.0)">R</text><text xml:space="preserve" font-family="HelveticaNeue-Light" font-size="33.5" fill="#747373" transform="matrix(1.00, 0.00, -0.00, -1.00, 425.6, 477.0)">E</text><text xml:space="preserve" font-family="HelveticaNeue-Light" font-size="33.5" fill="#747373" transform="matrix(1.00, 0.00, -0.00, -1.00, 445.4, 477.0)">A</text><text xml:space="preserve" font-family="HelveticaNeue-Light" font-size="33.5" fill="#747373" transform="matrix(1.00, 0.00, -0.00, -1.00, 464.3, 477.0)">T</text><text xml:space="preserve" font-family="HelveticaNeue-Light" font-size="33.5" fill="#747373" transform="matrix(1.00, 0.00, -0.00, -1.00, 482.9, 477.0)">E</text><text xml:space="preserve" font-family="HelveticaNeue-Light" font-size="33.5" fill="#747373" transform="matrix(1.00, 0.00, -0.00, -1.00, 502.7, 477.0)"> </text><text xml:space="preserve" font-family="HelveticaNeue-Light" font-size="33.5" fill="#747373" transform="matrix(1.00, 0.00, -0.00, -1.00, 512.0, 477.0)">T</text><text xml:space="preserve" font-family="HelveticaNeue-Light" font-size="33.5" fill="#747373" transform="matrix(1.00, 0.00, -0.00, -1.00, 528.4, 477.0)">A</text><text xml:space="preserve" font-family="HelveticaNeue-Light" font-size="33.5" fill="#747373" transform="matrix(1.00, 0.00, -0.00, -1.00, 549.5, 477.0)">B</text><text xml:space="preserve" font-family="HelveticaNeue-Light" font-size="33.5" fill="#747373" transform="matrix(1.00, 0.00, -0.00, -1.00, 571.8, 477.0)">L</text><text xml:space="preserve" font-family="HelveticaNeue-Light" font-size="33.5" fill="#747373" transform="matrix(1.00, 0.00, -0.00, -1.00, 589.8, 477.0)">E</text><text xml:space="preserve" font-family="HelveticaNeue-Light" font-size="33.5" fill="#747373" transform="matrix(1.00, 0.00, -0.00, -1.00, 609.6, 477.0)">,</text><text xml:space="preserve" font-family="HelveticaNeue-Light" font-size="33.5" fill="#747373" transform="matrix(1.00, 0.00, -0.00, -1.00, 618.9, 477.0)"> </text><text xml:space="preserve" font-family="HelveticaNeue-Light" font-size="33.5" fill="#747373" transform="matrix(1.00, 0.00, -0.00, -1.00, 628.2, 477.0)">e</text><text xml:space="preserve" font-family="HelveticaNeue-Light" font-size="33.5" fill="#747373" transform="matrix(1.00, 0.00, -0.00, -1.00, 645.6, 477.0)">t</text><text xml:space="preserve" font-family="HelveticaNeue-Light" font-size="33.5" fill="#747373" transform="matrix(1.00, 0.00, -0.00, -1.00, 655.5, 477.0)">c</text><text xml:space="preserve" font-family="HelveticaNeue-Light" font-size="33.5" fill="#747373" transform="matrix(1.00, 0.00, -0.00, -1.00, 672.9, 477.0)">.</text><text xml:space="preserve" font-family="HelveticaNeue-Light" font-size="33.5" fill="#747373" transform="matrix(1.00, 0.00, -0.00, -1.00, 682.2, 477.0)"> </text><text xml:space="preserve" font-family="HelveticaNeue" font-size="25.1" fill="#747373" transform="matrix(1.00, 0.00, -0.00, -1.00, 85.0, 401.1)">•</text><text xml:space="preserve" font-family="HelveticaNeue-Light" font-size="33.5" fill="#747373" transform="matrix(1.00, 0.00, -0.00, -1.00, 118.0, 398.0)">I</text><text xml:space="preserve" font-family="HelveticaNeue-Light" font-size="33.5" fill="#747373" transform="matrix(1.00, 0.00, -0.00, -1.00, 125.4, 398.0)">n</text><text xml:space="preserve" font-family="HelveticaNeue-Light" font-size="33.5" fill="#747373" transform="matrix(1.00, 0.00, -0.00, -1.00, 143.4, 398.0)"> </text><text xml:space="preserve" font-family="HelveticaNeue-Light" font-size="33.5" fill="#747373" transform="matrix(1.00, 0.00, -0.00, -1.00, 152.7, 398.0)">t</text><text xml:space="preserve" font-family="HelveticaNeue-Light" font-size="33.5" fill="#747373" transform="matrix(1.00, 0.00, -0.00, -1.00, 162.6, 398.0)">h</text><text xml:space="preserve" font-family="HelveticaNeue-Light" font-size="33.5" fill="#747373" transform="matrix(1.00, 0.00, -0.00, -1.00, 180.6, 398.0)">e</text><text xml:space="preserve" font-family="HelveticaNeue-Light" font-size="33.5" fill="#747373" transform="matrix(1.00, 0.00, -0.00, -1.00, 198.0, 398.0)"> </text><text xml:space="preserve" font-family="HelveticaNeue-Light" font-size="33.5" fill="#747373" transform="matrix(1.00, 0.00, -0.00, -1.00, 207.3, 398.0)">i</text><text xml:space="preserve" font-family="HelveticaNeue-Light" font-size="33.5" fill="#747373" transform="matrix(1.00, 0.00, -0.00, -1.00, 213.5, 398.0)">n</text><text xml:space="preserve" font-family="HelveticaNeue-Light" font-size="33.5" fill="#747373" transform="matrix(1.00, 0.00, -0.00, -1.00, 231.5, 398.0)">t</text><text xml:space="preserve" font-family="HelveticaNeue-Light" font-size="33.5" fill="#747373" transform="matrix(1.00, 0.00, -0.00, -1.00, 241.4, 398.0)">e</text><text xml:space="preserve" font-family="HelveticaNeue-Light" font-size="33.5" fill="#747373" transform="matrix(1.00, 0.00, -0.00, -1.00, 258.7, 398.0)">r</text><text xml:space="preserve" font-family="HelveticaNeue-Light" font-size="33.5" fill="#747373" transform="matrix(1.00, 0.00, -0.00, -1.00, 269.9, 398.0)">n</text><text xml:space="preserve" font-family="HelveticaNeue-Light" font-size="33.5" fill="#747373" transform="matrix(1.00, 0.00, -0.00, -1.00, 287.9, 398.0)">a</text><text xml:space="preserve" font-family="HelveticaNeue-Light" font-size="33.5" fill="#747373" transform="matrix(1.00, 0.00, -0.00, -1.00, 305.3, 398.0)">l</text><text xml:space="preserve" font-family="HelveticaNeue-Light" font-size="33.5" fill="#747373" transform="matrix(1.00, 0.00, -0.00, -1.00, 311.4, 398.0)"> </text><text xml:space="preserve" font-family="HelveticaNeue-Light" font-size="33.5" fill="#747373" transform="matrix(1.00, 0.00, -0.00, -1.00, 320.8, 398.0)">r</text><text xml:space="preserve" font-family="HelveticaNeue-Light" font-size="33.5" fill="#747373" transform="matrix(1.00, 0.00, -0.00, -1.00, 330.7, 398.0)">e</text><text xml:space="preserve" font-family="HelveticaNeue-Light" font-size="33.5" fill="#747373" transform="matrix(1.00, 0.00, -0.00, -1.00, 348.1, 398.0)">p</text><text xml:space="preserve" font-family="HelveticaNeue-Light" font-size="33.5" fill="#747373" transform="matrix(1.00, 0.00, -0.00, -1.00, 367.3, 398.0)">r</text><text xml:space="preserve" font-family="HelveticaNeue-Light" font-size="33.5" fill="#747373" transform="matrix(1.00, 0.00, -0.00, -1.00, 377.2, 398.0)">e</text><text xml:space="preserve" font-family="HelveticaNeue-Light" font-size="33.5" fill="#747373" transform="matrix(1.00, 0.00, -0.00, -1.00, 394.6, 398.0)">s</text><text xml:space="preserve" font-family="HelveticaNeue-Light" font-size="33.5" fill="#747373" transform="matrix(1.00, 0.00, -0.00, -1.00, 410.7, 398.0)">e</text><text xml:space="preserve" font-family="HelveticaNeue-Light" font-size="33.5" fill="#747373" transform="matrix(1.00, 0.00, -0.00, -1.00, 428.1, 398.0)">n</text><text xml:space="preserve" font-family="HelveticaNeue-Light" font-size="33.5" fill="#747373" transform="matrix(1.00, 0.00, -0.00, -1.00, 446.1, 398.0)">t</text><text xml:space="preserve" font-family="HelveticaNeue-Light" font-size="33.5" fill="#747373" transform="matrix(1.00, 0.00, -0.00, -1.00, 456.0, 398.0)">a</text><text xml:space="preserve" font-family="HelveticaNeue-Light" font-size="33.5" fill="#747373" transform="matrix(1.00, 0.00, -0.00, -1.00, 473.4, 398.0)">t</text><text xml:space="preserve" font-family="HelveticaNeue-Light" font-size="33.5" fill="#747373" transform="matrix(1.00, 0.00, -0.00, -1.00, 483.3, 398.0)">i</text><text xml:space="preserve" font-family="HelveticaNeue-Light" font-size="33.5" fill="#747373" transform="matrix(1.00, 0.00, -0.00, -1.00, 489.5, 398.0)">o</text><text xml:space="preserve" font-family="HelveticaNeue-Light" font-size="33.5" fill="#747373" transform="matrix(1.00, 0.00, -0.00, -1.00, 508.1, 398.0)">n</text><text xml:space="preserve" font-family="HelveticaNeue-Light" font-size="33.5" fill="#747373" transform="matrix(1.00, 0.00, -0.00, -1.00, 526.1, 398.0)"> </text><text xml:space="preserve" font-family="HelveticaNeue-Light" font-size="33.5" fill="#747373" transform="matrix(1.00, 0.00, -0.00, -1.00, 535.4, 398.0)">u</text><text xml:space="preserve" font-family="HelveticaNeue-Light" font-size="33.5" fill="#747373" transform="matrix(1.00, 0.00, -0.00, -1.00, 553.3, 398.0)">s</text><text xml:space="preserve" font-family="HelveticaNeue-Light" font-size="33.5" fill="#747373" transform="matrix(1.00, 0.00, -0.00, -1.00, 569.4, 398.0)">e</text><text xml:space="preserve" font-family="HelveticaNeue-Light" font-size="33.5" fill="#747373" transform="matrix(1.00, 0.00, -0.00, -1.00, 586.8, 398.0)">d</text><text xml:space="preserve" font-family="HelveticaNeue-Light" font-size="33.5" fill="#747373" transform="matrix(1.00, 0.00, -0.00, -1.00, 606.0, 398.0)"> </text><text xml:space="preserve" font-family="HelveticaNeue-Light" font-size="33.5" fill="#747373" transform="matrix(1.00, 0.00, -0.00, -1.00, 615.3, 398.0)">b</text><text xml:space="preserve" font-family="HelveticaNeue-Light" font-size="33.5" fill="#747373" transform="matrix(1.00, 0.00, -0.00, -1.00, 634.6, 398.0)">y</text><text xml:space="preserve" font-family="HelveticaNeue-Light" font-size="33.5" fill="#747373" transform="matrix(1.00, 0.00, -0.00, -1.00, 650.1, 398.0)"> </text><text xml:space="preserve" font-family="HelveticaNeue-Light" font-size="33.5" fill="#747373" transform="matrix(1.00, 0.00, -0.00, -1.00, 659.4, 398.0)">t</text><text xml:space="preserve" font-family="HelveticaNeue-Light" font-size="33.5" fill="#747373" transform="matrix(1.00, 0.00, -0.00, -1.00, 669.3, 398.0)">h</text><text xml:space="preserve" font-family="HelveticaNeue-Light" font-size="33.5" fill="#747373" transform="matrix(1.00, 0.00, -0.00, -1.00, 687.3, 398.0)">e</text><text xml:space="preserve" font-family="HelveticaNeue-Light" font-size="33.5" fill="#747373" transform="matrix(1.00, 0.00, -0.00, -1.00, 704.6, 398.0)"> </text><text xml:space="preserve" font-family="HelveticaNeue-Light" font-size="33.5" fill="#747373" transform="matrix(1.00, 0.00, -0.00, -1.00, 713.9, 398.0)">R</text><text xml:space="preserve" font-family="HelveticaNeue-Light" font-size="33.5" fill="#747373" transform="matrix(1.00, 0.00, -0.00, -1.00, 736.3, 398.0)">D</text><text xml:space="preserve" font-family="HelveticaNeue-Light" font-size="33.5" fill="#747373" transform="matrix(1.00, 0.00, -0.00, -1.00, 759.2, 398.0)">B</text><text xml:space="preserve" font-family="HelveticaNeue-Light" font-size="33.5" fill="#747373" transform="matrix(1.00, 0.00, -0.00, -1.00, 781.5, 398.0)">M</text><text xml:space="preserve" font-family="HelveticaNeue-Light" font-size="33.5" fill="#747373" transform="matrix(1.00, 0.00, -0.00, -1.00, 809.0, 398.0)">S</text><text xml:space="preserve" font-family="HelveticaNeue-Light" font-size="33.5" fill="#747373" transform="matrix(1.00, 0.00, -0.00, -1.00, 830.1, 398.0)"> </text><text xml:space="preserve" font-family="HelveticaNeue" font-size="25.1" fill="#747373" transform="matrix(1.00, 0.00, -0.00, -1.00, 85.0, 322.0)">•</text><text xml:space="preserve" font-family="HelveticaNeue-Light" font-size="33.5" fill="#747373" transform="matrix(1.00, 0.00, -0.00, -1.00, 118.0, 319.0)">I</text><text xml:space="preserve" font-family="HelveticaNeue-Light" font-size="33.5" fill="#747373" transform="matrix(1.00, 0.00, -0.00, -1.00, 125.4, 319.0)">n</text><text xml:space="preserve" font-family="HelveticaNeue-Light" font-size="33.5" fill="#747373" transform="matrix(1.00, 0.00, -0.00, -1.00, 143.4, 319.0)"> </text><text xml:space="preserve" font-family="HelveticaNeue-Light" font-size="33.5" fill="#747373" transform="matrix(1.00, 0.00, -0.00, -1.00, 152.7, 319.0)">t</text><text xml:space="preserve" font-family="HelveticaNeue-Light" font-size="33.5" fill="#747373" transform="matrix(1.00, 0.00, -0.00, -1.00, 162.6, 319.0)">h</text><text xml:space="preserve" font-family="HelveticaNeue-Light" font-size="33.5" fill="#747373" transform="matrix(1.00, 0.00, -0.00, -1.00, 180.6, 319.0)">e</text><text xml:space="preserve" font-family="HelveticaNeue-Light" font-size="33.5" fill="#747373" transform="matrix(1.00, 0.00, -0.00, -1.00, 198.0, 319.0)"> </text><text xml:space="preserve" font-family="HelveticaNeue-Light" font-size="33.5" fill="#747373" transform="matrix(1.00, 0.00, -0.00, -1.00, 207.3, 319.0)">a</text><text xml:space="preserve" font-family="HelveticaNeue-Light" font-size="33.5" fill="#747373" transform="matrix(1.00, 0.00, -0.00, -1.00, 224.7, 319.0)">p</text><text xml:space="preserve" font-family="HelveticaNeue-Light" font-size="33.5" fill="#747373" transform="matrix(1.00, 0.00, -0.00, -1.00, 243.9, 319.0)">p</text><text xml:space="preserve" font-family="HelveticaNeue-Light" font-size="33.5" fill="#747373" transform="matrix(1.00, 0.00, -0.00, -1.00, 263.1, 319.0)">l</text><text xml:space="preserve" font-family="HelveticaNeue-Light" font-size="33.5" fill="#747373" transform="matrix(1.00, 0.00, -0.00, -1.00, 269.3, 319.0)">i</text><text xml:space="preserve" font-family="HelveticaNeue-Light" font-size="33.5" fill="#747373" transform="matrix(1.00, 0.00, -0.00, -1.00, 275.5, 319.0)">c</text><text xml:space="preserve" font-family="HelveticaNeue-Light" font-size="33.5" fill="#747373" transform="matrix(1.00, 0.00, -0.00, -1.00, 292.9, 319.0)">a</text><text xml:space="preserve" font-family="HelveticaNeue-Light" font-size="33.5" fill="#747373" transform="matrix(1.00, 0.00, -0.00, -1.00, 310.2, 319.0)">t</text><text xml:space="preserve" font-family="HelveticaNeue-Light" font-size="33.5" fill="#747373" transform="matrix(1.00, 0.00, -0.00, -1.00, 320.2, 319.0)">i</text><text xml:space="preserve" font-family="HelveticaNeue-Light" font-size="33.5" fill="#747373" transform="matrix(1.00, 0.00, -0.00, -1.00, 326.3, 319.0)">o</text><text xml:space="preserve" font-family="HelveticaNeue-Light" font-size="33.5" fill="#747373" transform="matrix(1.00, 0.00, -0.00, -1.00, 345.0, 319.0)">n</text><text xml:space="preserve" font-family="HelveticaNeue-Light" font-size="33.5" fill="#747373" transform="matrix(1.00, 0.00, -0.00, -1.00, 362.9, 319.0)">’</text><text xml:space="preserve" font-family="HelveticaNeue-Light" font-size="33.5" fill="#747373" transform="matrix(1.00, 0.00, -0.00, -1.00, 368.5, 319.0)">s</text><text xml:space="preserve" font-family="HelveticaNeue-Light" font-size="33.5" fill="#747373" transform="matrix(1.00, 0.00, -0.00, -1.00, 384.6, 319.0)"> </text><text xml:space="preserve" font-family="HelveticaNeue-Light" font-size="33.5" fill="#747373" transform="matrix(1.00, 0.00, -0.00, -1.00, 393.9, 319.0)">D</text><text xml:space="preserve" font-family="HelveticaNeue-Light" font-size="33.5" fill="#747373" transform="matrix(1.00, 0.00, -0.00, -1.00, 416.9, 319.0)">M</text><text xml:space="preserve" font-family="HelveticaNeue-Light" font-size="33.5" fill="#747373" transform="matrix(1.00, 0.00, -0.00, -1.00, 444.4, 319.0)">L</text><text xml:space="preserve" font-family="HelveticaNeue-Light" font-size="33.5" fill="#747373" transform="matrix(1.00, 0.00, -0.00, -1.00, 462.3, 319.0)"> </text><text xml:space="preserve" font-family="HelveticaNeue-Light" font-size="33.5" fill="#747373" transform="matrix(1.00, 0.00, -0.00, -1.00, 471.6, 319.0)">S</text><text xml:space="preserve" font-family="HelveticaNeue-Light" font-size="33.5" fill="#747373" transform="matrix(1.00, 0.00, -0.00, -1.00, 492.7, 319.0)">Q</text><text xml:space="preserve" font-family="HelveticaNeue-Light" font-size="33.5" fill="#747373" transform="matrix(1.00, 0.00, -0.00, -1.00, 517.6, 319.0)">L</text><text xml:space="preserve" font-family="HelveticaNeue-Light" font-size="33.5" fill="#747373" transform="matrix(1.00, 0.00, -0.00, -1.00, 535.5, 319.0)"> </text><text xml:space="preserve" font-family="HelveticaNeue-Light" font-size="33.5" fill="#747373" transform="matrix(1.00, 0.00, -0.00, -1.00, 544.8, 319.0)">–</text><text xml:space="preserve" font-family="HelveticaNeue-Light" font-size="33.5" fill="#747373" transform="matrix(1.00, 0.00, -0.00, -1.00, 561.6, 319.0)"> </text><text xml:space="preserve" font-family="HelveticaNeue-Light" font-size="33.5" fill="#747373" transform="matrix(1.00, 0.00, -0.00, -1.00, 570.9, 319.0)">U</text><text xml:space="preserve" font-family="HelveticaNeue-Light" font-size="33.5" fill="#747373" transform="matrix(1.00, 0.00, -0.00, -1.00, 593.8, 319.0)">P</text><text xml:space="preserve" font-family="HelveticaNeue-Light" font-size="33.5" fill="#747373" transform="matrix(1.00, 0.00, -0.00, -1.00, 614.9, 319.0)">D</text><text xml:space="preserve" font-family="HelveticaNeue-Light" font-size="33.5" fill="#747373" transform="matrix(1.00, 0.00, -0.00, -1.00, 637.8, 319.0)">A</text><text xml:space="preserve" font-family="HelveticaNeue-Light" font-size="33.5" fill="#747373" transform="matrix(1.00, 0.00, -0.00, -1.00, 656.7, 319.0)">T</text><text xml:space="preserve" font-family="HelveticaNeue-Light" font-size="33.5" fill="#747373" transform="matrix(1.00, 0.00, -0.00, -1.00, 675.3, 319.0)">E</text><text xml:space="preserve" font-family="HelveticaNeue-Light" font-size="33.5" fill="#747373" transform="matrix(1.00, 0.00, -0.00, -1.00, 695.1, 319.0)">,</text><text xml:space="preserve" font-family="HelveticaNeue-Light" font-size="33.5" fill="#747373" transform="matrix(1.00, 0.00, -0.00, -1.00, 704.4, 319.0)"> </text><text xml:space="preserve" font-family="HelveticaNeue-Light" font-size="33.5" fill="#747373" transform="matrix(1.00, 0.00, -0.00, -1.00, 713.7, 319.0)">I</text><text xml:space="preserve" font-family="HelveticaNeue-Light" font-size="33.5" fill="#747373" transform="matrix(1.00, 0.00, -0.00, -1.00, 721.2, 319.0)">N</text><text xml:space="preserve" font-family="HelveticaNeue-Light" font-size="33.5" fill="#747373" transform="matrix(1.00, 0.00, -0.00, -1.00, 744.7, 319.0)">S</text><text xml:space="preserve" font-family="HelveticaNeue-Light" font-size="33.5" fill="#747373" transform="matrix(1.00, 0.00, -0.00, -1.00, 765.8, 319.0)">E</text><text xml:space="preserve" font-family="HelveticaNeue-Light" font-size="33.5" fill="#747373" transform="matrix(1.00, 0.00, -0.00, -1.00, 785.7, 319.0)">R</text><text xml:space="preserve" font-family="HelveticaNeue-Light" font-size="33.5" fill="#747373" transform="matrix(1.00, 0.00, -0.00, -1.00, 808.2, 319.0)">T</text><text xml:space="preserve" font-family="HelveticaNeue-Light" font-size="33.5" fill="#747373" transform="matrix(1.00, 0.00, -0.00, -1.00, 823.1, 319.0)">,</text><text xml:space="preserve" font-family="HelveticaNeue-Light" font-size="33.5" fill="#747373" transform="matrix(1.00, 0.00, -0.00, -1.00, 832.4, 319.0)"> </text><text xml:space="preserve" font-family="HelveticaNeue-Light" font-size="33.5" fill="#747373" transform="matrix(1.00, 0.00, -0.00, -1.00, 841.7, 319.0)">S</text><text xml:space="preserve" font-family="HelveticaNeue-Light" font-size="33.5" fill="#747373" transform="matrix(1.00, 0.00, -0.00, -1.00, 862.8, 319.0)">E</text><text xml:space="preserve" font-family="HelveticaNeue-Light" font-size="33.5" fill="#747373" transform="matrix(1.00, 0.00, -0.00, -1.00, 882.7, 319.0)">L</text><text xml:space="preserve" font-family="HelveticaNeue-Light" font-size="33.5" fill="#747373" transform="matrix(1.00, 0.00, -0.00, -1.00, 900.7, 319.0)">E</text><text xml:space="preserve" font-family="HelveticaNeue-Light" font-size="33.5" fill="#747373" transform="matrix(1.00, 0.00, -0.00, -1.00, 920.5, 319.0)">C</text><text xml:space="preserve" font-family="HelveticaNeue-Light" font-size="33.5" fill="#747373" transform="matrix(1.00, 0.00, -0.00, -1.00, 944.1, 319.0)">T</text><text xml:space="preserve" font-family="HelveticaNeue-Light" font-size="33.5" fill="#747373" transform="matrix(1.00, 0.00, -0.00, -1.00, 962.7, 319.0)"> </text><text xml:space="preserve" font-family="HelveticaNeue" font-size="25.1" fill="#747373" transform="matrix(1.00, 0.00, -0.00, -1.00, 85.0, 242.9)">•</text><text xml:space="preserve" font-family="HelveticaNeue-Light" font-size="33.5" fill="#747373" transform="matrix(1.00, 0.00, -0.00, -1.00, 118.0, 240.0)">I</text><text xml:space="preserve" font-family="HelveticaNeue-Light" font-size="33.5" fill="#747373" transform="matrix(1.00, 0.00, -0.00, -1.00, 125.4, 240.0)">n</text><text xml:space="preserve" font-family="HelveticaNeue-Light" font-size="33.5" fill="#747373" transform="matrix(1.00, 0.00, -0.00, -1.00, 143.4, 240.0)"> </text><text xml:space="preserve" font-family="HelveticaNeue-Light" font-size="33.5" fill="#747373" transform="matrix(1.00, 0.00, -0.00, -1.00, 152.7, 240.0)">t</text><text xml:space="preserve" font-family="HelveticaNeue-Light" font-size="33.5" fill="#747373" transform="matrix(1.00, 0.00, -0.00, -1.00, 162.6, 240.0)">h</text><text xml:space="preserve" font-family="HelveticaNeue-Light" font-size="33.5" fill="#747373" transform="matrix(1.00, 0.00, -0.00, -1.00, 180.6, 240.0)">e</text><text xml:space="preserve" font-family="HelveticaNeue-Light" font-size="33.5" fill="#747373" transform="matrix(1.00, 0.00, -0.00, -1.00, 198.0, 240.0)"> </text><text xml:space="preserve" font-family="HelveticaNeue-Light" font-size="33.5" fill="#747373" transform="matrix(1.00, 0.00, -0.00, -1.00, 207.3, 240.0)">a</text><text xml:space="preserve" font-family="HelveticaNeue-Light" font-size="33.5" fill="#747373" transform="matrix(1.00, 0.00, -0.00, -1.00, 224.7, 240.0)">p</text><text xml:space="preserve" font-family="HelveticaNeue-Light" font-size="33.5" fill="#747373" transform="matrix(1.00, 0.00, -0.00, -1.00, 243.9, 240.0)">p</text><text xml:space="preserve" font-family="HelveticaNeue-Light" font-size="33.5" fill="#747373" transform="matrix(1.00, 0.00, -0.00, -1.00, 263.1, 240.0)">l</text><text xml:space="preserve" font-family="HelveticaNeue-Light" font-size="33.5" fill="#747373" transform="matrix(1.00, 0.00, -0.00, -1.00, 269.3, 240.0)">i</text><text xml:space="preserve" font-family="HelveticaNeue-Light" font-size="33.5" fill="#747373" transform="matrix(1.00, 0.00, -0.00, -1.00, 275.5, 240.0)">c</text><text xml:space="preserve" font-family="HelveticaNeue-Light" font-size="33.5" fill="#747373" transform="matrix(1.00, 0.00, -0.00, -1.00, 292.9, 240.0)">a</text><text xml:space="preserve" font-family="HelveticaNeue-Light" font-size="33.5" fill="#747373" transform="matrix(1.00, 0.00, -0.00, -1.00, 310.2, 240.0)">t</text><text xml:space="preserve" font-family="HelveticaNeue-Light" font-size="33.5" fill="#747373" transform="matrix(1.00, 0.00, -0.00, -1.00, 320.2, 240.0)">i</text><text xml:space="preserve" font-family="HelveticaNeue-Light" font-size="33.5" fill="#747373" transform="matrix(1.00, 0.00, -0.00, -1.00, 326.3, 240.0)">o</text><text xml:space="preserve" font-family="HelveticaNeue-Light" font-size="33.5" fill="#747373" transform="matrix(1.00, 0.00, -0.00, -1.00, 345.0, 240.0)">n</text><text xml:space="preserve" font-family="HelveticaNeue-Light" font-size="33.5" fill="#747373" transform="matrix(1.00, 0.00, -0.00, -1.00, 362.9, 240.0)">’</text><text xml:space="preserve" font-family="HelveticaNeue-Light" font-size="33.5" fill="#747373" transform="matrix(1.00, 0.00, -0.00, -1.00, 368.5, 240.0)">s</text><text xml:space="preserve" font-family="HelveticaNeue-Light" font-size="33.5" fill="#747373" transform="matrix(1.00, 0.00, -0.00, -1.00, 384.6, 240.0)"> </text><text xml:space="preserve" font-family="HelveticaNeue-Light" font-size="33.5" fill="#747373" transform="matrix(1.00, 0.00, -0.00, -1.00, 393.9, 240.0)">n</text><text xml:space="preserve" font-family="HelveticaNeue-Light" font-size="33.5" fill="#747373" transform="matrix(1.00, 0.00, -0.00, -1.00, 411.9, 240.0)">o</text><text xml:space="preserve" font-family="HelveticaNeue-Light" font-size="33.5" fill="#747373" transform="matrix(1.00, 0.00, -0.00, -1.00, 430.5, 240.0)">n</text><text xml:space="preserve" font-family="HelveticaNeue-Light" font-size="33.5" fill="#747373" transform="matrix(1.00, 0.00, -0.00, -1.00, 448.5, 240.0)">-</text><text xml:space="preserve" font-family="HelveticaNeue-Light" font-size="33.5" fill="#747373" transform="matrix(1.00, 0.00, -0.00, -1.00, 460.9, 240.0)">S</text><text xml:space="preserve" font-family="HelveticaNeue-Light" font-size="33.5" fill="#747373" transform="matrix(1.00, 0.00, -0.00, -1.00, 482.0, 240.0)">Q</text><text xml:space="preserve" font-family="HelveticaNeue-Light" font-size="33.5" fill="#747373" transform="matrix(1.00, 0.00, -0.00, -1.00, 506.8, 240.0)">L</text><text xml:space="preserve" font-family="HelveticaNeue-Light" font-size="33.5" fill="#747373" transform="matrix(1.00, 0.00, -0.00, -1.00, 524.8, 240.0)"> </text><text xml:space="preserve" font-family="HelveticaNeue-Light" font-size="33.5" fill="#747373" transform="matrix(1.00, 0.00, -0.00, -1.00, 534.1, 240.0)">c</text><text xml:space="preserve" font-family="HelveticaNeue-Light" font-size="33.5" fill="#747373" transform="matrix(1.00, 0.00, -0.00, -1.00, 551.5, 240.0)">o</text><text xml:space="preserve" font-family="HelveticaNeue-Light" font-size="33.5" fill="#747373" transform="matrix(1.00, 0.00, -0.00, -1.00, 570.1, 240.0)">d</text><text xml:space="preserve" font-family="HelveticaNeue-Light" font-size="33.5" fill="#747373" transform="matrix(1.00, 0.00, -0.00, -1.00, 589.3, 240.0)">e</text><text xml:space="preserve" font-family="HelveticaNeue-Light" font-size="33.5" fill="#747373" transform="matrix(1.00, 0.00, -0.00, -1.00, 606.7, 240.0)">,</text><text xml:space="preserve" font-family="HelveticaNeue-Light" font-size="33.5" fill="#747373" transform="matrix(1.00, 0.00, -0.00, -1.00, 616.0, 240.0)"> </text><text xml:space="preserve" font-family="HelveticaNeue-Light" font-size="33.5" fill="#747373" transform="matrix(1.00, 0.00, -0.00, -1.00, 625.3, 240.0)">t</text><text xml:space="preserve" font-family="HelveticaNeue-Light" font-size="33.5" fill="#747373" transform="matrix(1.00, 0.00, -0.00, -1.00, 635.2, 240.0)">o</text><text xml:space="preserve" font-family="HelveticaNeue-Light" font-size="33.5" fill="#747373" transform="matrix(1.00, 0.00, -0.00, -1.00, 653.8, 240.0)">o</text><text xml:space="preserve" font-family="HelveticaNeue-Light" font-size="33.5" fill="#747373" transform="matrix(1.00, 0.00, -0.00, -1.00, 672.4, 240.0)"> </text><text xml:space="preserve" font-family="HelveticaNeue" font-size="25.1" fill="#747373" transform="matrix(1.00, 0.00, -0.00, -1.00, 49.0, 163.9)">•</text><text xml:space="preserve" font-family="HelveticaNeue-Light" font-size="33.5" fill="#747373" transform="matrix(1.00, 0.00, -0.00, -1.00, 82.0, 161.0)">N</text><text xml:space="preserve" font-family="HelveticaNeue-Light" font-size="33.5" fill="#747373" transform="matrix(1.00, 0.00, -0.00, -1.00, 105.6, 161.0)">o</text><text xml:space="preserve" font-family="HelveticaNeue-Light" font-size="33.5" fill="#747373" transform="matrix(1.00, 0.00, -0.00, -1.00, 124.2, 161.0)">S</text><text xml:space="preserve" font-family="HelveticaNeue-Light" font-size="33.5" fill="#747373" transform="matrix(1.00, 0.00, -0.00, -1.00, 145.3, 161.0)">Q</text><text xml:space="preserve" font-family="HelveticaNeue-Light" font-size="33.5" fill="#747373" transform="matrix(1.00, 0.00, -0.00, -1.00, 170.1, 161.0)">L</text><text xml:space="preserve" font-family="HelveticaNeue-Light" font-size="33.5" fill="#747373" transform="matrix(1.00, 0.00, -0.00, -1.00, 188.1, 161.0)"> </text><text xml:space="preserve" font-family="HelveticaNeue-Light" font-size="33.5" fill="#747373" transform="matrix(1.00, 0.00, -0.00, -1.00, 197.4, 161.0)">S</text><text xml:space="preserve" font-family="HelveticaNeue-Light" font-size="33.5" fill="#747373" transform="matrix(1.00, 0.00, -0.00, -1.00, 218.5, 161.0)">c</text><text xml:space="preserve" font-family="HelveticaNeue-Light" font-size="33.5" fill="#747373" transform="matrix(1.00, 0.00, -0.00, -1.00, 235.8, 161.0)">h</text><text xml:space="preserve" font-family="HelveticaNeue-Light" font-size="33.5" fill="#747373" transform="matrix(1.00, 0.00, -0.00, -1.00, 253.8, 161.0)">e</text><text xml:space="preserve" font-family="HelveticaNeue-Light" font-size="33.5" fill="#747373" transform="matrix(1.00, 0.00, -0.00, -1.00, 271.2, 161.0)">m</text><text xml:space="preserve" font-family="HelveticaNeue-Light" font-size="33.5" fill="#747373" transform="matrix(1.00, 0.00, -0.00, -1.00, 299.1, 161.0)">a</text><text xml:space="preserve" font-family="HelveticaNeue-Light" font-size="33.5" fill="#747373" transform="matrix(1.00, 0.00, -0.00, -1.00, 316.5, 161.0)"> </text><text xml:space="preserve" font-family="HelveticaNeue-Light" font-size="33.5" fill="#747373" transform="matrix(1.00, 0.00, -0.00, -1.00, 325.8, 161.0)">e</text><text xml:space="preserve" font-family="HelveticaNeue-Light" font-size="33.5" fill="#747373" transform="matrix(1.00, 0.00, -0.00, -1.00, 343.1, 161.0)">n</text><text xml:space="preserve" font-family="HelveticaNeue-Light" font-size="33.5" fill="#747373" transform="matrix(1.00, 0.00, -0.00, -1.00, 361.1, 161.0)">c</text><text xml:space="preserve" font-family="HelveticaNeue-Light" font-size="33.5" fill="#747373" transform="matrix(1.00, 0.00, -0.00, -1.00, 378.5, 161.0)">o</text><text xml:space="preserve" font-family="HelveticaNeue-Light" font-size="33.5" fill="#747373" transform="matrix(1.00, 0.00, -0.00, -1.00, 397.1, 161.0)">d</text><text xml:space="preserve" font-family="HelveticaNeue-Light" font-size="33.5" fill="#747373" transform="matrix(1.00, 0.00, -0.00, -1.00, 416.3, 161.0)">e</text><text xml:space="preserve" font-family="HelveticaNeue-Light" font-size="33.5" fill="#747373" transform="matrix(1.00, 0.00, -0.00, -1.00, 433.7, 161.0)">d</text><text xml:space="preserve" font-family="HelveticaNeue-Light" font-size="33.5" fill="#747373" transform="matrix(1.00, 0.00, -0.00, -1.00, 452.9, 161.0)"> </text><text xml:space="preserve" font-family="HelveticaNeue-Light" font-size="33.5" fill="#747373" transform="matrix(1.00, 0.00, -0.00, -1.00, 462.2, 161.0)">o</text><text xml:space="preserve" font-family="HelveticaNeue-Light" font-size="33.5" fill="#747373" transform="matrix(1.00, 0.00, -0.00, -1.00, 480.8, 161.0)">n</text><text xml:space="preserve" font-family="HelveticaNeue-Light" font-size="33.5" fill="#747373" transform="matrix(1.00, 0.00, -0.00, -1.00, 498.8, 161.0)">c</text><text xml:space="preserve" font-family="HelveticaNeue-Light" font-size="33.5" fill="#747373" transform="matrix(1.00, 0.00, -0.00, -1.00, 516.2, 161.0)">e</text><text xml:space="preserve" font-family="HelveticaNeue-Light" font-size="33.5" fill="#747373" transform="matrix(1.00, 0.00, -0.00, -1.00, 533.6, 161.0)">:</text><text xml:space="preserve" font-family="HelveticaNeue-Light" font-size="33.5" fill="#747373" transform="matrix(1.00, 0.00, -0.00, -1.00, 542.9, 161.0)"> </text><text xml:space="preserve" font-family="HelveticaNeue" font-size="25.1" fill="#747373" transform="matrix(1.00, 0.00, -0.00, -1.00, 85.0, 84.8)">•</text><text xml:space="preserve" font-family="HelveticaNeue-Light" font-size="33.5" fill="#747373" transform="matrix(1.00, 0.00, -0.00, -1.00, 118.0, 82.0)">I</text><text xml:space="preserve" font-family="HelveticaNeue-Light" font-size="33.5" fill="#747373" transform="matrix(1.00, 0.00, -0.00, -1.00, 125.4, 82.0)">n</text><text xml:space="preserve" font-family="HelveticaNeue-Light" font-size="33.5" fill="#747373" transform="matrix(1.00, 0.00, -0.00, -1.00, 143.4, 82.0)"> </text><text xml:space="preserve" font-family="HelveticaNeue-Light" font-size="33.5" fill="#747373" transform="matrix(1.00, 0.00, -0.00, -1.00, 152.7, 82.0)">t</text><text xml:space="preserve" font-family="HelveticaNeue-Light" font-size="33.5" fill="#747373" transform="matrix(1.00, 0.00, -0.00, -1.00, 162.6, 82.0)">h</text><text xml:space="preserve" font-family="HelveticaNeue-Light" font-size="33.5" fill="#747373" transform="matrix(1.00, 0.00, -0.00, -1.00, 180.6, 82.0)">e</text><text xml:space="preserve" font-family="HelveticaNeue-Light" font-size="33.5" fill="#747373" transform="matrix(1.00, 0.00, -0.00, -1.00, 198.0, 82.0)"> </text><text xml:space="preserve" font-family="HelveticaNeue-Light" font-size="33.5" fill="#747373" transform="matrix(1.00, 0.00, -0.00, -1.00, 207.3, 82.0)">a</text><text xml:space="preserve" font-family="HelveticaNeue-Light" font-size="33.5" fill="#747373" transform="matrix(1.00, 0.00, -0.00, -1.00, 224.7, 82.0)">p</text><text xml:space="preserve" font-family="HelveticaNeue-Light" font-size="33.5" fill="#747373" transform="matrix(1.00, 0.00, -0.00, -1.00, 243.9, 82.0)">p</text><text xml:space="preserve" font-family="HelveticaNeue-Light" font-size="33.5" fill="#747373" transform="matrix(1.00, 0.00, -0.00, -1.00, 263.1, 82.0)">l</text><text xml:space="preserve" font-family="HelveticaNeue-Light" font-size="33.5" fill="#747373" transform="matrix(1.00, 0.00, -0.00, -1.00, 269.3, 82.0)">i</text><text xml:space="preserve" font-family="HelveticaNeue-Light" font-size="33.5" fill="#747373" transform="matrix(1.00, 0.00, -0.00, -1.00, 275.5, 82.0)">c</text><text xml:space="preserve" font-family="HelveticaNeue-Light" font-size="33.5" fill="#747373" transform="matrix(1.00, 0.00, -0.00, -1.00, 292.9, 82.0)">a</text><text xml:space="preserve" font-family="HelveticaNeue-Light" font-size="33.5" fill="#747373" transform="matrix(1.00, 0.00, -0.00, -1.00, 310.2, 82.0)">t</text><text xml:space="preserve" font-family="HelveticaNeue-Light" font-size="33.5" fill="#747373" transform="matrix(1.00, 0.00, -0.00, -1.00, 320.2, 82.0)">i</text><text xml:space="preserve" font-family="HelveticaNeue-Light" font-size="33.5" fill="#747373" transform="matrix(1.00, 0.00, -0.00, -1.00, 326.3, 82.0)">o</text><text xml:space="preserve" font-family="HelveticaNeue-Light" font-size="33.5" fill="#747373" transform="matrix(1.00, 0.00, -0.00, -1.00, 345.0, 82.0)">n</text></g></svg>