<?xml version="1.0" encoding="UTF-8" standalone="no"?><svg xmlns="http://www.w3.org/2000/svg" xmlns:xlink="http://www.w3.org/1999/xlink" clip-rule="evenodd" stroke-miterlimit="4.00" viewBox="0 0 82 53"><desc>SVG generated by Keynote</desc><defs><linearGradient id="gradSh1.3" x1="0.0" y1="0.0" x2="100.0" y2="0.0" gradientUnits="userSpaceOnUse" gradientTransform="matrix(0.00, -0.53, -0.81, 0.00, 41.0, 53.0)"><stop offset="0.00000" stop-color="#AD584F"></stop><stop offset="0.00440" stop-color="#AD584E"></stop><stop offset="0.82625" stop-color="#803F38"></stop><stop offset="0.83284" stop-color="#7F3F38"></stop><stop offset="0.85191" stop-color="#7E3F38"></stop><stop offset="1.00000" stop-color="#763A34"></stop></linearGradient></defs><g transform="matrix(1.00, 0.00, -0.00, -1.00, 0.0, 53.0)"><g><clipPath id="clip-10"><path d="M 1.5 52.0 L 80.5 52.0 L 80.5 1.0 L 1.5 1.0 Z M 1.5 52.0 "></path></clipPath><g clip-path="url(#clip-10)"><path d="M 1.5 52.0 L 80.5 52.0 L 80.5 1.0 L 1.5 1.0 Z M 1.5 52.0 " fill="url(#gradSh1.3)"></path></g></g><g><clipPath id="clip-11"><path d="M -5.1 -6.6 L 87.1 -6.6 L 87.1 58.6 L -5.1 58.6 Z M -5.1 -6.6 "></path></clipPath><g clip-path="url(#clip-11)"><text xml:space="preserve" font-family="HelveticaNeue-Light" font-size="36.0" fill="#FFFFFF" transform="matrix(1.00, 0.00, -0.00, -1.00, 6.0, 13.0)">F</text><text xml:space="preserve" font-family="HelveticaNeue-Light" font-size="36.0" fill="#FFFFFF" transform="matrix(1.00, 0.00, -0.00, -1.00, 25.3, 13.0)">o</text><text xml:space="preserve" font-family="HelveticaNeue-Light" font-size="36.0" fill="#FFFFFF" transform="matrix(1.00, 0.00, -0.00, -1.00, 45.3, 13.0)">u</text><text xml:space="preserve" font-family="HelveticaNeue-Light" font-size="36.0" fill="#FFFFFF" transform="matrix(1.00, 0.00, -0.00, -1.00, 64.7, 13.0)">r</text></g></g></g></svg>