<?xml version="1.0" encoding="UTF-8" standalone="no"?><svg xmlns="http://www.w3.org/2000/svg" xmlns:xlink="http://www.w3.org/1999/xlink" clip-rule="evenodd" stroke-miterlimit="4.00" viewBox="0 0 1024 768"><desc>SVG generated by Keynote</desc><defs></defs><g transform="matrix(1.00, 0.00, -0.00, -1.00, 0.0, 768.0)"><path d="M 0.0 768.0 L 1024.0 768.0 L 1024.0 0.0 L 0.0 0.0 Z M 0.0 768.0 " fill="#FEFFFE"></path><path d="M 0.0 0.0 L 112.0 0.0 " fill="none" stroke="#9A9A9A" stroke-width="1.00" transform="matrix(0.00, -1.00, -1.00, 0.00, 594.0, 140.0)"></path><g><clipPath id="clip-83"><path d="M 0.0 768.0 L 1024.0 768.0 L 1024.0 170.0 L 0.0 170.0 Z M 0.0 768.0 "></path></clipPath><g clip-path="url(#clip-83)"><image xlink:href="4958675F23272CA85176A650AD5A9395.jpeg" width="1024.00" height="768.00" transform="matrix(1.00, 0.00, -0.00, -1.00, 0.0, 853.0)"></image></g></g><text xml:space="preserve" font-family="HelveticaNeue-Light" font-size="42.0" fill="#000000" transform="matrix(1.00, 0.00, -0.00, -1.00, 205.9, 72.2)">S</text><text xml:space="preserve" font-family="HelveticaNeue-Light" font-size="42.0" fill="#000000" transform="matrix(1.00, 0.00, -0.00, -1.00, 232.4, 72.2)">c</text><text xml:space="preserve" font-family="HelveticaNeue-Light" font-size="42.0" fill="#000000" transform="matrix(1.00, 0.00, -0.00, -1.00, 254.2, 72.2)">h</text><text xml:space="preserve" font-family="HelveticaNeue-Light" font-size="42.0" fill="#000000" transform="matrix(1.00, 0.00, -0.00, -1.00, 276.7, 72.2)">e</text><text xml:space="preserve" font-family="HelveticaNeue-Light" font-size="42.0" fill="#000000" transform="matrix(1.00, 0.00, -0.00, -1.00, 298.5, 72.2)">m</text><text xml:space="preserve" font-family="HelveticaNeue-Light" font-size="42.0" fill="#000000" transform="matrix(1.00, 0.00, -0.00, -1.00, 333.5, 72.2)">a</text><text xml:space="preserve" font-family="HelveticaNeue-Light" font-size="42.0" fill="#000000" transform="matrix(1.00, 0.00, -0.00, -1.00, 355.3, 72.2)"> </text><text xml:space="preserve" font-family="HelveticaNeue-Light" font-size="42.0" fill="#000000" transform="matrix(1.00, 0.00, -0.00, -1.00, 367.0, 72.2)">U</text><text xml:space="preserve" font-family="HelveticaNeue-Light" font-size="42.0" fill="#000000" transform="matrix(1.00, 0.00, -0.00, -1.00, 395.8, 72.2)">s</text><text xml:space="preserve" font-family="HelveticaNeue-Light" font-size="42.0" fill="#000000" transform="matrix(1.00, 0.00, -0.00, -1.00, 416.0, 72.2)">e</text><text xml:space="preserve" font-family="HelveticaNeue-Light" font-size="42.0" fill="#000000" transform="matrix(1.00, 0.00, -0.00, -1.00, 437.8, 72.2)"> </text><text xml:space="preserve" font-family="HelveticaNeue-Light" font-size="42.0" fill="#000000" transform="matrix(1.00, 0.00, -0.00, -1.00, 449.4, 72.2)">C</text><text xml:space="preserve" font-family="HelveticaNeue-Light" font-size="42.0" fill="#000000" transform="matrix(1.00, 0.00, -0.00, -1.00, 479.0, 72.2)">a</text><text xml:space="preserve" font-family="HelveticaNeue-Light" font-size="42.0" fill="#000000" transform="matrix(1.00, 0.00, -0.00, -1.00, 500.8, 72.2)">s</text><text xml:space="preserve" font-family="HelveticaNeue-Light" font-size="42.0" fill="#000000" transform="matrix(1.00, 0.00, -0.00, -1.00, 521.0, 72.2)">e</text><text xml:space="preserve" font-family="HelveticaNeue-Light" font-size="42.0" fill="#000000" transform="matrix(1.00, 0.00, -0.00, -1.00, 542.8, 72.2)">s</text><text xml:space="preserve" font-family="HelveticaNeue" font-size="26.0" fill="#747373" transform="matrix(1.00, 0.00, -0.00, -1.00, 622.0, 71.0)">T</text><text xml:space="preserve" font-family="HelveticaNeue" font-size="26.0" fill="#747373" transform="matrix(1.00, 0.00, -0.00, -1.00, 636.9, 71.0)">h</text><text xml:space="preserve" font-family="HelveticaNeue" font-size="26.0" fill="#747373" transform="matrix(1.00, 0.00, -0.00, -1.00, 651.4, 71.0)">i</text><text xml:space="preserve" font-family="HelveticaNeue" font-size="26.0" fill="#747373" transform="matrix(1.00, 0.00, -0.00, -1.00, 657.2, 71.0)">n</text><text xml:space="preserve" font-family="HelveticaNeue" font-size="26.0" fill="#747373" transform="matrix(1.00, 0.00, -0.00, -1.00, 671.6, 71.0)">g</text><text xml:space="preserve" font-family="HelveticaNeue" font-size="26.0" fill="#747373" transform="matrix(1.00, 0.00, -0.00, -1.00, 686.5, 71.0)">s</text><text xml:space="preserve" font-family="HelveticaNeue" font-size="26.0" fill="#747373" transform="matrix(1.00, 0.00, -0.00, -1.00, 699.5, 71.0)"> </text><text xml:space="preserve" font-family="HelveticaNeue" font-size="26.0" fill="#747373" transform="matrix(1.00, 0.00, -0.00, -1.00, 706.8, 71.0)">w</text><text xml:space="preserve" font-family="HelveticaNeue" font-size="26.0" fill="#747373" transform="matrix(1.00, 0.00, -0.00, -1.00, 726.5, 71.0)">e</text><text xml:space="preserve" font-family="HelveticaNeue" font-size="26.0" fill="#747373" transform="matrix(1.00, 0.00, -0.00, -1.00, 740.4, 71.0)"> </text><text xml:space="preserve" font-family="HelveticaNeue" font-size="26.0" fill="#747373" transform="matrix(1.00, 0.00, -0.00, -1.00, 747.7, 71.0)">n</text><text xml:space="preserve" font-family="HelveticaNeue" font-size="26.0" fill="#747373" transform="matrix(1.00, 0.00, -0.00, -1.00, 762.1, 71.0)">e</text><text xml:space="preserve" font-family="HelveticaNeue" font-size="26.0" fill="#747373" transform="matrix(1.00, 0.00, -0.00, -1.00, 776.1, 71.0)">e</text><text xml:space="preserve" font-family="HelveticaNeue" font-size="26.0" fill="#747373" transform="matrix(1.00, 0.00, -0.00, -1.00, 790.0, 71.0)">d</text><text xml:space="preserve" font-family="HelveticaNeue" font-size="26.0" fill="#747373" transform="matrix(1.00, 0.00, -0.00, -1.00, 805.5, 71.0)"> </text><text xml:space="preserve" font-family="HelveticaNeue" font-size="26.0" fill="#747373" transform="matrix(1.00, 0.00, -0.00, -1.00, 812.7, 71.0)">t</text><text xml:space="preserve" font-family="HelveticaNeue" font-size="26.0" fill="#747373" transform="matrix(1.00, 0.00, -0.00, -1.00, 820.9, 71.0)">o</text><text xml:space="preserve" font-family="HelveticaNeue" font-size="26.0" fill="#747373" transform="matrix(1.00, 0.00, -0.00, -1.00, 835.8, 71.0)"> </text><text xml:space="preserve" font-family="HelveticaNeue" font-size="26.0" fill="#747373" transform="matrix(1.00, 0.00, -0.00, -1.00, 843.0, 71.0)">d</text><text xml:space="preserve" font-family="HelveticaNeue" font-size="26.0" fill="#747373" transform="matrix(1.00, 0.00, -0.00, -1.00, 858.4, 71.0)">o</text></g></svg>