<?xml version="1.0" encoding="UTF-8" standalone="no"?><svg xmlns="http://www.w3.org/2000/svg" xmlns:xlink="http://www.w3.org/1999/xlink" clip-rule="evenodd" stroke-miterlimit="4.00" viewBox="0 0 1024 768"><desc>SVG generated by Keynote</desc><defs></defs><g transform="matrix(1.00, 0.00, -0.00, -1.00, 0.0, 768.0)"><path d="M 0.0 768.0 L 1024.0 768.0 L 1024.0 0.0 L 0.0 0.0 Z M 0.0 768.0 " fill="#FEFFFE"></path><path d="M 0.0 0.0 L 420.0 0.0 " fill="none" stroke="#9A9A9A" stroke-width="1.00" transform="matrix(1.00, 0.00, 0.00, -1.00, 45.0, 385.0)"></path><g><clipPath id="clip-7"><path d="M 512.0 768.0 L 1024.0 768.0 L 1024.0 0.0 L 512.0 0.0 Z M 512.0 768.0 "></path></clipPath><g clip-path="url(#clip-7)"><image xlink:href="../../1DBF65CE-305D-4022-8263-D50C7C5A97CA/assets/B462F0233E9E636F290D95C4FBC2F062.jpeg" width="1024.00" height="768.00" transform="matrix(1.00, 0.00, -0.00, -1.00, 256.0, 768.0)"></image></g></g><text xml:space="preserve" font-family="HelveticaNeue-Light" font-size="42.0" fill="#000000" transform="matrix(1.00, 0.00, -0.00, -1.00, 49.0, 418.0)">W</text><text xml:space="preserve" font-family="HelveticaNeue-Light" font-size="42.0" fill="#000000" transform="matrix(1.00, 0.00, -0.00, -1.00, 87.1, 418.0)">h</text><text xml:space="preserve" font-family="HelveticaNeue-Light" font-size="42.0" fill="#000000" transform="matrix(1.00, 0.00, -0.00, -1.00, 109.6, 418.0)">a</text><text xml:space="preserve" font-family="HelveticaNeue-Light" font-size="42.0" fill="#000000" transform="matrix(1.00, 0.00, -0.00, -1.00, 131.4, 418.0)">t</text><text xml:space="preserve" font-family="HelveticaNeue-Light" font-size="42.0" fill="#000000" transform="matrix(1.00, 0.00, -0.00, -1.00, 143.9, 418.0)">’</text><text xml:space="preserve" font-family="HelveticaNeue-Light" font-size="42.0" fill="#000000" transform="matrix(1.00, 0.00, -0.00, -1.00, 150.9, 418.0)">s</text><text xml:space="preserve" font-family="HelveticaNeue-Light" font-size="42.0" fill="#000000" transform="matrix(1.00, 0.00, -0.00, -1.00, 171.1, 418.0)"> </text><text xml:space="preserve" font-family="HelveticaNeue-Light" font-size="42.0" fill="#000000" transform="matrix(1.00, 0.00, -0.00, -1.00, 182.8, 418.0)">a</text><text xml:space="preserve" font-family="HelveticaNeue-Light" font-size="42.0" fill="#000000" transform="matrix(1.00, 0.00, -0.00, -1.00, 204.6, 418.0)"> </text><text xml:space="preserve" font-family="HelveticaNeue-Light" font-size="42.0" fill="#000000" transform="matrix(1.00, 0.00, -0.00, -1.00, 216.2, 418.0)">S</text><text xml:space="preserve" font-family="HelveticaNeue-Light" font-size="42.0" fill="#000000" transform="matrix(1.00, 0.00, -0.00, -1.00, 242.7, 418.0)">c</text><text xml:space="preserve" font-family="HelveticaNeue-Light" font-size="42.0" fill="#000000" transform="matrix(1.00, 0.00, -0.00, -1.00, 264.5, 418.0)">h</text><text xml:space="preserve" font-family="HelveticaNeue-Light" font-size="42.0" fill="#000000" transform="matrix(1.00, 0.00, -0.00, -1.00, 287.1, 418.0)">e</text><text xml:space="preserve" font-family="HelveticaNeue-Light" font-size="42.0" fill="#000000" transform="matrix(1.00, 0.00, -0.00, -1.00, 308.9, 418.0)">m</text><text xml:space="preserve" font-family="HelveticaNeue-Light" font-size="42.0" fill="#000000" transform="matrix(1.00, 0.00, -0.00, -1.00, 343.8, 418.0)">a</text><text xml:space="preserve" font-family="HelveticaNeue-Light" font-size="42.0" fill="#000000" transform="matrix(1.00, 0.00, -0.00, -1.00, 365.6, 418.0)">?</text><text xml:space="preserve" font-family="HelveticaNeue" font-size="26.0" fill="#747373" transform="matrix(1.00, 0.00, -0.00, -1.00, 49.0, 334.0)">A</text><text xml:space="preserve" font-family="HelveticaNeue" font-size="26.0" fill="#747373" transform="matrix(1.00, 0.00, -0.00, -1.00, 65.8, 334.0)">n</text><text xml:space="preserve" font-family="HelveticaNeue" font-size="26.0" fill="#747373" transform="matrix(1.00, 0.00, -0.00, -1.00, 80.3, 334.0)">d</text><text xml:space="preserve" font-family="HelveticaNeue" font-size="26.0" fill="#747373" transform="matrix(1.00, 0.00, -0.00, -1.00, 95.7, 334.0)"> </text><text xml:space="preserve" font-family="HelveticaNeue" font-size="26.0" fill="#747373" transform="matrix(1.00, 0.00, -0.00, -1.00, 102.9, 334.0)">w</text><text xml:space="preserve" font-family="HelveticaNeue" font-size="26.0" fill="#747373" transform="matrix(1.00, 0.00, -0.00, -1.00, 122.7, 334.0)">h</text><text xml:space="preserve" font-family="HelveticaNeue" font-size="26.0" fill="#747373" transform="matrix(1.00, 0.00, -0.00, -1.00, 137.1, 334.0)">y</text><text xml:space="preserve" font-family="HelveticaNeue" font-size="26.0" fill="#747373" transform="matrix(1.00, 0.00, -0.00, -1.00, 150.1, 334.0)"> </text><text xml:space="preserve" font-family="HelveticaNeue" font-size="26.0" fill="#747373" transform="matrix(1.00, 0.00, -0.00, -1.00, 157.3, 334.0)">d</text><text xml:space="preserve" font-family="HelveticaNeue" font-size="26.0" fill="#747373" transform="matrix(1.00, 0.00, -0.00, -1.00, 172.8, 334.0)">o</text><text xml:space="preserve" font-family="HelveticaNeue" font-size="26.0" fill="#747373" transform="matrix(1.00, 0.00, -0.00, -1.00, 187.7, 334.0)"> </text><text xml:space="preserve" font-family="HelveticaNeue" font-size="26.0" fill="#747373" transform="matrix(1.00, 0.00, -0.00, -1.00, 194.9, 334.0)">I</text><text xml:space="preserve" font-family="HelveticaNeue" font-size="26.0" fill="#747373" transform="matrix(1.00, 0.00, -0.00, -1.00, 201.6, 334.0)"> </text><text xml:space="preserve" font-family="HelveticaNeue" font-size="26.0" fill="#747373" transform="matrix(1.00, 0.00, -0.00, -1.00, 208.9, 334.0)">n</text><text xml:space="preserve" font-family="HelveticaNeue" font-size="26.0" fill="#747373" transform="matrix(1.00, 0.00, -0.00, -1.00, 223.3, 334.0)">e</text><text xml:space="preserve" font-family="HelveticaNeue" font-size="26.0" fill="#747373" transform="matrix(1.00, 0.00, -0.00, -1.00, 237.3, 334.0)">e</text><text xml:space="preserve" font-family="HelveticaNeue" font-size="26.0" fill="#747373" transform="matrix(1.00, 0.00, -0.00, -1.00, 251.3, 334.0)">d</text><text xml:space="preserve" font-family="HelveticaNeue" font-size="26.0" fill="#747373" transform="matrix(1.00, 0.00, -0.00, -1.00, 266.7, 334.0)"> </text><text xml:space="preserve" font-family="HelveticaNeue" font-size="26.0" fill="#747373" transform="matrix(1.00, 0.00, -0.00, -1.00, 273.9, 334.0)">i</text><text xml:space="preserve" font-family="HelveticaNeue" font-size="26.0" fill="#747373" transform="matrix(1.00, 0.00, -0.00, -1.00, 279.7, 334.0)">t</text><text xml:space="preserve" font-family="HelveticaNeue" font-size="26.0" fill="#747373" transform="matrix(1.00, 0.00, -0.00, -1.00, 287.9, 334.0)">?</text></g></svg>