<?xml version="1.0" encoding="UTF-8" standalone="no"?><svg xmlns="http://www.w3.org/2000/svg" xmlns:xlink="http://www.w3.org/1999/xlink" clip-rule="evenodd" stroke-miterlimit="4.00" viewBox="0 0 799 72"><desc>SVG generated by Keynote</desc><defs></defs><g transform="matrix(1.00, 0.00, -0.00, -1.00, 0.0, 72.0)"><g><clipPath id="clip-87"><path d="M 692.7 0.3 L 798.1 0.3 L 798.1 71.9 L 692.7 71.9 Z M 692.7 0.3 "></path></clipPath><g clip-path="url(#clip-87)"><path d="M 0.0 0.0 L 102.4 0.0 L 102.4 68.6 L 0.0 68.6 Z M 0.0 0.0 " fill="none" stroke="#FF0000" stroke-width="1.00" stroke-linejoin="round" transform="matrix(1.00, 0.00, 0.00, -1.00, 694.2, 70.4)"></path></g></g><g><clipPath id="clip-88"><path d="M 0.6 37.9 L 686.7 37.9 L 686.7 59.0 L 0.6 59.0 Z M 0.6 37.9 "></path></clipPath><g clip-path="url(#clip-88)"><path d="M 684.1 0.0 L 675.5 0.0 L 0.0 18.1 " fill="none" stroke="#FF0000" stroke-width="1.00" stroke-linejoin="round" transform="matrix(1.00, 0.00, 0.00, -1.00, 1.6, 57.5)"></path></g></g><g><clipPath id="clip-89"><path d="M 693.2 3.6 L 797.6 3.6 L 797.6 63.8 L 693.2 63.8 Z M 693.2 3.6 "></path></clipPath><g clip-path="url(#clip-89)"><text xml:space="preserve" font-family="Arial-BoldMT" font-weight="bold" font-size="18.0" fill="#000000" transform="matrix(1.00, 0.00, -0.00, -1.00, 729.0, 42.0)">T</text><text xml:space="preserve" font-family="Arial-BoldMT" font-weight="bold" font-size="18.0" fill="#000000" transform="matrix(1.00, 0.00, -0.00, -1.00, 740.0, 42.0)">h</text><text xml:space="preserve" font-family="Arial-BoldMT" font-weight="bold" font-size="18.0" fill="#000000" transform="matrix(1.00, 0.00, -0.00, -1.00, 751.0, 42.0)">e</text><text xml:space="preserve" font-family="Arial-BoldMT" font-weight="bold" font-size="18.0" fill="#000000" transform="matrix(1.00, 0.00, -0.00, -1.00, 761.0, 42.0)"> </text><text xml:space="preserve" font-family="Arial-BoldMT" font-weight="bold" font-size="18.0" fill="#000000" transform="matrix(1.00, 0.00, -0.00, -1.00, 711.0, 17.0)">S</text><text xml:space="preserve" font-family="Arial-BoldMT" font-weight="bold" font-size="18.0" fill="#000000" transform="matrix(1.00, 0.00, -0.00, -1.00, 723.0, 17.0)">c</text><text xml:space="preserve" font-family="Arial-BoldMT" font-weight="bold" font-size="18.0" fill="#000000" transform="matrix(1.00, 0.00, -0.00, -1.00, 733.0, 17.0)">h</text><text xml:space="preserve" font-family="Arial-BoldMT" font-weight="bold" font-size="18.0" fill="#000000" transform="matrix(1.00, 0.00, -0.00, -1.00, 744.0, 17.0)">e</text><text xml:space="preserve" font-family="Arial-BoldMT" font-weight="bold" font-size="18.0" fill="#000000" transform="matrix(1.00, 0.00, -0.00, -1.00, 754.0, 17.0)">m</text><text xml:space="preserve" font-family="Arial-BoldMT" font-weight="bold" font-size="18.0" fill="#000000" transform="matrix(1.00, 0.00, -0.00, -1.00, 770.0, 17.0)">a</text></g></g></g></svg>